<svg width="18" height="18" viewBox="0 0 18 18" fill="none" xmlns="http://www.w3.org/2000/svg">
<g clip-path="url(#clip0)">
<path d="M17.8086 7.31503L9.27631 1.06787C9.11177 0.947428 8.88825 0.947428 8.72379 1.06787L0.191446 7.31503C-0.0169601 7.46765 -0.0622413 7.76029 0.0903718 7.96869C0.242985 8.1771 0.53566 8.22231 0.744031 8.06977L9.00001 2.02486L17.256 8.06973C17.3392 8.13073 17.436 8.16008 17.5319 8.16008C17.6759 8.16008 17.818 8.09382 17.9096 7.96866C18.0623 7.76029 18.017 7.46765 17.8086 7.31503Z" fill="white"/>
<path d="M15.5474 8.17529C15.2892 8.17529 15.0798 8.38468 15.0798 8.64298V16.0873H11.3384V12.0237C11.3384 10.7342 10.2892 9.68511 8.99977 9.68511C7.71031 9.68511 6.66118 10.7342 6.66118 12.0237V16.0873H2.91974V8.64301C2.91974 8.38472 2.71032 8.17533 2.45206 8.17533C2.1938 8.17533 1.98438 8.38472 1.98438 8.64301V16.555C1.98438 16.8133 2.1938 17.0227 2.45206 17.0227H7.12886C7.37481 17.0227 7.57608 16.8327 7.59472 16.5915C7.59584 16.5805 7.59654 16.5686 7.59654 16.555V12.0237C7.59654 11.25 8.22602 10.6205 8.99977 10.6205C9.77352 10.6205 10.403 11.25 10.403 12.0237V16.555C10.403 16.5685 10.4037 16.5802 10.4048 16.591C10.4232 16.8324 10.6246 17.0227 10.8707 17.0227H15.5475C15.8058 17.0227 16.0152 16.8133 16.0152 16.555V8.64301C16.0151 8.38468 15.8057 8.17529 15.5474 8.17529Z" fill="white"/>
</g>
<defs>
<clipPath id="clip0">
<rect width="18" height="18" fill="white"/>
</clipPath>
</defs>
</svg>