<svg width="107" height="28" viewBox="0 0 107 28" fill="none" xmlns="http://www.w3.org/2000/svg">
<g clip-path="url(#clip0)">
<path d="M37.2998 7.3999H41.8998L43.5998 16.1999L45.9998 7.3999H50.5998L52.9998 16.1999L54.6998 7.3999H59.2998L55.7998 23.1999H50.9998L48.1998 13.2999L45.3998 23.1999H40.5998L37.2998 7.3999Z" fill="white"/>
<path d="M60.8999 7.3999H73.9999V10.7999H65.7999V13.2999H73.3999V16.4999H65.7999V19.5999H74.1999V23.1999H60.8999V7.3999Z" fill="white"/>
<path d="M76.8997 7.3999H85.9997C87.4997 7.3999 88.6997 7.7999 89.4997 8.4999C90.2997 9.1999 90.6997 10.1999 90.6997 11.2999C90.6997 12.1999 90.3997 12.9999 89.7997 13.6999C89.3997 14.0999 88.7997 14.4999 88.0997 14.7999C89.1997 15.0999 90.0997 15.4999 90.5997 16.1999C91.0997 16.8999 91.3997 17.6999 91.3997 18.6999C91.3997 19.4999 91.1997 20.2999 90.7997 20.8999C90.3997 21.5999 89.8997 22.0999 89.1997 22.4999C88.7997 22.6999 88.1997 22.8999 87.2997 22.9999C86.1997 23.0999 85.4997 23.1999 85.0997 23.1999H76.6997V7.3999H76.8997ZM81.7997 13.5999H83.8997C84.6997 13.5999 85.1997 13.4999 85.4997 13.1999C85.7997 12.8999 85.8997 12.5999 85.8997 12.0999C85.8997 11.5999 85.7997 11.2999 85.4997 10.9999C85.1997 10.6999 84.6997 10.5999 83.8997 10.5999H81.6997V13.5999H81.7997ZM81.7997 19.7999H84.2997C85.0997 19.7999 85.6997 19.6999 86.0997 19.3999C86.4997 19.0999 86.5997 18.6999 86.5997 18.1999C86.5997 17.6999 86.3997 17.3999 86.0997 17.0999C85.7997 16.7999 85.1997 16.6999 84.2997 16.6999H81.7997V19.7999Z" fill="white"/>
<path d="M106.1 23.0999H93C93.2 21.7999 93.6 20.5999 94.4 19.3999C95.2 18.2999 96.6 16.8999 98.7 15.2999C100 14.2999 100.8 13.5999 101.2 13.0999C101.6 12.5999 101.7 12.0999 101.7 11.6999C101.7 11.1999 101.5 10.7999 101.2 10.4999C100.9 10.1999 100.4 9.9999 99.9 9.9999C99.3 9.9999 98.9 10.1999 98.5 10.4999C98.1 10.8999 97.9 11.4999 97.8 12.3999L93.4 11.9999C93.6 10.7999 93.9 9.7999 94.3 9.0999C94.8 8.3999 95.4 7.8999 96.2 7.4999C97 7.0999 98.2 6.8999 99.7 6.8999C101.2 6.8999 102.4 7.0999 103.3 7.3999C104.2 7.6999 104.8 8.2999 105.3 8.9999C105.8 9.6999 106 10.4999 106 11.3999C106 12.3999 105.7 13.2999 105.2 14.1999C104.6 15.0999 103.6 15.9999 102.1 17.0999C101.2 17.6999 100.6 18.0999 100.3 18.3999C100 18.6999 99.7 18.9999 99.3 19.3999H106.1V23.0999V23.0999Z" fill="white"/>
<path d="M5.4999 25.1C6.9999 25.1 8.0999 23.9 8.0999 22.5C8.0999 21.8 7.8999 21.2 7.3999 20.7L9.4999 16.7C9.6999 16.8 9.9999 16.8 10.1999 16.8C10.7999 16.8 11.3999 16.6 11.8999 16.2L14.7999 18.6C14.6999 18.9 14.5999 19.3 14.5999 19.6C14.5999 21.1 15.7999 22.2 17.1999 22.2C18.6999 22.2 19.7999 21 19.7999 19.6C19.7999 18.9 19.4999 18.2 18.8999 17.6L22.1999 6.2C23.6999 6.2 24.7999 5 24.7999 3.6C24.7999 2.1 23.5999 1 22.1999 1C20.7999 1 19.5999 2 19.5999 3.5C19.5999 4.4 20.0999 5.2 20.7999 5.7L17.5999 16.9C17.4999 16.9 17.2999 16.9 17.1999 16.9C16.6999 16.9 16.1999 17.1 15.6999 17.4L12.6999 14.9C12.7999 14.6 12.7999 14.4 12.7999 14.1C12.7999 12.6 11.5999 11.5 10.1999 11.5C8.7999 11.5 7.5999 12.6 7.5999 14C7.5999 14.6 7.7999 15.3 8.2999 15.7L6.1999 19.8C5.9999 19.7 5.7999 19.7 5.4999 19.7C3.9999 19.7 2.8999 20.9 2.8999 22.3C2.8999 23.7 3.9999 25.1 5.4999 25.1ZM4.2999 22.4C4.2999 21.8 4.7999 21.3 5.3999 21.3C5.9999 21.3 6.4999 21.8 6.4999 22.4C6.4999 23 5.9999 23.5 5.3999 23.5C4.7999 23.6 4.2999 23 4.2999 22.4ZM9.0999 14C9.0999 13.4 9.5999 12.9 10.1999 12.9C10.7999 12.9 11.2999 13.4 11.2999 14C11.2999 14.6 10.7999 15.1 10.1999 15.1C9.5999 15.1 9.0999 14.7 9.0999 14ZM16.0999 19.5C16.0999 18.9 16.5999 18.4 17.1999 18.4C17.7999 18.4 18.2999 18.9 18.2999 19.5C18.2999 20.1 17.7999 20.6 17.1999 20.6C16.5999 20.7 16.0999 20.2 16.0999 19.5ZM21.0999 3.5C21.0999 2.9 21.5999 2.4 22.1999 2.4C22.7999 2.4 23.2999 2.9 23.2999 3.5C23.2999 4.1 22.7999 4.6 22.1999 4.6C21.5999 4.6 21.0999 4.1 21.0999 3.5Z" fill="#C2242B"/>
<path d="M28.5 26.4H28.3L23.8 24.6L23.4 24.4V24.8V26.4H1.5V5.3H3.2H3.6L3.4 4.9L1.5 0.2V0H1.3H1.2H0.2H0V0.3V27.6V27.9H0.3H28.5H28.7V27.6V26.6V26.4H28.5Z" fill="#C2242B"/>
</g>
<defs>
<clipPath id="clip0">
<rect width="106.1" height="27.9" fill="white"/>
</clipPath>
</defs>
</svg>