<svg width="60" height="52" fill="none" xmlns="http://www.w3.org/2000/svg"><path d="M.574 33.947C2.618 54.205 34.84 53.534 49.887 49.915c9.664-2.324 10.265-6.969 10.09-16.875-.112-6.385.404-23.288-3.75-28.608-6.38-8.172-12.097-3.046-19.999-.379C26.093 7.475 22.143 1.366 12.5 1.548-1.637 1.815-.482 23.49.574 33.947z" fill="url(#paint0_linear)"/><path fill="#383838" d="M33.107 35.06h.957v.191h-.957z"/><path d="M13.297 6.563h44.406c.992 0 1.797.804 1.797 1.796v41.344c0 .992-.804 1.797-1.797 1.797H13.297a1.797 1.797 0 01-1.797-1.797V8.36c0-.992.805-1.796 1.797-1.796z" fill="#CED1D2" stroke="#000"/><path d="M13.297 9.89a.765.765 0 100-1.53.765.765 0 000 1.53zM16.36 9.89a.765.765 0 100-1.531.765.765 0 000 1.53zM19.422 9.89a.765.765 0 100-1.531.765.765 0 000 1.53z" fill="#000"/><path d="M13.297 12.688h44.406c.147 0 .266.118.266.265v36.75a.266.266 0 01-.266.266H13.297a.266.266 0 01-.266-.266v-36.75c0-.146.12-.265.266-.265zM22.484 8.86h35.22a.266.266 0 010 .53h-35.22a.266.266 0 010-.53z" fill="#fff" stroke="#000"/><path fill-rule="evenodd" clip-rule="evenodd" d="M58 26.706l-5.989 5.992-12.078-10.504a1.645 1.645 0 00-2.402.247l-9.61 12.825-11.108 4.758a1.646 1.646 0 00.642 3.161c.22 0 .439-.045.642-.132l11.518-4.939c.268-.113.5-.295.675-.527l8.787-11.87 11.831 10.356c.634.595 1.621.595 2.255 0L58 31.233v-4.527z" fill="#000"/><path d="M51.947 38.397a3.299 3.299 0 100-6.598 3.299 3.299 0 000 6.598zM38.748 26.847a3.299 3.299 0 100-6.598 3.299 3.299 0 000 6.598zM28.849 40.047a3.299 3.299 0 100-6.598 3.299 3.299 0 000 6.598zM17.299 44.997a3.299 3.299 0 100-6.598 3.299 3.299 0 000 6.598z" fill="#EE2C39"/><defs><linearGradient id="paint0_linear" x1="0" y1="25.948" x2="60" y2="25.948" gradientUnits="userSpaceOnUse"><stop stop-color="#F47070"/><stop offset="1" stop-color="#C4262E"/></linearGradient></defs></svg>