<svg width="60" height="52" viewBox="0 0 60 52" fill="none" xmlns="http://www.w3.org/2000/svg">
<path d="M0.57377 33.9469C2.61845 54.2052 34.8414 53.5339 49.8867 49.9155C59.5511 47.5912 60.1518 42.9461 59.9772 33.0404C59.8647 26.6553 60.3807 9.75232 56.2268 4.43225C49.8461 -3.73958 44.1297 1.38561 36.228 4.05315C26.0927 7.47467 22.1434 1.36581 12.5004 1.54768C-1.6372 1.81463 -0.481503 23.4913 0.57377 33.9469Z" fill="url(#paint0_linear)"/>
<rect x="33.1074" y="35.0605" width="0.957031" height="0.191406" fill="#383838"/>
<path d="M13.2969 6.5625H57.7031C58.6954 6.5625 59.5 7.36699 59.5 8.35938V49.7031C59.5 50.6954 58.6955 51.5 57.7031 51.5H13.2969C12.3045 51.5 11.5 50.6955 11.5 49.7031V8.35938C11.5 7.36697 12.3045 6.5625 13.2969 6.5625Z" fill="#CED1D2" stroke="black"/>
<path d="M13.2972 9.89073C13.7199 9.89073 14.0626 9.54803 14.0626 9.1253C14.0626 8.70256 13.7199 8.35986 13.2972 8.35986C12.8744 8.35986 12.5317 8.70256 12.5317 9.1253C12.5317 9.54803 12.8744 9.89073 13.2972 9.89073Z" fill="black"/>
<path d="M16.3597 9.88975C16.7824 9.88975 17.1251 9.54706 17.1251 9.12432C17.1251 8.70158 16.7824 8.35889 16.3597 8.35889C15.9369 8.35889 15.5942 8.70158 15.5942 9.12432C15.5942 9.54706 15.9369 9.88975 16.3597 9.88975Z" fill="black"/>
<path d="M19.4222 9.88975C19.8449 9.88975 20.1876 9.54706 20.1876 9.12432C20.1876 8.70158 19.8449 8.35889 19.4222 8.35889C18.9994 8.35889 18.6567 8.70158 18.6567 9.12432C18.6567 9.54706 18.9994 9.88975 19.4222 9.88975Z" fill="black"/>
<path d="M13.2969 12.6875H57.7031C57.8498 12.6875 57.9688 12.8065 57.9688 12.9531V49.7031C57.9688 49.8498 57.8498 49.9688 57.7031 49.9688H13.2969C13.1502 49.9688 13.0312 49.8498 13.0312 49.7031V12.9531C13.0312 12.8065 13.1502 12.6875 13.2969 12.6875Z" fill="white" stroke="black"/>
<path d="M22.4844 8.85938H57.7031C57.8498 8.85938 57.9688 8.97833 57.9688 9.125C57.9688 9.27167 57.8498 9.39062 57.7031 9.39062H22.4844C22.3377 9.39062 22.2188 9.27167 22.2188 9.125C22.2188 8.97833 22.3377 8.85938 22.4844 8.85938Z" fill="white" stroke="black"/>
<path d="M44 33L46.5522 42L48.8359 39.75L50.9851 42L53 40.0148L50.8508 37.7648L53 35.5147L44 33Z" fill="#C4262E"/>
<path d="M28.5058 41.7224C29.7068 41.7224 30.6804 40.7488 30.6804 39.5478C30.6804 38.3469 29.7068 37.3733 28.5058 37.3733C27.3049 37.3733 26.3313 38.3469 26.3313 39.5478C26.3313 40.7488 27.3049 41.7224 28.5058 41.7224Z" fill="black"/>
<path d="M36.5832 41.7224C37.7842 41.7224 38.7578 40.7488 38.7578 39.5478C38.7578 38.3469 37.7842 37.3733 36.5832 37.3733C35.3823 37.3733 34.4087 38.3469 34.4087 39.5478C34.4087 40.7488 35.3823 41.7224 36.5832 41.7224Z" fill="black"/>
<path d="M24.5 31H38.5V22H21.5L24.5 31Z" fill="#C4262E"/>
<path d="M25.7095 34.2663L25.0881 32.0918H39.3783V21.2188H22.2922L21.3601 17.1802H16.3896V19.044H20.1176L24.467 36.1302H40V34.2663H25.7095ZM37.5145 22.772V29.9173H24.7774L22.9135 22.772H37.5145Z" fill="black"/>
<defs>
<linearGradient id="paint0_linear" x1="2.01551e-05" y1="25.9478" x2="60" y2="25.9478" gradientUnits="userSpaceOnUse">
<stop stop-color="#F47070"/>
<stop offset="1" stop-color="#C4262E"/>
</linearGradient>
</defs>
</svg>
