<svg width="60" height="52" viewBox="0 0 60 52" fill="none" xmlns="http://www.w3.org/2000/svg">
<path d="M0.57377 33.9469C2.61845 54.2052 34.8414 53.5339 49.8867 49.9155C59.5511 47.5912 60.1518 42.9461 59.9772 33.0404C59.8647 26.6553 60.3807 9.75232 56.2268 4.43225C49.8461 -3.73958 44.1297 1.38561 36.228 4.05315C26.0927 7.47467 22.1434 1.36581 12.5004 1.54768C-1.6372 1.81463 -0.481503 23.4913 0.57377 33.9469Z" fill="url(#paint0_linear)"/>
<rect x="33.1074" y="35.0605" width="0.957031" height="0.191406" fill="#383838"/>
<path d="M13.2969 6.5625H57.7031C58.6954 6.5625 59.5 7.36699 59.5 8.35938V49.7031C59.5 50.6954 58.6955 51.5 57.7031 51.5H13.2969C12.3045 51.5 11.5 50.6955 11.5 49.7031V8.35938C11.5 7.36697 12.3045 6.5625 13.2969 6.5625Z" fill="#CED1D2" stroke="black"/>
<path d="M13.2972 9.89073C13.7199 9.89073 14.0626 9.54803 14.0626 9.1253C14.0626 8.70256 13.7199 8.35986 13.2972 8.35986C12.8744 8.35986 12.5317 8.70256 12.5317 9.1253C12.5317 9.54803 12.8744 9.89073 13.2972 9.89073Z" fill="black"/>
<path d="M16.3597 9.88975C16.7824 9.88975 17.1251 9.54706 17.1251 9.12432C17.1251 8.70158 16.7824 8.35889 16.3597 8.35889C15.9369 8.35889 15.5942 8.70158 15.5942 9.12432C15.5942 9.54706 15.9369 9.88975 16.3597 9.88975Z" fill="black"/>
<path d="M19.4222 9.88975C19.8449 9.88975 20.1876 9.54706 20.1876 9.12432C20.1876 8.70158 19.8449 8.35889 19.4222 8.35889C18.9994 8.35889 18.6567 8.70158 18.6567 9.12432C18.6567 9.54706 18.9994 9.88975 19.4222 9.88975Z" fill="black"/>
<path d="M13.2969 12.6875H57.7031C57.8498 12.6875 57.9688 12.8065 57.9688 12.9531V49.7031C57.9688 49.8498 57.8498 49.9688 57.7031 49.9688H13.2969C13.1502 49.9688 13.0312 49.8498 13.0312 49.7031V12.9531C13.0312 12.8065 13.1502 12.6875 13.2969 12.6875Z" fill="white" stroke="black"/>
<path d="M22.4844 8.85938H57.7031C57.8498 8.85938 57.9688 8.97833 57.9688 9.125C57.9688 9.27167 57.8498 9.39062 57.7031 9.39062H22.4844C22.3377 9.39062 22.2188 9.27167 22.2188 9.125C22.2188 8.97833 22.3377 8.85938 22.4844 8.85938Z" fill="white" stroke="black"/>
<path d="M43.375 25C43.375 29.114 39.8223 32.5 35.375 32.5C30.9277 32.5 27.375 29.114 27.375 25C27.375 20.886 30.9277 17.5 35.375 17.5C39.8223 17.5 43.375 20.886 43.375 25Z" fill="#C4262E" stroke="black"/>
<path d="M41.875 30.2783C41.729 29.5879 41.2415 28.9991 40.5557 28.6852L38.3514 27.4745C38.1015 27.3367 37.8331 27.2298 37.553 27.1559V26.232C38.8992 25.1322 39.019 23.239 37.8207 22.0036C36.6225 20.7682 34.5599 20.6581 33.2139 21.7579C31.8677 22.8577 31.7479 24.7508 32.9462 25.9862C33.0301 26.0729 33.1195 26.1547 33.2139 26.232V27.1241C32.9338 27.1979 32.6654 27.3051 32.4155 27.4427L30.1941 28.6534C29.5085 28.9674 29.021 29.5562 28.875 30.2464C31.9534 33.5488 37.366 33.9355 40.9642 31.1098C41.2899 30.8542 41.5943 30.5762 41.875 30.2783Z" fill="white"/>
<path d="M25.6339 36.6025H45.2411C46.1434 36.6025 46.875 37.3341 46.875 38.2365C46.875 39.1388 46.1434 39.8704 45.2411 39.8704H25.6339C24.7316 39.8704 24 39.1388 24 38.2365C24 37.3341 24.7316 36.6025 25.6339 36.6025Z" fill="black"/>
<path d="M30.536 43.1382H40.3396C41.2419 43.1382 41.9737 43.8698 41.9737 44.7721C41.9737 45.6744 41.2421 46.406 40.3396 46.406H30.536C29.6337 46.406 28.9019 45.6744 28.9019 44.7721C28.9021 43.8698 29.6337 43.1382 30.536 43.1382Z" fill="black"/>
<path d="M43.375 25C43.375 29.114 39.8223 32.5 35.375 32.5C30.9277 32.5 27.375 29.114 27.375 25C27.375 20.886 30.9277 17.5 35.375 17.5C39.8223 17.5 43.375 20.886 43.375 25Z" stroke="black"/>
<defs>
<linearGradient id="paint0_linear" x1="2.01551e-05" y1="25.9478" x2="60" y2="25.9478" gradientUnits="userSpaceOnUse">
<stop stop-color="#F47070"/>
<stop offset="1" stop-color="#C4262E"/>
</linearGradient>
</defs>
</svg>
