<svg width="60" height="52" viewBox="0 0 60 52" fill="none" xmlns="http://www.w3.org/2000/svg">
<path d="M0.57377 33.9469C2.61845 54.2052 34.8414 53.5339 49.8867 49.9155C59.5511 47.5912 60.1518 42.9461 59.9772 33.0404C59.8647 26.6553 60.3807 9.75232 56.2268 4.43225C49.8461 -3.73958 44.1297 1.38561 36.228 4.05315C26.0927 7.47467 22.1434 1.36581 12.5004 1.54768C-1.6372 1.81463 -0.481503 23.4913 0.57377 33.9469Z" fill="url(#paint0_linear)"/>
<rect x="33.1074" y="35.0605" width="0.957031" height="0.191406" fill="#383838"/>
<path d="M13.2969 6.5625H57.7031C58.6954 6.5625 59.5 7.36699 59.5 8.35938V49.7031C59.5 50.6954 58.6955 51.5 57.7031 51.5H13.2969C12.3045 51.5 11.5 50.6955 11.5 49.7031V8.35938C11.5 7.36697 12.3045 6.5625 13.2969 6.5625Z" fill="#CED1D2" stroke="black"/>
<path d="M13.2972 9.89073C13.7199 9.89073 14.0626 9.54803 14.0626 9.1253C14.0626 8.70256 13.7199 8.35986 13.2972 8.35986C12.8744 8.35986 12.5317 8.70256 12.5317 9.1253C12.5317 9.54803 12.8744 9.89073 13.2972 9.89073Z" fill="black"/>
<path d="M16.3597 9.88975C16.7824 9.88975 17.1251 9.54706 17.1251 9.12432C17.1251 8.70158 16.7824 8.35889 16.3597 8.35889C15.9369 8.35889 15.5942 8.70158 15.5942 9.12432C15.5942 9.54706 15.9369 9.88975 16.3597 9.88975Z" fill="black"/>
<path d="M19.4222 9.88975C19.8449 9.88975 20.1876 9.54706 20.1876 9.12432C20.1876 8.70158 19.8449 8.35889 19.4222 8.35889C18.9994 8.35889 18.6567 8.70158 18.6567 9.12432C18.6567 9.54706 18.9994 9.88975 19.4222 9.88975Z" fill="black"/>
<path d="M13.2969 12.6875H57.7031C57.8498 12.6875 57.9688 12.8065 57.9688 12.9531V49.7031C57.9688 49.8498 57.8498 49.9688 57.7031 49.9688H13.2969C13.1502 49.9688 13.0312 49.8498 13.0312 49.7031V12.9531C13.0312 12.8065 13.1502 12.6875 13.2969 12.6875Z" fill="white" stroke="black"/>
<path d="M22.4844 8.85938H57.7031C57.8498 8.85938 57.9688 8.97833 57.9688 9.125C57.9688 9.27167 57.8498 9.39062 57.7031 9.39062H22.4844C22.3377 9.39062 22.2188 9.27167 22.2188 9.125C22.2188 8.97833 22.3377 8.85938 22.4844 8.85938Z" fill="white" stroke="black"/>
<path d="M18.5 20H22.5C22.7761 20 23 20.2239 23 20.5V24.5C23 24.7761 22.7761 25 22.5 25H18.5C18.2239 25 18 24.7761 18 24.5V20.5C18 20.2239 18.2239 20 18.5 20Z" fill="#C4262E"/>
<path d="M27.591 19.8438H51.3398C51.8442 19.8438 52.2532 20.2527 52.2532 20.7573C52.2532 21.2617 51.8442 21.6707 51.3398 21.6707H27.591C27.0866 21.6707 26.6775 21.2617 26.6775 20.7573C26.6775 20.2527 27.0865 19.8438 27.591 19.8438Z" fill="black"/>
<path d="M41.2921 24.4108C41.2921 24.9153 40.8831 25.3243 40.3786 25.3243H27.591C27.0866 25.3243 26.6775 24.9153 26.6775 24.4108C26.6775 23.9064 27.0865 23.4973 27.591 23.4973H40.3788C40.8831 23.4973 41.2921 23.9063 41.2921 24.4108Z" fill="black"/>
<path d="M18.5 29H22.5C22.7761 29 23 29.1791 23 29.4V32.6C23 32.8209 22.7761 33 22.5 33H18.5C18.2239 33 18 32.8209 18 32.6V29.4C18 29.1791 18.2239 29 18.5 29Z" fill="#C4262E"/>
<path d="M27.591 28.0645H51.3398C51.8442 28.0645 52.2532 28.4734 52.2532 28.9779C52.2532 29.4823 51.8442 29.8914 51.3398 29.8914H27.591C27.0866 29.8914 26.6775 29.4824 26.6775 28.9779C26.6775 28.4733 27.0865 28.0645 27.591 28.0645Z" fill="black"/>
<path d="M41.2921 32.6315C41.2921 33.136 40.8831 33.5451 40.3786 33.5451H27.591C27.0866 33.5451 26.6775 33.1361 26.6775 32.6315C26.6775 32.1271 27.0865 31.718 27.591 31.718H40.3788C40.8831 31.7182 41.2921 32.1271 41.2921 32.6315Z" fill="black"/>
<path d="M18.5 37H22.5C22.7761 37 23 37.2239 23 37.5V41.5C23 41.7761 22.7761 42 22.5 42H18.5C18.2239 42 18 41.7761 18 41.5V37.5C18 37.2239 18.2239 37 18.5 37Z" fill="#C4262E"/>
<path d="M27.591 36.2852H51.3398C51.8442 36.2852 52.2532 36.6941 52.2532 37.1986C52.2532 37.703 51.8442 38.112 51.3398 38.112H27.591C27.0866 38.112 26.6775 37.703 26.6775 37.1986C26.6775 36.6941 27.0865 36.2852 27.591 36.2852Z" fill="black"/>
<path d="M41.2921 40.8521C41.2921 41.3566 40.8831 41.7655 40.3786 41.7655H27.591C27.0866 41.7655 26.6775 41.3566 26.6775 40.8521C26.6775 40.3477 27.0865 39.9387 27.591 39.9387H40.3788C40.8831 39.9387 41.2921 40.3477 41.2921 40.8521Z" fill="black"/>
<defs>
<linearGradient id="paint0_linear" x1="2.01551e-05" y1="25.9478" x2="60" y2="25.9478" gradientUnits="userSpaceOnUse">
<stop stop-color="#F47070"/>
<stop offset="1" stop-color="#C4262E"/>
</linearGradient>
</defs>
</svg>
