<svg width="60" height="52" viewBox="0 0 60 52" fill="none" xmlns="http://www.w3.org/2000/svg">
<path d="M0.57377 33.9469C2.61845 54.2052 34.8414 53.5339 49.8867 49.9155C59.5511 47.5912 60.1518 42.9461 59.9772 33.0404C59.8647 26.6553 60.3807 9.75232 56.2268 4.43225C49.8461 -3.73958 44.1297 1.38561 36.228 4.05315C26.0927 7.47467 22.1434 1.36581 12.5004 1.54768C-1.6372 1.81463 -0.481503 23.4913 0.57377 33.9469Z" fill="url(#paint0_linear)"/>
<rect x="33.1074" y="35.0605" width="0.957031" height="0.191406" fill="#383838"/>
<path d="M13.2969 6.5625H57.7031C58.6954 6.5625 59.5 7.36699 59.5 8.35938V49.7031C59.5 50.6954 58.6955 51.5 57.7031 51.5H13.2969C12.3045 51.5 11.5 50.6955 11.5 49.7031V8.35938C11.5 7.36697 12.3045 6.5625 13.2969 6.5625Z" fill="#CED1D2" stroke="black"/>
<path d="M13.2972 9.89073C13.7199 9.89073 14.0626 9.54803 14.0626 9.1253C14.0626 8.70256 13.7199 8.35986 13.2972 8.35986C12.8744 8.35986 12.5317 8.70256 12.5317 9.1253C12.5317 9.54803 12.8744 9.89073 13.2972 9.89073Z" fill="black"/>
<path d="M16.3597 9.88975C16.7824 9.88975 17.1251 9.54706 17.1251 9.12432C17.1251 8.70158 16.7824 8.35889 16.3597 8.35889C15.9369 8.35889 15.5942 8.70158 15.5942 9.12432C15.5942 9.54706 15.9369 9.88975 16.3597 9.88975Z" fill="black"/>
<path d="M19.4222 9.88975C19.8449 9.88975 20.1876 9.54706 20.1876 9.12432C20.1876 8.70158 19.8449 8.35889 19.4222 8.35889C18.9994 8.35889 18.6567 8.70158 18.6567 9.12432C18.6567 9.54706 18.9994 9.88975 19.4222 9.88975Z" fill="black"/>
<path d="M13.2969 12.6875H57.7031C57.8498 12.6875 57.9688 12.8065 57.9688 12.9531V49.7031C57.9688 49.8498 57.8498 49.9688 57.7031 49.9688H13.2969C13.1502 49.9688 13.0312 49.8498 13.0312 49.7031V12.9531C13.0312 12.8065 13.1502 12.6875 13.2969 12.6875Z" fill="white" stroke="black"/>
<path d="M22.4844 8.85938H57.7031C57.8498 8.85938 57.9688 8.97833 57.9688 9.125C57.9688 9.27167 57.8498 9.39062 57.7031 9.39062H22.4844C22.3377 9.39062 22.2188 9.27167 22.2188 9.125C22.2188 8.97833 22.3377 8.85938 22.4844 8.85938Z" fill="white" stroke="black"/>
<path d="M32 36L31.5 28L39 27V36L35.5 37L32 36Z" fill="#C4262E"/>
<path d="M52.7273 21.2318L53.7419 18.5258C53.789 18.4002 53.7933 18.2625 53.7542 18.1342C53.7151 18.0059 53.6347 17.894 53.5255 17.816C53.4164 17.7381 53.2845 17.6983 53.1504 17.7029C53.0164 17.7075 52.8875 17.7562 52.784 17.8415L43.0189 25.884C42.7522 26.1045 42.5535 26.3961 42.4459 26.7249C42.3382 27.0538 42.326 27.4065 42.4107 27.742C42.4654 27.9565 42.5266 28.1937 42.5859 28.4205C42.6302 28.5915 42.62 28.7721 42.5569 28.937C42.4937 29.102 42.3807 29.2431 42.2335 29.3408L42.2095 29.3568C42.0534 29.4609 41.8667 29.5093 41.6797 29.4941C41.4927 29.4789 41.3163 29.401 41.1791 29.273L39.7281 27.208L39.3796 25.465C39.3197 25.17 39.3189 24.8659 39.3774 24.5706C39.4358 24.2752 39.5522 23.9944 39.7199 23.7443C40.0032 23.3208 40.419 23.0033 40.9021 22.8414C41.1062 22.7727 41.322 22.7452 41.5369 22.7604C41.7518 22.7757 41.9615 22.8335 42.1539 22.9303L43.7582 23.7324C43.8624 23.7845 43.9794 23.8056 44.0953 23.7933C44.2112 23.7809 44.3211 23.7356 44.412 23.6627C44.5028 23.5898 44.5709 23.4923 44.6081 23.3819C44.6453 23.2715 44.6501 23.1527 44.6219 23.0397L44.2309 21.4757C44.1038 20.9671 43.8237 20.5096 43.4285 20.1651L43.9153 17.7433C43.973 17.4514 43.9225 17.1485 43.7731 16.8912C43.6236 16.6339 43.3856 16.4398 43.1034 16.3454L42.2869 16.0711L42.2793 16.0686C42.2541 16.0606 42.2283 16.0545 42.2031 16.0474V15.2656C42.2031 15.104 42.1389 14.949 42.0246 14.8347C41.9103 14.7205 41.7553 14.6562 41.5937 14.6562C41.4321 14.6562 41.2771 14.7205 41.1628 14.8347C41.0485 14.949 40.9843 15.104 40.9843 15.2656V16.0471C40.9589 16.0542 40.9331 16.0603 40.9082 16.0683L40.9006 16.0708L40.0855 16.3447C39.803 16.4391 39.5646 16.6332 39.415 16.8907C39.2653 17.1482 39.2147 17.4514 39.2725 17.7436L39.6646 19.6944C39.3598 19.7681 39.0616 19.8667 38.7729 19.989L38.0012 18.8312L38.7623 16.5479C38.9093 16.1056 38.8819 15.6238 38.6858 15.2009C38.4897 14.778 38.1396 14.4459 37.707 14.2724L36.1101 13.6337V12.8281C36.1101 12.6665 36.0459 12.5115 35.9316 12.3972C35.8173 12.283 35.6623 12.2188 35.5007 12.2188C35.3391 12.2188 35.1841 12.283 35.0698 12.3972C34.9556 12.5115 34.8914 12.6665 34.8914 12.8281V13.6339L33.2932 14.2726C32.8606 14.4462 32.5105 14.7783 32.3144 15.2012C32.1183 15.624 32.0909 16.1058 32.2378 16.5481L32.999 18.8315L32.2272 19.9893C31.9386 19.8669 31.6403 19.7683 31.3356 19.6946L31.7278 17.7433C31.7856 17.4513 31.7351 17.1483 31.5856 16.891C31.4362 16.6336 31.1981 16.4395 30.9159 16.3451L30.0993 16.0708L30.0917 16.0683C30.0665 16.0602 30.0407 16.0542 30.0155 16.0471V15.2656C30.0155 15.104 29.9513 14.949 29.837 14.8347C29.7228 14.7205 29.5678 14.6562 29.4061 14.6562C29.2445 14.6562 29.0895 14.7205 28.9752 14.8347C28.861 14.949 28.7968 15.104 28.7968 15.2656V16.0471C28.7712 16.0542 28.7455 16.0603 28.7206 16.0683L28.713 16.0708L27.8979 16.3447C27.6154 16.439 27.377 16.6331 27.2274 16.8907C27.0777 17.1482 27.0271 17.4514 27.085 17.7436L27.5715 20.1648C27.1763 20.5093 26.8963 20.9668 26.7692 21.4754L26.3782 23.0393C26.3499 23.1524 26.3547 23.2712 26.3919 23.3816C26.4291 23.4921 26.4972 23.5895 26.5881 23.6624C26.679 23.7354 26.7889 23.7807 26.9048 23.793C27.0206 23.8054 27.1376 23.7842 27.2419 23.7321L28.8462 22.93C29.0386 22.8332 29.2483 22.7754 29.4632 22.7602C29.6781 22.7449 29.8938 22.7724 30.098 22.8411C30.5811 23.003 30.9969 23.3206 31.2801 23.7441C31.4478 23.9941 31.5643 24.275 31.6227 24.5703C31.6811 24.8657 31.6804 25.1697 31.6205 25.4647L31.272 27.2074L29.821 29.2724C29.6837 29.4005 29.5073 29.4785 29.3202 29.4937C29.1331 29.5089 28.9463 29.4604 28.7902 29.3562L28.7666 29.3405C28.6194 29.2428 28.5064 29.1017 28.4432 28.9368C28.3801 28.7718 28.3699 28.5913 28.4142 28.4203C28.4736 28.1935 28.5346 27.9563 28.5893 27.7417C28.674 27.4062 28.6618 27.0536 28.5542 26.7247C28.4465 26.3958 28.2478 26.1042 27.9811 25.8837L18.2149 17.8418C18.1114 17.7564 17.9825 17.7077 17.8485 17.703C17.7144 17.6984 17.5825 17.7381 17.4733 17.8161C17.3641 17.894 17.2837 18.0059 17.2446 18.1342C17.2054 18.2625 17.2097 18.4001 17.2567 18.5258L18.2713 21.2315C18.8423 22.7518 19.798 24.0979 21.0451 25.1382L21.3248 25.3712L18.5123 25.0197C18.3964 25.0052 18.2789 25.0243 18.1736 25.0747C18.0683 25.1251 17.9797 25.2046 17.9183 25.304C17.8569 25.4033 17.8254 25.5181 17.8274 25.6348C17.8294 25.7515 17.8649 25.8652 17.9296 25.9624C18.7907 27.2593 20.04 28.2507 21.4987 28.7945L21.9304 28.9564L18.9787 29.2843C18.852 29.2984 18.7329 29.3519 18.6382 29.4372C18.5435 29.5225 18.4779 29.6355 18.4507 29.76C18.4235 29.8846 18.4361 30.0145 18.4867 30.1316C18.5372 30.2486 18.6232 30.3469 18.7326 30.4125L19.8009 31.0538C21.0796 31.8225 22.4838 32.3599 23.949 32.6414C23.0162 33.2823 22.2141 34.0952 21.586 35.0366C21.5247 35.1284 21.4895 35.2351 21.4841 35.3454C21.4787 35.4556 21.5034 35.5652 21.5555 35.6625C21.6076 35.7599 21.6851 35.8412 21.7798 35.8979C21.8745 35.9546 21.9828 35.9845 22.0932 35.9844H22.3335C23.5164 35.9855 24.6842 35.7189 25.7494 35.2046V36.5938C25.7495 36.7143 25.7852 36.832 25.8522 36.9322C25.9191 37.0324 26.0143 37.1105 26.1256 37.1566C26.237 37.2027 26.3595 37.2148 26.4777 37.1913C26.5958 37.1678 26.7044 37.1098 26.7896 37.0246L28.1869 35.6274L28.9748 36.4152C29.0385 36.479 29.1156 36.5278 29.2005 36.5581C29.2854 36.5885 29.376 36.5996 29.4657 36.5907C29.5554 36.5818 29.642 36.5532 29.7193 36.5067C29.7966 36.4603 29.8627 36.3974 29.9127 36.3223L30.4554 35.5083C30.6444 35.2243 30.9162 35.0052 31.2338 34.8806V34.9727C31.2329 35.4575 31.0408 35.9224 30.6993 36.2664L30.2667 36.6991C29.7989 37.1643 29.4282 37.7177 29.1758 38.3273C28.9234 38.9368 28.7944 39.5903 28.7963 40.25C28.7964 40.3995 28.8514 40.5437 28.9509 40.6553C29.0504 40.7668 29.1874 40.8379 29.3359 40.855L28.986 41.5549L28.2253 41.7453L26.6704 40.0064C26.8808 39.6722 26.9773 39.2789 26.9453 38.8853C26.9133 38.4917 26.7546 38.119 26.4929 37.8232C26.2313 37.5274 25.8809 37.3244 25.4941 37.2445C25.1074 37.1647 24.7052 37.2123 24.3478 37.3803C23.9904 37.5483 23.6971 37.8276 23.5118 38.1764C23.3266 38.5251 23.2593 38.9245 23.3202 39.3147C23.381 39.7049 23.5667 40.0648 23.8494 40.3406C24.132 40.6164 24.4964 40.7931 24.888 40.8443C24.9672 40.8547 25.047 40.8599 25.1268 40.8599C25.3255 40.8594 25.5227 40.8262 25.7105 40.7616L26.8889 42.0793L26.8203 42.0965C26.7427 42.1159 26.6696 42.1504 26.6053 42.198C26.541 42.2457 26.4868 42.3055 26.4456 42.3742C26.3624 42.5128 26.3377 42.6787 26.3769 42.8355C26.4161 42.9923 26.516 43.1271 26.6546 43.2103C26.7932 43.2934 26.9592 43.3181 27.116 43.2789L27.8091 43.1057L28.3439 43.699C28.3975 43.7584 28.4623 43.8067 28.5345 43.8412C28.6068 43.8756 28.6851 43.8954 28.765 43.8996C28.8449 43.9037 28.9249 43.8921 29.0003 43.8653C29.0757 43.8386 29.1451 43.7972 29.2046 43.7436C29.264 43.69 29.3123 43.6253 29.3468 43.553C29.3812 43.4808 29.401 43.4025 29.4052 43.3225C29.4093 43.2426 29.3977 43.1627 29.3709 43.0872C29.3442 43.0118 29.3028 42.9424 29.2492 42.883L29.1482 42.7709L29.5538 42.6695C29.639 42.6482 29.7187 42.6087 29.7873 42.5537C29.8558 42.4986 29.9117 42.4295 29.951 42.3508L30.6963 40.8594H31.2338C31.347 40.8594 31.4579 40.8278 31.5542 40.7683C31.6504 40.7088 31.7282 40.6237 31.7788 40.5225C32.0329 40.0113 32.4097 39.571 32.8757 39.2413L33.049 39.5012L31.6116 42.0166C30.9652 43.149 30.6249 44.4304 30.6244 45.7344C30.6244 45.896 30.6886 46.051 30.8029 46.1653C30.9172 46.2795 31.0722 46.3438 31.2338 46.3438C31.3954 46.3438 31.5504 46.2795 31.6647 46.1653C31.779 46.051 31.8432 45.896 31.8432 45.7344C31.8436 44.6425 32.1286 43.5696 32.6699 42.6213L33.5022 41.1647L33.4292 41.3471C32.7716 42.9818 32.6494 44.783 33.0801 46.4915C33.0993 46.5695 33.1336 46.6429 33.1811 46.7075C33.2287 46.7722 33.2886 46.8268 33.3573 46.8682C33.426 46.9097 33.5023 46.9372 33.5816 46.9491C33.661 46.961 33.7419 46.9571 33.8198 46.9376C33.8977 46.9181 33.9709 46.8835 34.0353 46.8356C34.0998 46.7878 34.1541 46.7276 34.1952 46.6587C34.2364 46.5898 34.2635 46.5134 34.275 46.434C34.2866 46.3546 34.2823 46.2737 34.2625 46.1959C33.8944 44.7358 33.9989 43.1967 34.5608 41.7997L34.5685 41.7804L34.8899 42.2625V48.1719C34.8899 48.3335 34.9541 48.4885 35.0684 48.6028C35.1827 48.717 35.3377 48.7812 35.4993 48.7812C35.6609 48.7812 35.8159 48.717 35.9302 48.6028C36.0445 48.4885 36.1087 48.3335 36.1087 48.1719V42.2622L36.4301 41.7801L36.4377 41.7994C36.9997 43.1964 37.1041 44.7355 36.7361 46.1956C36.7163 46.2734 36.712 46.3543 36.7235 46.4337C36.7351 46.5131 36.7622 46.5895 36.8033 46.6584C36.8445 46.7273 36.8988 46.7874 36.9632 46.8353C37.0277 46.8832 37.1009 46.9178 37.1788 46.9373C37.2566 46.9568 37.3376 46.9607 37.4169 46.9487C37.4963 46.9368 37.5725 46.9094 37.6413 46.8679C37.71 46.8265 37.7699 46.7719 37.8174 46.7072C37.865 46.6426 37.8993 46.5692 37.9184 46.4912C38.3491 44.7826 38.2268 42.9815 37.5693 41.3468L37.4963 41.164L38.3287 42.6208C38.8702 43.5692 39.1552 44.6423 39.1557 45.7344C39.1557 45.896 39.2199 46.051 39.3342 46.1653C39.4484 46.2795 39.6034 46.3438 39.7651 46.3438C39.9267 46.3438 40.0817 46.2795 40.196 46.1653C40.3102 46.051 40.3744 45.896 40.3744 45.7344C40.3739 44.4304 40.0336 43.1491 39.3872 42.0166L37.9497 39.5012L38.123 39.2413C38.589 39.5711 38.9658 40.0113 39.2199 40.5225C39.2705 40.6237 39.3483 40.7089 39.4446 40.7684C39.5409 40.8279 39.6519 40.8594 39.7651 40.8594H40.3025L41.0482 42.3506C41.0875 42.4291 41.1432 42.4983 41.2117 42.5533C41.2802 42.6082 41.3598 42.6478 41.445 42.6691L43.0213 43.0646C43.1884 43.4421 43.4486 43.771 43.7776 44.0204C44.1066 44.2698 44.4935 44.4316 44.9022 44.4905C45.3108 44.5495 45.7277 44.5037 46.1138 44.3574C46.4998 44.2111 46.8424 43.9692 47.1094 43.6543C47.3764 43.3394 47.559 42.9618 47.6402 42.557C47.7213 42.1522 47.6983 41.7335 47.5733 41.34C47.4483 40.9465 47.2254 40.5912 46.9255 40.3075C46.6256 40.0237 46.2586 39.8208 45.8588 39.7177V39.0312C45.8588 38.8696 45.7946 38.7146 45.6803 38.6004C45.566 38.4861 45.4111 38.4219 45.2494 38.4219C45.0878 38.4219 44.9328 38.4861 44.8185 38.6004C44.7043 38.7146 44.6401 38.8696 44.6401 39.0312V39.7177C44.1699 39.8401 43.7469 40.0998 43.4251 40.4638C43.1033 40.8277 42.8972 41.2793 42.8333 41.7609L42.013 41.5552L41.6627 40.8551C41.8112 40.8381 41.9483 40.767 42.0479 40.6554C42.1474 40.5438 42.2025 40.3995 42.2026 40.25C42.2045 39.5903 42.0755 38.9368 41.8232 38.3273C41.5708 37.7178 41.2001 37.1644 40.7324 36.6991L40.2998 36.2664C39.9583 35.9223 39.7663 35.4575 39.7653 34.9727V34.8806C40.0829 35.0052 40.3546 35.2243 40.5437 35.5083L41.0864 36.3223C41.1364 36.3974 41.2025 36.4603 41.2798 36.5067C41.357 36.5532 41.4437 36.5818 41.5334 36.5907C41.6231 36.5996 41.7137 36.5885 41.7986 36.5581C41.8835 36.5278 41.9606 36.479 42.0243 36.4152L42.8122 35.6274L44.2094 37.0246C44.2946 37.1097 44.4032 37.1677 44.5213 37.1912C44.6395 37.2146 44.762 37.2026 44.8733 37.1565C44.9846 37.1103 45.0797 37.0323 45.1467 36.9321C45.2136 36.832 45.2494 36.7142 45.2494 36.5938V35.2043C46.3146 35.7187 47.4825 35.9854 48.6654 35.9844H48.9057C49.016 35.9844 49.1242 35.9544 49.2188 35.8978C49.3135 35.8411 49.3909 35.7598 49.443 35.6625C49.495 35.5653 49.5197 35.4557 49.5143 35.3455C49.509 35.2354 49.4739 35.1287 49.4127 35.0369C48.7845 34.0955 47.9825 33.2826 47.0497 32.6417C48.5149 32.3602 49.919 31.8228 51.1978 31.0541L52.2661 30.4131C52.3754 30.3475 52.4614 30.2493 52.512 30.1322C52.5625 30.0152 52.5751 29.8852 52.5479 29.7606C52.5208 29.6361 52.4552 29.5232 52.3605 29.4378C52.2657 29.3525 52.1466 29.299 52.0199 29.2849L49.0682 28.957L49.4999 28.7951C50.9586 28.2513 52.2079 27.2599 53.069 25.963C53.1339 25.8658 53.1695 25.7521 53.1715 25.6353C53.1736 25.5185 53.142 25.4036 53.0806 25.3042C53.0192 25.2049 52.9305 25.1252 52.8251 25.0748C52.7198 25.0244 52.6021 25.0054 52.4862 25.02L49.6736 25.3715L49.9534 25.1385C51.2005 24.0983 52.1563 22.7521 52.7273 21.2318ZM25.0466 39.6353C24.8935 39.6149 24.7538 39.5371 24.6558 39.4177C24.5579 39.2982 24.5089 39.146 24.5189 38.9918C24.5289 38.8376 24.5971 38.693 24.7097 38.5872C24.8222 38.4814 24.9708 38.4223 25.1253 38.4219C25.2512 38.4217 25.3741 38.4605 25.477 38.533C25.5799 38.6056 25.6577 38.7083 25.6998 38.827C25.7419 38.9456 25.7461 39.0744 25.7119 39.1956C25.6777 39.3168 25.6068 39.4244 25.5089 39.5035C25.497 39.5117 25.4854 39.5205 25.474 39.5296C25.3497 39.617 25.1973 39.6547 25.0466 39.6353ZM45.2494 43.2969C45.0358 43.2966 44.8259 43.2401 44.641 43.1332C44.456 43.0262 44.3024 42.8725 44.1956 42.6875H46.3033C46.1964 42.8725 46.0429 43.0262 45.8579 43.1332C45.6729 43.2401 45.4631 43.2966 45.2494 43.2969ZM46.3033 41.4688H45.8588V41.0243C46.0431 41.1313 46.1963 41.2845 46.3033 41.4688ZM44.6401 41.0243V41.4688H44.1956C44.3026 41.2844 44.4558 41.1311 44.6401 41.024V41.0243ZM32.4526 28.0625H38.5463V35.106C38.5464 35.2339 38.5062 35.3586 38.4314 35.4624C38.3567 35.5662 38.2511 35.6438 38.1297 35.6841L35.4994 36.5608L32.8692 35.6841C32.7478 35.6438 32.6422 35.5662 32.5674 35.4624C32.4926 35.3586 32.4524 35.2339 32.4526 35.106V28.0625ZM42.699 21.84C42.3636 21.6711 41.998 21.5705 41.6234 21.5438C41.2488 21.5172 40.8727 21.5651 40.5167 21.6849C39.7767 21.9329 39.1399 22.4193 38.7059 23.068C38.449 23.451 38.2707 23.8811 38.1812 24.3335C38.0917 24.7859 38.0928 25.2516 38.1844 25.7035L38.4124 26.8438H36.202L36.5122 24.6729C36.6677 23.5841 37.2108 22.588 38.0416 21.8674C38.8724 21.1468 39.9353 20.75 41.0351 20.75H41.7404C42.0411 20.7499 42.3331 20.8504 42.5701 21.0353C42.8071 21.2202 42.9755 21.4791 43.0485 21.7707L43.1182 22.0493L42.699 21.84ZM40.4709 17.5004L41.2832 17.2277C41.4849 17.1644 41.7011 17.1644 41.9028 17.2277L42.7203 17.5036L42.3002 19.5939C42.1165 19.5525 41.9288 19.5314 41.7404 19.531H41.0351C40.9816 19.531 40.9283 19.5318 40.8751 19.5333L40.4709 17.5004ZM33.7459 15.4043L35.4994 14.7028L37.2531 15.4043C37.3973 15.4621 37.5139 15.5728 37.5793 15.7137C37.6447 15.8547 37.6538 16.0153 37.6048 16.1627L36.8884 18.3125H34.1105L33.394 16.1631C33.345 16.0156 33.354 15.8549 33.4194 15.7139C33.4848 15.5728 33.6016 15.4621 33.7459 15.4043ZM33.9972 19.5309H37.0013L37.703 20.5834C36.6503 21.3269 35.875 22.3997 35.4993 23.6325C35.1235 22.3997 34.3482 21.327 33.2956 20.5834L33.9972 19.5309ZM29.0957 17.2277C29.2974 17.1643 29.5136 17.1643 29.7153 17.2277L30.5328 17.5036L30.1249 19.5332C30.0714 19.5318 30.0177 19.531 29.9638 19.5309H29.2584C29.0704 19.5313 28.883 19.5523 28.6995 19.5936L28.2834 17.5004L29.0957 17.2277ZM30.482 21.6849C30.1261 21.5651 29.7499 21.5172 29.3753 21.5438C29.0007 21.5704 28.6352 21.6711 28.2997 21.84L27.8808 22.0496L27.9504 21.7709C28.0234 21.4793 28.1918 21.2204 28.4288 21.0354C28.6658 20.8504 28.9578 20.75 29.2584 20.75H29.9638C31.0636 20.75 32.1265 21.1467 32.9573 21.8673C33.7882 22.588 34.3312 23.5841 34.4867 24.6729L34.7968 26.8438H32.5865L32.8145 25.7041C32.9061 25.2522 32.9072 24.7865 32.8177 24.3341C32.7282 23.8817 32.5498 23.4516 32.293 23.0686C31.8591 22.4197 31.2222 21.933 30.4821 21.6849H30.482ZM29.4412 34.8321L29.3108 35.0277L28.6176 34.3345C28.5033 34.2202 28.3483 34.156 28.1867 34.156C28.0251 34.156 27.8702 34.2202 27.7559 34.3345L26.968 35.1223V34.1562C26.968 34.0459 26.9381 33.9377 26.8814 33.8431C26.8248 33.7484 26.7435 33.671 26.6462 33.6189C26.549 33.5669 26.4394 33.5422 26.3292 33.5475C26.219 33.5528 26.1124 33.588 26.0206 33.6492C25.2398 34.1707 24.357 34.5204 23.4308 34.675C24.0414 34.0349 24.758 33.5052 25.5491 33.1093L26.0214 32.8731C26.1365 32.8156 26.2304 32.7231 26.2897 32.6089C26.349 32.4947 26.3706 32.3647 26.3515 32.2375C26.3324 32.1102 26.2735 31.9923 26.1832 31.9006C26.093 31.8089 25.976 31.7481 25.8491 31.727L24.4688 31.4969C23.2319 31.2918 22.037 30.8856 20.9313 30.2943L24.5979 29.887C24.7341 29.8719 24.8612 29.8113 24.9587 29.7151C25.0562 29.6189 25.1185 29.4927 25.1354 29.3567C25.1524 29.2208 25.123 29.0831 25.0521 28.9659C24.9812 28.8487 24.8729 28.7588 24.7447 28.7107L21.9268 27.6536C21.1842 27.3764 20.5018 26.9589 19.917 26.4237L23.2362 26.8386C23.3669 26.855 23.4994 26.8285 23.6138 26.7633C23.7282 26.698 23.8184 26.5975 23.8708 26.4766C23.9232 26.3558 23.9351 26.2213 23.9047 26.0931C23.8743 25.965 23.8031 25.8502 23.7019 25.7658L21.8256 24.2022C20.7408 23.2973 19.9094 22.1264 19.4128 20.8039L19.1974 20.2297L27.2052 26.8243C27.2937 26.8973 27.3596 26.9939 27.3954 27.1029C27.4312 27.2119 27.4353 27.3288 27.4074 27.44C27.3531 27.6524 27.2927 27.8871 27.2339 28.1115C27.1255 28.528 27.1496 28.9679 27.303 29.37C27.4564 29.7721 27.7314 30.1163 28.0897 30.3547L28.1134 30.3704C28.5125 30.6366 28.9923 30.7545 29.4694 30.7036C29.9464 30.6526 30.3905 30.4361 30.7244 30.0916C30.7467 30.0686 30.7671 30.044 30.7854 30.0178L31.2337 29.3798V30.8047L30.7977 31.1317C30.3843 31.441 29.8853 31.6147 29.3692 31.6291C28.8531 31.6434 28.3453 31.4976 27.9154 31.2117C27.8488 31.1673 27.7741 31.1364 27.6956 31.1209C27.6171 31.1054 27.5363 31.1055 27.4578 31.1212C27.3794 31.1369 27.3048 31.1679 27.2383 31.2124C27.1718 31.2569 27.1147 31.3141 27.0703 31.3807C27.0259 31.4473 26.9951 31.522 26.9796 31.6005C26.964 31.679 26.9641 31.7598 26.9798 31.8382C26.9955 31.9167 27.0265 31.9913 27.0711 32.0578C27.1156 32.1243 27.1728 32.1814 27.2394 32.2257C27.8285 32.6177 28.5173 32.8334 29.2248 32.8476C29.9323 32.8618 30.6292 32.6739 31.2337 32.3059V33.6128C30.5002 33.7702 29.8572 34.2076 29.4413 34.832L29.4412 34.8321ZM39.8703 37.5607C40.4365 38.1238 40.8095 38.852 40.9356 39.6406H40.1244C39.6668 38.8826 39.0025 38.2707 38.2095 37.8768C38.0766 37.8104 37.9241 37.7948 37.7806 37.8329C37.637 37.871 37.5123 37.9602 37.4299 38.0838L35.4994 40.9795L33.5689 38.0835C33.4866 37.96 33.3619 37.8707 33.2184 37.8326C33.0748 37.7945 32.9223 37.8101 32.7895 37.8765C31.9964 38.2705 31.332 38.8825 30.8744 39.6406H30.0632C30.1894 38.8522 30.5624 38.1242 31.1285 37.5611L31.5611 37.1285C31.7242 36.9648 31.8679 36.7829 31.9894 36.5863C32.1402 36.6957 32.307 36.7815 32.4838 36.8405L35.3067 37.7815C35.4318 37.8232 35.5671 37.8232 35.6922 37.7815L38.515 36.8405C38.6919 36.7815 38.8586 36.6958 39.0095 36.5863C39.131 36.7829 39.2747 36.9648 39.4377 37.1285L39.8703 37.5607ZM49.1732 24.2022L47.2969 25.7658C47.1957 25.8502 47.1246 25.965 47.0941 26.0931C47.0637 26.2212 47.0756 26.3558 47.128 26.4766C47.1804 26.5974 47.2706 26.698 47.385 26.7632C47.4994 26.8285 47.6318 26.855 47.7625 26.8386L51.0818 26.4237C50.497 26.9589 49.8147 27.3765 49.072 27.6536L46.2542 28.7103C46.126 28.7584 46.0176 28.8483 45.9467 28.9655C45.8758 29.0827 45.8465 29.2204 45.8635 29.3564C45.8804 29.4923 45.9427 29.6185 46.0402 29.7147C46.1377 29.8109 46.2648 29.8715 46.4009 29.8866L50.0675 30.294C48.9618 30.8853 47.7666 31.2915 46.5296 31.4966L45.1493 31.7267C45.0224 31.7478 44.9055 31.8086 44.8152 31.9003C44.7249 31.992 44.666 32.1099 44.6469 32.2372C44.6278 32.3644 44.6494 32.4944 44.7087 32.6086C44.768 32.7228 44.862 32.8153 44.977 32.8728L45.4493 33.109C46.2404 33.5049 46.957 34.0346 47.5676 34.6747C46.6414 34.5201 45.7586 34.1704 44.9777 33.6489C44.8859 33.5878 44.7793 33.5527 44.6691 33.5475C44.559 33.5422 44.4495 33.5669 44.3523 33.619C44.2551 33.6711 44.1738 33.7485 44.1172 33.8432C44.0606 33.9378 44.0307 34.046 44.0307 34.1562V35.1226L43.2428 34.3347C43.1863 34.2781 43.1191 34.2332 43.0451 34.2026C42.9712 34.172 42.892 34.1562 42.8119 34.1562C42.7319 34.1562 42.6527 34.172 42.5787 34.2026C42.5048 34.2332 42.4376 34.2781 42.381 34.3347L41.6879 35.0279L41.5575 34.8324C41.1417 34.2079 40.4986 33.7704 39.7651 33.6129V32.3053C40.3695 32.6733 41.0664 32.8612 41.7739 32.847C42.4814 32.8328 43.1702 32.6171 43.7594 32.2251C43.8938 32.1355 43.9872 31.9961 44.0189 31.8376C44.0506 31.6791 44.018 31.5146 43.9284 31.3801C43.8387 31.2456 43.6993 31.1523 43.5409 31.1206C43.3824 31.0889 43.2178 31.1214 43.0833 31.2111C42.6535 31.497 42.1456 31.6428 41.6295 31.6284C41.1135 31.6141 40.6145 31.4404 40.2011 31.1311L39.7651 30.8047V29.3803L40.2133 30.0182C40.2317 30.0444 40.2521 30.0691 40.2743 30.092C40.6082 30.4365 41.0524 30.653 41.5295 30.7039C42.0066 30.7548 42.4864 30.6368 42.8855 30.3705L42.9095 30.3546C43.2677 30.1162 43.5426 29.772 43.6959 29.3699C43.8493 28.9679 43.8734 28.528 43.7649 28.1116C43.7062 27.8872 43.6457 27.6525 43.5915 27.4401C43.5635 27.3289 43.5677 27.212 43.6035 27.103C43.6392 26.994 43.7052 26.8974 43.7936 26.8244L51.8014 20.2297L51.5862 20.8039C51.0895 22.1264 50.2581 23.2973 49.1732 24.2022Z" fill="black"/>
<path d="M33.8496 33.9775C33.9062 34.0341 33.9734 34.079 34.0473 34.1096C34.1212 34.1402 34.2005 34.156 34.2805 34.156C34.3605 34.156 34.4398 34.1402 34.5137 34.1096C34.5877 34.079 34.6548 34.0341 34.7114 33.9775C34.9241 33.7652 35.0803 33.5031 35.1659 33.215C35.2515 32.927 35.2637 32.6221 35.2014 32.3281H35.8302C36.012 32.5786 36.1095 32.8804 36.1086 33.1899V33.5469C36.1086 33.7085 36.1728 33.8635 36.2871 33.9778C36.4014 34.092 36.5564 34.1562 36.718 34.1562C36.8796 34.1562 37.0346 34.092 37.1489 33.9778C37.2632 33.8635 37.3274 33.7085 37.3274 33.5469V33.1899C37.3289 32.5857 37.1253 31.9988 36.75 31.5253C36.7906 31.4043 36.8682 31.2991 36.9718 31.2245C37.0753 31.1498 37.1997 31.1096 37.3274 31.1094C37.489 31.1094 37.644 31.0452 37.7583 30.9309C37.8726 30.8166 37.9368 30.6616 37.9368 30.5C37.9368 30.3384 37.8726 30.1834 37.7583 30.0691C37.644 29.9548 37.489 29.8906 37.3274 29.8906C36.9495 29.8911 36.581 30.0085 36.2724 30.2267C35.9639 30.4449 35.7304 30.7532 35.6041 31.1094H34.8899V29.8906C34.8899 29.729 34.8257 29.574 34.7114 29.4597C34.5971 29.3455 34.4421 29.2812 34.2805 29.2812C34.1189 29.2812 33.9639 29.3455 33.8496 29.4597C33.7353 29.574 33.6711 29.729 33.6711 29.8906V31.7188C33.6712 31.8124 33.693 31.9047 33.7347 31.9886C33.7347 31.9894 33.7347 31.9905 33.7355 31.9913L33.9595 32.4392C34.0146 32.5492 34.0337 32.6738 34.014 32.7953C33.9942 32.9168 33.9367 33.029 33.8496 33.116C33.7354 33.2302 33.6713 33.3852 33.6713 33.5467C33.6713 33.7083 33.7354 33.8632 33.8496 33.9775Z" fill="black"/>
<defs>
<linearGradient id="paint0_linear" x1="2.01551e-05" y1="25.9478" x2="60" y2="25.9478" gradientUnits="userSpaceOnUse">
<stop stop-color="#F47070"/>
<stop offset="1" stop-color="#C4262E"/>
</linearGradient>
</defs>
</svg>
