<svg xmlns="http://www.w3.org/2000/svg" width="49" height="45" xmlns:xlink="http://www.w3.org/1999/xlink"><title>Group</title><desc>Created using Figma</desc><g><g id="Group"><g id="Group"><g id="Vector" transform="translate(-11929 210) translate(11945.6 -207.337)"><use fill="#F26D85" xlink:href="#a"/><use fill="#7F1E88" xlink:href="#b"/></g></g><g id="Group"><g id="Vector" transform="translate(-11929 210) translate(11957.1 -207.133)"><use fill="#F2F2F2" xlink:href="#c"/><use fill="#7F1E88" xlink:href="#d"/></g><g id="Vector" transform="translate(-11929 210) translate(11967.1 -207.133)"><use fill="#F2F2F2" xlink:href="#e"/><use fill="#7F1E88" xlink:href="#f"/></g><g id="Vector" transform="translate(-11929 210) translate(11965 -193.061)"><use fill="#F26D85" xlink:href="#g"/><use fill="#7F1E88" xlink:href="#h"/></g><g id="Vector" transform="translate(-11929 210) translate(11966.3 -189.194)"><use fill="#F2F2F2" xlink:href="#i"/><use fill="#7F1E88" xlink:href="#j"/></g></g><g><g id="Vector" transform="translate(-11929 210) translate(11932.4 -196.13)"><use fill="#F26D85" xlink:href="#k"/><use fill="#7F1E88" xlink:href="#l"/></g><g id="Vector" transform="translate(-11929 210) translate(11932.4 -200.248)"><use fill="#F26D85" xlink:href="#m"/><use fill="#7F1E88" xlink:href="#n"/></g><g id="Vector" transform="translate(-11929 210) translate(11930 -209)"><use fill="#F2F2F2" xlink:href="#o"/><use fill="#7F1E88" xlink:href="#p"/></g><use id="Vector" fill="#7F1E88" xlink:href="#q" transform="translate(-11929 210) translate(11932.4 -209)"/><use id="Vector" fill="#7F1E88" xlink:href="#r" transform="translate(-11929 210) translate(11934.2 -209)"/><use id="Vector" fill="#7F1E88" xlink:href="#s" transform="translate(-11929 210) translate(11936 -209)"/><use fill="#7F1E88" xlink:href="#t" transform="translate(-11929 210) translate(11937.8 -209)"/></g></g></g><defs><path id="a" d="M4.32 0c.8 0 1.46.64 1.47 1.44l.03 4.47c.02 1.24.5 2.56 1.1 4.24.87 2.4 1.95 5.38 2.1 9.52.17 4.3-.73 9.86-1.38 13.9-.3 1.94-.64 3.93-.57 4.33l-1.4 1.98c-.2-.5-.1-2.9.5-6.55.64-4 1.52-9.46 1.36-13.62-.14-3.9-1.18-6.75-2-9.05-.53-1.45-1-2.72-1.15-3.97-.13 1.25-.57 2.54-1.07 4-.78 2.3-1.76 5.2-1.83 9.1-.07 4.15.92 9.6 1.65 13.58.66 3.63.8 6.02.6 6.54l-1.4-2.03c.04-.34-.32-2.32-.67-4.24C.94 29.6-.07 24.05 0 19.75c.08-4.14 1.1-7.15 1.92-9.56.57-1.7 1.02-3.03 1-4.26L2.9 1.47C2.87.67 3.5 0 4.3 0z"/><path id="b" d="M4.32 0v-.5.5zM5.8 1.44h-.5.5zm.03 4.47h.5-.5zm1.1 4.24l.47-.17-.47.17zm2.1 9.52h-.5v.02l.5-.02zm-1.38 13.9l-.5-.07.5.07zm-.57 4.33l.4.27c.1-.1.1-.24.1-.37l-.5.1zm-1.4 1.98l-.45.2c.07.16.22.28.4.3.2.02.37-.06.47-.2l-.4-.3zm.5-6.55l.48.08-.5-.07zM7.53 19.7l-.5.03.5-.02zm-2-9.05l-.48.17.47-.17zM4.38 6.68l.5-.06c-.04-.25-.26-.44-.52-.44-.25 0-.46.2-.5.45l.5.05zm-1.07 4l.48.15-.47-.16zm-1.83 9.1H2h-.5zm1.65 13.58l-.5.1.5-.1zm.6 6.54l-.4.3c.1.14.28.22.46.2.2-.02.36-.15.42-.32l-.46-.18zm-1.4-2.03l-.5-.06c0 .13.02.25.1.35l.4-.28zm-.67-4.24l-.5.1.5-.1zM0 19.75h.5H0zm1.92-9.56l-.47-.17.47.16zm1-4.26h.5-.5zM2.9 1.47h-.5.5zM4.32.5c.52 0 .95.42.96.94h1C6.27.33 5.4-.52 4.3-.5v1zm.96.94l.03 4.47h1L6.3 1.43h-1zm.03 4.47c.02 1.35.53 2.76 1.13 4.4l.94-.33c-.6-1.7-1.05-2.94-1.07-4.07h-1zm1.13 4.4c.87 2.4 1.93 5.3 2.08 9.37l1-.03c-.17-4.22-1.27-7.28-2.14-9.67l-.94.34zm2.08 9.38c.16 4.25-.73 9.76-1.4 13.8l1 .17c.66-4.06 1.56-9.66 1.4-14l-1 .03zm-1.4 13.8c-.14.97-.3 1.96-.4 2.75-.07.4-.1.76-.14 1.04-.03.26-.04.52 0 .7l.97-.17c0 .02 0-.04 0-.12 0-.1 0-.2.02-.32.02-.27.06-.6.12-1 .1-.77.26-1.75.42-2.7l-1-.17zm-.47 4.12l-1.4 2 .83.57 1.4-2-.83-.57zm-.52 2.1c.02.02 0-.07-.03-.16 0-.1-.02-.24-.03-.4-.02-.34 0-.78.03-1.33.07-1.1.24-2.58.53-4.4l-.98-.15c-.3 1.83-.47 3.37-.55 4.5-.03.57-.05 1.05-.04 1.42 0 .35.04.68.13.9l.92-.38zm.5-6.3c.66-3.98 1.55-9.5 1.4-13.7l-1 .03c.15 4.1-.73 9.53-1.37 13.52l.98.16zm1.4-13.7c-.16-4-1.22-6.92-2.05-9.22l-.94.34c.83 2.3 1.85 5.08 1.98 8.9l1-.03zM6 10.47c-.52-1.45-.97-2.67-1.1-3.86l-1 .12c.15 1.3.63 2.63 1.16 4.08l.94-.34zM3.9 6.63c-.12 1.2-.55 2.43-1.04 3.88l.95.33c.5-1.45.95-2.8 1.1-4.1l-1-.1zM2.85 10.5c-.8 2.32-1.78 5.28-1.86 9.26l1 .02c.06-3.83 1.02-6.64 1.8-8.95l-.94-.32zM1 19.77c-.07 4.2.93 9.7 1.65 13.7l1-.2C2.9 29.3 1.9 23.9 2 19.8l-1-.02zm1.65 13.7c.33 1.8.53 3.28.63 4.38.04.55.06 1 .06 1.33 0 .16 0 .3-.02.4 0 .1-.04.18-.03.15l.92.36c.1-.22.1-.55.12-.9 0-.37-.02-.86-.07-1.42-.1-1.13-.3-2.66-.63-4.5l-1 .2zm1.52 6.16l-1.4-2.04-.83.57 1.4 2.04.83-.58zm-1.33-1.7c.02-.15 0-.4-.04-.65-.03-.27-.08-.62-.15-1-.13-.8-.3-1.77-.48-2.73l-1 .18c.2.96.37 1.93.5 2.7.06.4.1.72.14.98.04.25.04.44.05.4l1 .12zm-.67-4.38C1.43 29.5.43 24 .5 19.76l-1-.02c-.07 4.35.95 9.94 1.68 13.98l1-.18zM.5 19.76c.07-4.07 1.07-7 1.9-9.4l-.95-.33c-.82 2.4-1.87 5.5-1.95 9.7l1 .03zm1.9-9.4c.56-1.67 1.05-3.1 1.03-4.43h-1c0 1.14-.4 2.38-.98 4.1l.94.32zm1.03-4.43L3.4 1.46h-1l.03 4.48h1zM3.4 1.46C3.37.93 3.8.5 4.32.5v-1c-1.1 0-1.95.9-1.94 1.97h1z"/><path id="c" d="M8.08 6.37v20.86c-.85-.93-1.92-1.48-3.08-1.48-2.76 0-5 3.08-5 6.88s2.24 6.88 5 6.88 5-3.07 5-6.87V0L8.07 6.37zM5 37.87c-2.1 0-3.8-2.35-3.8-5.24 0-2.9 1.7-5.23 3.8-5.23 2.1 0 3.8 2.34 3.8 5.23 0 2.9-1.7 5.23-3.8 5.23z"/><path id="d" d="M8.08 6.37l-.36-.1c0 .03-.02.06-.02.1h.38zm0 20.86l-.28.26c.1.1.28.14.42.1.15-.07.25-.2.25-.37h-.4zM9.98 0h.4c0-.2-.14-.35-.33-.38-.2-.03-.37.1-.42.27L10 0zM8.8 32.63h.4-.4zM7.7 6.37v20.86h.77V6.37H7.7zm.67 20.6c-.9-1-2.08-1.6-3.37-1.6v.77c1.03 0 2 .5 2.8 1.35l.57-.53zM5 25.37c-1.54 0-2.9.85-3.85 2.17-.95 1.32-1.53 3.12-1.53 5.1h.76c0-1.84.54-3.48 1.4-4.65.85-1.18 2-1.86 3.22-1.86v-.77zm-5.38 7.26c0 1.97.58 3.77 1.53 5.1.96 1.3 2.3 2.16 3.85 2.16v-.78c-1.23 0-2.37-.68-3.23-1.85-.85-1.17-1.4-2.8-1.4-4.64h-.75zM5 39.9c1.53 0 2.88-.86 3.84-2.18.96-1.32 1.54-3.12 1.54-5.1H9.6c0 1.84-.53 3.48-1.38 4.65-.85 1.17-2 1.85-3.22 1.85v.77zm5.38-7.27V0H9.6v32.63h.78zM9.63-.1l-1.9 6.36.72.22L10.35.1l-.72-.2zM5 37.47c-.9 0-1.74-.5-2.38-1.37-.64-.87-1.04-2.1-1.04-3.47H.8c0 1.52.46 2.9 1.2 3.93.74 1.02 1.8 1.7 3 1.7v-.78zm-3.42-4.85c0-1.37.4-2.6 1.04-3.47.64-.88 1.48-1.38 2.38-1.38V27c-1.2 0-2.26.68-3 1.7-.74 1.02-1.2 2.4-1.2 3.93h.78zM5 27.78c.9 0 1.74.5 2.38 1.38.63.87 1.04 2.1 1.04 3.47h.77c0-1.52-.46-2.9-1.2-3.93-.74-1.02-1.8-1.7-3-1.7v.78zm3.42 4.85c0 1.37-.4 2.6-1.04 3.48C6.74 37 5.88 37.5 5 37.5v.77c1.2 0 2.26-.67 3-1.7.74-1 1.18-2.4 1.2-3.92H8.4z"/><path id="e" d="M1.9 6.37v20.86c.86-.93 1.93-1.48 3.1-1.48 2.76 0 5 3.08 5 6.88S7.75 39.5 5 39.5s-5-3.07-5-6.87V0l1.9 6.37zM5 37.87c2.1 0 3.8-2.35 3.8-5.24 0-2.9-1.7-5.23-3.8-5.23-2.1 0-3.8 2.34-3.8 5.23 0 2.9 1.7 5.23 3.8 5.23z"/><path id="f" d="M1.9 6.37h.4c0-.04 0-.07-.02-.1l-.37.1zm0 20.86h-.37c0 .16.1.3.24.36.15.04.32 0 .42-.1l-.3-.27zM0 0l.37-.1C.3-.3.13-.4-.06-.4c-.18.03-.32.2-.32.38H0zm1.2 32.63H.8h.4zm.33-26.26v20.86h.76V6.37h-.77zM2.2 27.5c.8-.87 1.76-1.36 2.8-1.36v-.77c-1.3 0-2.47.6-3.37 1.6l.56.52zM5 26.13c1.22 0 2.37.68 3.22 1.85.85 1.16 1.4 2.8 1.4 4.63h.76c0-1.97-.58-3.77-1.54-5.1-.96-1.3-2.3-2.16-3.84-2.16v.77zm4.6 6.5c0 1.82-.53 3.46-1.38 4.63-.85 1.17-2 1.85-3.22 1.85v.77c1.53 0 2.88-.86 3.84-2.18.96-1.32 1.54-3.12 1.54-5.1H9.6zM5 39.1c-1.23 0-2.37-.68-3.23-1.85-.85-1.17-1.4-2.8-1.4-4.64h-.75c0 1.97.58 3.77 1.53 5.1.96 1.3 2.3 2.16 3.85 2.16v-.78zm-4.62-6.5V0h-.76v32.63h.76zM-.37.13l1.9 6.36.75-.22L.38-.1l-.75.2zM5 38.24c1.2 0 2.26-.67 3-1.7.74-1 1.18-2.4 1.18-3.92H8.4c0 1.37-.4 2.6-1.03 3.48C6.74 37 5.9 37.5 5 37.5v.77zm4.18-5.62c0-1.52-.44-2.9-1.18-3.93-.74-1.02-1.8-1.7-3-1.7v.78c.9 0 1.74.5 2.37 1.38.64.87 1.04 2.1 1.04 3.47h.78zM5 27c-1.2 0-2.26.68-3 1.7-.74 1.02-1.2 2.4-1.2 3.93h.78c0-1.37.4-2.6 1.04-3.47.63-.88 1.48-1.38 2.38-1.38V27zM.8 32.64c0 1.52.46 2.9 1.2 3.93.74 1.02 1.8 1.7 3 1.7v-.78c-.9 0-1.75-.5-2.38-1.37-.64-.87-1.04-2.1-1.04-3.47H.8z"/><path id="g" d="M4 7.86H0V0l4 3.1v4.76z"/><path id="h" d="M4 7.86v.38c.2 0 .38-.17.38-.38H4zm-4 0h-.38c0 .2.17.38.38.38v-.38zM0 0l.24-.3c-.12-.1-.28-.1-.4-.05-.14.07-.22.2-.22.35H0zm4 3.1h.38c0-.13-.05-.24-.15-.3L4 3.1zm0 4.37H0v.77h4v-.77zm-3.62.4V0h-.76v7.86h.76zM-.24.3l4 3.1.47-.6-4-3.1-.47.6zM3.6 3.1v4.76h.78V3.1H3.6z"/><path id="i" d="M.66 1.3c.36 0 .65-.28.65-.64C1.3.3 1.03 0 .67 0 .3 0 0 .3 0 .66c0 .36.3.65.66.65z"/><path id="j" d="M.93.66C.93.8.8.93.66.93v.76c.57 0 1.03-.47 1.03-1.04H.92zM.66.93C.5.93.38.8.38.66h-.76c0 .57.46 1.03 1.04 1.03V.92zM.38.66C.38.5.5.38.66.38v-.76C.08-.38-.38.08-.38.66h.76zM.66.38C.8.38.93.5.93.66h.76C1.7.08 1.22-.38.65-.38v.76z"/><path id="k" d="M4.4 30.37H1L0 0h5.4l-1 30.37z"/><path id="l" d="M4.4 30.37v.5c.27 0 .5-.2.5-.48l-.5-.03zm-3.4 0l-.5.02c0 .26.23.47.5.47v-.5zM0 0v-.5c-.14 0-.27.05-.36.15-.1.1-.14.23-.14.37L0 0zm5.4 0l.5.02c0-.14-.04-.27-.14-.37-.1-.1-.22-.15-.35-.15V0zm-1 29.87H1v1h3.4v-1zm-2.9.5L.5-.04l-1 .05 1 30.37 1-.04zM0 .5h5.4v-1H0v1zm4.9-.52l-1 30.38 1 .03L5.9 0l-1-.04z"/><path id="m" d="M5.4 0H0v4.12h5.4V0z"/><path id="n" d="M0 0v-.5c-.28 0-.5.22-.5.5H0zm5.4 0h.5c0-.28-.22-.5-.5-.5V0zm0 4.12v.5c.28 0 .5-.23.5-.5h-.5zm-5.4 0h-.5c0 .27.22.5.5.5v-.5zM0 .5h5.4v-1H0v1zM4.9 0v4.12h1V0h-1zm.5 3.62H0v1h5.4v-1zm-4.9.5V0h-1v4.12h1z"/><path id="o" d="M7.8 8.75H2.4L.08 2c-.33-.98.4-2 1.44-2h7.16c1.04 0 1.77 1.02 1.43 2L7.8 8.76z"/><path id="p" d="M7.8 8.75v.5c.2 0 .4-.13.47-.34l-.47-.15zm-5.4 0l-.48.16c.07.22.26.35.48.35v-.5zM.08 2l.48-.16L.08 2zM10.1 2l.5.17-.5-.16zM7.8 8.26H2.4v1h5.4v-1zm-4.93.34L.57 1.83l-.96.33L1.93 8.9l.95-.3zM.57 1.83C.32 1.2.8.5 1.5.5v-1C.12-.5-.84.86-.38 2.17l.94-.33zM1.5.5h7.16v-1H1.52v1zm7.16 0c.7 0 1.2.7.96 1.34l.95.33C11.03.87 10.05-.5 8.67-.5v1zm.96 1.34L7.34 8.6l.93.3 2.32-6.73-.96-.33z"/><path id="q" d="M.5 0C.5-.28.28-.5 0-.5s-.5.22-.5.5h1zm-1 3.86c0 .28.22.5.5.5s.5-.22.5-.5h-1zM-.5 0v3.86h1V0h-1z"/><path id="r" d="M.5 0C.5-.28.28-.5 0-.5s-.5.22-.5.5h1zm-1 3.86c0 .28.22.5.5.5s.5-.22.5-.5h-1zM-.5 0v3.86h1V0h-1z"/><path id="s" d="M.5 0C.5-.28.28-.5 0-.5s-.5.22-.5.5h1zm-1 3.86c0 .28.22.5.5.5s.5-.22.5-.5h-1zM-.5 0v3.86h1V0h-1z"/><path id="t" d="M.5 0C.5-.28.28-.5 0-.5s-.5.22-.5.5h1zm-1 3.86c0 .28.22.5.5.5s.5-.22.5-.5h-1zM-.5 0v3.86h1V0h-1z"/></defs></svg>