<svg xmlns="http://www.w3.org/2000/svg" width="62" height="43" xmlns:xlink="http://www.w3.org/1999/xlink"><title>Group</title><desc>Created using Figma</desc><g><g id="Group"><g id="Vector" transform="translate(-10983 210) translate(10984 -201.984)"><use fill="#F26D85" xlink:href="#a"/><use fill="#7F1E88" xlink:href="#b"/></g><g id="Vector" transform="translate(-10983 210) translate(10985.1 -209)"><use fill="#F2F2F2" xlink:href="#c"/><use fill="#7F1E88" xlink:href="#d"/></g><use id="Vector" fill="#7F1E88" xlink:href="#e" transform="translate(-10983 210) translate(10986.8 -208.999)"/><use id="Vector" fill="#7F1E88" xlink:href="#f" transform="translate(-10983 210) translate(10988.8 -208.999)"/><use id="Vector" fill="#7F1E88" xlink:href="#g" transform="translate(-10983 210) translate(10990.8 -208.999)"/><use id="Vector" fill="#7F1E88" xlink:href="#h" transform="translate(-10983 210) translate(10992.8 -208.999)"/><use id="Vector" fill="#7F1E88" xlink:href="#i" transform="translate(-10983 210) translate(10994.7 -208.999)"/><use id="Vector" fill="#7F1E88" xlink:href="#j" transform="translate(-10983 210) translate(10996.7 -208.999)"/><use id="Vector" fill="#7F1E88" xlink:href="#k" transform="translate(-10983 210) translate(10998.7 -208.999)"/><use id="Vector" fill="#7F1E88" xlink:href="#l" transform="translate(-10983 210) translate(11000.7 -208.999)"/><use id="Vector" fill="#7F1E88" xlink:href="#m" transform="translate(-10983 210) translate(11002.6 -208.999)"/><use id="Vector" fill="#7F1E88" xlink:href="#n" transform="translate(-10983 210) translate(11004.6 -208.999)"/><use id="Vector" fill="#7F1E88" xlink:href="#o" transform="translate(-10983 210) translate(11006.6 -208.999)"/><use id="Vector" fill="#7F1E88" xlink:href="#p" transform="translate(-10983 210) translate(11008.6 -208.999)"/><use id="Vector" fill="#7F1E88" xlink:href="#q" transform="translate(-10983 210) translate(11010.5 -208.999)"/><use id="Vector" fill="#7F1E88" xlink:href="#r" transform="translate(-10983 210) translate(11012.5 -208.999)"/><g id="Group"><g id="Group"><use id="Vector" fill="#F2F2F2" xlink:href="#s" transform="translate(-10983 210) translate(10989.6 -198.492)"/></g><g id="Group"><use id="Vector" fill="#F2F2F2" xlink:href="#t" transform="translate(-10983 210) translate(11000.2 -198.492)"/></g></g><g id="Vector" transform="translate(-10983 210) translate(11009.9 -191.927)"><use fill="#F26D85" xlink:href="#u"/><use fill="#7F1E88" xlink:href="#v"/></g><g id="Vector" transform="translate(-10983 210) translate(11011.2 -199.609)"><use fill="#F2F2F2" xlink:href="#w"/><use fill="#7F1E88" xlink:href="#x"/></g><use id="Vector" fill="#7F1E88" xlink:href="#y" transform="translate(-10983 210) translate(11013 -199.61)"/><use id="Vector" fill="#7F1E88" xlink:href="#z" transform="translate(-10983 210) translate(11015.2 -199.61)"/><use id="Vector" fill="#7F1E88" xlink:href="#A" transform="translate(-10983 210) translate(11017.4 -199.61)"/><use id="Vector" fill="#7F1E88" xlink:href="#B" transform="translate(-10983 210) translate(11019.5 -199.61)"/><use id="Vector" fill="#7F1E88" xlink:href="#C" transform="translate(-10983 210) translate(11021.7 -199.61)"/><use id="Vector" fill="#7F1E88" xlink:href="#D" transform="translate(-10983 210) translate(11023.9 -199.61)"/><use id="Vector" fill="#7F1E88" xlink:href="#E" transform="translate(-10983 210) translate(11026 -199.61)"/><use id="Vector" fill="#7F1E88" xlink:href="#F" transform="translate(-10983 210) translate(11028.2 -199.61)"/><use id="Vector" fill="#7F1E88" xlink:href="#G" transform="translate(-10983 210) translate(11030.3 -199.61)"/><use id="Vector" fill="#7F1E88" xlink:href="#H" transform="translate(-10983 210) translate(11032.5 -199.61)"/><use id="Vector" fill="#7F1E88" xlink:href="#I" transform="translate(-10983 210) translate(11034.7 -199.61)"/><use id="Vector" fill="#7F1E88" xlink:href="#J" transform="translate(-10983 210) translate(11036.8 -199.61)"/><use id="Vector" fill="#7F1E88" xlink:href="#K" transform="translate(-10983 210) translate(11039 -199.61)"/><use id="Vector" fill="#7F1E88" xlink:href="#L" transform="translate(-10983 210) translate(11041.2 -199.61)"/><g id="Group"><g id="Group"><use id="Vector" fill="#F2F2F2" xlink:href="#M" transform="translate(-10983 210) translate(11017.5 -187.855)"/></g><g><use fill="#F2F2F2" xlink:href="#N" transform="translate(-10983 210) translate(11028.3 -187.855)"/></g></g></g></g><defs><path id="a" d="M29.3 21.67H2.2c-1.22 0-2.2-1-2.2-2.2V2.2C0 .97.98 0 2.2 0h27.1c1.22 0 2.2.98 2.2 2.2v17.27c0 1.2-.98 2.2-2.2 2.2z"/><path id="b" d="M29.3 21.27H2.2v.8h27.1v-.8zm-27.1 0c-1 0-1.8-.8-1.8-1.8h-.8c0 1.43 1.16 2.6 2.6 2.6v-.8zm-1.8-1.8V2.2h-.8v17.27h.8zM.4 2.2c0-1 .8-1.8 1.8-1.8v-.8C.75-.4-.4.77-.4 2.2h.8zM2.2.4h27.1v-.8H2.2v.8zm27.1 0c1 0 1.8.8 1.8 1.8h.8c0-1.44-1.16-2.6-2.6-2.6v.8zm1.8 1.8v17.27h.8V2.2h-.8zm0 17.27c0 1-.8 1.8-1.8 1.8v.8c1.44 0 2.6-1.17 2.6-2.6h-.8z"/><path id="c" d="M28.02 7H1.2C.54 7 0 6.5 0 5.8V1.2C0 .54.54 0 1.2 0h26.82c.66 0 1.2.54 1.2 1.2v4.6c0 .68-.54 1.2-1.2 1.2z"/><path id="d" d="M29.22 5.8h-.4.4zm-1.2.82H1.2v.8h26.82v-.8zm-26.82 0c-.44 0-.8-.36-.8-.8h-.8c0 .88.72 1.6 1.6 1.6v-.8zm-.8-.8V1.2h-.8v4.6h.8zm0-4.62c0-.44.36-.8.8-.8v-.8C.32-.4-.4.33-.4 1.2h.8zm.8-.8h26.82v-.8H1.2v.8zm26.82 0c.44 0 .8.36.8.8h.8c0-.88-.72-1.6-1.6-1.6v.8zm.8.8v4.6h.8V1.2h-.8zm0 4.6c0 .46-.36.82-.8.82v.8c.88 0 1.6-.72 1.6-1.6h-.8z"/><path id="e" d="M.4 0C.4-.22.2-.4 0-.4c-.22 0-.4.18-.4.4h.8zm-.8 5c0 .2.18.38.4.38.22 0 .4-.17.4-.4h-.8zm0-5v5h.8V0h-.8z"/><path id="f" d="M.4 0C.4-.22.2-.4 0-.4c-.22 0-.4.18-.4.4h.8zm-.8 5c0 .2.18.38.4.38.22 0 .4-.17.4-.4h-.8zm0-5v5h.8V0h-.8z"/><path id="g" d="M.4 0C.4-.22.2-.4 0-.4c-.22 0-.4.18-.4.4h.8zm-.8 5c0 .2.18.38.4.38.22 0 .4-.17.4-.4h-.8zm0-5v5h.8V0h-.8z"/><path id="h" d="M.4 0C.4-.22.2-.4 0-.4c-.22 0-.4.18-.4.4h.8zm-.8 5c0 .2.18.38.4.38.22 0 .4-.17.4-.4h-.8zm0-5v5h.8V0h-.8z"/><path id="i" d="M.4 0C.4-.22.2-.4 0-.4c-.22 0-.4.18-.4.4h.8zm-.8 5c0 .2.18.38.4.38.22 0 .4-.17.4-.4h-.8zm0-5v5h.8V0h-.8z"/><path id="j" d="M.4 0C.4-.22.2-.4 0-.4c-.22 0-.4.18-.4.4h.8zm-.8 5c0 .2.18.38.4.38.22 0 .4-.17.4-.4h-.8zm0-5v5h.8V0h-.8z"/><path id="k" d="M.4 0C.4-.22.2-.4 0-.4c-.22 0-.4.18-.4.4h.8zm-.8 5c0 .2.18.38.4.38.22 0 .4-.17.4-.4h-.8zm0-5v5h.8V0h-.8z"/><path id="l" d="M.4 0C.4-.22.2-.4 0-.4c-.22 0-.4.18-.4.4h.8zm-.8 5c0 .2.18.38.4.38.22 0 .4-.17.4-.4h-.8zm0-5v5h.8V0h-.8z"/><path id="m" d="M.4 0C.4-.22.2-.4 0-.4c-.22 0-.4.18-.4.4h.8zm-.8 5c0 .2.18.38.4.38.22 0 .4-.17.4-.4h-.8zm0-5v5h.8V0h-.8z"/><path id="n" d="M.4 0C.4-.22.2-.4 0-.4c-.22 0-.4.18-.4.4h.8zm-.8 5c0 .2.18.38.4.38.22 0 .4-.17.4-.4h-.8zm0-5v5h.8V0h-.8z"/><path id="o" d="M.4 0C.4-.22.2-.4 0-.4c-.22 0-.4.18-.4.4h.8zm-.8 5c0 .2.18.38.4.38.22 0 .4-.17.4-.4h-.8zm0-5v5h.8V0h-.8z"/><path id="p" d="M.4 0C.4-.22.2-.4 0-.4c-.22 0-.4.18-.4.4h.8zm-.8 5c0 .2.18.38.4.38.22 0 .4-.17.4-.4h-.8zm0-5v5h.8V0h-.8z"/><path id="q" d="M.4 0C.4-.22.2-.4 0-.4c-.22 0-.4.18-.4.4h.8zm-.8 5c0 .2.18.38.4.38.22 0 .4-.17.4-.4h-.8zm0-5v5h.8V0h-.8z"/><path id="r" d="M.4 0C.4-.22.2-.4 0-.4c-.22 0-.4.18-.4.4h.8zm-.8 5c0 .2.18.38.4.38.22 0 .4-.17.4-.4h-.8zm0-5v5h.8V0h-.8z"/><path id="s" d="M9.7 12.57c-.6.3-1.83.6-3.38.6-3.6 0-6.32-2.26-6.32-6.46C0 2.7 2.7 0 6.68 0c1.6 0 2.6.34 3.03.57l-.4 1.35c-.6-.3-1.5-.54-2.57-.54-3 0-4.98 1.92-4.98 5.28 0 3.13 1.8 5.14 4.9 5.14 1 0 2.04-.2 2.7-.53l.34 1.3z"/><path id="t" d="M9.7 12.57c-.6.3-1.83.6-3.38.6-3.6 0-6.32-2.26-6.32-6.46C0 2.7 2.7 0 6.68 0c1.6 0 2.6.34 3.03.57l-.4 1.35c-.6-.3-1.5-.54-2.57-.54-3 0-4.98 1.92-4.98 5.28 0 3.13 1.8 5.14 4.9 5.14 1 0 2.04-.2 2.7-.53l.34 1.3z"/><path id="u" d="M32.1 23.73H2.4c-1.32 0-2.4-1.07-2.4-2.4V2.4C0 1.08 1.07 0 2.4 0h29.7c1.33 0 2.4 1.07 2.4 2.4v18.93c0 1.33-1.07 2.4-2.4 2.4z"/><path id="v" d="M34.5 21.33h-.43.43zm-2.4 1.97H2.4v.86h29.7v-.86zm-29.7 0c-1.1 0-1.97-.88-1.97-1.97h-.86c0 1.56 1.27 2.83 2.83 2.83v-.86zM.43 21.33V2.4h-.86v18.93h.86zm0-18.93C.43 1.3 1.3.43 2.4.43v-.86C.84-.43-.43.84-.43 2.4h.86zM2.4.43h29.7v-.86H2.4v.86zm29.7 0c1.1 0 1.97.88 1.97 1.97h.87c0-1.56-1.27-2.83-2.84-2.83v.86zm1.97 1.97v18.93h.87V2.4h-.87zm0 18.93c0 1.1-.88 1.97-1.97 1.97v.86c1.57 0 2.84-1.27 2.84-2.83h-.87z"/><path id="w" d="M30.68 7.68H1.32C.6 7.68 0 7.08 0 6.38V1.3C0 .6.6 0 1.32 0h29.36C31.4 0 32 .6 32 1.32v5.05c0 .72-.6 1.3-1.32 1.3z"/><path id="x" d="M32 6.37h-.43.43zm-1.32.88H1.32v.86h29.36v-.85zm-29.36 0c-.5 0-.9-.4-.9-.88h-.85c0 .96.78 1.74 1.75 1.74v-.85zm-.9-.88V1.32h-.85v5.05h.86zm0-5.05c0-.5.4-.9.9-.9v-.85C.35-.43-.43.35-.43 1.32h.86zm.9-.9h29.36v-.85H1.32v.86zm29.36 0c.5 0 .9.4.9.9h.85c0-.97-.78-1.75-1.75-1.75v.86zm.9.9v5.05h.85V1.32h-.86zm0 5.05c0 .48-.4.88-.9.88v.86c.97 0 1.75-.77 1.75-1.73h-.86z"/><path id="y" d="M.43 0c0-.24-.2-.43-.43-.43-.24 0-.43.2-.43.43h.86zm-.86 5.46c0 .24.2.44.43.44.24 0 .43-.2.43-.44h-.86zm0-5.46v5.46h.86V0h-.86z"/><path id="z" d="M.43 0c0-.24-.2-.43-.43-.43-.24 0-.43.2-.43.43h.86zm-.86 5.46c0 .24.2.44.43.44.24 0 .43-.2.43-.44h-.86zm0-5.46v5.46h.86V0h-.86z"/><path id="A" d="M.43 0c0-.24-.2-.43-.43-.43-.24 0-.43.2-.43.43h.86zm-.86 5.46c0 .24.2.44.43.44.24 0 .43-.2.43-.44h-.86zm0-5.46v5.46h.86V0h-.86z"/><path id="B" d="M.43 0c0-.24-.2-.43-.43-.43-.24 0-.43.2-.43.43h.86zm-.86 5.46c0 .24.2.44.43.44.24 0 .43-.2.43-.44h-.86zm0-5.46v5.46h.86V0h-.86z"/><path id="C" d="M.43 0c0-.24-.2-.43-.43-.43-.24 0-.43.2-.43.43h.86zm-.86 5.46c0 .24.2.44.43.44.24 0 .43-.2.43-.44h-.86zm0-5.46v5.46h.86V0h-.86z"/><path id="D" d="M.43 0c0-.24-.2-.43-.43-.43-.24 0-.43.2-.43.43h.86zm-.86 5.46c0 .24.2.44.43.44.24 0 .43-.2.43-.44h-.86zm0-5.46v5.46h.86V0h-.86z"/><path id="E" d="M.43 0c0-.24-.2-.43-.43-.43-.24 0-.43.2-.43.43h.86zm-.86 5.46c0 .24.2.44.43.44.24 0 .43-.2.43-.44h-.86zm0-5.46v5.46h.86V0h-.86z"/><path id="F" d="M.43 0c0-.24-.2-.43-.43-.43-.24 0-.43.2-.43.43h.86zm-.86 5.46c0 .24.2.44.43.44.24 0 .43-.2.43-.44h-.86zm0-5.46v5.46h.86V0h-.86z"/><path id="G" d="M.43 0c0-.24-.2-.43-.43-.43-.24 0-.43.2-.43.43h.86zm-.86 5.46c0 .24.2.44.43.44.24 0 .43-.2.43-.44h-.86zm0-5.46v5.46h.86V0h-.86z"/><path id="H" d="M.43 0c0-.24-.2-.43-.43-.43-.24 0-.43.2-.43.43h.86zm-.86 5.46c0 .24.2.44.43.44.24 0 .43-.2.43-.44h-.86zm0-5.46v5.46h.86V0h-.86z"/><path id="I" d="M.43 0c0-.24-.2-.43-.43-.43-.24 0-.43.2-.43.43h.86zm-.86 5.46c0 .24.2.44.43.44.24 0 .43-.2.43-.44h-.86zm0-5.46v5.46h.86V0h-.86z"/><path id="J" d="M.43 0c0-.24-.2-.43-.43-.43-.24 0-.43.2-.43.43h.86zm-.86 5.46c0 .24.2.44.43.44.24 0 .43-.2.43-.44h-.86zm0-5.46v5.46h.86V0h-.86z"/><path id="K" d="M.43 0c0-.24-.2-.43-.43-.43-.24 0-.43.2-.43.43h.86zm-.86 5.46c0 .24.2.44.43.44.24 0 .43-.2.43-.44h-.86zm0-5.46v5.46h.86V0h-.86z"/><path id="L" d="M.43 0c0-.24-.2-.43-.43-.43-.24 0-.43.2-.43.43h.86zm-.86 5.46c0 .24.2.44.43.44.24 0 .43-.2.43-.44h-.86zm0-5.46v5.46h.86V0h-.86z"/><path id="M" d="M0 .28C.76.12 1.96 0 3.17 0c1.74 0 2.86.3 3.7.98.7.52 1.1 1.3 1.1 2.37 0 1.3-.84 2.44-2.26 2.96v.05C7 6.67 8.5 7.72 8.5 9.72c0 1.16-.46 2.03-1.14 2.7-.93.85-2.45 1.25-4.65 1.25-1.2 0-2.12-.08-2.7-.16V.3zm1.74 5.5H3.3c1.85 0 2.92-.95 2.92-2.25 0-1.57-1.2-2.2-2.95-2.2-.8 0-1.25.07-1.53.13V5.8zm0 6.45c.34.06.83.08 1.45.08 1.8 0 3.44-.65 3.44-2.6 0-1.84-1.57-2.6-3.47-2.6H1.74v5.13z"/><path id="N" d="M0 .28C.76.12 1.96 0 3.17 0c1.74 0 2.86.3 3.7.98.7.52 1.1 1.3 1.1 2.37 0 1.3-.84 2.44-2.26 2.96v.05C7 6.67 8.5 7.72 8.5 9.72c0 1.16-.46 2.03-1.14 2.7-.93.85-2.45 1.25-4.65 1.25-1.2 0-2.12-.08-2.7-.16V.3zm1.74 5.5H3.3c1.85 0 2.92-.95 2.92-2.25 0-1.57-1.2-2.2-2.95-2.2-.8 0-1.25.07-1.53.13V5.8zm0 6.45c.34.06.83.08 1.45.08 1.8 0 3.44-.65 3.44-2.6 0-1.84-1.57-2.6-3.47-2.6H1.74v5.13z"/></defs></svg>