<svg xmlns="http://www.w3.org/2000/svg" width="52" height="52" xmlns:xlink="http://www.w3.org/1999/xlink"><title>Layer 5</title><desc>Created using Figma</desc><g><g><g id="Vector" transform="translate(-11033 -2511) translate(11034.2 2512.4)"><use fill="#F26D85" xlink:href="#a"/><use fill="#7F1E88" xlink:href="#b"/></g><g id="Vector" transform="translate(-11033 -2511) translate(11036.7 2514.9)"><use fill="#7F1E88" xlink:href="#c"/><use fill="#F2F2F2" xlink:href="#d"/></g><use id="Vector" fill="#F2F2F2" xlink:href="#e" transform="translate(-11033 -2511) translate(11068.5 2514.9)"/><g id="Vector" transform="matrix(.71 -.704 .71 .704 32.3 23.44)"><use fill="#F2F2F2" xlink:href="#f"/><use fill="#7F1E88" xlink:href="#g"/></g><g transform="matrix(.71 -.704 .71 .704 36.3 19.56)"><use fill="#F2F2F2" xlink:href="#h"/><use fill="#7F1E88" xlink:href="#i"/></g></g></g><defs><path id="a" d="M49.03 19.97L20.15 48.6c-.8.8-2.13.8-2.94 0L.6 32.13c-.8-.8-.8-2.1 0-2.92L29.5.6c.8-.8 2.12-.8 2.94 0l16.6 16.45c.8.8.8 2.1 0 2.92z"/><path id="b" d="M49.03 19.97l.35.35-.35-.35zM20.15 48.6l.35.34-.35-.35zm-2.94 0l.36-.37-.35.36zM.6 32.13l-.34.36.35-.36zm0-2.92l-.34-.35.35.35zM29.5.6l-.36-.35.35.35zm2.94 0l.35-.35-.36.35zm16.6 16.45l.34-.36-.35.35zm-.36 2.56L19.8 48.24l.7.7 28.88-28.6-.7-.72zM19.8 48.24c-.62.6-1.62.6-2.24 0l-.7.7c1 1 2.64 1 3.64 0l-.7-.7zm-2.24 0L.96 31.8l-.7.7 16.6 16.44.7-.7zM.96 31.8c-.6-.62-.6-1.6 0-2.22l-.7-.7c-1 1-1 2.6 0 3.62l.7-.7zm0-2.22L29.84.96l-.7-.7L.26 28.85l.7.72zM29.84.96c.62-.6 1.63-.6 2.24 0l.7-.7c-1-1-2.63-1-3.64 0l.7.7zm2.24 0l16.6 16.44.7-.7L32.78.24l-.7.7zm16.6 16.44c.62.62.62 1.6 0 2.2l.7.72c1.02-1 1-2.62 0-3.63l-.7.7z"/><path id="c" d="M35.78 3.92L3.95 35.45 0 31.55 31.83 0"/><path id="d" d="M36.13 4.27c.2-.2.2-.5 0-.7-.2-.2-.5-.2-.7 0l.7.7zM3.95 35.45l-.35.36c.2.2.5.2.7 0l-.35-.35zM0 31.55l-.35-.37c-.1.1-.15.22-.15.36 0 .13.05.26.15.35l.35-.36zM32.18.34c.2-.2.2-.5 0-.7-.2-.2-.5-.2-.7 0l.7.7zm3.25 3.2L3.6 35.1l.7.7L36.13 4.28l-.7-.7zM4.3 35.1L.35 31.18l-.7.7 3.95 3.93.7-.7zM.35 31.9L32.18.35l-.7-.72L-.36 31.18l.7.7z"/><path id="e" d="M.35-.36c-.2-.2-.5-.2-.7 0-.2.2-.2.52 0 .72l.7-.72zM3.6 4.27c.2.2.5.2.7 0 .2-.2.2-.52 0-.7l-.7.7zM-.35.37l3.95 3.9.7-.7L.35-.37l-.7.72z"/><path id="f" d="M3.74 7.48c2.07 0 3.74-1.67 3.74-3.74C7.48 1.68 5.8 0 3.74 0 1.68 0 0 1.68 0 3.74 0 5.8 1.68 7.48 3.74 7.48z"/><path id="g" d="M6.98 3.74c0 1.8-1.45 3.24-3.24 3.24v1c2.34 0 4.24-1.9 4.24-4.24h-1zM3.74 6.98C1.94 6.98.5 5.53.5 3.74h-1c0 2.34 1.9 4.24 4.24 4.24v-1zM.5 3.74C.5 1.94 1.95.5 3.74.5v-1C1.4-.5-.5 1.4-.5 3.74h1zM3.74.5c1.8 0 3.24 1.45 3.24 3.24h1C7.98 1.4 6.08-.5 3.74-.5v1z"/><path id="h" d="M3.74 7.48c2.07 0 3.74-1.67 3.74-3.74C7.48 1.68 5.8 0 3.74 0 1.68 0 0 1.68 0 3.74 0 5.8 1.68 7.48 3.74 7.48z"/><path id="i" d="M6.98 3.74c0 1.8-1.45 3.24-3.24 3.24v1c2.34 0 4.24-1.9 4.24-4.24h-1zM3.74 6.98C1.94 6.98.5 5.53.5 3.74h-1c0 2.34 1.9 4.24 4.24 4.24v-1zM.5 3.74C.5 1.94 1.95.5 3.74.5v-1C1.4-.5-.5 1.4-.5 3.74h1zM3.74.5c1.8 0 3.24 1.45 3.24 3.24h1C7.98 1.4 6.08-.5 3.74-.5v1z"/></defs></svg>