<svg xmlns="http://www.w3.org/2000/svg" width="52" height="49" xmlns:xlink="http://www.w3.org/1999/xlink"><title>Layer 11</title><desc>Created using Figma</desc><g><g><use id="Vector" fill="#00858F" xlink:href="#a" transform="translate(-12016 375) translate(12025.7 -329.103)"/><g id="Vector" transform="translate(-12016 375) translate(12019.2 -350.415)"><use fill="#F26D85" xlink:href="#b"/><use fill="#7F1E88" xlink:href="#c"/></g><g id="Group"><use id="Vector" fill="#7F1E88" xlink:href="#d" transform="translate(-12016 375) translate(12025.2 -345.839)"/></g><g id="Group"><g id="Group"><use id="Vector" fill="#F2F2F2" xlink:href="#e" transform="translate(-12016 375) translate(12037.9 -345.839)"/></g><g id="Group"><use id="Vector" fill="#F2F2F2" xlink:href="#f" transform="translate(-12016 375) translate(12031.5 -345.839)"/></g><g id="Group"><use id="Vector" fill="#F2F2F2" xlink:href="#g" transform="translate(-12016 375) translate(12028.4 -345.839)"/></g><g id="Group"><use id="Vector" fill="#F2F2F2" xlink:href="#h" transform="translate(-12016 375) translate(12025.2 -345.839)"/></g><g id="Group"><use id="Vector" fill="#F2F2F2" xlink:href="#i" transform="translate(-12016 375) translate(12034.7 -345.839)"/></g><g id="Group"><use id="Vector" fill="#F2F2F2" xlink:href="#j" transform="translate(-12016 375) translate(12057.2 -345.839)"/></g><g id="Group"><use id="Vector" fill="#F2F2F2" xlink:href="#k" transform="translate(-12016 375) translate(12044.6 -345.839)"/></g><g id="Group"><use id="Vector" fill="#F2F2F2" xlink:href="#l" transform="translate(-12016 375) translate(12054.1 -345.839)"/></g><g id="Group"><use id="Vector" fill="#F2F2F2" xlink:href="#m" transform="translate(-12016 375) translate(12050.9 -345.839)"/></g><g id="Group"><use id="Vector" fill="#F2F2F2" xlink:href="#n" transform="translate(-12016 375) translate(12047.7 -345.839)"/></g></g><g id="Vector" transform="translate(-12016 375) translate(12017.4 -351.905)"><use fill="#F26D85" xlink:href="#o"/><use fill="#7F1E88" xlink:href="#p"/></g><use id="Vector" fill="#F26D85" xlink:href="#q" transform="translate(-12016 375) translate(12017.4 -356.232)"/><use id="Vector" fill="#7F1E88" xlink:href="#r" transform="translate(-12016 375) translate(12021.1 -353.034)"/><use id="Vector" fill="#7F1E88" xlink:href="#s" transform="translate(-12016 375) translate(12017.4 -356.232)"/><g id="Vector" transform="translate(-12016 375) translate(12039.9 -374)"><use fill="#7F1E88" xlink:href="#t"/><use fill="#F26D85" xlink:href="#u"/></g><use id="Vector" fill="#7F1E88" xlink:href="#v" transform="translate(-12016 375) translate(12039.9 -352.834)"/><use id="Vector" fill="#E8FEFF" xlink:href="#w" transform="translate(-12016 375) translate(12040 -351.446)"/><g id="Group"><use id="Vector" fill="#7F1E88" xlink:href="#x" transform="translate(-12016 375) translate(12040 -351.228)"/></g><use id="Vector" fill="#E8FEFF" xlink:href="#y" transform="translate(-12016 375) translate(12040.5 -350.79)"/><g><use fill="#7F1E88" xlink:href="#z" transform="translate(-12016 375) translate(12040.6 -350.79)"/></g></g></g><defs><path id="a" d="M0 1.94c0 .25.2.46.46.46h3.4c.26 0 .47-.2.47-.46V0H0v1.94zM28.12 0v1.94c0 .25.2.46.46.46h3.4c.27 0 .47-.2.47-.46V0h-4.33z"/><path id="b" d="M0 0l3.82 21.54c.17.96 1.1 1.75 2.1 1.75h33.73c.98 0 1.92-.8 2.1-1.76L45.54 0H0z"/><path id="c" d="M0 0v-.5h-.6l.1.6L0 0zm3.82 21.54l.5-.1-.5.1zm37.92 0l-.5-.1.5.1zM45.56 0l.5.1.1-.6h-.6V0zM-.5.1l3.83 21.53 1-.18L.48-.1l-1 .2zm3.83 21.53c.2 1.2 1.36 2.16 2.58 2.16v-1c-.72 0-1.46-.62-1.58-1.35l-1 .18zM5.9 23.8h33.75v-1H5.9v1zm33.75 0c1.22 0 2.37-.97 2.58-2.17l-1-.18c-.1.73-.85 1.34-1.58 1.34v1zm2.58-2.17L46.05.1l-.98-.2-3.83 21.55 1 .18zM45.56-.5H0v1h45.56v-1z"/><path id="d" d="M0 16.32h1.5V0H0v16.32zm3.17 0h1.5V0h-1.5v16.32zm3.16 0h1.5V0h-1.5v16.32zm3.17 0H11V0H9.5v16.32zm3.16 0h1.5V0h-1.5v16.32zm6.72 0h1.5V0h-1.5v16.32zm3.16 0h1.5V0h-1.5v16.32zm3.17 0h1.52V0h-1.5v16.32zm3.18 0h1.5V0h-1.5v16.32zM32.04 0v16.32h1.5V0h-1.5z"/><path id="e" d="M.1 15.9V0H0v16.32h1.5v-.42H.1z"/><path id="f" d="M.27 15.9V0H0v16.32h1.5v-.42H.28z"/><path id="g" d="M.35 15.9V0H0v16.32h1.5v-.42H.36z"/><path id="h" d="M.43 15.9V0H0v16.32h1.5v-.42H.44z"/><path id="i" d="M.2 15.9V0H0v16.32h1.5v-.42H.2z"/><path id="j" d="M1.08 0v15.9H0v.42h1.5V0H1.1z"/><path id="k" d="M1.4 15.9H0v.42h1.5V0h-.1v15.9z"/><path id="l" d="M1.16 15.9H0v.42h1.5V0h-.34v15.9z"/><path id="m" d="M1.24 15.9H0v.42h1.5V0h-.26v15.9z"/><path id="n" d="M1.32 15.9H0v.42h1.5V0h-.18v15.9z"/><path id="o" d="M0 0c0 .04 0 .08 0 .12V3.6c0 .64.53 1.17 1.18 1.17h46.77c.65 0 1.18-.53 1.18-1.18V.1c0-.04 0-.08 0-.12H0z"/><path id="p" d="M0 0v-.5h-.44l-.04.45.5.05zm49.12 0l.5-.06-.06-.44h-.44V0zM-.48-.05s0 0 0 .05C-.5.03-.5.07-.5.12h1s0 .02 0 0c0 0 0 0 0-.02C.5.1.5.07.5.05l-.98-.1zM-.5.12V3.6h1V.1h-1zm0 3.47c0 .92.75 1.67 1.68 1.67v-1C.8 4.27.5 3.97.5 3.6h-1zm1.68 1.67h46.77v-1H1.18v1zm46.77 0c.93 0 1.68-.75 1.68-1.68h-1c0 .37-.3.67-.68.67v1zm1.68-1.68V.1h-1V3.6h1zm0-3.48c0-.05 0-.1 0-.12 0 0 0-.03 0-.04 0 0 0-.02 0-.02l-1 .12c0 .02 0 .03 0 .04 0 0 0 .02 0 .02h1zm-.5-.62H0v1h49.12v-1z"/><path id="q" d="M49.02 4.13c.2.26.1.47-.23.47H.32C0 4.6-.1 4.4.1 4.13L2.96.47C3.16.2 3.6 0 3.92 0H45.2c.33 0 .77.2.97.47l2.85 3.66z"/><path id="r" d="M41.65 1.4l-.73-.95c-.2-.25-.6-.45-.9-.45H1.62c-.3 0-.7.2-.9.45L0 1.4h41.65z"/><path id="s" d="M49.02 4.13L46.17.47C45.97.2 45.53 0 45.2 0H3.92c-.33 0-.76.2-.96.47L.1 4.13c-.2.26-.1.47.23.47H48.8c.32 0 .42-.2.22-.47zM.82 3.98L3.45.6c.1-.15.4-.3.6-.3H45.1c.2 0 .5.15.6.3l2.65 3.38H.82z"/><path id="t" d="M4.1 21.75V.45C4.1.2 3.9 0 3.65 0H.45C.2 0 0 .2 0 .46v21.3h4.1z"/><path id="u" d="M4.1 21.75v.5h.5v-.5h-.5zm-4.1 0h-.5v.5H0v-.5zm4.6 0V.45h-1v21.3h1zm0-21.3c0-.52-.43-.95-.95-.95v1C3.62.5 3.6.48 3.6.46h1zM3.65-.5H.45v1h3.2v-1zm-3.2 0c-.52 0-.95.43-.95.96h1C.5.48.48.5.46.5v-1zM-.5.46v21.3h1V.45h-1zm.5 21.8h4.1v-1H0v1z"/><path id="v" d="M4.1 0H0v.58h4.1V0z"/><path id="w" d="M1.92 3.86C3 3.86 3.85 3 3.85 1.93 3.85.86 3 0 1.92 0 .86 0 0 .86 0 1.93 0 3 .86 3.86 1.92 3.86z"/><path id="x" d="M1.92 3.86C3 3.86 3.85 3 3.85 1.93 3.85.86 3 0 1.92 0 .86 0 0 .86 0 1.93 0 3 .86 3.86 1.92 3.86z"/><path id="y" d="M1.5 2.98c.8 0 1.47-.67 1.47-1.5C2.97.7 2.3 0 1.5 0 .66 0 0 .67 0 1.5c0 .8.67 1.48 1.5 1.48z"/><path id="z" d="M1.36 2.72c.75 0 1.36-.6 1.36-1.36C2.72.6 2.12 0 1.36 0 .6 0 0 .6 0 1.36c0 .75.6 1.36 1.36 1.36z"/></defs></svg>