<svg xmlns="http://www.w3.org/2000/svg" width="47" height="47" xmlns:xlink="http://www.w3.org/1999/xlink"><title>Group</title><desc>Created using Figma</desc><g><g id="Group"><g id="Vector" transform="translate(-11310 210) translate(11311 -183.043)"><use fill="#F26D85" xlink:href="#a"/><use fill="#7F1E88" xlink:href="#b"/></g><g id="Vector" transform="matrix(.707 -.707 .707 .707 5.3 26.957)"><use fill="#F26D85" xlink:href="#c"/><use fill="#7F1E88" xlink:href="#d"/></g><g id="Vector" transform="translate(-11310 210) translate(11322.3 -196.659)"><use fill="#F2F2F2" xlink:href="#e"/><use fill="#7F1E88" xlink:href="#f"/></g><use id="Vector" fill="#7F1E88" xlink:href="#g" transform="translate(-11310 210) translate(11313 -180.394)"/><use id="Vector" fill="#7F1E88" xlink:href="#h" transform="translate(-11310 210) translate(11314.5 -178.959)"/><use id="Vector" fill="#7F1E88" xlink:href="#i" transform="translate(-11310 210) translate(11315.9 -177.525)"/><use id="Vector" fill="#7F1E88" xlink:href="#j" transform="translate(-11310 210) translate(11317.4 -176.09)"/><use id="Vector" fill="#7F1E88" xlink:href="#k" transform="translate(-11310 210) translate(11318.8 -174.655)"/><use id="Vector" fill="#7F1E88" xlink:href="#l" transform="translate(-11310 210) translate(11320.2 -173.221)"/><use id="Vector" fill="#7F1E88" xlink:href="#m" transform="translate(-11310 210) translate(11321.7 -171.787)"/><use id="Vector" fill="#7F1E88" xlink:href="#n" transform="translate(-11310 210) translate(11323.1 -170.352)"/><use id="Vector" fill="#7F1E88" xlink:href="#o" transform="translate(-11310 210) translate(11324.5 -168.918)"/><use id="Vector" fill="#7F1E88" xlink:href="#p" transform="translate(-11310 210) translate(11326 -167.484)"/><g><g id="Vector" transform="translate(-11310 210) translate(11337 -209)"><use fill="#F26D85" xlink:href="#q"/><use fill="#7F1E88" xlink:href="#r"/></g><use id="Vector" fill="#7F1E88" xlink:href="#s" transform="translate(-11310 210) translate(11339.6 -206.95)"/><use id="Vector" fill="#7F1E88" xlink:href="#t" transform="translate(-11310 210) translate(11341 -205.516)"/><use id="Vector" fill="#7F1E88" xlink:href="#u" transform="translate(-11310 210) translate(11342.5 -204.082)"/><use id="Vector" fill="#7F1E88" xlink:href="#v" transform="translate(-11310 210) translate(11343.9 -202.648)"/><use id="Vector" fill="#7F1E88" xlink:href="#w" transform="translate(-11310 210) translate(11345.3 -201.213)"/><use id="Vector" fill="#7F1E88" xlink:href="#x" transform="translate(-11310 210) translate(11346.8 -199.779)"/><use id="Vector" fill="#7F1E88" xlink:href="#y" transform="translate(-11310 210) translate(11348.2 -198.345)"/><use id="Vector" fill="#7F1E88" xlink:href="#z" transform="translate(-11310 210) translate(11349.6 -196.91)"/><use id="Vector" fill="#7F1E88" xlink:href="#A" transform="translate(-11310 210) translate(11351.1 -195.475)"/><use fill="#7F1E88" xlink:href="#B" transform="translate(-11310 210) translate(11352.5 -194.041)"/></g></g></g><defs><path id="a" d="M2.2.05L0 2.25l16.8 16.8 2.2-2.2.04-2.12L4.32 0 2.2.05z"/><path id="b" d="M2.2.05l-.02-.4c-.1.02-.2.06-.27.13l.3.27zM0 2.25l-.28-.3c-.07.1-.1.2-.1.3 0 .1.03.2.1.27L0 2.24zm16.8 16.8l-.27.27c.15.15.4.15.55 0l-.28-.28zm2.2-2.2l.27.28c.07-.07.1-.16.1-.26H19zm.04-2.12h.4c0-.1-.04-.2-.12-.28l-.28.28zM4.32 0l.27-.28c-.08-.07-.2-.1-.3-.1l.02.38zm-2.4-.22L-.3 1.96l.56.56L2.46.32 1.9-.2zM-.3 2.52l16.8 16.8.56-.55L.28 1.97l-.56.55zm17.36 16.8l2.2-2.2-.57-.54-2.17 2.2.55.54zm2.3-2.45l.05-2.13-.78-.02-.05 2.13.78.02zm-.06-2.42L4.6-.28l-.56.56L18.77 15l.55-.55zM4.32-.4l-2.14.06.02.8L4.33.38 4.3-.4z"/><path id="c" d="M30.6 0H0v20.83h30.6V0z"/><path id="d" d="M0 0v-.4c-.22 0-.4.18-.4.4H0zm30.6 0h.4c0-.22-.18-.4-.4-.4V0zm0 20.83v.4c.22 0 .4-.2.4-.4h-.4zm-30.6 0h-.4c0 .2.18.4.4.4v-.4zM0 .4h30.6v-.8H0v.8zM30.2 0v20.83h.8V0h-.8zm.4 20.44H0v.78h30.6v-.78zm-30.2.4V0h-.8v20.83h.8z"/><path id="e" d="M19.45 1.9C18.18.6 16.25.43 14.78 1.32L13.8.35c-.47-.47-1.23-.47-1.7 0L.35 12.1c-.47.47-.47 1.23 0 1.7l7.18 7.18c.47.47 1.23.47 1.7 0L20.98 9.23c.47-.47.47-1.23 0-1.7L20 6.56c.9-1.47.72-3.4-.55-4.67z"/><path id="f" d="M19.45 1.9l-.26.25.25-.26zm-4.67-.57l-.27.26c.14.1.33.14.47.05l-.2-.32zM13.8.35l-.26.27.26-.27zm-1.7 0l.27.27-.27-.27zM.35 12.1l-.26-.26.25.26zm0 1.7l-.26.27.25-.27zm7.18 7.18l.27-.26-.27.26zm1.7 0l-.26-.26.26.26zM20.98 9.23l.27.26-.27-.27zm0-1.7l.27-.26-.27.26zM20 6.56l-.3-.2c-.1.15-.08.34.04.46l.27-.26zm-.3-4.94c-1.38-1.4-3.5-1.6-5.12-.6l.4.63c1.32-.8 3.06-.64 4.2.5l.53-.53zm-4.66-.56L14.07.1l-.53.52.97.97.54-.54zM14.07.1c-.62-.63-1.62-.63-2.23 0l.53.52c.32-.33.84-.33 1.17 0l.53-.53zm-2.23 0L.1 11.83l.52.53L12.37.62 11.84.1zM.1 11.83c-.63.6-.63 1.6 0 2.23l.52-.53c-.33-.33-.33-.85 0-1.17l-.53-.53zm0 2.23l7.17 7.18.53-.53-7.18-7.18-.53.53zm7.17 7.18c.6.6 1.6.6 2.22 0l-.53-.53c-.33.32-.85.32-1.17 0l-.53.53zm2.22 0L21.24 9.5l-.53-.53L8.97 20.72l.52.53zM21.24 9.5c.6-.62.6-1.62 0-2.23l-.53.53c.32.32.32.84 0 1.17l.53.52zm0-2.23l-.98-.98-.53.52.98.98.53-.53zm-.92-.52c.98-1.6.78-3.74-.62-5.13l-.5.53c1.13 1.14 1.3 2.9.5 4.2l.63.4z"/><path id="g" d="M-.26 1.37c-.15.15-.15.4 0 .53.14.15.38.15.52 0l-.52-.53zM1.9.27c.15-.15.15-.4 0-.53-.14-.15-.38-.15-.53 0l.53.52zM.26 1.9L1.9.26l-.53-.52-1.63 1.63.52.53z"/><path id="h" d="M-.26 1.38c-.15.14-.15.38 0 .52.14.15.38.15.52 0l-.52-.52zM1.9.26c.15-.14.15-.38 0-.52-.14-.15-.38-.15-.53 0l.53.52zM.26 1.9L1.9.26l-.53-.52-1.63 1.64.52.52z"/><path id="i" d="M-.26 1.38c-.15.14-.15.38 0 .52.14.15.38.15.52 0l-.52-.52zM1.9.26c.15-.14.15-.38 0-.52-.14-.15-.38-.15-.53 0l.53.52zM.26 1.9L1.9.26l-.53-.52-1.63 1.64.52.52z"/><path id="j" d="M-.26 1.37c-.15.15-.15.4 0 .53.14.15.38.15.52 0l-.52-.53zM1.9.27c.15-.15.15-.4 0-.53-.14-.15-.38-.15-.53 0l.53.52zM.26 1.9L1.9.26l-.53-.52-1.63 1.63.52.53z"/><path id="k" d="M-.26 1.37c-.15.15-.15.4 0 .53.14.15.38.15.52 0l-.52-.53zM1.9.27c.15-.15.15-.4 0-.53-.14-.15-.38-.15-.53 0l.53.52zM.26 1.9L1.9.26l-.53-.52-1.63 1.63.52.53z"/><path id="l" d="M-.26 1.37c-.15.15-.15.4 0 .53.14.15.38.15.52 0l-.52-.53zM1.9.27c.15-.15.15-.4 0-.53-.14-.15-.38-.15-.53 0l.53.52zM.26 1.9L1.9.26l-.53-.52-1.63 1.63.52.53z"/><path id="m" d="M-.26 1.37c-.15.15-.15.4 0 .53.14.15.38.15.52 0l-.52-.53zM1.9.27c.15-.15.15-.4 0-.53-.14-.15-.38-.15-.52 0l.52.52zM.26 1.9L1.9.26l-.52-.52-1.64 1.63.52.53z"/><path id="n" d="M-.26 1.37c-.15.15-.15.4 0 .53.14.15.38.15.52 0l-.52-.53zM1.9.27c.15-.15.15-.4 0-.53-.14-.15-.38-.15-.52 0l.52.52zM.26 1.9L1.9.26l-.52-.52-1.64 1.63.52.53z"/><path id="o" d="M-.26 1.37c-.15.15-.15.4 0 .53.14.15.38.15.52 0l-.52-.53zM1.9.27c.15-.15.15-.4 0-.53-.14-.15-.38-.15-.53 0l.53.52zM.26 1.9L1.9.26l-.53-.52-1.63 1.63.52.53z"/><path id="p" d="M-.26 1.38c-.15.14-.15.38 0 .52.14.15.38.15.52 0l-.52-.52zM1.9.26c.15-.14.15-.38 0-.52-.14-.15-.38-.15-.53 0l.53.52zM.26 1.9L1.9.26l-.53-.52-1.63 1.64.52.52z"/><path id="q" d="M.05 2.2L2.25 0l16.8 16.8-2.2 2.2-2.12.04L0 4.32.05 2.2z"/><path id="r" d="M.05 2.2l-.27-.3c-.07.08-.1.18-.12.28h.4zM2.25 0l.27-.28c-.16-.15-.4-.15-.56 0l.28.28zm16.8 16.8l.27.28c.07-.07.1-.17.1-.28 0-.1-.03-.2-.1-.27l-.28.27zm-2.2 2.2l.02.38c.1 0 .2-.04.26-.1l-.27-.3zm-2.12.04l-.28.28c.08.08.18.12.3.1l-.02-.38zM0 4.32h-.4c0 .1.05.2.12.27L0 4.3zm.33-1.86L2.53.28l-.57-.56-2.18 2.2.55.54zM1.96.28l16.8 16.8.56-.55L2.52-.27l-.56.55zm16.8 16.25L16.6 18.7l.55.57 2.2-2.2-.56-.54zm-1.9 2.07l-2.14.05.02.78 2.13-.05-.02-.78zm-1.86.17L.28 4.04l-.56.55L14.45 19.3l.55-.55zM.4 4.33L.44 2.2l-.8-.02-.04 2.13.8.03z"/><path id="s" d="M1.9.26c.15-.14.15-.38 0-.52-.14-.15-.38-.15-.53 0l.53.52zm-2.16 1.1c-.15.16-.15.4 0 .54.14.15.38.15.52 0l-.52-.53zM1.37-.25L-.26 1.37l.52.53L1.9.26l-.53-.52z"/><path id="t" d="M1.9.26c.15-.14.15-.38 0-.52-.14-.15-.38-.15-.52 0l.52.52zm-2.16 1.1c-.15.16-.15.4 0 .54.14.15.38.15.52 0l-.52-.53zM1.38-.25L-.26 1.37l.52.53L1.9.26l-.52-.52z"/><path id="u" d="M1.9.26c.15-.14.15-.38 0-.52-.14-.15-.38-.15-.52 0l.52.52zm-2.16 1.1c-.15.16-.15.4 0 .54.14.15.38.15.52 0l-.52-.53zM1.38-.25L-.26 1.37l.52.53L1.9.26l-.52-.52z"/><path id="v" d="M1.9.26c.15-.14.15-.38 0-.52-.14-.15-.38-.15-.53 0l.53.52zm-2.16 1.1c-.15.16-.15.4 0 .54.14.15.38.15.52 0l-.52-.53zM1.37-.25L-.26 1.37l.52.53L1.9.26l-.53-.52z"/><path id="w" d="M1.9.26c.15-.14.15-.38 0-.52-.14-.15-.38-.15-.53 0l.53.52zm-2.16 1.1c-.15.16-.15.4 0 .54.14.15.38.15.52 0l-.52-.53zM1.37-.25L-.26 1.37l.52.53L1.9.26l-.53-.52z"/><path id="x" d="M1.9.26c.15-.14.15-.38 0-.52-.14-.15-.38-.15-.53 0l.53.52zm-2.16 1.1c-.15.16-.15.4 0 .54.14.15.38.15.52 0l-.52-.53zM1.37-.25L-.26 1.37l.52.53L1.9.26l-.53-.52z"/><path id="y" d="M1.9.26c.15-.14.15-.38 0-.52-.14-.15-.38-.15-.53 0l.53.52zM-.26 1.38c-.15.14-.15.38 0 .52.14.15.38.15.52 0l-.52-.52zM1.37-.26L-.26 1.38l.52.52L1.9.26l-.53-.52z"/><path id="z" d="M1.9.26c.15-.14.15-.38 0-.52-.14-.15-.38-.15-.53 0l.53.52zM-.26 1.38c-.15.14-.15.38 0 .52.14.15.38.15.52 0l-.52-.52zM1.37-.26L-.26 1.38l.52.52L1.9.26l-.53-.52z"/><path id="A" d="M1.9.26c.15-.14.15-.38 0-.52-.14-.15-.38-.15-.53 0l.53.52zm-2.16 1.1c-.15.16-.15.4 0 .54.14.15.38.15.52 0l-.52-.53zM1.37-.25L-.26 1.37l.52.53L1.9.26l-.53-.52z"/><path id="B" d="M1.9.26c.15-.14.15-.38 0-.52-.14-.15-.38-.15-.52 0l.52.52zm-2.16 1.1c-.15.16-.15.4 0 .54.14.15.38.15.52 0l-.52-.53zM1.38-.25L-.26 1.37l.52.53L1.9.26l-.52-.52z"/></defs></svg>