<svg xmlns="http://www.w3.org/2000/svg" width="53" height="49" xmlns:xlink="http://www.w3.org/1999/xlink"><title>Group</title><desc>Created using Figma</desc><g><g id="Group"><g id="Group"><g id="Vector" transform="translate(-11569 374) translate(11572.3 -332.585)"><use fill="#7F1E88" xlink:href="#a"/><use fill="#F26D85" xlink:href="#b"/></g><g id="Vector" transform="translate(-11569 374) translate(11588.5 -332.585)"><use fill="#7F1E88" xlink:href="#c"/><use fill="#F26D85" xlink:href="#d"/></g><g id="Vector" transform="translate(-11569 374) translate(11570.4 -351.048)"><use fill="#F2F2F2" xlink:href="#e"/><use fill="#7F1E88" xlink:href="#f"/></g><g id="Group"><use id="Vector" fill="#7F1E88" xlink:href="#g" transform="translate(-11569 374) translate(11581.6 -332.401)"/><use id="Vector" fill="#F26D85" xlink:href="#h" transform="translate(-11569 374) translate(11581.3 -332.745)"/></g><g id="Group"><use id="Vector" fill="#7F1E88" xlink:href="#i" transform="translate(-11569 374) translate(11608.5 -332.401)"/><use id="Vector" fill="#F26D85" xlink:href="#j" transform="translate(-11569 374) translate(11608.2 -332.745)"/></g><g id="Group"><use id="Vector" fill="#F26D85" xlink:href="#k" transform="translate(-11569 374) translate(11601.4 -344.904)"/><use id="Vector" fill="#7F1E88" xlink:href="#l" transform="translate(-11569 374) translate(11601 -345.247)"/></g><g id="Group"><use id="Vector" fill="#F26D85" xlink:href="#m" transform="translate(-11569 374) translate(11601.4 -331.678)"/><use id="Vector" fill="#7F1E88" xlink:href="#n" transform="translate(-11569 374) translate(11601 -332.022)"/></g><g id="Group"><use id="Vector" fill="#F26D85" xlink:href="#o" transform="translate(-11569 374) translate(11615.1 -331.679)"/><use id="Vector" fill="#7F1E88" xlink:href="#p" transform="translate(-11569 374) translate(11614.5 -332.022)"/></g><g id="Vector" transform="translate(-11569 374) translate(11589.4 -331.09)"><use fill="#F26D85" xlink:href="#q"/><use fill="#7F1E88" xlink:href="#r"/></g><g id="Vector" transform="translate(-11569 374) translate(11574.2 -331.089)"><use fill="#F26D85" xlink:href="#s"/><use fill="#7F1E88" xlink:href="#t"/></g></g><g id="Group"><g><use id="Vector" fill="#F2F2F2" xlink:href="#u" transform="translate(-11569 374) translate(11583.4 -373.637)"/><use id="Vector" fill="#F26D85" xlink:href="#v" transform="translate(-11569 374) translate(11583.1 -373.981)"/></g><use id="Vector" fill="#7F1E88" xlink:href="#w" transform="translate(-11569 374) translate(11596 -372.192)"/><use id="Vector" fill="#7F1E88" xlink:href="#x" transform="translate(-11569 374) translate(11590.4 -370.703)"/><use id="Vector" fill="#7F1E88" xlink:href="#y" transform="translate(-11569 374) translate(11586.4 -366.636)"/><use id="Vector" fill="#7F1E88" xlink:href="#z" transform="translate(-11569 374) translate(11584.9 -361.081)"/><use id="Vector" fill="#7F1E88" xlink:href="#A" transform="translate(-11569 374) translate(11586.4 -356.727)"/><use id="Vector" fill="#7F1E88" xlink:href="#B" transform="translate(-11569 374) translate(11590.4 -353.539)"/><use id="Vector" fill="#7F1E88" xlink:href="#C" transform="translate(-11569 374) translate(11596 -352.373)"/><use id="Vector" fill="#7F1E88" xlink:href="#D" transform="translate(-11569 374) translate(11600.4 -353.539)"/><use id="Vector" fill="#7F1E88" xlink:href="#E" transform="translate(-11569 374) translate(11603.6 -356.727)"/><use id="Vector" fill="#7F1E88" xlink:href="#F" transform="translate(-11569 374) translate(11604.7 -361.081)"/><use id="Vector" fill="#7F1E88" xlink:href="#G" transform="translate(-11569 374) translate(11603.6 -366.636)"/><use id="Vector" fill="#7F1E88" xlink:href="#H" transform="translate(-11569 374) translate(11600.4 -370.703)"/><use fill="#F26D85" xlink:href="#I" transform="translate(-11569 374) translate(11590.2 -369.015)"/></g></g></g><defs><path id="a" d="M9.54 0H0v.5c0 .4.32.73.72.73H8.7c.2-.46.5-.87.84-1.23z"/><path id="b" d="M9.54 0l.36.35c.14-.15.18-.36.1-.55-.08-.18-.26-.3-.46-.3V0zM0 0v-.5c-.28 0-.5.22-.5.5H0zm8.7 1.23v.5c.2 0 .36-.1.45-.3l-.46-.2zM9.53-.5H0v1h9.54v-1zM-.5 0v.5h1V0h-1zm0 .5c0 .68.55 1.23 1.22 1.23v-1C.6.73.5.63.5.5h-1zM.72 1.74H8.7v-1H.7v1zm8.43-.3c.2-.4.44-.76.75-1.08l-.72-.7c-.38.4-.7.86-.94 1.37l.9.42z"/><path id="c" d="M0 0c.35.36.63.77.85 1.23h9.45V0H0z"/><path id="d" d="M0 0v-.5c-.2 0-.38.12-.46.3-.08.2-.04.4.1.55L0 0zm.85 1.23l-.46.2c.08.2.25.3.45.3v-.5zm9.45 0v.5c.28 0 .5-.23.5-.5h-.5zm0-1.23h.5c0-.28-.22-.5-.5-.5V0zM-.36.35c.3.32.56.7.75 1.1L1.3 1C1.06.52.74.05.36-.35l-.72.7zm1.2 1.38h9.46v-1H.85v1zm9.96-.5V0h-1v1.23h1zM10.3-.5H0v1h10.3v-1z"/><path id="e" d="M29.28 17.95H1.08c-.6 0-1.08-.47-1.08-1.06V1.06C0 .47.48 0 1.07 0h28.2c.6 0 1.08.48 1.08 1.07V16.9c0 .57-.48 1.05-1.07 1.05z"/><path id="f" d="M30.35 16.9h.5-.5zm-1.07.55H1.08v1h28.2v-1zm-28.2 0c-.33 0-.58-.25-.58-.56h-1c0 .85.7 1.55 1.57 1.55v-1zM.5 16.9V1.06h-1V16.9h1zm0-15.83C.5.77.75.5 1.07.5v-1C.2-.5-.5.2-.5 1.07h1zM1.07.5h28.2v-1H1.08v1zm28.2 0c.32 0 .58.25.58.57h1c0-.87-.7-1.57-1.57-1.57v1zm.58.57V16.9h1V1.06h-1zm0 15.82c0 .3-.26.55-.57.55v1c.86 0 1.57-.7 1.57-1.56h-1z"/><path id="g" d="M3.53 7.04C1.58 7.04 0 5.46 0 3.52S1.58 0 3.53 0c1.94 0 3.52 1.58 3.52 3.52S5.47 7.04 3.53 7.04zm0-5.25c-.96 0-1.74.76-1.74 1.72 0 .95.77 1.73 1.73 1.73.95 0 1.73-.78 1.73-1.73 0-.96-.78-1.73-1.73-1.73z"/><path id="h" d="M3.87.7c1.76 0 3.18 1.4 3.18 3.16 0 1.76-1.42 3.18-3.18 3.18C2.1 7.04.7 5.62.7 3.86.7 2.1 2.1.7 3.86.7zm0 5.24c1.15 0 2.08-.93 2.08-2.08 0-1.14-.93-2.07-2.08-2.07S1.8 2.7 1.8 3.85c0 1.15.92 2.08 2.07 2.08zm0-5.94C1.74 0 0 1.73 0 3.86s1.74 3.87 3.87 3.87C6 7.73 7.74 6 7.74 3.86S6 0 3.87 0zm0 5.25c-.77 0-1.4-.62-1.4-1.4 0-.75.63-1.38 1.4-1.38.77 0 1.4.63 1.4 1.4 0 .76-.63 1.38-1.4 1.38z"/><path id="i" d="M3.53 7.04C1.58 7.04 0 5.46 0 3.52S1.58 0 3.53 0c1.94 0 3.52 1.58 3.52 3.52S5.47 7.04 3.53 7.04zm0-5.25c-.96 0-1.74.76-1.74 1.72 0 .95.77 1.73 1.73 1.73.95 0 1.73-.78 1.73-1.73 0-.96-.78-1.73-1.73-1.73z"/><path id="j" d="M3.87.7c1.76 0 3.18 1.4 3.18 3.16 0 1.76-1.42 3.18-3.18 3.18C2.1 7.04.7 5.62.7 3.86.7 2.1 2.1.7 3.86.7zm0 5.24c1.15 0 2.08-.93 2.08-2.08 0-1.14-.93-2.07-2.08-2.07S1.8 2.7 1.8 3.85c0 1.15.92 2.08 2.07 2.08zm0-5.94C1.74 0 0 1.73 0 3.86s1.74 3.87 3.87 3.87C6 7.73 7.74 6 7.74 3.86S6 0 3.87 0zm0 5.25c-.77 0-1.4-.62-1.4-1.4 0-.75.63-1.38 1.4-1.38.77 0 1.4.63 1.4 1.4 0 .76-.63 1.38-1.4 1.38z"/><path id="k" d="M13.22 12.17c-.63-.63-1.48-.97-2.54-1h-.14c-.93 0-1.76.33-2.46 1H0V.87C0 .8.03.7.07.65l.38-.5C.52.05.63 0 .75 0H4.3C5.6 0 6.46.4 6.9.65l-.1.08c-.1.05-.14.15-.15.25 0 .1.03.2.1.26l.62.62s-.02-.02-.03-.03c-.27-.2-.64-.4-1.15-.57-.05 0-.08-.02-.12-.02-.03 0-.07 0-.1.02-.05-.06-.1-.1-.18-.12-.16-.05-.32-.1-.46-.13C5.2.98 5.1.95 5.04.93 4.77.82 3.88.8 2.37.78c-.17 0-.33.07-.44.2-.1.1-.17.27-.17.43L2 5.76c0 .16.05.3.13.44l.16.25c.12.22.34.38.6.44l.8.16c.04.02.1.02.16.03 0 0 2.17.07 2.17.07.06 0 .12-.02.17-.05.06.04.12.06.2.06l3.6.14c.37 0 .65-.28.65-.63v-.73c0-.12-.04-.24-.1-.34l-1-1.56c-.05-.07-.1-.13-.15-.2l2.25 2.26c.06.06.15.1.24.1 0 0 1.54-.1 1.54-.1.16 0 .27.04.36.12.15.12.37.3.66.6.04.05.08.08.13.1 1.46.52 3.97 2.92 4.44 3.38l.32 1.84h-6.14z"/><path id="l" d="M4.65.7c.9 0 1.6.2 2.05.4-.02.06-.04.12-.04.18-.08-.03-.15-.04-.23-.04-.05-.04-.12-.07-.2-.1-.16-.04-.32-.08-.46-.12-.12-.03-.22-.06-.3-.1C5.36.9 5.06.8 2.73.8c-.26 0-.5.1-.7.3-.17.18-.26.44-.25.7L2 6.1c0 .22.07.43.18.6l.16.27c.18.3.48.52.82.6l.8.17c.07.02.15.03.23.03l2.15.08s0 0 .02 0c.06 0 .1 0 .16 0s.12.02.2.02l3.6.13s.03 0 .04 0c.53 0 .97-.43.97-.96V6.3l.4.4c.14.14.32.22.5.22 0 0 .03 0 .04 0l1.54-.1c.04 0 .08 0 .1.03.18.15.4.35.64.6.08.07.16.12.26.16 1.2.44 3.34 2.36 4.24 3.24l.24 1.33h-5.6c-.68-.63-1.57-.97-2.66-1-.05 0-.1 0-.16 0-.97 0-1.85.33-2.6 1H.7V1.2l.4-.5h3.57zm0-.7H1.1C.86 0 .64.1.5.3L.14.8c-.1.1-.14.26-.14.4v11.66h8.56c.58-.58 1.33-1.02 2.32-1.02.04 0 .1 0 .13 0 1.16.05 1.9.46 2.42 1.02h7.1c-.03-.1-.13-.2-.25-.23l-.2-.05-.37-2.08s-2.94-2.93-4.65-3.54c-.3-.3-.53-.5-.68-.63-.16-.13-.35-.2-.55-.2-.02 0-.04 0-.06 0l-1.52.1-4.9-4.9.17-.1c.18-.14.16-.4-.02-.5C7 .43 6.05 0 4.65 0zm1.72 7.17l-2.16-.1c-.02 0-.06 0-.1 0l-.8-.18c-.15-.04-.3-.14-.37-.28l-.16-.26c-.05-.1-.08-.18-.1-.28l-.2-4.34c-.02-.15.1-.27.25-.27.65 0 2.25.02 2.54.12.15.04.45.1.8.2l.3 5.37zm4 .15s0 0-.02 0l-3.6-.14-.33-5.25c.38.13.77.3 1.04.5.54.44 1.73 1.7 2.02 2.02.04.05.08.1.1.15l1.02 1.56c.03.04.05.1.05.15v.74c0 .15-.13.28-.28.28z"/><path id="m" d="M.45 2.45C.2 2.45 0 2.25 0 2V0h7.48c-.66.92-1 1.96-1.12 2.45H.46z"/><path id="n" d="M7.2.7c-.38.65-.62 1.3-.76 1.75H.8c-.06 0-.1-.04-.1-.1V.7h6.5zM8.56 0zm0 0H0v2.35c0 .44.36.8.8.8h6.18S7.36 1.22 8.56 0z"/><path id="o" d="M.76 2.1C.6 1.5.43.7 0 0h6.1l.02 1.57-.56.65c-.67.04-3.47.2-4.72.23-.02-.1-.05-.23-.08-.35z"/><path id="p" d="M6.45.7v1.1l-.38.43c-.8.05-3.03.18-4.28.2 0 0-.02-.04-.03-.07-.1-.5-.25-1.08-.52-1.67h5.2zm.67-.7H0c.9 1 1.03 2.44 1.27 3.14 1.22 0 5.14-.24 5.14-.24l.74-.86V.14c0-.05 0-.1-.02-.14z"/><path id="q" d="M0 0c.23.55.36 1.15.36 1.8 0 .12 0 .25 0 .37h10.1c.5 0 .9-.4.9-.9V0H0z"/><path id="r" d="M0 0v-.5c-.17 0-.32.08-.42.22-.1.14-.1.32-.04.48L0 0zm.35 2.17l-.5-.04c0 .14.03.28.13.38.1.1.23.17.37.17v-.5zM11.37 0h.5c0-.28-.22-.5-.5-.5V0zM-.46.2c.2.48.32 1.02.32 1.6h1c0-.72-.14-1.4-.4-2l-.92.4zm.32 1.6c0 .1 0 .2 0 .33l.98.08c.02-.12.02-.27.02-.4h-1zm.5.87h10.1v-1H.36v1zm10.1 0c.78 0 1.4-.63 1.4-1.4h-1c0 .22-.17.4-.4.4v1zm1.4-1.4V0h-1v1.26h1zm-.5-1.77H0v1h11.37v-1z"/><path id="s" d="M6.36 1.8c0-.65.14-1.25.37-1.8H0v1.36c0 .45.37.8.82.8h5.56c0-.1-.02-.24-.02-.37z"/><path id="t" d="M6.73 0l.46.2c.05-.16.04-.34-.05-.48-.1-.14-.25-.22-.42-.22V0zM0 0v-.5c-.28 0-.5.22-.5.5H0zm6.38 2.17v.5c.14 0 .28-.05.37-.16.1-.1.14-.23.13-.37l-.5.04zm.48-.38c0-.58.12-1.12.33-1.6l-.93-.4c-.26.6-.4 1.28-.4 2h1zM6.73-.5H0v1h6.73v-1zM-.5 0v1.36h1V0h-1zm0 1.36c0 .73.6 1.3 1.32 1.3v-1c-.18 0-.32-.13-.32-.3h-1zm1.32 1.3h5.56v-1H.82v1zm6.06-.53c0-.12-.02-.23-.02-.34h-1c0 .13 0 .28.02.42l1-.1z"/><path id="u" d="M12.58 25.1C5.64 25.1 0 19.5 0 12.57 0 5.63 5.64 0 12.58 0s12.58 5.63 12.58 12.56c0 6.92-5.64 12.55-12.58 12.55z"/><path id="v" d="M12.93.7c6.75 0 12.23 5.46 12.23 12.2 0 6.74-5.48 12.2-12.23 12.2C6.17 25.1.7 19.65.7 12.9.7 6.16 6.16.7 12.92.7zm0-.7C5.8 0 0 5.8 0 12.9 0 20 5.8 25.8 12.93 25.8c7.12 0 12.92-5.8 12.92-12.9 0-7.1-5.8-12.9-12.92-12.9z"/><path id="w" d="M.5 0C.5-.28.28-.5 0-.5s-.5.22-.5.5h1zm-1 2.4c0 .28.22.5.5.5s.5-.22.5-.5h-1zm0-2.4v2.4h1V0h-1z"/><path id="x" d="M.43-.25C.3-.5 0-.57-.25-.43-.5-.3-.57 0-.43.25l.86-.5zm.34 2.58c.14.24.45.32.68.18.24-.13.32-.43.2-.67l-.88.5zM-.43.25l1.2 2.08.87-.5L.44-.25l-.87.5z"/><path id="y" d="M.25-.43C0-.57-.3-.5-.43-.25-.57 0-.5.3-.25.43l.5-.86zm1.6 2.06c.22.14.53.06.67-.18s.05-.54-.2-.68l-.48.86zM-.26.43l2.1 1.2.48-.86L.25-.43l-.5.86z"/><path id="z" d="M0-.5c-.28 0-.5.22-.5.5s.22.5.5.5v-1zm2.4 1c.28 0 .5-.22.5-.5s-.22-.5-.5-.5v1zM0 .5h2.4v-1H0v1z"/><path id="A" d="M-.25.77c-.24.14-.32.44-.18.68.13.24.44.32.68.18l-.5-.86zM2.33.43c.24-.13.33-.44.2-.68-.15-.24-.46-.32-.7-.18l.5.86zM.25 1.63L2.33.43l-.5-.86L-.24.77l.5.86z"/><path id="B" d="M-.43 1.83c-.14.24-.06.54.18.68.24.15.54.07.68-.17l-.86-.5zM1.64.25c.13-.24.05-.54-.2-.68C1.23-.57.92-.5.78-.25l.87.5zM.44 2.33L1.63.25l-.87-.5-1.2 2.08.86.5z"/><path id="C" d="M-.5 2.4c0 .28.22.5.5.5s.5-.22.5-.5h-1zM.5 0C.5-.28.28-.5 0-.5s-.5.22-.5.5h1zm0 2.4V0h-1v2.4h1z"/><path id="D" d="M.77 2.33c.14.24.45.32.68.18.24-.13.32-.43.2-.67l-.88.5zM.43-.25C.3-.5 0-.57-.25-.43-.5-.3-.57 0-.43.25l.86-.5zm1.2 2.08L.44-.25l-.86.5 1.2 2.08.87-.5z"/><path id="E" d="M1.84 1.63c.23.14.54.06.68-.18s.05-.54-.2-.68l-.48.86zM.24-.43C.02-.57-.3-.5-.42-.25-.57 0-.5.3-.25.43l.5-.86zm2.1 1.2L.23-.43l-.5.86 2.1 1.2.5-.86z"/><path id="F" d="M2.4.5c.28 0 .5-.22.5-.5s-.22-.5-.5-.5v1zM0-.5c-.28 0-.5.22-.5.5s.22.5.5.5v-1zm2.4 0H0v1h2.4v-1z"/><path id="G" d="M2.33.43c.24-.13.33-.44.2-.68-.15-.24-.46-.32-.7-.18l.5.86zM-.25.77c-.24.14-.32.44-.18.68.13.24.44.32.68.18l-.5-.86zm2.1-1.2L-.26.77l.5.86L2.33.43l-.5-.86z"/><path id="H" d="M1.64.25c.13-.24.05-.54-.2-.68C1.23-.57.92-.5.78-.25l.87.5zM-.43 1.83c-.14.24-.06.54.18.68.24.15.54.07.68-.17l-.86-.5zM.77-.25l-1.2 2.08.86.5L1.63.25l-.86-.5z"/><path id="I" d="M4.18-.13c-.07-.26-.34-.42-.6-.35-.28.07-.44.34-.37.6l.98-.25zm1.6 8.06l.13.5c.14-.05.25-.13.32-.24.07-.13.1-.26.05-.4l-.48.13zM-.1 8.95c-.27.07-.43.34-.36.6.07.28.34.44.6.37l-.25-.97zM3.2.13l2.1 7.93.97-.25-2.1-7.93-.96.26zm2.46 7.32l-5.8 1.5.27.97 5.78-1.5-.24-.97z"/></defs></svg>