<svg xmlns="http://www.w3.org/2000/svg" width="80" height="75" xmlns:xlink="http://www.w3.org/1999/xlink"><title>Vector</title><desc>Created using Figma</desc><g><g transform="translate(-11308 811) translate(11308.7 -810)"><use fill="#F26D85" xlink:href="#a"/><use fill="#7F1E88" xlink:href="#b"/></g></g><defs><path id="a" d="M67 2.1c-9.92-4.93-21.98-.9-26.92 9.03-.4.8-.73 1.77-1.02 2.87-.28-1.1-.62-2.08-1-2.87-4.96-9.93-17-13.96-26.93-9.02C1.2 7.07-2.83 19.1 2.1 29.05c4.95 9.9 36.88 43.53 36.96 43.6.1-.07 32.02-33.7 36.95-43.6 4.96-9.93.93-21.98-9-26.93z"/><path id="b" d="M40.08 11.13l.45.22-.45-.22zM39.06 14l-.48.13c.06.22.26.37.48.37.23 0 .43-.15.5-.37l-.5-.13zm-1-2.87l.44-.23-.45.23zM11.12 2.1l-.23-.43.23.44zM2.1 29.05l.46-.23-.45.24zm36.96 43.6h.5c0-.2-.1-.35-.24-.44l-.26.43zm0 0h-.5c0 .16.1.32.24.4.15.1.33.1.48.04l-.22-.45zm0 0l.23-.46c-.15-.07-.32-.07-.46 0l.22.45zm0 0l-.22.44c.16.07.34.06.5-.03.14-.1.23-.25.23-.42h-.5zm0 0l-.25-.44c-.14.1-.23.25-.23.43h.5zm36.95-43.6l-.43-.23.44.24zM67.24 1.67C57.06-3.4 44.7.73 39.63 10.9l.9.45c4.82-9.68 16.57-13.6 26.25-8.8l.45-.88zm-27.6 9.23c-.4.84-.76 1.86-1.05 2.98l.97.25c.28-1.1.6-2.03.98-2.78l-.9-.45zm-.08 2.98c-.3-1.12-.64-2.14-1.05-2.98l-.9.45c.37.75.7 1.7.98 2.78l.97-.25zM38.5 10.9C33.43.73 21.07-3.4 10.9 1.67l.45.9c9.68-4.83 21.43-.9 26.25 8.78l.9-.45zM10.9 1.67C.73 6.73-3.4 19.1 1.66 29.27l.9-.46c-4.82-9.66-.9-21.42 8.8-26.24l-.46-.9zm-9.24 27.6c1.27 2.52 4.22 6.52 7.9 11.07 3.7 4.55 8.17 9.7 12.47 14.52 4.3 4.83 8.47 9.35 11.55 12.67 1.54 1.66 2.82 3 3.7 3.96.45.46.8.83 1.04 1.08.12.13.22.23.28.3.03.03.06.05.08.07 0 0 0 .02.02.02 0 0 0 0 .02.02.02 0 .06.04.08.05l.52-.85c.03.02.06.04.07.05-.02-.02-.05-.04-.08-.07-.06-.07-.15-.16-.27-.3-.24-.24-.6-.6-1.03-1.08-.9-.94-2.17-2.3-3.7-3.95-3.1-3.32-7.24-7.83-11.54-12.65-4.3-4.83-8.75-9.96-12.43-14.5-3.7-4.55-6.58-8.47-7.8-10.9l-.9.46zm36.9 43.36h1-1zm.72.45l-.44-.9.44.9zm-.44 0l.45-.9-.46.9zm.73-.45h-1 1zm-.25.42c.03 0 .07-.04.07-.05.02-.02.02-.02.02-.03 0 0 .02 0 .03-.02.02-.02.04-.05.07-.08.07-.06.16-.16.28-.3.24-.24.6-.6 1.04-1.08.9-.96 2.16-2.3 3.7-3.97 3.1-3.32 7.25-7.84 11.55-12.67 4.3-4.83 8.76-9.97 12.46-14.52 3.68-4.55 6.64-8.55 7.9-11.08l-.9-.45c-1.2 2.43-4.1 6.35-7.78 10.9-3.68 4.54-8.13 9.67-12.43 14.5-4.3 4.82-8.46 9.33-11.54 12.65-1.53 1.65-2.8 3-3.7 3.95-.43.47-.78.84-1.02 1.1-.12.12-.2.2-.28.28-.03.03-.05.05-.06.07 0 0-.02 0-.02 0s0 0 .02 0c0 0 .04-.03.07-.05l.52.85zm37.14-43.8c5.07-10.16.94-22.52-9.23-27.58l-.45.9c9.68 4.8 13.6 16.57 8.8 26.24l.88.46z"/></defs></svg>