<svg xmlns="http://www.w3.org/2000/svg" width="50" height="47" xmlns:xlink="http://www.w3.org/1999/xlink"><title>Group</title><desc>Created using Figma</desc><g><g><g id="Vector" transform="translate(-12078 210) translate(12109.4 -181.432)"><use fill="#F26D85" xlink:href="#a"/><use fill="#7F1E88" xlink:href="#b"/></g><g id="Vector" transform="translate(-12078 210) translate(12114.5 -176.247)"><use fill="#F2F2F2" xlink:href="#c"/><use fill="#7F1E88" xlink:href="#d"/></g><g id="Vector" transform="translate(-12078 210) translate(12085 -206.024)"><use fill="#F2F2F2" xlink:href="#e"/><use fill="#7F1E88" xlink:href="#f"/></g><g id="Vector" transform="translate(-12078 210) translate(12082 -209)"><use fill="#F26D85" xlink:href="#g"/><use fill="#7F1E88" xlink:href="#h"/></g><g id="Vector" transform="translate(-12078 210) translate(12079 -168.204)"><use fill="#F26D85" xlink:href="#i"/><use fill="#7F1E88" xlink:href="#j"/></g><use id="Vector" fill="#7F1E88" xlink:href="#k" transform="translate(-12078 210) translate(12117.3 -169.419)"/><use id="Vector" fill="#7F1E88" xlink:href="#l" transform="translate(-12078 210) translate(12118.2 -169.419)"/><use id="Vector" fill="#7F1E88" xlink:href="#m" transform="translate(-12078 210) translate(12119.2 -169.419)"/><use id="Vector" fill="#7F1E88" xlink:href="#l" transform="translate(-12078 210) translate(12120.1 -169.419)"/><use id="Vector" fill="#7F1E88" xlink:href="#m" transform="translate(-12078 210) translate(12121.1 -169.419)"/><use id="Vector" fill="#7F1E88" xlink:href="#l" transform="translate(-12078 210) translate(12122.1 -169.419)"/><use id="Vector" fill="#7F1E88" xlink:href="#m" transform="translate(-12078 210) translate(12123.1 -169.419)"/><use id="Vector" fill="#7F1E88" xlink:href="#l" transform="translate(-12078 210) translate(12124.1 -169.419)"/><g transform="translate(-12078 210) translate(12116.5 -173.831)"><use fill="#F2F2F2" xlink:href="#n"/><use fill="#7F1E88" xlink:href="#o"/></g></g></g><defs><path id="a" d="M5.15 8.4l3.2-3.2L7.17 0 0 7.23 5.15 8.4z"/><path id="b" d="M5.15 8.4l-.12.5c.17.04.35 0 .47-.13l-.35-.36zm3.2-3.2l.35.34c.12-.12.17-.3.14-.47l-.5.12zM7.17 0l.5-.1c-.05-.2-.2-.33-.36-.38-.17-.05-.36 0-.48.13l.35.35zM0 7.23l-.35-.36c-.13.13-.18.32-.13.5.05.17.2.3.37.34l.1-.47zm5.5 1.54l3.2-3.23-.7-.7-3.2 3.22.7.7zm3.34-3.7L7.66-.1l-.98.2 1.18 5.2.98-.23zM6.82-.35L-.35 6.87l.7.7L7.53.36l-.7-.7zM-.1 7.7l5.13 1.2.23-.97L.1 6.73l-.2.98z"/><path id="c" d="M2.4 4.36l1.93-1.94L3.25 0 0 3.28l2.4 1.08z"/><path id="d" d="M2.4 4.36l-.2.46c.18.08.4.04.55-.1l-.35-.36zm1.93-1.94l.35.35c.15-.15.2-.37.1-.56l-.45.22zM3.25 0l.46-.2c-.06-.15-.2-.26-.36-.3-.16-.02-.32.03-.44.15l.35.35zM0 3.28l-.35-.35c-.12.1-.17.28-.14.44.04.16.14.3.3.37l.2-.46zM2.75 4.7l1.93-1.93-.7-.7L2.03 4l.7.7zM4.8 2.2L3.7-.2l-.9.4 1.07 2.42.92-.4zM2.9-.34L-.35 2.93l.7.7L3.6.35l-.7-.7zm-3.1 4.1L2.2 4.8l.4-.9L.2 2.8l-.4.92z"/><path id="e" d="M24.4 31.84l7.2-7.27L9.55 0 0 9.64l24.4 22.2z"/><path id="f" d="M24.4 31.84l-.35.37c.2.2.5.18.7 0l-.36-.36zm7.2-7.27l.34.36c.2-.2.2-.5.02-.7l-.37.34zM9.55 0l.38-.33c-.1-.1-.23-.17-.36-.17-.14 0-.27.05-.37.15l.36.35zM0 9.64l-.35-.35c-.1.08-.15.22-.15.35 0 .14.06.27.16.36L0 9.65zM24.74 32.2l7.2-7.27-.7-.7-7.2 7.25.7.7zm7.22-7.96L9.94-.33 9.2.33 31.2 24.9l.74-.66zM9.2-.36L-.34 9.3l.7.7L9.92.34l-.7-.7zM-.33 10.02l24.4 22.2.66-.73L.34 9.27l-.68.74z"/><path id="g" d="M12.52 2.98L9.85 0 0 9.93l2.95 2.7 9.57-9.65z"/><path id="h" d="M12.52 2.98l.35.35c.2-.2.2-.5.02-.7L12.5 3zM9.85 0l.37-.33c-.1-.1-.22-.17-.36-.17-.14 0-.27.05-.37.15l.35.35zM0 9.93l-.35-.36c-.1.1-.15.23-.15.37 0 .14.06.26.16.36L0 9.93zm2.95 2.7l-.33.35c.2.2.5.18.7 0l-.37-.36zm9.94-10L10.2-.32l-.74.66 2.67 2.98.74-.66zM9.5-.34L-.36 9.57l.7.7L10.2.36l-.7-.7zM-.35 10.3l2.96 2.68.67-.73-2.96-2.7-.68.75zm3.65 2.67l9.57-9.64-.7-.7-9.57 9.63.7.7z"/><path id="i" d="M38.3 2.1L35.75.64C35.03.22 34.2 0 33.36 0H1.04C.47 0 0 .47 0 1.05 0 1.63.47 2.1 1.04 2.1H33.5c.75 0 1.5.2 2.14.58L38.3 4.2h6.82c.73 0 1.32-.6 1.32-1.32V2.1H38.3z"/><path id="j" d="M38.3 2.1h.5c0-.18-.1-.34-.26-.43l-.25.43zM35.75.64L36 .2l-.24.44zm-.12 2.04l.25-.44-.26.44zM38.3 4.2l-.26.44c.07.04.16.06.25.06v-.5zm8.14-2.1h.5c0-.27-.23-.5-.5-.5v.5zm-8.15 0h-.5c0 .28.2.5.5.5v-.5zm.24-.43L36 .2l-.5.88 2.54 1.45.5-.86zM36 .2c-.78-.44-1.73-.7-2.64-.7v1c.78 0 1.48.18 2.15.58L36 .2zm-2.64-.7H1.04v1h32.32v-1zM1.04-.5C.2-.5-.5.2-.5 1.05h1C.5.75.75.5 1.04.5v-1zM-.5 1.05c0 .85.7 1.55 1.54 1.55v-1c-.3 0-.54-.24-.54-.55h-1zM1.04 2.6H33.5v-1H1.04v1zm32.46 0c.68 0 1.3.16 1.9.5l.5-.86c-.72-.4-1.6-.63-2.4-.64v1zm1.9.5l2.64 1.54.5-.87-2.65-1.53-.5.87zm2.9 1.6h6.82v-1H38.3v1zm6.82 0c1 0 1.82-.82 1.82-1.82h-1c0 .46-.37.82-.82.82v1zm1.82-1.82V2.1h-1v.78h1zm-.5-1.28H38.3v1h8.14v-1zm-7.65.5h-1 1z"/><path id="k" d="M0 0v-.5c-.28 0-.5.22-.5.5H0zm8.15 0h.5c0-.28-.23-.5-.5-.5V0zm0 3.32v.5c.27 0 .5-.23.5-.5h-.5zM0 3.32h-.5c0 .27.22.5.5.5v-.5zM0 .5h8.15v-1H0v1zM7.65 0v3.32h1V0h-1zm.5 2.82H0v1h8.15v-1zm-7.65.5V0h-1v3.32h1z"/><path id="l" d="M.25 0c0-.14-.1-.25-.25-.25-.14 0-.25.1-.25.25h.5zm-.5 2.65c0 .14.1.25.25.25.14 0 .25-.1.25-.25h-.5zm0-2.65v2.65h.5V0h-.5z"/><path id="m" d="M.25 0c0-.14-.1-.25-.25-.25-.14 0-.25.1-.25.25h.5zm-.5 2.65c0 .14.1.25.25.25.14 0 .25-.1.25-.25h-.5zm0-2.65v2.65h.5V0h-.5z"/><path id="n" d="M.34 1.95L2.27 0s2.06.6 3.46.97c1.4.38 2.93-.54 4.2.98 1.3 1.52.36 3.6-3.5 3.68-3.85.08-6-.5-6.32-1.22-.33-.7.24-2.45.24-2.45z"/><path id="o" d="M.34 1.95l-.36-.36c-.05.05-.1.12-.12.2l.48.15zM2.27 0l.14-.48c-.17-.05-.36 0-.5.13l.37.35zM.1 4.4l.46-.2-.45.2zm.6-2.1L2.6.35l-.7-.7L-.03 1.6l.7.7zM2.26 0c-.14.48-.14.48-.14.48s.02 0 .02 0c.02 0 .04.02.07.03.06.02.15.05.26.08.2.06.5.15.86.25.7.2 1.56.44 2.26.63L5.86.5C5.16.3 4.3.05 3.6-.15c-.33-.1-.63-.18-.85-.24-.1-.03-.2-.06-.25-.07-.03 0-.05-.02-.07-.02 0 0 0 0-.02 0 0 0 0 0-.13.47zM5.6 1.46c.4.1.84.12 1.22.1.37 0 .72-.03 1.06-.03.62 0 1.16.13 1.68.74l.76-.65C9.56.72 8.7.54 7.9.52c-.4 0-.77.04-1.1.05-.36 0-.64 0-.94-.08l-.26.96zm3.96.8c.52.63.54 1.27.16 1.76-.42.55-1.43 1.07-3.3 1.1l.02 1c2-.04 3.38-.6 4.07-1.5.74-.93.58-2.1-.18-3l-.76.65zM6.42 5.14c-1.9.04-3.34-.08-4.37-.3-.5-.1-.86-.23-1.13-.37-.28-.13-.35-.24-.36-.26l-.9.42c.15.33.46.57.8.74.35.17.83.32 1.38.44 1.1.23 2.65.37 4.6.33l-.02-1zM.56 4.2C.52 4.13.5 3.98.5 3.74c0-.24.04-.48.1-.73.03-.24.1-.47.14-.64.02-.08.04-.14.05-.2 0-.02 0-.03 0-.04 0 0 0 0 0-.02 0 0 0 0-.46-.15-.48-.16-.48-.16-.48-.16s0 0 0 .02c0 0-.02.03-.03.06 0 .05-.03.13-.06.22-.05.18-.1.44-.17.72-.05.28-.1.6-.1.9 0 .3.02.62.15.9l.9-.42z"/></defs></svg>