<svg xmlns="http://www.w3.org/2000/svg" width="62" height="63" xmlns:xlink="http://www.w3.org/1999/xlink"><title>Layer 4</title><desc>Created using Figma</desc><g><g><g id="Vector" transform="translate(-11423 -233) translate(11424 234.278)"><use fill="#F2F2F2" xlink:href="#a"/><use fill="#F26D85" xlink:href="#b"/></g><g id="Group"><g id="Group"><g id="Vector" transform="translate(-11423 -233) translate(11446.7 240.465)"><use fill="#F26D85" xlink:href="#c"/><use fill="#7F1E88" xlink:href="#d"/></g><use id="Vector" fill="#F2F2F2" xlink:href="#e" transform="translate(-11423 -233) translate(11453.9 258.782)"/><use id="Vector" fill="#F2F2F2" xlink:href="#f" transform="translate(-11423 -233) translate(11465.6 263.323)"/><use id="Vector" fill="#F2F2F2" xlink:href="#g" transform="translate(-11423 -233) translate(11461.7 270.298)"/><use id="Vector" fill="#F2F2F2" xlink:href="#h" transform="translate(-11423 -233) translate(11457.8 277.272)"/><use id="Vector" fill="#F2F2F2" xlink:href="#i" transform="translate(-11423 -233) translate(11463 256.749)"/><use id="Vector" fill="#F2F2F2" xlink:href="#j" transform="translate(-11423 -233) translate(11459.1 263.723)"/><use id="Vector" fill="#F2F2F2" xlink:href="#k" transform="translate(-11423 -233) translate(11455.2 270.698)"/></g><g><g id="Vector" transform="translate(-11423 -233) translate(11427.4 257.53)"><use fill="#F26D85" xlink:href="#l"/><use fill="#7F1E88" xlink:href="#m"/></g><use id="Vector" fill="#F2F2F2" xlink:href="#n" transform="translate(-11423 -233) translate(11438.4 268.613)"/><use id="Vector" fill="#F2F2F2" xlink:href="#o" transform="translate(-11423 -233) translate(11442.6 265.927)"/><use id="Vector" fill="#F2F2F2" xlink:href="#p" transform="translate(-11423 -233) translate(11446.8 270.147)"/><use id="Vector" fill="#F2F2F2" xlink:href="#q" transform="translate(-11423 -233) translate(11451 274.367)"/><use id="Vector" fill="#F2F2F2" xlink:href="#r" transform="translate(-11423 -233) translate(11435.6 272.981)"/><use id="Vector" fill="#F2F2F2" xlink:href="#s" transform="translate(-11423 -233) translate(11439.8 277.201)"/><use fill="#F2F2F2" xlink:href="#t" transform="translate(-11423 -233) translate(11444 281.422)"/></g></g></g></g><defs><path id="a" d="M30 60.44c16.57 0 30-13.53 30-30.22C60 13.52 46.57 0 30 0S0 13.53 0 30.22c0 16.7 13.43 30.22 30 30.22z"/><path id="b" d="M59.52 30.22c0 16.43-13.22 29.75-29.52 29.75v.95c16.84 0 30.48-13.75 30.48-30.7h-.96zM30 59.97C13.7 59.97.48 46.65.48 30.22h-.96c0 16.95 13.64 30.7 30.48 30.7v-.95zM.48 30.22C.48 13.8 13.7.48 30 .48v-.96C13.16-.48-.48 13.27-.48 30.22h.96zM30 .48c16.3 0 29.52 13.3 29.52 29.74h.96C60.48 13.27 46.84-.48 30-.48v.96z"/><path id="c" d="M30.6 36.92c-5.33 9.53-15.82 13.76-23.43 9.44-7.6-4.33-9.45-15.56-4.12-25.1C8.4 11.75 33.12 0 33.12 0s2.82 27.4-2.5 36.92z"/><path id="d" d="M30.6 36.92l-.5-.28.5.28zM33.13 0l.56-.06c-.02-.18-.12-.35-.3-.44-.15-.1-.34-.1-.5 0l.24.5zm-3 36.64C24.86 46 14.67 49.97 7.44 45.86l-.56 1c7.97 4.52 18.77.04 24.2-9.66l-1-.56zM7.44 45.86C.2 41.76-1.7 30.9 3.55 21.56l-1-.57C-2.86 30.7-1.08 42.3 6.9 46.84l.55-1zm-3.9-24.3c1.28-2.3 3.75-4.76 6.8-7.2 3.05-2.4 6.62-4.76 10.03-6.8 3.4-2.07 6.66-3.83 9.05-5.07 1.2-.63 2.18-1.13 2.87-1.47.34-.17.6-.3.78-.38.1-.05.16-.08.2-.1.03 0 .05-.02.06-.03 0 0 0 0 .02 0 0 0 0 0-.24-.52-.25-.5-.25-.5-.25-.5s0 0-.02 0c0 0-.03 0-.05.02-.05.02-.12.06-.2.1-.2.1-.46.22-.8.4-.7.33-1.7.83-2.9 1.46-2.4 1.25-5.67 3.02-9.1 5.1-3.44 2.06-7.06 4.44-10.15 6.9-3.1 2.45-5.7 5.03-7.1 7.5l1 .57zM33.12 0c-.57.06-.57.06-.57.06s0 0 0 .02c0 0 0 .03 0 .06 0 .05.02.12.03.22.02.2.05.5.08.88.07.77.16 1.87.25 3.23.2 2.7.37 6.4.4 10.42 0 4-.13 8.3-.62 12.16-.48 3.9-1.3 7.3-2.57 9.58l1 .56c1.4-2.48 2.23-6.07 2.7-10 .5-3.94.65-8.28.63-12.32-.02-4.03-.2-7.76-.4-10.5-.08-1.35-.17-2.46-.24-3.23-.04-.4-.07-.7-.1-.9 0-.1 0-.17 0-.23 0-.02 0-.04-.02-.06 0 0 0-.02 0-.02s0 0-.56.06z"/><path id="e" d="M16.2.28c.15-.28.05-.62-.23-.78-.27-.15-.62-.05-.77.22l1 .56zM-.5 27.76c-.15.28-.05.62.22.78.28.15.62.05.78-.22l-1-.56zM15.2-.28L-.5 27.76l1 .56L16.2.28l-1-.56z"/><path id="f" d="M-.15 1.96c-.3.08-.48.4-.4.7.1.3.4.48.7.4l-.3-1.1zM9.07.56c.3-.1.48-.4.4-.7-.1-.32-.4-.5-.7-.4l.3 1.1zM.15 3.05L9.07.55l-.3-1.1-8.92 2.5.3 1.1z"/><path id="g" d="M-.15 1.96c-.3.08-.48.4-.4.7.1.3.4.48.7.4l-.3-1.1zM9.07.56c.3-.1.48-.4.4-.7-.1-.32-.4-.5-.7-.4l.3 1.1zM.15 3.05L9.07.55l-.3-1.1-8.92 2.5.3 1.1z"/><path id="h" d="M-.15 1.96c-.3.08-.48.4-.4.7.1.3.4.48.7.4l-.3-1.1zM9.07.56c.3-.1.48-.4.4-.7-.1-.32-.4-.5-.7-.4l.3 1.1zM.15 3.05L9.07.55l-.3-1.1-8.92 2.5.3 1.1z"/><path id="i" d="M1.94 9.13c.08.3.4.48.7.4.3-.1.48-.4.4-.7l-1.1.3zM.54-.15c-.08-.3-.4-.48-.7-.4-.3.1-.47.4-.4.7l1.1-.3zm2.5 8.98L.53-.15l-1.1.3 2.5 8.98 1.1-.3z"/><path id="j" d="M1.94 9.13c.08.3.4.48.7.4.3-.1.48-.4.4-.7l-1.1.3zM.54-.15c-.08-.3-.4-.48-.7-.4-.3.1-.47.4-.4.7l1.1-.3zm2.5 8.98L.53-.15l-1.1.3 2.5 8.98 1.1-.3z"/><path id="k" d="M1.94 9.13c.08.3.4.48.7.4.3-.1.48-.4.4-.7l-1.1.3zM.54-.15c-.08-.3-.4-.48-.7-.4-.3.1-.47.4-.4.7l1.1-.3zm2.5 8.98L.53-.15l-1.1.3 2.5 8.98 1.1-.3z"/><path id="l" d="M25.8 9.2c5.74 5.77 6.64 14.2 2.04 18.85-4.6 4.63-12.98 3.72-18.7-2.05C3.4 20.23 0 0 0 0s20.08 3.44 25.8 9.2z"/><path id="m" d="M0 0l.1-.56c-.2-.03-.37.03-.5.16s-.2.3-.16.5L0 0zm25.4 9.6c5.6 5.64 6.34 13.7 2.04 18.05l.8.8c4.9-4.94 3.83-13.74-2.03-19.64l-.8.8zm2.04 18.05c-4.3 4.33-12.3 3.58-17.9-2.05l-.8.8c5.86 5.9 14.6 7 19.5 2.05l-.8-.8zM9.54 25.6c-1.35-1.36-2.6-3.62-3.72-6.3-1.1-2.7-2.07-5.73-2.85-8.6C2.2 7.8 1.6 5.1 1.17 3.13c-.2-1-.35-1.8-.45-2.36C.67.5.62.28.6.13.6.06.58 0 .57-.04c0-.02 0-.03 0-.04 0 0 0 0-.57.08-.56.1-.56.1-.56.1 0 .02 0 .04 0 .05.02.04.03.1.04.18.03.15.07.37.12.65.1.57.26 1.4.47 2.4.4 1.98 1 4.7 1.8 7.6.8 2.9 1.76 6 2.9 8.74 1.13 2.73 2.45 5.16 3.97 6.68l.8-.8zM0 0c-.1.56-.1.56-.1.56s0 0 .02 0c0 0 .02 0 .04 0C0 .6.06.6.13.6.27.63.5.67.77.72c.56.1 1.36.26 2.34.46 1.98.42 4.65 1.02 7.5 1.8 2.86.8 5.88 1.76 8.54 2.88C21.8 7 24.06 8.26 25.4 9.6l.8-.8c-1.5-1.52-3.9-2.85-6.62-4-2.72-1.14-5.8-2.1-8.67-2.9C8.04 1.1 5.33.47 3.35.06c-1-.2-1.8-.36-2.36-.47C.7-.45.48-.5.33-.52.25-.52.2-.54.16-.55c-.02 0-.04 0-.05 0 0 0 0 0-.1.55z"/><path id="n" d="M.4-.4c-.22-.22-.58-.23-.8 0-.22.22-.23.58 0 .8l.8-.8zm16.04 17.77c.22.22.58.22.8 0 .22-.22.23-.58 0-.8l-.8.8zM-.4.4l16.84 16.97.8-.8L.4-.4l-.8.8z"/><path id="o" d="M-.57 6.95c0 .3.26.57.57.57.3 0 .57-.26.57-.57H-.57zM.57 0C.57-.3.3-.57 0-.57c-.3 0-.57.26-.57.57H.57zm0 6.95V0H-.57v6.95H.57z"/><path id="p" d="M-.57 6.95c0 .3.26.57.57.57.3 0 .57-.26.57-.57H-.57zM.57 0C.57-.3.3-.57 0-.57c-.3 0-.57.26-.57.57H.57zm0 6.95V0H-.57v6.95H.57z"/><path id="q" d="M-.57 6.95c0 .3.26.57.57.57.3 0 .57-.26.57-.57H-.57zM.57 0C.57-.3.3-.57 0-.57c-.3 0-.57.26-.57.57H.57zm0 6.95V0H-.57v6.95H.57z"/><path id="r" d="M6.9.57c.3 0 .57-.26.57-.57 0-.3-.26-.57-.57-.57V.57zM0-.57c-.3 0-.57.26-.57.57 0 .3.26.57.57.57V-.57zm6.9 0H0V.57h6.9V-.57z"/><path id="s" d="M6.9.57c.3 0 .57-.26.57-.57 0-.3-.26-.57-.57-.57V.57zM0-.57c-.3 0-.57.26-.57.57 0 .3.26.57.57.57V-.57zm6.9 0H0V.57h6.9V-.57z"/><path id="t" d="M6.9.57c.3 0 .57-.26.57-.57 0-.3-.26-.57-.57-.57V.57zM0-.57c-.3 0-.57.26-.57.57 0 .3.26.57.57.57V-.57zm6.9 0H0V.57h6.9V-.57z"/></defs></svg>