<svg xmlns="http://www.w3.org/2000/svg" width="50" height="50" xmlns:xlink="http://www.w3.org/1999/xlink"><title>Group</title><desc>Created using Figma</desc><g><g id="Group"><use id="Vector" fill="#F2F2F2" xlink:href="#a" transform="translate(-11270 -2373) translate(11273.5 2405.55)"/><use id="Vector" fill="#F2F2F2" xlink:href="#b" transform="translate(-11270 -2373) translate(11296.1 2417.54)"/><g id="Group"><g id="Vector" transform="translate(-11270 -2373) translate(11271 2373.47)"><use fill="#7F1E88" xlink:href="#c"/><use fill="#F26D85" xlink:href="#d"/></g><g id="Vector" transform="translate(-11270 -2373) translate(11275.6 2377.5)"><use fill="#F2F2F2" xlink:href="#e"/><use fill="#F26D85" xlink:href="#f"/></g></g><g><g id="Vector" transform="translate(-11270 -2373) translate(11290.7 2377.41)"><use fill="#F26D85" xlink:href="#g"/><use fill="#7F1E88" xlink:href="#h"/></g><g transform="translate(-11270 -2373) translate(11296.5 2382.42)"><use fill="#F2F2F2" xlink:href="#i"/><use fill="#7F1E88" xlink:href="#j"/></g></g></g></g><defs><path id="a" d="M8.82 4.67c4.88 0 8.83-1.04 8.83-2.33C17.65 1.04 13.7 0 8.82 0 3.95 0 0 1.05 0 2.34c0 1.3 3.95 2.33 8.82 2.33z"/><path id="b" d="M8.82 4.67c4.88 0 8.83-1.04 8.83-2.33C17.65 1.04 13.7 0 8.82 0 3.95 0 0 1.05 0 2.34c0 1.3 3.95 2.33 8.82 2.33z"/><path id="c" d="M22.72 11.4c0 5.34-8.15 18.36-10.65 22.22-.33.52-1.1.52-1.43 0C8.14 29.76 0 16.74 0 11.4 0 5.1 5.1 0 11.36 0c6.27 0 11.36 5.1 11.36 11.4z"/><path id="d" d="M12.07 33.62l.35.22-.35-.22zm-1.43 0l-.35.22.34-.22zM22.3 11.4c0 1.25-.48 3-1.28 5.03-.8 2-1.88 4.24-3.06 6.44-2.34 4.4-5 8.6-6.23 10.52l.7.44c1.24-1.93 3.9-6.16 6.27-10.58 1.17-2.2 2.28-4.48 3.1-6.53.8-2.04 1.33-3.9 1.33-5.33h-.83zm-10.57 22c-.18.26-.57.26-.74 0l-.7.44c.5.78 1.62.78 2.12 0l-.7-.45zm-.74 0c-1.25-1.93-3.9-6.14-6.25-10.53-1.17-2.2-2.26-4.43-3.05-6.44C.9 14.4.4 12.65.4 11.4h-.8c0 1.42.52 3.3 1.33 5.33.8 2.05 1.9 4.32 3.1 6.53 2.35 4.42 5 8.65 6.26 10.58l.7-.45zM.4 11.4C.4 5.33 5.33.4 11.37.4v-.8C4.86-.4-.4 4.87-.4 11.4h.8zM11.37.4c6.04 0 10.94 4.93 10.94 11h.83c0-6.52-5.27-11.8-11.77-11.8v.8z"/><path id="e" d="M6.7 13.45c3.7 0 6.7-3 6.7-6.72C13.4 3 10.4 0 6.7 0S0 3 0 6.73c0 3.7 3 6.72 6.7 6.72z"/><path id="f" d="M13 6.73c0 3.48-2.83 6.3-6.3 6.3v.84c3.93 0 7.12-3.2 7.12-7.14H13zm-6.3 6.3c-3.47 0-6.3-2.82-6.3-6.3h-.8c0 3.94 3.17 7.14 7.1 7.14v-.83zM.4 6.74C.4 3.23 3.24.4 6.7.4v-.8C2.77-.4-.4 2.77-.4 6.72h.8zM6.7.4C10.17.4 13 3.25 13 6.74h.82c0-3.95-3.2-7.14-7.12-7.14v.8z"/><path id="g" d="M28.3 14.2c0 6.73-10.38 23.24-13.36 27.84-.37.58-1.2.58-1.58 0C10.38 37.44 0 20.94 0 14.2 0 6.37 6.34 0 14.15 0 21.97 0 28.3 6.36 28.3 14.2z"/><path id="h" d="M14.94 42.04l.43.28-.43-.28zm-1.58 0l.43-.28-.44.28zM27.78 14.2c0 1.58-.6 3.8-1.63 6.35-1 2.54-2.4 5.36-3.87 8.12-2.95 5.53-6.3 10.8-7.77 13.1l.87.55c1.5-2.3 4.85-7.6 7.82-13.16 1.48-2.78 2.88-5.64 3.9-8.23 1.04-2.57 1.72-4.94 1.72-6.72h-1.04zM14.5 41.77c-.16.26-.54.26-.7 0l-.87.56c.57.9 1.87.9 2.44 0l-.86-.56zm-.7 0c-1.5-2.3-4.82-7.56-7.78-13.1-1.48-2.75-2.86-5.57-3.87-8.1C1.13 18 .52 15.77.52 14.2H-.52c0 1.8.7 4.16 1.7 6.73 1.04 2.6 2.44 5.45 3.93 8.23 2.98 5.56 6.33 10.86 7.83 13.16l.86-.56zM.5 14.2C.52 6.65 6.62.53 14.15.53V-.52C6.05-.52-.52 6.08-.52 14.2H.52zM14.15.53c7.53 0 13.63 6.12 13.63 13.7h1.04c0-8.14-6.57-14.74-14.67-14.74V.52z"/><path id="i" d="M8.35 16.76c4.6 0 8.35-3.75 8.35-8.38C16.7 3.75 12.96 0 8.35 0 3.75 0 0 3.75 0 8.38c0 4.63 3.74 8.38 8.35 8.38z"/><path id="j" d="M16.18 8.38c0 4.35-3.5 7.86-7.83 7.86v1.04c4.9 0 8.86-4 8.86-8.9H16.2zm-7.83 7.86c-4.33 0-7.83-3.5-7.83-7.86H-.52c0 4.9 3.97 8.9 8.87 8.9v-1.04zM.52 8.38C.52 4.04 4.02.52 8.35.52V-.52c-4.9 0-8.87 4-8.87 8.9H.52zM8.35.52c4.32 0 7.83 3.52 7.83 7.86h1.03c0-4.9-3.95-8.9-8.85-8.9V.52z"/></defs></svg>