<svg xmlns="http://www.w3.org/2000/svg" width="52" height="52" xmlns:xlink="http://www.w3.org/1999/xlink"><title>dostavka_pochtoy</title><desc>Created using Figma</desc><g><g><g><g id="Vector" transform="translate(-11269 -2511) translate(11270 2512)"><use fill="#F26D85" xlink:href="#a"/><use fill="#7F1E88" xlink:href="#b"/></g></g><g><g><use fill="#0043FA" xlink:href="#c" transform="translate(-11269 -2511) translate(11270.8 2524.72)"/><use fill="#fff" xlink:href="#d" transform="translate(-11269 -2511) translate(11273.1 2538.18)"/><use fill="#fff" xlink:href="#e" transform="translate(-11269 -2511) translate(11290.2 2537.93)"/><use fill="#fff" xlink:href="#f" transform="translate(-11269 -2511) translate(11286.2 2537.93)"/><use fill="#fff" xlink:href="#g" transform="translate(-11269 -2511) translate(11282.8 2538.06)"/><use fill="#fff" xlink:href="#h" transform="translate(-11269 -2511) translate(11276.1 2538.05)"/><use fill="#fff" xlink:href="#i" transform="translate(-11269 -2511) translate(11279.6 2538.06)"/><use fill="#fff" xlink:href="#j" transform="translate(-11269 -2511) translate(11273.1 2530.65)"/><use fill="#fff" xlink:href="#k" transform="translate(-11269 -2511) translate(11277.5 2530.52)"/><use fill="#fff" xlink:href="#l" transform="translate(-11269 -2511) translate(11286 2530.65)"/><use fill="#fff" xlink:href="#m" transform="translate(-11269 -2511) translate(11281.8 2530.65)"/><use fill="#fff" xlink:href="#n" transform="translate(-11269 -2511) translate(11289.6 2530.65)"/><use fill="#0043FA" xlink:href="#o" transform="translate(-11269 -2511) translate(11294.6 2524.7)"/><g><use fill="#F2F2F2" xlink:href="#p" transform="translate(-11269 -2511) translate(11296 2526.18)"/></g><use fill="#0043FA" xlink:href="#q" transform="translate(-11269 -2511) translate(11301.7 2532.65)"/><use fill="#0043FA" xlink:href="#r" transform="translate(-11269 -2511) translate(11303.8 2538.15)"/><use fill="#0043FA" xlink:href="#s" transform="translate(-11269 -2511) translate(11303.1 2538.11)"/><use fill="#0043FA" xlink:href="#t" transform="translate(-11269 -2511) translate(11302.1 2537.61)"/><use fill="#0043FA" xlink:href="#u" transform="translate(-11269 -2511) translate(11299.7 2536.98)"/><use fill="#0043FA" xlink:href="#v" transform="translate(-11269 -2511) translate(11298.6 2536.62)"/><use fill="#0043FA" xlink:href="#w" transform="translate(-11269 -2511) translate(11297.7 2536.19)"/><use fill="#0043FA" xlink:href="#x" transform="translate(-11269 -2511) translate(11297 2535.53)"/><use fill="#0043FA" xlink:href="#y" transform="translate(-11269 -2511) translate(11296.6 2534.5)"/><use fill="#0043FA" xlink:href="#z" transform="translate(-11269 -2511) translate(11296.6 2533.09)"/><use fill="#0043FA" xlink:href="#A" transform="translate(-11269 -2511) translate(11297.4 2530.8)"/><use fill="#0043FA" xlink:href="#B" transform="translate(-11269 -2511) translate(11303.8 2536.92)"/><use fill="#0043FA" xlink:href="#C" transform="translate(-11269 -2511) translate(11303.2 2537.05)"/><use fill="#0043FA" xlink:href="#D" transform="translate(-11269 -2511) translate(11302.2 2536.9)"/><use fill="#0043FA" xlink:href="#E" transform="translate(-11269 -2511) translate(11301.8 2536.71)"/><use fill="#0043FA" xlink:href="#F" transform="translate(-11269 -2511) translate(11301.3 2536.27)"/><use fill="#0043FA" xlink:href="#G" transform="translate(-11269 -2511) translate(11300.6 2535.72)"/><use fill="#0043FA" xlink:href="#H" transform="translate(-11269 -2511) translate(11300.3 2535.07)"/><use fill="#0043FA" xlink:href="#I" transform="translate(-11269 -2511) translate(11300.6 2534.34)"/><use fill="#0043FA" xlink:href="#J" transform="translate(-11269 -2511) translate(11300.4 2533.22)"/><use fill="#0043FA" xlink:href="#K" transform="translate(-11269 -2511) translate(11300.8 2531.99)"/><use fill="#0043FA" xlink:href="#L" transform="translate(-11269 -2511) translate(11304.2 2536.55)"/><use fill="#0043FA" xlink:href="#M" transform="translate(-11269 -2511) translate(11298.4 2529.22)"/><use fill="#0043FA" xlink:href="#N" transform="translate(-11269 -2511) translate(11313 2534.5)"/><use fill="#0043FA" xlink:href="#O" transform="translate(-11269 -2511) translate(11312.7 2533.09)"/><use fill="#0043FA" xlink:href="#P" transform="translate(-11269 -2511) translate(11313.1 2530.8)"/><use fill="#0043FA" xlink:href="#Q" transform="translate(-11269 -2511) translate(11312.5 2529.22)"/><use fill="#0043FA" xlink:href="#R" transform="translate(-11269 -2511) translate(11300.8 2537.54)"/><use fill="#0043FA" xlink:href="#S" transform="translate(-11269 -2511) translate(11308.9 2532.65)"/><use fill="#0043FA" xlink:href="#T" transform="translate(-11269 -2511) translate(11309.2 2538.15)"/><use fill="#0043FA" xlink:href="#U" transform="translate(-11269 -2511) translate(11310 2538.11)"/><use fill="#0043FA" xlink:href="#V" transform="translate(-11269 -2511) translate(11310.6 2537.61)"/><use fill="#0043FA" xlink:href="#W" transform="translate(-11269 -2511) translate(11311.9 2536.98)"/><use fill="#0043FA" xlink:href="#X" transform="translate(-11269 -2511) translate(11312.5 2536.62)"/><use fill="#0043FA" xlink:href="#Y" transform="translate(-11269 -2511) translate(11312.7 2536.19)"/><use fill="#0043FA" xlink:href="#Z" transform="translate(-11269 -2511) translate(11312.8 2535.53)"/><use fill="#0043FA" xlink:href="#aa" transform="translate(-11269 -2511) translate(11309 2536.92)"/><use fill="#0043FA" xlink:href="#ab" transform="translate(-11269 -2511) translate(11309.9 2537.05)"/><use fill="#0043FA" xlink:href="#ac" transform="translate(-11269 -2511) translate(11310.5 2536.9)"/><use fill="#0043FA" xlink:href="#ad" transform="translate(-11269 -2511) translate(11311.1 2536.71)"/><use fill="#0043FA" xlink:href="#ae" transform="translate(-11269 -2511) translate(11311.2 2536.27)"/><use fill="#0043FA" xlink:href="#af" transform="translate(-11269 -2511) translate(11311.6 2535.72)"/><use fill="#0043FA" xlink:href="#ag" transform="translate(-11269 -2511) translate(11311.9 2535.07)"/><use fill="#0043FA" xlink:href="#ah" transform="translate(-11269 -2511) translate(11311.6 2534.35)"/><use fill="#0043FA" xlink:href="#ai" transform="translate(-11269 -2511) translate(11311.6 2533.22)"/><use fill="#0043FA" xlink:href="#aj" transform="translate(-11269 -2511) translate(11311.5 2531.99)"/><use fill="#0043FA" xlink:href="#ak" transform="translate(-11269 -2511) translate(11308.5 2536.55)"/><use fill="#0043FA" xlink:href="#al" transform="translate(-11269 -2511) translate(11311.3 2537.54)"/><use fill="#0043FA" xlink:href="#am" transform="translate(-11269 -2511) translate(11306.3 2530.36)"/><use fill="#0043FA" xlink:href="#an" transform="translate(-11269 -2511) translate(11304.4 2531.05)"/><use fill="#0043FA" xlink:href="#ao" transform="translate(-11269 -2511) translate(11306.7 2530.63)"/><use fill="#0043FA" xlink:href="#ap" transform="translate(-11269 -2511) translate(11305.9 2529.33)"/><use fill="#0043FA" xlink:href="#aq" transform="translate(-11269 -2511) translate(11306.4 2529.17)"/><use fill="#0043FA" xlink:href="#ar" transform="translate(-11269 -2511) translate(11306 2530.79)"/><use fill="#0043FA" xlink:href="#as" transform="translate(-11269 -2511) translate(11305.7 2530.69)"/><use fill="#0043FA" xlink:href="#at" transform="translate(-11269 -2511) translate(11304.3 2531.19)"/><use fill="#0043FA" xlink:href="#au" transform="translate(-11269 -2511) translate(11304 2531.24)"/><use fill="#0043FA" xlink:href="#av" transform="translate(-11269 -2511) translate(11303.3 2531.41)"/><use fill="#0043FA" xlink:href="#aw" transform="translate(-11269 -2511) translate(11304.1 2532.07)"/><use fill="#0043FA" xlink:href="#ax" transform="translate(-11269 -2511) translate(11305.2 2532.11)"/><use fill="#0043FA" xlink:href="#ay" transform="translate(-11269 -2511) translate(11304.8 2532.11)"/><use fill="#0043FA" xlink:href="#az" transform="translate(-11269 -2511) translate(11304.6 2530.32)"/><use fill="#0043FA" xlink:href="#aA" transform="translate(-11269 -2511) translate(11304.2 2530.41)"/><use fill="#0043FA" xlink:href="#aB" transform="translate(-11269 -2511) translate(11304.9 2530.41)"/><use fill="#0043FA" xlink:href="#aC" transform="translate(-11269 -2511) translate(11304.5 2529.71)"/><use fill="#0043FA" xlink:href="#aD" transform="translate(-11269 -2511) translate(11302.5 2530.81)"/><use fill="#0043FA" xlink:href="#aE" transform="translate(-11269 -2511) translate(11302.8 2530.04)"/><use fill="#0043FA" xlink:href="#aF" transform="translate(-11269 -2511) translate(11303.1 2529.7)"/><use fill="#0043FA" xlink:href="#aG" transform="translate(-11269 -2511) translate(11303.5 2529.8)"/><use fill="#0043FA" xlink:href="#aH" transform="translate(-11269 -2511) translate(11305.8 2532.02)"/><use fill="#0043FA" xlink:href="#aI" transform="translate(-11269 -2511) translate(11306.1 2532.09)"/><use fill="#0043FA" xlink:href="#aJ" transform="translate(-11269 -2511) translate(11304.8 2532.49)"/><use fill="#0043FA" xlink:href="#aK" transform="translate(-11269 -2511) translate(11305.7 2533)"/><use fill="#0043FA" xlink:href="#aL" transform="translate(-11269 -2511) translate(11306.1 2533.01)"/><use fill="#0043FA" xlink:href="#aM" transform="translate(-11269 -2511) translate(11306.1 2534.36)"/><use fill="#0043FA" xlink:href="#aN" transform="translate(-11269 -2511) translate(11305.6 2534.19)"/><use fill="#0043FA" xlink:href="#aO" transform="translate(-11269 -2511) translate(11304.4 2534.09)"/><use fill="#0043FA" xlink:href="#aP" transform="translate(-11269 -2511) translate(11304.9 2533.84)"/><use fill="#0043FA" xlink:href="#aQ" transform="translate(-11269 -2511) translate(11306.2 2536.26)"/><use fill="#0043FA" xlink:href="#aR" transform="translate(-11269 -2511) translate(11305.8 2535.3)"/><use fill="#0043FA" xlink:href="#aS" transform="translate(-11269 -2511) translate(11305.2 2535.31)"/><use fill="#0043FA" xlink:href="#aT" transform="translate(-11269 -2511) translate(11304.6 2535.62)"/><use fill="#0043FA" xlink:href="#aU" transform="translate(-11269 -2511) translate(11304.9 2536.23)"/><use fill="#0043FA" xlink:href="#aV" transform="translate(-11269 -2511) translate(11305.4 2536.23)"/><use fill="#0043FA" xlink:href="#aW" transform="translate(-11269 -2511) translate(11305.8 2537.24)"/><use fill="#0043FA" xlink:href="#aX" transform="translate(-11269 -2511) translate(11305.2 2537.2)"/><use fill="#0043FA" xlink:href="#aY" transform="translate(-11269 -2511) translate(11306.1 2538.22)"/><use fill="#0043FA" xlink:href="#aZ" transform="translate(-11269 -2511) translate(11305.5 2538.18)"/><use fill="#0043FA" xlink:href="#ba" transform="translate(-11269 -2511) translate(11308.6 2531.06)"/><use fill="#0043FA" xlink:href="#bb" transform="translate(-11269 -2511) translate(11306.6 2529.15)"/><use fill="#0043FA" xlink:href="#bc" transform="translate(-11269 -2511) translate(11307.2 2529.32)"/><use fill="#0043FA" xlink:href="#bd" transform="translate(-11269 -2511) translate(11307 2529.17)"/><use fill="#0043FA" xlink:href="#be" transform="translate(-11269 -2511) translate(11307.3 2530.79)"/><use fill="#0043FA" xlink:href="#bf" transform="translate(-11269 -2511) translate(11307.1 2530.69)"/><use fill="#0043FA" xlink:href="#bg" transform="translate(-11269 -2511) translate(11307.1 2531.19)"/><use fill="#0043FA" xlink:href="#bh" transform="translate(-11269 -2511) translate(11309.4 2531.24)"/><use fill="#0043FA" xlink:href="#bi" transform="translate(-11269 -2511) translate(11309.1 2531.41)"/><use fill="#0043FA" xlink:href="#bj" transform="translate(-11269 -2511) translate(11308.8 2532.07)"/><use fill="#0043FA" xlink:href="#bk" transform="translate(-11269 -2511) translate(11307.8 2532.11)"/><use fill="#0043FA" xlink:href="#bl" transform="translate(-11269 -2511) translate(11308.2 2532.11)"/><use fill="#0043FA" xlink:href="#bm" transform="translate(-11269 -2511) translate(11308.8 2530.32)"/><use fill="#0043FA" xlink:href="#bn" transform="translate(-11269 -2511) translate(11309.1 2530.41)"/><use fill="#0043FA" xlink:href="#bo" transform="translate(-11269 -2511) translate(11308.4 2530.41)"/><use fill="#0043FA" xlink:href="#bp" transform="translate(-11269 -2511) translate(11308.7 2529.71)"/><use fill="#0043FA" xlink:href="#bq" transform="translate(-11269 -2511) translate(11306.6 2528.55)"/><use fill="#0043FA" xlink:href="#br" transform="translate(-11269 -2511) translate(11310.8 2530.81)"/><use fill="#0043FA" xlink:href="#bs" transform="translate(-11269 -2511) translate(11310.5 2530.04)"/><use fill="#0043FA" xlink:href="#bt" transform="translate(-11269 -2511) translate(11309.8 2529.7)"/><use fill="#0043FA" xlink:href="#bu" transform="translate(-11269 -2511) translate(11309.6 2529.8)"/><use fill="#0043FA" xlink:href="#bv" transform="translate(-11269 -2511) translate(11307.4 2532.02)"/><use fill="#0043FA" xlink:href="#bw" transform="translate(-11269 -2511) translate(11307 2532.09)"/><use fill="#0043FA" xlink:href="#bx" transform="translate(-11269 -2511) translate(11308.1 2532.49)"/><use fill="#0043FA" xlink:href="#by" transform="translate(-11269 -2511) translate(11307.6 2533)"/><use fill="#0043FA" xlink:href="#bz" transform="translate(-11269 -2511) translate(11306.5 2532.68)"/><use fill="#0043FA" xlink:href="#bA" transform="translate(-11269 -2511) translate(11307.1 2533.01)"/><use fill="#0043FA" xlink:href="#bB" transform="translate(-11269 -2511) translate(11306.6 2533.78)"/><use fill="#0043FA" xlink:href="#bC" transform="translate(-11269 -2511) translate(11307.2 2534.36)"/><use fill="#0043FA" xlink:href="#bD" transform="translate(-11269 -2511) translate(11307.6 2534.19)"/><use fill="#0043FA" xlink:href="#bE" transform="translate(-11269 -2511) translate(11307.8 2534.09)"/><use fill="#0043FA" xlink:href="#bF" transform="translate(-11269 -2511) translate(11308.1 2533.84)"/><use fill="#0043FA" xlink:href="#bG" transform="translate(-11269 -2511) translate(11306.5 2534.69)"/><use fill="#0043FA" xlink:href="#bH" transform="translate(-11269 -2511) translate(11306.5 2535.7)"/><use fill="#0043FA" xlink:href="#bI" transform="translate(-11269 -2511) translate(11306.9 2536.26)"/><use fill="#0043FA" xlink:href="#bJ" transform="translate(-11269 -2511) translate(11307.3 2535.3)"/><use fill="#0043FA" xlink:href="#bK" transform="translate(-11269 -2511) translate(11308 2535.31)"/><use fill="#0043FA" xlink:href="#bL" transform="translate(-11269 -2511) translate(11308.6 2535.62)"/><use fill="#0043FA" xlink:href="#bM" transform="translate(-11269 -2511) translate(11308.4 2536.23)"/><use fill="#0043FA" xlink:href="#bN" transform="translate(-11269 -2511) translate(11307.6 2536.23)"/><use fill="#0043FA" xlink:href="#bO" transform="translate(-11269 -2511) translate(11306.6 2537.35)"/><use fill="#0043FA" xlink:href="#bP" transform="translate(-11269 -2511) translate(11307.3 2537.24)"/><use fill="#0043FA" xlink:href="#bQ" transform="translate(-11269 -2511) translate(11308 2537.2)"/><use fill="#0043FA" xlink:href="#bR" transform="translate(-11269 -2511) translate(11306.6 2538.91)"/><use fill="#0043FA" xlink:href="#bS" transform="translate(-11269 -2511) translate(11307 2538.22)"/><use fill="#0043FA" xlink:href="#bT" transform="translate(-11269 -2511) translate(11307.8 2538.18)"/><use fill="#0043FA" xlink:href="#bU" transform="translate(-11269 -2511) translate(11306.3 2539.94)"/><use fill="#0043FA" xlink:href="#bV" transform="translate(-11269 -2511) translate(11305.6 2539.03)"/><use fill="#0043FA" xlink:href="#bW" transform="translate(-11269 -2511) translate(11305.4 2539.52)"/><use fill="#0043FA" xlink:href="#bX" transform="translate(-11269 -2511) translate(11304.9 2539.89)"/><use fill="#0043FA" xlink:href="#bY" transform="translate(-11269 -2511) translate(11304.7 2539.48)"/><use fill="#0043FA" xlink:href="#bZ" transform="translate(-11269 -2511) translate(11303.8 2540.16)"/><use fill="#0043FA" xlink:href="#ca" transform="translate(-11269 -2511) translate(11303.7 2540.75)"/><use fill="#0043FA" xlink:href="#cb" transform="translate(-11269 -2511) translate(11304.3 2540.54)"/><use fill="#0043FA" xlink:href="#cc" transform="translate(-11269 -2511) translate(11304.8 2540.54)"/><use fill="#0043FA" xlink:href="#cd" transform="translate(-11269 -2511) translate(11301.7 2541.07)"/><use fill="#0043FA" xlink:href="#ce" transform="translate(-11269 -2511) translate(11305.2 2540.55)"/><use fill="#0043FA" xlink:href="#cf" transform="translate(-11269 -2511) translate(11305.8 2544.45)"/><use fill="#0043FA" xlink:href="#cg" transform="translate(-11269 -2511) translate(11304 2541.91)"/><use fill="#0043FA" xlink:href="#ch" transform="translate(-11269 -2511) translate(11301.2 2539.82)"/><use fill="#0043FA" xlink:href="#ci" transform="translate(-11269 -2511) translate(11300.8 2540.06)"/><use fill="#0043FA" xlink:href="#cj" transform="translate(-11269 -2511) translate(11303 2543.16)"/><use fill="#0043FA" xlink:href="#ck" transform="translate(-11269 -2511) translate(11305.1 2541.78)"/><use fill="#0043FA" xlink:href="#cl" transform="translate(-11269 -2511) translate(11301.5 2543.33)"/><use fill="#0043FA" xlink:href="#cm" transform="translate(-11269 -2511) translate(11301.9 2543.5)"/><use fill="#0043FA" xlink:href="#cn" transform="translate(-11269 -2511) translate(11302.4 2543.57)"/><use fill="#0043FA" xlink:href="#co" transform="translate(-11269 -2511) translate(11302.4 2543.24)"/><use fill="#0043FA" xlink:href="#cp" transform="translate(-11269 -2511) translate(11307.6 2539.03)"/><use fill="#0043FA" xlink:href="#cq" transform="translate(-11269 -2511) translate(11307.3 2539.52)"/><use fill="#0043FA" xlink:href="#cr" transform="translate(-11269 -2511) translate(11307.9 2539.89)"/><use fill="#0043FA" xlink:href="#cs" transform="translate(-11269 -2511) translate(11308.1 2539.48)"/><use fill="#0043FA" xlink:href="#ct" transform="translate(-11269 -2511) translate(11308.7 2540.16)"/><use fill="#0043FA" xlink:href="#cu" transform="translate(-11269 -2511) translate(11309 2540.75)"/><use fill="#0043FA" xlink:href="#cv" transform="translate(-11269 -2511) translate(11308.7 2540.54)"/><use fill="#0043FA" xlink:href="#cw" transform="translate(-11269 -2511) translate(11308.2 2540.54)"/><use fill="#0043FA" xlink:href="#cx" transform="translate(-11269 -2511) translate(11309.1 2541.07)"/><use fill="#0043FA" xlink:href="#cy" transform="translate(-11269 -2511) translate(11307.3 2540.55)"/><use fill="#0043FA" xlink:href="#cz" transform="translate(-11269 -2511) translate(11305.6 2541.65)"/><use fill="#0043FA" xlink:href="#cA" transform="translate(-11269 -2511) translate(11306.5 2542.83)"/><use fill="#0043FA" xlink:href="#cB" transform="translate(-11269 -2511) translate(11305.2 2541.91)"/><use fill="#0043FA" xlink:href="#cC" transform="translate(-11269 -2511) translate(11306.9 2543.21)"/><use fill="#0043FA" xlink:href="#cD" transform="translate(-11269 -2511) translate(11307.9 2544.47)"/><use fill="#0043FA" xlink:href="#cE" transform="translate(-11269 -2511) translate(11311.4 2539.82)"/><use fill="#0043FA" xlink:href="#cF" transform="translate(-11269 -2511) translate(11310.6 2540.06)"/><use fill="#0043FA" xlink:href="#cG" transform="translate(-11269 -2511) translate(11307.2 2541.78)"/><use fill="#0043FA" xlink:href="#cH" transform="translate(-11269 -2511) translate(11309 2543.16)"/><use fill="#0043FA" xlink:href="#cI" transform="translate(-11269 -2511) translate(11311.4 2543.33)"/><use fill="#0043FA" xlink:href="#cJ" transform="translate(-11269 -2511) translate(11311.2 2543.5)"/><use fill="#0043FA" xlink:href="#cK" transform="translate(-11269 -2511) translate(11310.8 2543.57)"/><use fill="#0043FA" xlink:href="#cL" transform="translate(-11269 -2511) translate(11310.8 2543.24)"/></g></g></g></g><defs><path id="a" d="M50 0H0v50h50V0z"/><path id="b" d="M0 0v-.5c-.28 0-.5.22-.5.5H0zm50 0h.5c0-.28-.22-.5-.5-.5V0zm0 50v.5c.28 0 .5-.22.5-.5H50zM0 50h-.5c0 .28.22.5.5.5V50zM0 .5h50v-1H0v1zM49.5 0v50h1V0h-1zm.5 49.5H0v1h50v-1zM.5 50V0h-1v50h1z"/><path id="c" d="M0 24.56h24.57V0H0v24.56z"/><path id="d" d="M0 0v5.12h.84v-1.5c.17.16.35.24.55.24.26 0 .5-.14.67-.44.2-.32.3-.8.3-1.44 0-.44-.07-.83-.23-1.17L2.1.76 2.1.7 2.06.67 2.04.62 2 .58 1.98.53 1.94.5 1.92.46 1.88.42 1.85.4 1.82.34 1.78.32 1.74.28 1.7.26 1.68.23 1.63.2 1.6.18 1.54.16 1.5.14 1.48.12 1.42.1 1.38.08 1.33.06h-.09L1.2.03 1.13.02H.98L.93 0H0zm.8.73h.08c.2 0 .38.12.5.35.1.24.17.6.17 1.1 0 .28-.03.5-.1.64-.08.14-.18.22-.28.22-.1 0-.2-.07-.26-.2s-.1-.32-.1-.56V.73z"/><path id="e" d="M2.8 0L2.7.07S.96 1.9.82 2.05V.25H0v5.13h.83v-2.1c.02-.03 1.08-1.16 1.2-1.3 0 .2.12 3.4.12 3.4H3L2.8 0z"/><path id="f" d="M2.73.07L2.7.1l-.02.02-.03.03-.02.02L2.6.2V.2l-.04.02-.02.03L2.5.3 2.5.33l-.03.03-.07.07L2.3.5l-.06.08-.08.08-.08.1L2 .82l-.1.1-.07.08-.17.2-.1.08-.07.08-.1.1-.07.07-.08.08-.07.08-.06.07-.04.03-.03.04-.03.03-.02.03-.03.02-.02.03-.02.02-.02.02V2H.86v.02H.84v.02H.82V.25H0V5.4h.83v-2.1c.02-.03 1.08-1.16 1.2-1.3 0 .2.12 3.4.12 3.4H3L2.8 0l-.07.07z"/><path id="g" d="M1.3 3.98l-.05-.06-.04-.07-.04-.07-.03-.06-.04-.08-.04-.07-.04-.08L1 3.4l-.02-.07-.03-.08v-.1L.9 3.08v-.1L.9 2.9v-.2c0-.54.13-.97.38-1.3.3-.33.7-.5 1.23-.5h.05V0H2.5C1.7 0 1.05.26.6.77.2 1.24 0 1.9 0 2.7c0 .8.22 1.44.65 1.93.45.5 1.08.78 1.88.78h.04v-.9h-.04C2 4.5 1.6 4.34 1.3 4z"/><path id="h" d="M1.43 0C1 0 .63.25.38.74.13 1.24 0 1.87 0 2.66c0 .82.12 1.48.36 1.96.24.5.6.74 1.07.74.48 0 .86-.27 1.13-.78.25-.48.38-1.13.38-1.93 0-.78-.13-1.43-.4-1.9L2.53.7 2.5.65 2.48.6 2.44.58 2.42.53 2.4.5 2.35.46 2.33.42 2.3.4 2.27.34 2.24.32 2.2.3 2.17.26 2.14.24 2.1.2 2.08.2 2.03.16H2L1.96.12 1.92.1H1.9L1.84.06H1.8L1.78.04h-.04L1.68.02H1.6L1.58 0h-.14zm0 .83c.24 0 .4.16.52.5.1.3.14.75.14 1.32 0 .56-.06 1.02-.17 1.37l-.02.04v.05l-.02.04v.03l-.03.02v.02l-.02.02v.03l-.03.02-.02.03-.02.02v.02l-.02.02h-.02l-.03.03h-.03l-.02.03-.03.02-.03.02H1.5l-.02.02h-.07c-.2 0-.35-.17-.47-.5C.86 3.64.8 3.2.8 2.65c0-.55.05-1 .16-1.34.1-.32.27-.5.47-.5z"/><path id="i" d="M1.3 3.98l-.02-.03-.03-.03-.05-.07-.04-.07-.04-.06-.03-.08-.05-.07-.03-.08L1 3.4l-.03-.07-.02-.08v-.1L.9 3.08v-.1L.9 2.9v-.2c0-.54.12-.97.4-1.3.26-.33.68-.5 1.2-.5h.06V0H2.5C1.7 0 1.04.26.6.77.2 1.24 0 1.9 0 2.7c0 .8.22 1.44.65 1.93.45.5 1.08.78 1.88.78h.04v-.9h-.04C2 4.5 1.6 4.34 1.3 4z"/><path id="j" d="M0 0v5.16h.95V.86h1.18v4.3h.94V0H0z"/><path id="k" d="M1.62 0c-.5 0-.9.25-1.2.75C.14 1.25 0 1.9 0 2.68c0 .82.13 1.5.4 1.97.28.5.7.75 1.22.75.54 0 .96-.26 1.26-.78.28-.5.43-1.14.43-1.94S3.17 1.24 2.88.75L2.85.7 2.82.67 2.8.6 2.74.6 2.73.53 2.7.5 2.65.46 2.62.42 2.6.38 2.55.36 2.52.32 2.5.3 2.44.25 2.4.24 2.38.2h-.04L2.3.15 2.25.14H2.2L2.18.1h-.04L2.08.06h-.04L2 .04h-.05L1.9.02h-.04L1.8 0H1.64zm0 .87c.26 0 .44.17.56.5.1.3.17.74.17 1.3s-.06 1-.2 1.36c-.12.34-.3.5-.53.5h-.1V4.5h-.08l-.02-.02H1.4v-.02l-.02-.02h-.02l-.02-.03h-.02l-.03-.03-.02-.02v-.02l-.03-.02h-.02v-.03l-.03-.02v-.03l-.02-.03v-.02l-.02-.04-.02-.03V4.1l-.02-.02-.02-.03C.97 3.67.9 3.23.9 2.7c0-.56.07-1 .2-1.34.12-.33.3-.5.52-.5z"/><path id="l" d="M0 0v.86h.8v4.3h.94V.86h.8V0H0z"/><path id="m" d="M2.05 1.8h-.52c-.2 0-.37-.05-.47-.15-.08-.06-.1-.16-.1-.27V0H0v1.47c0 .34.14.63.4.86.26.22.58.34.95.34h.7v2.5H3V0h-.95v1.8z"/><path id="n" d="M.17 0L0 5.16h.95s.08-2.4.1-2.53H2.2c0 .1.28 2.53.28 2.53h.95L3 1.4V1.05l-.02-.03v-.1L2.95.92V.88L2.93.84 2.92.8V.78L2.9.73 2.88.7V.67L2.84.63V.6L2.8.57 2.8.54 2.77.5V.48h-.03L2.7.4V.4L2.65.38 2.63.35 2.6.33V.3L2.54.28C2.3.08 2 0 1.58 0H.18zm.9.85h.35c.25 0 .4.08.52.23.08.13.14.37.17.7H1.07V.9h.02V.86z"/><path id="o" d="M23.86 0H0v24.6h24.6V0h-.74z"/><path id="p" d="M21.65 0H0v21.65h21.65V0z"/><path id="q" d="M.3 0l.03.08.04.07.04.08.06.08.03.05L.5.4l.02.03.03.04L.6.5l.04.05.03.04.04.03.05.04L.8.7l.03.06.04.04.05.05.05.04.05.03.05.05.06.04.06.05.05.05.06.05.08.05.07.05.07.05.07.05c.17.13.38.4.22.75-.15.37-.44.88-.26 1.1.17.2.78.3 1.28.1 0 0 .1.3.3.5 0 0-.1.18-.4.1 0 0 .12.26-.03.54 0 0-.32-.06-.47-.37 0 0-.13.23-.4.32 0 0-.22-.12-.17-.56 0 0-.16.4-.66.46 0 0-.3-.36.08-.85 0 0-.27.24-.75.12 0 0-.08-.26.36-.6 0 0-.5-.03-.7-.44 0 0 .2-.27.73-.2 0 0-.48-.1-.6-.7 0 0 .36-.2.9.15 0 0-.1-.18-.32-.36S.2.74.3 0z"/><path id="r" d="M.17.3L.15.26V.25L.12.23V.2H.1V.17L.08.16V.14L.05.12.03.08V.04H0V0c.1.7.12 1.17.5 1.62 0 0 .22-.3.07-1.03C.5.56.44.53.37.5c0 0 .1.3.03.6 0 0-.13-.1-.23-.8z"/><path id="s" d="M.22.26V.23H.2V.2H.17V.2L.14.17V.16L.12.14V.12L.1.1.07.06V.05L.05.03V0H.03C0 .4-.1 1.47.26 1.8c0 0 .24-.18.33-1.73C.53.17.44.25.4.3c0 0 .06.5-.1.84C.3 1.14.1 1 .2.26z"/><path id="t" d="M.42 1.57l.02-.03.03-.04.03-.04.02-.05.02-.04.03-.05v-.05l.04-.05.02-.06.02-.06.02-.06V.96L.7.84V.78L.74.72V.6L.77.56v-.1L.8.4V.28L.8.24V.14C.86.1.9.08.94.04.95.04.97.02.98 0c0 .04 0 .08 0 .12C.95.77.9 1.44.7 1.77c-.2.33-.55.5-.55.5-.34-.6.07-1.43.4-2C.6.27.64.24.7.22.55.65.32 1.17.42 1.57z"/><path id="u" d="M1.98.33v.1H2V.5c0 .02 0 .04.02.06-.28.27-.5.54-.92 1.13-.43.6-1.1.62-1.1.62.07-.5.2-.87.56-1.27C.9.63 1.38.25 1.7 0c.1.04.22.07.36.05 0 0 .02 0 .03 0C2.04.1 2 .14 2 .2 1.75.36 1 .74.7 1.35c0 0 .47-.15 1.28-1.02z"/><path id="v" d="M2.55.1l.03-.06S2.6 0 2.6 0c-.27.1-1.25.48-1.57.64C.7.8.25 1.18 0 1.94c0 0 .67.07 1.22-.4C1.76 1.1 2.4.47 2.68.27 2.65.24 2.63.2 2.6.2c0 0-.73.65-1.52.93 0 0 .17-.3.48-.52.38-.26.66-.35 1-.5z"/><path id="w" d="M2.88.08V.03h.02V0C2.6.07 1.78.17 1.4.28 1.05.38.4.65 0 1.4c0 0 .57.17 1.65-.33S3.07.45 3.28.4c-.17 0-.3-.07-.35-.1-.43.18-1 .4-1.57.43 0 0 .28-.2.57-.33.33-.13.68-.25.95-.32z"/><path id="x" d="M3.63.2l.03.02h.04l.02.02h.04l.02.02h.08V.3H3.96c-.08.06-.15.12-.2.2-.4.1-1.04.23-2.1.3C.56.9 0 .7 0 .7.37.43.97.2 1.37.12 1.77.06 2.83.07 3.3 0c0 0 .05.05.14.1-.4.04-1.22.08-1.65.3 0 0 .8.1 1.83-.2z"/><path id="y" d="M3.92.62L3.95.6h.04V.57H4l.03-.02h.04V.53h.02L4.13.5C3.58.36 2.84.1 1.72.02.9-.03.32.02 0 .1c0 0 .75.52 1.6.7.86.2 1.55.08 2.05.08.04-.05.08-.1.14-.16-.6 0-1.6-.15-1.95-.27 0 0 .86-.18 2.07.17z"/><path id="z" d="M3.93 1.4v.04h.02v.05h.02v.02l.02.02v.04h.02v.03l.02.03.02.02.02.02.02.02.03.03.02.02.03.02.02.02h.03l.03.03h.02l.04.03.03.02c-.76-.33-2.26-.52-3.06-.86C.2.57 0 0 0 0c.94-.02 1.7.2 2.3.4.68.2 1.72.6 2.1.75-.15 0-.3.04-.43.13-.5-.2-.75-.28-1.2-.4-.38-.1-.65-.13-.88-.15 0 0 .32.2.85.38.52.18.75.2 1.18.3z"/><path id="A" d="M3.08 2.85v.02h.02v.02h.02v.02h.02v.03h.02V3L3.2 3v.02h.02v.02h.02v.02h.02v.02C2.04 2.88.7 1.98.3 1.4-.1.84.03 0 .03 0c.4.08 1.25.82 1.47 1.05.22.22.9.88 1.36 1.24l.14.4c-.4-.3-.87-.66-1.16-.9-.23-.16-.57-.4-.9-.52 0 0 .3.4.55.6.28.24.58.44.82.57.2.12.32.2.76.4z"/><path id="B" d="M.02.1L.05.07.07.05H.1V.03L.1 0 .13 0c.06.07.24.3.33.54.07.2.15.46.18.6.04.17.15.5.22.6 0 0-.3.04-.52-.22-.2-.25-.28-.5-.3-.76C-.02.56 0 .28.02.1z"/><path id="C" d="M.2 0v.02h.02v.02h.02v.02h.02V.1H.3L.3.1l.05.03H.4C.42.1.45.08.5.07c.04.1.05.17.07.27C.57.48.6.7.57.87c-.08.2-.2.33-.27.42 0 0-.2-.23-.25-.4C0 .72-.02.5.05.3.08.16.15.05.2 0z"/><path id="D" d="M.52.18H.6L.6.15h.03L.7.13H.7L.75.1h.03L.8.1h.03L.86.06h.02L.9.03h.03L.95 0h.02c.03.07.07.16.04.3C1 .4.9.56.77.67.56.83.3.98 0 .93c0 0-.06-.2.52-.75z"/><path id="E" d="M.73 0v.07h.02v.08h.02V.2H.8v.06h.02V.3L.85.3v.02h.02C.8.43.54.83.03.77c0 0-.14-.3.2-.52C.46.08.57.04.73 0z"/><path id="F" d="M1.3.07h-.03L1.24.1H.83L.82.07H.76L.7.05.68 0C.42.22.1.25 0 .45c0 0 .13.24.47.2.35-.04.6-.2.8-.43 0-.04 0-.1.02-.15z"/><path id="G" d="M1.3.33L1.33.3l.02-.02V.26h.02V.22L1.38.2V.16L1.4.15l.02-.02V.1h.02V.07h.02V.05h.02V.03h.02c-.23-.05-.43-.06-.7 0C.48.1.16.17 0 .64c0 0 .2.2.57.1.3-.05.58-.2.74-.4z"/><path id="H" d="M1.5.46L1.47.44h-.02V.4h-.03V.38H1.4V.34h-.02V.3L1.35.3 1.34.28V.26L1.3.24V.22L1.3.2V.18L1.25.12C1 .02.7-.05.42.05.14.15.07.28 0 .38c0 0 .3.27.67.28.35 0 .68-.1.82-.2z"/><path id="I" d="M1.3.6h.06L1.4.57h.07C1.33.45 1.2.3 1.15.04 1.02.08.72.08.6.03.45-.02.2-.02 0 .1 0 .1.07.47.52.6c.43.12.6.1.77.03z"/><path id="J" d="M1.35 1.05L1.4 1c.02 0 .12-.06.3-.07C1.54.83 1.2.53.94.4.68.23.23.02 0 0c0 0 .22.56.46.8.26.23.44.3.9.25z"/><path id="K" d="M1.35 2.02L1.33 2l-.02-.04v-.03l-.03-.03-.02-.03v-.03L1.2 1.8l-.02-.03v-.04l-.03-.03-.02-.04v-.04l-.02-.04-.02-.04v-.1C1.03 1.25.9.8.84.67.78.55.53.13.03 0c0 0-.13.55.12 1 .2.36.65.76 1.2 1.02z"/><path id="L" d="M.74.02l.02.02v.02H.8V.1h.02V.1h.02v.02H.9v.02h.04v.02h.02s.17.3-.02.68c-.2.36-.35.73-.43.94 0 0-.1-.02-.22-.6C.2.82.1.72 0 .6c.1.06.2.07.2.07L.3.67.32.6C.4.47.4.34.4.24.4.2.4.17.4.14.58.14.67.04.7 0c0 0 .02 0 .02 0l.02.02z"/><path id="M" d="M2.3 3V3.18l.02.14c-.3-.36-.65-.8-.98-1.23-.23-.28-.42-.45-.64-.6.2.54.5.96.74 1.16.23.2.56.57.88.78l.03.1c.03.1.06.2.12.3.08.14.17.27.3.4-.1-.05-.2-.1-.32-.14L2.35 4C1.45 3.55.58 2.58.23 1.9-.13 1.2.03.4.1 0c.4.34 1 1 1.25 1.38.3.45.7 1.1.95 1.6V3z"/><path id="N" d="M.2.62L.17.6H.15L.12.57H.1V.55H.06L.03.53H0V.5C.54.36 1.3.1 2.4.02c.83-.05 1.42 0 1.72.08 0 0-.75.52-1.6.7C1.67 1 .97.9.47.9.43.83.4.78.34.72c.6 0 1.58-.15 1.93-.27 0 0-.86-.18-2.07.17z"/><path id="O" d="M.46 1.4v.04H.43v.05H.4v.02l-.02.02v.02l-.02.02-.02.03-.02.03v.02l-.03.02v.02H.27l-.03.03-.02.02-.02.02v.02H.15l-.03.03H.1l-.03.03-.03.02c.76-.33 2.26-.52 3.07-.86C4.2.57 4.4 0 4.4 0c-.95-.02-1.72.2-2.3.4C1.4.6.37 1 0 1.14c.14 0 .3.04.42.13.5-.2.75-.28 1.2-.4.38-.1.65-.13.87-.15 0 0-.33.2-.86.38-.52.18-.75.2-1.18.3z"/><path id="P" d="M.16 2.84v.02H.13v.04H.1v.03l-.03.02H.07V3H.05v.03l-.02.02-.02.02v.02H0v.02c1.2-.2 2.53-1.1 2.93-1.68.42-.56.3-1.4.3-1.4-.4.08-1.26.82-1.48 1.05-.22.22-.9.88-1.37 1.24l-.14.4c.4-.3.87-.66 1.16-.9.24-.16.57-.4.9-.52 0 0-.3.4-.55.6-.3.24-.6.44-.83.57-.2.12-.33.2-.76.4z"/><path id="Q" d="M.46 3v.31c.28-.36.62-.8.96-1.23.23-.28.42-.45.63-.6-.18.54-.5.96-.73 1.16-.23.2-.56.57-.88.78l-.03.1c-.02.1-.06.2-.1.3-.1.14-.2.27-.3.4.1-.05.2-.1.3-.14L.4 4c.9-.46 1.78-1.43 2.13-2.1.36-.7.2-1.48.12-1.9-.4.34-1 1-1.24 1.38-.3.45-.7 1.1-.94 1.6V3z"/><path id="R" d="M1.07.05l-.04.03L1 .12.96.16.92.2.87.25.83.3.78.35.74.4.7.46.63.5.6.58.55.63.5.7.47.75.42.82.37.9.33.95l-.04.07-.05.07-.04.07-.02.08-.03.07-.03.08-.03.08-.03.07-.03.08v.08L0 1.8V2.13s.72-.24 1.02-.76c.3-.53.47-.86.6-.98-.08 0-.16 0-.24 0h-.06c-.2.32-.55.87-.87 1.05 0 0-.08-.44.87-1.33 0-.04.03-.08.06-.12-.1.03-.2.05-.3.04"/><path id="S" d="M2.83 0L2.8.08l-.04.07-.04.08-.05.08-.03.05-.02.04-.03.03-.04.04-.03.04-.04.05-.04.04-.04.03-.04.04-.04.04-.04.06-.04.04-.05.05-.04.04-.05.03-.04.05-.06.04-.06.05-.06.05-.06.05-.07.05-.07.05-.07.05-.06.05c-.2.13-.4.4-.23.75.16.37.45.88.27 1.1-.17.2-.78.3-1.28.1 0 0-.12.3-.3.5 0 0 .1.18.38.1 0 0-.1.26.04.54 0 0 .33-.06.47-.37 0 0 .13.23.4.32 0 0 .22-.12.17-.56 0 0 .16.4.66.46 0 0 .3-.36-.1-.85 0 0 .28.24.77.12 0 0 .08-.26-.36-.6 0 0 .5-.03.7-.44 0 0-.23-.27-.74-.2 0 0 .48-.1.58-.7 0 0-.34-.2-.9.15 0 0 .1-.18.34-.36.23-.18.5-.7.4-1.44z"/><path id="T" d="M.46.3V.26L.5.25.5.23V.2h.02V.17L.55.16V.14L.57.12.6.08V.06L.6.05.63 0V0C.54.7.52 1.17.12 1.62c0 0-.22-.3-.07-1.03C.12.56.18.53.25.5c0 0-.08.3-.03.6 0 0 .14-.1.24-.8z"/><path id="U" d="M.37.26V.23H.4V.2L.43.2.44.17V.16L.47.14V.12L.5.1H.5V.06L.53.05V.03h.02V0C.6.4.7 1.47.35 1.8c0 0-.26-.18-.34-1.73.05.1.14.18.18.23 0 0-.06.5.12.84 0 0 .18-.13.07-.88z"/><path id="V" d="M.57 1.57l-.02-.03-.03-.04-.03-.04-.03-.05-.02-.04-.02-.05-.02-.05V1.2l-.03-.06-.02-.06v-.06L.3.96.3.84.27.78V.72L.24.66v-.1L.22.5V.4L.2.35V.2H.17V.13C.14.1.1.08.06.04.04.04.02.02 0 0c0 .04 0 .08 0 .12.05.65.1 1.32.3 1.65.2.33.56.5.56.5C1.2 1.67.8.84.44.27.4.27.36.24.32.22c.12.43.35.95.25 1.35z"/><path id="W" d="M.1.33v.14H.07c0 .02 0 .04 0 .06.28.27.5.54.9 1.13.44.6 1.1.62 1.1.62-.05-.5-.2-.87-.55-1.27C1.18.63.7.25.38 0 .28.04.18.07.03.05c0 0-.02 0-.03 0C.04.1.07.14.1.2c.24.14 1 .52 1.3 1.13C1.4 1.35.9 1.2.1.33z"/><path id="X" d="M.13.1L.1.04S.08 0 .07 0c.27.1 1.26.48 1.58.64.32.17.78.54 1.03 1.3 0 0-.67.07-1.22-.4C.92 1.1.28.47 0 .27.03.24.05.2.07.2c0 0 .74.65 1.53.93 0 0-.17-.3-.5-.52C.75.35.47.26.14.1z"/><path id="Y" d="M.4.08V.05L.37.03V0L.35 0C.7.07 1.5.17 1.86.28 2.24.38 2.9.65 3.3 1.4c0 0-.58.17-1.66-.33S.22.45 0 .4C.17.4.28.33.34.3c.43.18 1 .4 1.58.43 0 0-.28-.2-.58-.33C1.02.27.67.15.4.08z"/><path id="Z" d="M.33.2H.3v.02H.24L.23.25H.2L.17.27H.1L.07.3H0C.07.35.15.4.2.5c.4.1 1.04.23 2.1.3C3.4.9 3.96.7 3.96.7 3.58.43 2.98.2 2.58.12 2.18.06 1.13.07.66 0 .66 0 .6.05.5.1.9.15 1.74.2 2.16.4c0 0-.78.1-1.82-.2z"/><path id="aa" d="M.82.1L.8.08.77.05.75.03V0H.73L.7 0C.67.07.48.3.4.54c-.08.2-.15.46-.2.6-.03.17-.13.5-.2.6 0 0 .3.04.5-.22.22-.25.3-.5.33-.76C.85.56.85.28.83.1z"/><path id="ab" d="M.38 0v.02H.35v.02H.33v.02H.3V.1H.3L.27.1.22.14H.2C.15.1.1.08.1.07.04.18.02.25 0 .35 0 .48-.02.7.02.87c.07.2.2.33.26.4 0 0 .2-.2.25-.37C.6.72.6.5.53.3.5.16.44.05.4 0z"/><path id="ac" d="M.5.18H.42L.4.15H.36L.33.13H.3L.27.1H.24L.2.1.15.06H.13L.1.03.06 0H.05C.02.07-.02.16 0 .3.05.4.14.56.27.67c.2.15.46.3.75.25.02 0 .1-.2-.5-.75z"/><path id="ad" d="M.13 0v.07H.1v.08L.07.18V.2L.05.23v.02L.03.27V.3H0v.04H0c.07.1.32.5.83.44 0 0 .14-.3-.2-.52C.4.08.28.04.12 0z"/><path id="ae" d="M0 .07h.03L.06.1H.47V.07h.06L.6.05V0c.28.22.6.25.7.45 0 0-.13.24-.48.2C.48.6.22.45.04.22.04.18.02.12 0 .07z"/><path id="af" d="M.18.33V.3L.15.28V.26H.13V.22L.1.2.1.16V.15H.07V.1H.05L.03.07V.05H0V.03H0c.22-.05.43-.06.7 0 .3.06.63.13.8.6 0 0-.2.2-.58.1C.62.7.34.55.18.35z"/><path id="ag" d="M0 .46V.44h.03V.4h.03V.38H.1V.34L.14.3V.3L.16.28V.26L.18.24V.22L.2.2V.18L.24.12C.5.02.8-.05 1.07.05c.28.1.35.23.42.33 0 0-.32.27-.67.28-.36 0-.7-.1-.83-.2z"/><path id="ah" d="M.16.6H.08V.57H0C.12.45.24.3.3.04.43.08.72.08.86.03c.13-.05.4-.05.6.08 0 0-.08.36-.54.48C.5.7.32.68.16.6z"/><path id="ai" d="M.34 1.05L.28 1S.18.95 0 .94C.15.83.5.53.74.4c.28-.16.72-.37.95-.4 0 0-.22.56-.47.8-.26.23-.44.3-.9.25z"/><path id="aj" d="M0 2.02L.02 2l.02-.04.02-.03.02-.03.02-.03v-.03l.03-.03.02-.03v-.04L.2 1.7v-.04l.03-.04.02-.04v-.04l.03-.05v-.05C.32 1.25.44.8.5.67.57.55.82.13 1.32 0c0 0 .12.55-.12 1C.98 1.35.54 1.75 0 2z"/><path id="ak" d="M.28.02L.25.05.24.06H.2V.1H.2V.1H.16v.02H.14L.12.15H.1v.02H.05S-.1.47.1.85c.18.36.35.73.42.94 0 0 .1-.02.22-.6C.82.82.92.72 1 .6.9.64.8.65.8.65L.74.67.7.6C.63.47.6.34.6.24.6.2.6.17.6.14.45.14.35.04.3 0L.27.02z"/><path id="al" d="M.55.05l.03.03.04.04.04.04L.7.2l.04.05.04.05.05.05.05.05.04.06.05.05.05.07.04.06.05.06.05.06.05.06.04.07.05.06.03.07.04.07.03.07.04.08.03.07.03.08.03.08.02.07.02.08.02.08V2.15s-.7-.24-1-.76C.3.85.12.52 0 .4.08.4.16.4.24.4H.3c.18.32.54.87.87 1.05 0 0 .08-.44-.87-1.33C.28.08.26.04.23 0c.1.03.2.05.3.04"/><path id="am" d="M0 .12V.1h.02V.07h.05V.05h.06L.15.03h.07L.25 0h.11L.4 0h.16c.3 0 .56.05.56.12 0 .06-.25.12-.56.12C.26.24 0 .2 0 .12z"/><path id="an" d="M0 .07V.04h.04V.02h.08L.16 0h.18c.2 0 .37.03.37.07C.72.1.56.13.36.13.16.13 0 .1 0 .07z"/><path id="ao" d="M.22.1v.06H.2V.2H.17V.2H.15L.13.23H.1C.04.22 0 .17 0 .12 0 .04.05 0 .1 0c.07 0 .12.05.12.1z"/><path id="ap" d="M.3 1.04V1L.26.94.25.92V.87L.2.84V.8L.18.76.17.73V.7L.14.65V.62L.1.6V.55L.1.53V.5L.07.47V.44L.05.4.04.35V.3L0 .27V.2H0V.13C0 .1.08.05.15.02.23 0 .3 0 .35.02c.1.08.18.68.2.93-.08.02-.13.03-.24.1z"/><path id="aq" d="M.23 1.1H.4C.34.84.26.45.2.3.18.14.1.03 0 0c0 0 .08.22.13.44.04.23.07.45.1.66z"/><path id="ar" d="M0 .27h.04L.06.24h.02L.1.22h.04V.2h.03L.2.17.23.15h.02L.26.13.3.1.34.07.36.05.38.03H.4V0h.02C.08.05 0 .27 0 .27z"/><path id="as" d="M.6.36H.6L.55.4.53.4H.5L.47.43H.44L.42.45H.35L.34.47H.3L.25.5H.14L.1.5H0C.06.38.12.28.3.15.48.02.77 0 .88 0 .86.1.74.27.6.36z"/><path id="at" d="M1.94 0C1.74.1 1.06.1.7.13H.43V.1H.27L.25.07H.14L.13.05H.1L.06.03H.02L0 0C.04.8.57.85.57.85c0-.07 0-.17 0-.17.17.16.5.27.5.27 0-.1-.03-.18-.03-.18.14.1.23.1.23.1C1.25.74 1.2.6 1.2.6c.08.13.2.13.2.13.03-.06 0-.22 0-.22.04.07.13.23.43.3.3.06.43-.1.43-.1-.3 0-.56-.27-.56-.27.15-.06.2-.17.2-.17C1.83.2 1.74.2 1.74.2c.17-.07.2-.2.2-.2zm-1 .3V.3s-.47 0-.5.23C.4.5.35.42.33.3c0 0 .33.03.6 0z"/><path id="au" d="M.18.02v.1L.2.15v.1l.02.03V.3l.02.03v.05L.27.4v.03L.3.45v.02S.1.32.04.17C-.02.06-.03-.02.18.03z"/><path id="av" d="M.3 0C.2 0 .1.05.05.13-.04.3 0 .6.2.73.2.72.56.42.97.7c0 0 .1-.04.3-.1L1.23.57H1.2V.55L1.2.53 1.17.5 1.15.5 1.13.48H1.1V.45H1.1L1.06.43 1.04.4h-.02L1 .4C.86.32.6.25.52 0 .48.02.38 0 .3 0zm.18.32c.05 0 .1.04.1.1H.55v.04H.53V.5H.5V.5H.47C.43.5.4.45.4.4.4.37.43.33.48.33z"/><path id="aw" d="M.53 0l.02.02v.02h.02v.02L.6.1V.1h.02v.02h.02l.02.03.02.03L.7.2l.02.02v.02h.04v.02H.8V.3S.25.28.1.75c0 0-.2-.3-.05-.48C.2.07.35.04.53 0z"/><path id="ax" d="M0 .08h.04L.07.1h.06v.02h.04L.2.15h.06s0-.1 0-.14c.05 0 .1.03.17.04 0 0 .18.4.32.54 0 0 0 .1-.07.22C.65.8.55.58.38.4.28.27.2.2 0 .07z"/><path id="ay" d="M0 0h.04v.02H.1l.02.02h.04v.02H.2L.25.1h.04l.04.02h.03l.02.02H.4v.02h.02L.46.2.5.2c.17.12.3.26.27.5C.75.7.6.53.45.44.34.36.12.17 0 0z"/><path id="az" d="M.18 0h.06v.02H.3v.02H.3l.02.02v.06C.33.2.2.4.18.5.13.4 0 .2 0 .1c0-.1.1-.1.15-.1h.03V0z"/><path id="aA" d="M.46.56V.5L.43.48V.4L.4.38V.34L.4.3V.24L.37.22V.15H.35V.13L.33.1V.07H.3C.23 0 .13 0 .08 0 .03 0-.03.06 0 .13c.03.07.26.4.28.45.06 0 .05 0 .18-.02z"/><path id="aB" d="M0 .56V.5L.03.48V.4L.05.38V.34L.07.3V.24L.1.22V.15H.1V.13L.13.1V.07h.02C.23 0 .33 0 .38 0c.05 0 .1.06.08.13C.43.2.2.53.18.58.12.58.13.58 0 .56z"/><path id="aC" d="M.5.2H.32V0H.18v.2H0v.12h.18v.23h.14V.32H.5V.2z"/><path id="aD" d="M.38.36V.24C.4.15.4.07.4 0 .27.05.2.08 0 .36c0 0 .28-.17.38 0z"/><path id="aE" d="M.32 1.58V1.5h.02v-.1l.02-.02v-.06L.4 1.3v-.05l.02-.03V1.2l.02-.05.02-.02C.5.93.46.65.38.5.3.3.25.16.26 0c0 0-.16.05-.26.1 0 .2.1.4.16.52.06.13.05.3.03.4-.03.2 0 .38.12.56z"/><path id="aF" d="M0 .42V.3S.28.04.5 0c.13-.04.2.02.26.05 0 0-.08 0-.2.1C.46.24.3.36.2.4.07.43.05.42 0 .42z"/><path id="aG" d="M.37 0L.4.02v.02l.03.02.03.03.02.02v.02H.5V.2h.02V.2l.02.02V.3C.55.4.45.63.4.7.33.8.25.9.25 1.05c0 .07.06.15.12.2 0 0-.32-.07-.36-.27C-.02.8.06.68.1.58c.05-.1.2-.3.23-.4C.37.12.38.05.37 0z"/><path id="aH" d="M0 0v.04l.03.04v.04l.02.05.02.04.02.05V.3L.13.3l.02.04.02.04.02.04.02.03.02.04.02.04.02.03.02.03c.1.15.15.4.15.5 0 0 .14-.33.07-.55C.44.37.28.1 0 0z"/><path id="aI" d="M0 0h.13l.02.02h.07l.02.02h.03L.3.07h.02c.14.1.26.3.3.52C.63.58.4.54.3.43.2.33.05.15 0 0z"/><path id="aJ" d="M.2 0H.13L.12.03H.04L.02.05H0S.2.1.28.18C.36.24.43.34.46.5c.05.25.2.5.23.6v-.02C.7.92.8.58.8.53c0 0-.14-.1-.2-.2C.53.28.45.16.2 0z"/><path id="aK" d="M.24 0v.02l.02.02v.02L.3.08V.1H.3v.03L.34.2v.06l.02.02V.3h.02v.06L.4.38V.5L.37.54v.04C.3.8.15.9.05 1.1c0 0-.07-.35-.06-.62C.02.2.12.1.24 0z"/><path id="aL" d="M.3 0v.04l.02.03V.1h.02v.02l.02.02v.02L.4.18V.2L.4.24v.02l.02.03.03.05v.05L.5.4v.03L.5.45V.5l.02.02v.04h.02V.6C.58.74.54.85.47.95c-.07.1-.2.2-.32.42 0 0-.13-.18-.15-.27C0 1 .02.8.04.7.07.6.2.3.3 0z"/><path id="aM" d="M.4 0H.37v.02H.35v.02H.33v.03H.3V.1H.3L.28.14.25.17H.24L.22.22.2.25.16.26v.02L.14.3.12.34v.02H.1V.4H.07v.05H.05v.02C0 .55-.05.7.03.83s.26.3.42.4C.46 1.2.3.93.3.7.3.57.42.45.45.37.47.27.45.13.4 0z"/><path id="aN" d="M.43 0l.02.02v.02h.02V.1L.5.1v.05l.02.02V.2l.02.04V.3C.57.45.55.55.48.74c-.08.23-.22.5-.28.6 0 0-.13-.17-.2-.32C0 1 .2.77.27.58.37.37.4.17.43 0z"/><path id="aO" d="M1.5 0v.02l-.02.02V.1l-.02.03v.09l-.03.03v.07L1.4.36V.4l-.02.04-.02.04v.04l-.03.05L1.3.6v.05L1.26.7l-.02.04-.03.05-.02.03-.03.05-.02.04-.03.04L1.1 1l-.05.05c-.23.3-.43.4-.56.4-.2 0-.4-.16-.46-.34C-.03.94 0 .65.12.55c0 0 .1.36.36.37.3.03.65-.3 1-.9z"/><path id="aP" d="M.75 0v.07L.78.1V.4L.74.43C.72.55.65.7.5.8.4.86.1.87 0 .6 0 .62.5.65.75 0z"/><path id="aQ" d="M.24 0l.02.03v.02L.3.07V.1H.3v.02l.02.02.03.04.03.04.03.03.03.04.03.03.02.03v.02L.52.4h.02v.03l.02.03v.02h.02v.07c0 .38-.16.6-.2.74 0 0-.3-.24-.35-.5C0 .62 0 .2.25 0z"/><path id="aR" d="M.37 1.23V1.2H.4v-.06l.02-.03v-.02h.02v-.05L.48 1 .5.96V.93h.02V.9h.02V.86h.02V.83H.6V.8L.6.8.64.77S.8.27.3 0c0 0-.22.28-.27.56-.05.27.24.43.37.67z"/><path id="aS" d="M.3 0v.02L.28.04.26.06.24.08V.1L.2.12v.03H.16L.15.2.13.2.1.23v.02H.07v.02H.04V.3H.02S-.02.5 0 .65c.03.2.17.43.23.6 0 0 .23-.3.25-.5C.5.6.5.45.5.35.5.35.4.15.3 0z"/><path id="aT" d="M.28.73L.25.7V.67L.23.66.2.62V.6H.2V.56L.17.55V.52L.14.5V.48L.12.45V.43L.1.38.07.32.05.27V.2L.02.2V.13L0 .1V0s.26.14.48.04C.48.04.5.38.46.5.43.6.38.65.28.73z"/><path id="aU" d="M0 .2V.17h.02V.15h.02V.13h.02V.12H.1L.1.1V.08h.02L.14.05.17.03V0H.2V0s.18.32.2.4C.4.4.32.44.22.37.13.3.1.28 0 .2z"/><path id="aV" d="M.35 0v.02L.32.05v.02H.3V.1L.27.13v.03L.25.17V.2H.22v.03L.18.27.15.3.14.34v.02L.1.37.1.4.06.44.04.47.02.5V.5H0v.02s.02.14.12.33c.1.2.25.35.33.42 0 0 .17-.3.22-.43C.73.7.72.54.7.48.64.35.44.18.35 0z"/><path id="aW" d="M.3 0h.02v.03l.02.02v.02L.38.1v.02L.4.14.4.17V.2l.04.03.02.03L.5.3l.02.03v.02h.02V.4h.02v.06L.6.48C.6.63.58.73.55.82c-.03.1-.15.26-.22.4 0 0-.25-.25-.3-.42C-.03.65 0 .48.05.36S.26.12.3 0z"/><path id="aX" d="M.2 0v.03h.02v.04h.02l.02.04.02.04.02.02.02.03h.02v.04l.03.03L.4.3v.02l.02.02v.03h.02v.04c.05.14.07.24 0 .4-.07.16-.14.25-.17.34 0 0-.2-.27-.24-.38C0 .68 0 .48.03.38.07.26.13.1.2 0z"/><path id="aY" d="M.35 0v.02H.32L.3.05v.02L.27.1.24.14v.02L.2.17.2.2V.2L.16.25.15.27V.3L.1.32v.03L.08.38.07.4.06.43v.03L.03.5V.5L0 .54V.6H0v.05c0 .3.2.48.22.65 0 0 .2-.2.26-.35C.56.8.62.65.6.48.58.28.53.18.35 0z"/><path id="aZ" d="M.3 0v.04h.02v.03h.02V.1l.02.03.02.03v.02L.4.2v.03l.02.02V.3h.02v.07L.47.4v.13C.4.7.24.93.18 1.03c0 0-.14-.3-.17-.42C0 .5 0 .27.3 0z"/><path id="ba" d="M.72.07V.04H.67V.02H.6V0H.35C.16 0 0 .03 0 .07 0 .1.16.13.36.13.56.13.72.1.72.07z"/><path id="bb" d="M.22.87V.8L.25.78V.74L.27.72V.68L.3.63V.58L.34.54.35.5.37.43V.4L.4.38V.32L.43.3V.2c0-.1-.1-.2-.2-.2C.1 0 0 .1 0 .2c0 .16.2.5.2.67h.02z"/><path id="bc" d="M.26 1.04L.28 1 .3.94V.92L.34.88V.84L.37.8V.76L.4.73V.65L.44.63V.6L.47.55V.53L.5.5V.47L.5.44V.4L.53.35V.34L.55.32V.26L.57.24v-.1C.57.1.5.05.43.02.32 0 .27 0 .22.02.12.1.04.7 0 .96c.1.02.15.03.26.1z"/><path id="bd" d="M.14 1.1H0C.03.84.1.45.16.3.2.14.26.03.36 0c0 0-.07.22-.1.44C.2.67.15.9.13 1.1z"/><path id="be" d="M0 0h.02v.02h.02v.02h.02v.02H.1V.1H.1L.12.1l.03.03.03.02H.2l.02.02.03.02h.02L.3.22h.02l.02.02h.02l.02.02h.04S.32.07 0 0z"/><path id="bf" d="M0 0H.2v.02H.3l.03.02h.04L.4.07h.03L.45.1h.02L.5.1l.03.02h.02v.02H.6C.76.3.82.4.88.5c0 0-.32.02-.6-.14C.14.28.03.1 0 0z"/><path id="bg" d="M.33 0s.04.13.2.2c0 0-.1.02-.17.1 0 0 .05.1.2.16 0 0-.27.28-.56.26 0 0 .13.17.43.1.3-.06.4-.22.44-.3 0 0-.03.17-.02.23 0 0 .13 0 .23-.13 0 0-.07.12-.1.24 0 0 .1 0 .24-.1 0 0-.03.1-.03.2 0 0 .33-.12.5-.28v.16S2.2.8 2.25.02c0 0-.35.13-.7.1C1.2.13.53.1.32 0zm1 .3c.28.03.62 0 .62 0v.05l-.02.02V.4L1.9.43v.04L1.87.5V.5h-.02l-.02.02-.02.02C1.78.33 1.3.33 1.3.33V.3z"/><path id="bh" d="M.12.02v.06L.1.12V.2L.07.25V.3L.05.33v.02L.03.38V.4L0 .43v.02L0 .47S.2.32.26.17C.3.06.32-.02.12.03z"/><path id="bi" d="M.8 0H.77L.74.03C.64.25.4.32.26.4.13.44 0 .6 0 .6c.2.05.3.1.3.1.42-.28.76.02.76.02.22-.13.26-.43.15-.6V.08L1.17.07h-.02V.05h-.03L1.1.03 1.07 0h-.06V0H.8zM.8.3H.8v.02h.02l.02.02v.02h.02V.4C.87.45.84.5.8.5S.7.44.7.4C.7.36.73.3.78.3z"/><path id="bj" d="M.26 0H.23v.02L.2.05v.02H.2V.1L.17.1.15.13.12.16.1.18V.2H.07v.02L.04.24H.02v.02H0V.3s.55 0 .7.47c0 0 .17-.3.04-.48C.6.07.44.04.26 0z"/><path id="bk" d="M.72.08H.67L.65.1H.6v.02H.54v.02H.5S.5.05.5 0C.43 0 .36.03.3.04c0 0-.16.4-.3.54 0 0 0 .1.07.22 0 0 .1-.22.28-.4C.45.27.5.22.72.07z"/><path id="bl" d="M.75 0H.7v.02H.63v.02H.6L.57.07H.54L.5.1H.47L.44.12H.4L.38.15.34.17H.33L.3.2.27.2C.1.32-.02.46 0 .7 0 .7.14.53.3.44.42.36.64.17.75 0z"/><path id="bm" d="M.16 0H.1v.02H.05L.03.05H0V.1H0v.04C0 .2.13.4.17.5.2.4.33.2.33.1.33.02.23 0 .18 0H.16z"/><path id="bn" d="M0 .56V.48L.03.47V.4L.05.38V.3L.07.26V.24L.1.22V.15L.1.13V.1h.02V.07h.02C.23 0 .33 0 .38 0c.05 0 .1.06.1.13C.42.2.2.53.16.58.13.58.14.58 0 .56z"/><path id="bo" d="M.46.56V.5H.43V.4L.4.38V.34L.4.3V.26L.37.24V.16H.35V.13L.33.1.3.07C.23 0 .13 0 .08 0 .03 0-.03.06 0 .13.03.2.26.53.3.58.34.58.33.58.46.56z"/><path id="bp" d="M0 .2h.17V0h.15v.2H.5v.12H.32v.23H.17V.32H0V.2z"/><path id="bq" d="M0 .2h.18V0h.14v.2H.5v.12H.32v.23H.18V.32H0V.2z"/><path id="br" d="M.02.36v-.1C0 .15 0 .05 0 0 .13.05.2.08.4.36.4.36.12.2.02.36z"/><path id="bs" d="M.15 1.58V1.5H.12v-.08L.1 1.4V1.3l-.02-.05v-.03L.05 1.2v-.05H.03v-.02C-.03.93 0 .65.1.48.17.3.2.16.2 0c0 0 .17.05.27.1 0 .2-.1.4-.15.52-.07.13-.06.3-.04.4.02.2-.02.38-.13.56z"/><path id="bt" d="M.75.42V.3S.47.04.24 0C.14-.03.06.03 0 .06c0 0 .07 0 .2.1.1.08.25.2.36.23.1.03.14.02.2.02z"/><path id="bu" d="M.18 0L.16.02.14.04v.02H.1V.1H.07v.02H.05v.04H.03v.02H0v.06H0V.3C0 .4.1.63.17.7c.05.1.14.2.13.35 0 .07-.06.15-.12.2 0 0 .32-.07.36-.27C.58.8.5.68.44.58.4.48.25.28.23.18.18.12.17.05.18 0z"/><path id="bv" d="M.52 0v.04L.48.08.47.12.46.17V.2L.42.26.4.3V.3L.38.36.36.4.34.44.32.47.3.5.28.55.26.57.24.6c-.1.15-.16.4-.15.5 0 0-.15-.33-.08-.55C.08.37.22.1.52 0z"/><path id="bw" d="M.63 0H.5L.47.03H.4L.38.05H.33v.02H.3c-.13.1-.26.3-.3.5C0 .57.22.55.33.44.43.33.57.15.63 0z"/><path id="bx" d="M.6 0H.7v.02h.08L.8.05H.8S.63.1.54.2C.45.24.38.34.35.5c-.05.25-.2.5-.23.6L.1 1.07C.13.92.03.58 0 .53c0 0 .15-.1.22-.2C.26.28.35.16.6 0z"/><path id="by" d="M.15 0v.02L.12.04v.02L.1.08v.05H.07V.2L.04.2v.05L.02.27V.3L0 .34V.57C.1.8.25.9.34 1.1.33 1.1.4.75.4.48.36.2.26.1.14 0z"/><path id="bz" d="M.3.96L.33.93V.9h.02V.86L.37.85V.83L.4.8.42.76.43.75V.73L.46.7.48.67.5.62.53.6V.57L.56.55V.53L.58.5V.48L.6.46V.4L.63.38V.34C.6.13.37.03.32 0 .24.03 0 .15 0 .33c0 .17.3.5.3.63z"/><path id="bA" d="M.27 0v.02H.24v.05L.22.1.2.12v.04L.17.18V.2L.15.24v.02L.13.28.1.33v.05L.07.4v.03L.05.45v.03L.04.5v.06H0V.6C-.02.74.02.85.1.95c.06.1.2.2.3.42 0 0 .14-.18.15-.27C.57 1 .55.8.5.7.5.6.38.3.28 0z"/><path id="bB" d="M.24.87L.26.85.28.83.3.8.34.76.37.73.38.72V.7L.4.68V.65h.02V.63L.45.6V.6L.47.57C.5.5.5.38.43.3.35.2.25.1.23 0c0 .1-.1.2-.18.3C-.02.4 0 .5.02.6c.03.07.12.2.22.3z"/><path id="bC" d="M.07 0v.02H.1v.02l.02.03h.02V.1h.02v.03H.2v.03l.04.05.03.04v.02L.3.28V.3h.02v.03l.03.02V.4h.02v.03L.4.43v.02c.04.1.1.26.02.38s-.26.3-.42.4C0 1.2.17.93.15.7.15.57.05.45 0 .37 0 .27 0 .13.08 0z"/><path id="bD" d="M.12 0L.1.03v.02L.07.07V.1L.05.1v.03L.03.15V.2L0 .2V.3H0c0 .14.02.24.1.43.07.23.2.5.27.6 0 0 .12-.17.18-.32C.55 1 .37.77.28.6.18.36.16.18.12 0z"/><path id="bE" d="M0 0v.06l.02.02v.08l.02.02v.07l.02.03v.04L.1.36v.08l.03.04v.04l.03.05.02.04.02.05.02.05.02.04.02.05.03.03v.05l.04.04.03.04L.4 1l.04.05c.23.3.43.4.56.4.2 0 .4-.16.45-.34.07-.17.05-.47-.08-.56 0 0-.12.36-.37.37C.72.94.36.6 0 0z"/><path id="bF" d="M.03 0v.04H0V.38L.03.4v.03C.07.55.13.7.28.8c.1.07.4.08.5-.18 0 0-.5.03-.74-.62z"/><path id="bG" d="M.32.94L.35.9h.02L.4.9.43.87h.02V.85h.02V.83H.5V.8L.5.8V.77h.02V.75h.02C.6.65.66.45.64.32.58.17.48.1.43 0 .4.04.38.07.32.1.27.07.24.04.2 0 .13.1.04.17 0 .33 0 .46.05.65.1.75c.08.13.15.15.22.2z"/><path id="bH" d="M.34.93V.87h.02V.84L.4.83V.8h.03L.43.76.44.75V.73L.48.7.5.67.53.62.56.58.58.55V.53L.6.5h.02V.46L.65.45V.43L.67.4V.3C.64.06.47.1.35 0 .2.1.04.05 0 .3c-.03.16.3.47.34.63z"/><path id="bI" d="M.32 0v.03L.3.05v.02L.27.1.24.13v.02L.2.18.2.22.15.25.13.3.1.32.08.37v.02L.05.4.03.44 0 .47V.5L0 .53v.02c0 .38.17.6.2.74 0 0 .3-.24.36-.5C.6.62.56.2.32 0z"/><path id="bJ" d="M.3 1.23V1.2H.27v-.06H.25V1.1H.23v-.02L.2 1.02V1L.18.96.16.93.13.9.1.86H.1V.83H.07V.8L.05.8.03.77H.02S-.14.27.38 0c0 0 .22.28.28.56.06.27-.23.43-.36.67z"/><path id="bK" d="M.2 0v.02l.03.02.02.02.02.02L.3.1v.02l.02.03h.02L.36.2.38.2.4.23l.02.02h.02v.02h.03V.3H.5S.52.5.5.65c-.02.2-.16.43-.2.6 0 0-.25-.3-.27-.5C0 .6 0 .45 0 .35 0 .35.13.15.2 0z"/><path id="bL" d="M.2.73L.23.7.25.67V.66h.02V.62L.3.6.3.56V.55L.33.52V.5L.35.48.36.45V.43L.4.38V.32L.44.27V.24L.46.2V.17L.48.13V0S.23.14.02.04c0 0-.02.34.02.46.04.1.08.15.2.23z"/><path id="bM" d="M.4.18H.37V.15H.33V.13L.3.1.28.1.27.08.24.05V.03H.22V0H.2V0S.03.32 0 .4C0 .4.08.44.18.37.28.3.28.28.38.18z"/><path id="bN" d="M.37 0v.04L.4.06V.1h.02v.03l.03.02v.02L.48.2H.5v.03l.03.04.03.04v.03L.6.35V.4h.03v.03h.02v.03h.02V.5H.7v.04S.7.66.6.85c-.12.2-.26.35-.33.42 0 0-.17-.3-.22-.43C0 .7 0 .54.02.48.07.35.27.18.37 0z"/><path id="bO" d="M.3 1.16V1.1h.02v-.02l.02-.02v-.02h.02L.38 1 .4 1 .42.95.44.93.46.9.48.87V.85L.52.8.53.78V.75L.55.74C.58.64.58.5.54.42.48.32.3.07.27 0 .26.07.08.32.03.42 0 .52 0 .64.03.74c.07.2.22.3.25.42z"/><path id="bP" d="M.28 0v.03H.25v.04H.23V.1H.2v.02L.2.14.18.17.16.2.13.23.1.26V.3L.07.33.06.35V.4L.03.4v.03H0V.5c-.03.14 0 .24.02.33.04.1.15.26.22.4 0 0 .25-.25.3-.42C.62.65.6.48.55.36.47.24.34.12.28 0z"/><path id="bQ" d="M.3 0H.27v.03L.25.06v.02L.22.12.2.15v.02L.16.2H.15L.13.25.1.27V.3L.07.32v.02H.05v.03L.03.4v.02c-.05.14-.06.24 0 .4.07.16.15.25.18.34 0 0 .2-.27.24-.38.03-.1.04-.3 0-.4C.42.26.34.1.3 0z"/><path id="bR" d="M.3 1.64v-.07l.02-.02v-.04l.03-.03v-.03l.02-.03v-.02L.4 1.4v-.04l.02-.03V1.3l.02-.03.02-.03V1.2l.02-.03v-.04l.03-.03.02-.04v-.04L.55 1V.94L.57.9V.85L.6.8V.67C.6.46.4.12.3 0 .17.13 0 .46 0 .68c0 .42.28.83.3.96z"/><path id="bS" d="M.26 0v.02H.3v.02H.3v.02L.34.1l.03.03v.02L.4.17.4.2.42.2v.03l.03.02V.3L.5.32.5.35v.03L.54.4v.03l.02.03V.5L.6.5v.05L.6.6v.05c0 .3-.2.48-.22.65 0 0-.2-.2-.26-.35C.04.8-.02.65.02.48 0 .28.06.18.25 0z"/><path id="bT" d="M.18 0v.02H.15v.02L.13.08.1.1v.03H.1v.03L.07.18V.2L.06.23v.02L.03.27V.3L0 .34V.4H0v.13c.05.16.23.4.3.5 0 0 .13-.3.16-.42S.46.27.18 0z"/><path id="bU" d="M.84 1.3V1.2l.02-.03V1.1l.02-.03v-.03l.02-.02V.97L.94.95V.93L.95.88.97.84 1 .8V.76l.03-.03V.7h.02V.64h.02V.58C1.13.4 1.12.2.98 0 .83.4.7.7.6.9.6.93.6.93.6.94c0 0 0 0 0-.02C.5.7.34.4.23 0 .1.22.07.4.1.6c.04.16.23.36.25.7.03.33-.35.45-.35.45.13.05.27.07.5-.15.04-.04.07-.08.1-.13.02.05.05.1.1.13.22.22.37.2.5.15 0 0-.38-.12-.36-.45z"/><path id="bV" d="M.32 0v.03h.02v.04h.02V.1L.4.15v.03L.42.2l.02.03v.04h.02V.3l.02.02v.04H.5v.06H.5C.53.56.5.72.25.9.25.9.1.77.03.62-.03.5 0 .4.07.33.12.27.27.12.32 0z"/><path id="bW" d="M1.03 0V.13L1 .14v.13L.97.32v.04L.94.42v.04L.92.48V.5L.9.54V.6H.87v.03C.7.9.5 1.1.3 1.1.14 1.1.1.97 0 .93 0 .94.04.7.25.64.5.58.87.3 1.03 0z"/><path id="bX" d="M.87.1H.83V.07H.8V.05H.77V.03H.75V0H.73V0S.54.07.4.18C.23.28.07.46 0 .56c0 0 .23.05.38 0C.38.55.44.3.6.2.65.2.76.17.87.12z"/><path id="bY" d="M.88.32L.85.3V.27H.83V.23L.8.2V.2L.8.17V.1L.77.1V0S.45.2.35.3C.25.36.05.57 0 .64 0 .65.25.6.44.53.66.46.8.37.88.33z"/><path id="bZ" d="M1.2 0h-.04l-.02.02H1.1l-.03.02H1L.97.07H.92L.87.1.82.1H.76L.7.13H.65L.6.15H.55L.54.17H.46V.2C.27.23.15.3 0 .48 0 .5.24.57.38.6.38.6.58.46.8.37.97.3 1.04.15 1.2 0z"/><path id="ca" d="M.98.6L1 .57l.02-.02V.53h.02V.4C1 .33.86.25.77.2.63.15.23.04.1 0c0 0-.06.08-.1.16C0 .2 0 .22.08.23.17.25.44.2.5.23.6.3.56.36.56.42c0 0 .13-.07.2-.05.1.02.17.08.23.25z"/><path id="cb" d="M0 .25h.02l.02.02H.1V.3h.08v.02H.2l.03.02h.02l.03.02H.3V.4H.3L.32.4S.4.4.43.33C.48.26.6.06.73.02c0 0-.1 0-.16-.02 0 0-.13.03-.22.07-.1.04-.2.1-.34.18z"/><path id="cc" d="M.56 0H.5v.02H.4S.05.3 0 .53c-.03.2.08.3.13.33.06.03.3.13.46-.2C.6.65.3.75.23.6.17.5.3.3.36.25.46.16.64.1.74.14c0 0-.1-.1-.18-.14z"/><path id="cd" d="M1.38 2.24l.02-.06.02-.07v-.06L1.45 2v-.03l.02-.03V1.9l.03-.03V1.8l.02-.03.02-.03V1.7C1.72 1.38 2.1.5 2.92.33c.08 0-.08-.2-.15-.2-.08.02-.22.1-.28.15 0 0 0-.2 0-.22C2.46 0 2.42 0 2.4 0c-.03 0-.23 0-.3.07-.17.22-.48.8-.66 1.22-.18.4-.3.55-.48.48-.2-.07-.3-.28-.63-.2-.1 0-.23.08-.33.2.03.05.06.1.2.1.16 0 .46.08.62.2.16.1.33.14.56.16z"/><path id="ce" d="M1.1 0v.08l.02.02v.03l.02.03V.2l.03.03v.02l.02.03v.05l.03.02v.03l.02.03S1 1.55.12 1.64c0 0 .02-.24.28-.42.26-.17.66-.44.63-.87 0 0-.07.02-.2.17-.12.16-.4.62-.83.63C0 1.13.06.9.25.8.45.65.68.5.8.3.9.13 1 .05 1.1 0z"/><path id="cf" d="M0 .24L.54 1 .96.27.8 0C.7.2.6.4.53.52.47.44.34.25.16 0L0 .24z"/><path id="cg" d="M1.7 2.14L1.6 2l-.1-.14-.12-.15-.1-.13-.1-.14-.1-.14-.05-.08-.05-.07-.05-.06-.04-.07L.84.96.8.9.76.85.72.8.7.73.64.7.62.63.6.6.55.56.53.53.5.5V.45L.46.44V.42L.44.4l.2-.15L0 0v.7L.24.54l1.3 1.83.16-.23z"/><path id="ch" d="M.06.08L.08.06.12.03h.03L.15 0H.2L.2 0h.13l.02.02h.02L.4.05H.4l.02.02h.02L.5.1l.04.02.02.02H.6v.03L.65.2h.02L.7.24v.03l.04.02.02.02c.28.25.45.5.3.68C.9 1.14.6 1 .35.76.05.5-.1.26.05.08z"/><path id="ci" d="M.93 2.92H.9V2.9C.77 2.77.7 2.58.7 2.36c0-.4.33-.74.74-.74.4 0 .75.33.75.74 0 .06 0 .15 0 .15.02-.06.15-.34.17-.4-.1-.4-.48-.7-.92-.7-.37 0-.7.23-.85.55.06-.38.25-.72.38-.84.16-.14.43-.2.43-.2C1.2.95.98.84.7.6.47.35.34.15.33 0 .34.24.32.36.27.56c-.1.26-.34.73-.25 1.27.05.3.26.74.62 1.1.08.08.1.2.12.27 0 0 .53 0 .66 0 0 0 .12 0 .1-.08 0-.08-.06-.1-.12-.1s-.33 0-.47-.1z"/><path id="cj" d="M1.63 0l-.06.02-.07.02-.06.02-.06.02L1.3.1l-.05.02H1.2L1.1.16h-.06L1 .18H.93L.87.2.75.2.63.24C.43.27.2.28 0 .27c.02.04.02.08 0 .1 0 0 .04.05.04.1.2 0 .4 0 .62-.03C1 .38 1.38.3 1.76.17L1.62 0z"/><path id="ck" d="M.12 1.36l.1-.05.07-.04.08-.05.08-.05.08-.07.1-.06L.7.95.8.87.86.8.95.7l.08-.07.08-.1.1-.1.06-.1.08-.1.04-.05.04-.06L1.5 0c-.12.05-.26 0-.26 0 0 .03-.03.06-.04.07C.83.6.42.97 0 1.2l.12.16z"/><path id="cl" d="M.68 0H.35L.33.03H.3C.17.04.02.07 0 .14 0 .2.03.28.1.38c.05.07.14.03.2 0C.34.4.65.22.7.16.75.1.77.02.68 0z"/><path id="cm" d="M.6.04L.57 0H.53V0H.4C.3.05 0 .24 0 .3c0 .1.03.13.07.15.05.02.1.04.15.04C.3.5.37.44.42.4.44.36.58.2.6.15c0-.03.02-.1 0-.1z"/><path id="cn" d="M.2.15H.17v.02H.15V.2H.13v.02H.1L.1.26v.02H.07V.3H.05v.02H.03v.02H0v.02H0C0 .4 0 .45.05.44.1.43.3.4.42.33c.1-.1.2-.24.1-.3C.46-.03.33 0 .2.15z"/><path id="co" d="M.25.02H.18L.15 0H.03v.02H0c-.05.07-.02.14.1.2.13.06.36.1.4.04C.57.2.52.1.25.02z"/><path id="cp" d="M.18 0v.03L.15.06v.02L.13.1v.04L.1.17v.06L.06.27V.3H.04v.04H.02V.4L0 .4v.02C0 .56.03.72.27.9c0 0 .16-.12.2-.27C.54.5.5.4.45.33.38.27.24.12.18 0z"/><path id="cq" d="M0 0v.14l.02.02v.06l.02.03v.07l.02.04.02.06v.04L.1.48v.06l.02.02v.02L.15.6l.02.03c.15.26.37.46.56.46.18 0 .22-.12.3-.16C1.03.94 1 .7.8.64.53.58.15.3 0 0z"/><path id="cr" d="M0 .1h.02L.05.07h.02V.05H.1V.03H.1V0h.02V0s.2.07.36.18c.15.1.3.28.4.38 0 0-.24.05-.4 0C.5.55.44.3.3.2.22.2.1.17 0 .12z"/><path id="cs" d="M0 .32L.03.3V.27h.02V.23h.02V.2L.1.17V.1H.1V0s.33.2.43.3c.1.07.3.28.35.35C.88.65.63.6.44.53.22.46.08.37 0 .33z"/><path id="ct" d="M0 0h.04v.02H.1l.02.02h.05L.2.07h.07L.32.1h.11l.05.02h.08L.6.15h.03l.02.02H.7L.74.2h.02c.16.05.28.13.44.3C1.2.5.94.57.8.6.82.6.62.46.38.37.23.3.16.15 0 0z"/><path id="cu" d="M.06.6V.57H.03V.55H0V.5H0V.4C.05.33.2.25.28.2.42.15.82.04.95 0c0 0 .06.08.1.16 0 .03 0 .06-.07.07C.88.25.6.2.54.23.47.3.5.36.5.42.5.4.36.34.3.36.2.37.12.43.05.6z"/><path id="cv" d="M.73.25H.7v.02H.65L.63.3H.56L.54.33H.52v.02H.5L.46.37H.44L.43.4.4.4S.3.4.3.33C.25.26.1.06 0 .02 0 .03.1.03.17 0c0 0 .12.03.22.07.08.04.2.1.33.18z"/><path id="cw" d="M.18 0h.04v.02H.35s.35.26.4.5C.76.72.65.82.6.85.56.88.3.98.16.65c0 0 .27.1.35-.04C.57.5.45.3.38.25.28.16.1.1 0 .14 0 .13.08.03.18 0z"/><path id="cx" d="M1.55 2.24l-.02-.06-.02-.07v-.06L1.47 2v-.06l-.03-.04v-.03l-.02-.03V1.8l-.03-.03v-.03l-.03-.03C1.22 1.38.83.5.02.33-.06.32.1.12.18.12c.07.02.22.1.28.15V.05C.46 0 .5 0 .52 0c.04 0 .23 0 .3.07.18.22.5.8.66 1.22.18.4.3.55.5.48.17-.07.28-.28.6-.2.12 0 .25.08.35.2-.03.05-.06.1-.22.1-.14 0-.43.08-.6.2-.15.1-.32.14-.55.16z"/><path id="cy" d="M.16 0v.05L.13.08v.05L.1.16v.02L.1.2v.03L.07.25v.03L.05.3.04.33v.02L0 .4s.25 1.14 1.14 1.23c0 0-.02-.24-.28-.42C.6 1.04.2.77.23.34c0 0 .06.02.2.17.12.16.4.62.83.63 0 0-.07-.22-.26-.34C.8.65.57.5.46.3.36.13.23.05.16 0z"/><path id="cz" d="M1.24 0v.02l.02.03v.02L1.3.1h.02v.04l.02.03.02.02V.2l.03.02.02.03V.3l.03.03.04.06.04.05.05.05.02.03.03.03.02.02.02.03.02.03v.02l.03.03V.7l.03.02h.02v.03h.03c.14.15.5.5.7.7 0 0-.55-.15-.86-.43 0 0-.22.13-.38.13-.17 0-.4-.13-.4-.13-.3.28-.84.42-.84.42C.2 1.26.55.9.7.76c.15-.13.48-.6.53-.76z"/><path id="cA" d="M.3.08H.43L.44.05H.5L.52.03h.03V0H.6V0C.55.13.43.35.3.43.2.35.08.13 0 0c.07.03.18.08.3.08z"/><path id="cB" d="M2.14 3.54l2.14-3L4.5.7V0l-.63.25.2.14c-.1.14-1.7 2.38-1.9 2.67L1.2 1.3l-.12.2-.86 1.3L0 2.64v.7l.65-.27-.22-.15c.13-.17.6-.88.75-1.1l.96 1.7z"/><path id="cC" d="M.8 1.06L.75.98.72.93.7.9.66.85.64.82.62.78.6.74.56.7.55.68.52.63.5.6V.58H.47V.55L.45.54.43.5C.4.6.28.8.14 1L0 .75.42 0l.12.18.43.65-.17.23z"/><path id="cD" d="M.28 0l.15.24L.65.1v.68L0 .53.22.38C.2.34.16.28.12.22L.28 0z"/><path id="cE" d="M1.05.08V.06H1L1 .03.96 0H.93L.9 0H.8L.76.03H.74L.72.05H.7L.67.07H.65L.63.1H.6L.58.12.55.14H.53L.5.18.48.2H.45L.42.24.4.26.37.28.35.3C.07.55-.1.8.05.98c.16.16.44.03.72-.22.27-.25.44-.5.28-.68z"/><path id="cF" d="M1.4 2.92h.02V2.9c.16-.13.24-.32.24-.54 0-.4-.33-.74-.75-.74-.4 0-.73.33-.73.74 0 .06 0 .15 0 .15-.02-.06-.14-.34-.17-.4.1-.4.48-.7.9-.7.4 0 .7.23.87.55-.06-.38-.25-.72-.38-.84C1.22.97.95.9.95.9c.18.04.4-.07.67-.3C1.88.35 2 .15 2 0c0 .24 0 .36.07.56.1.26.34.73.25 1.27-.04.3-.26.74-.62 1.1-.08.08-.1.2-.1.27 0 0-.55 0-.67 0 0 0-.13 0-.12-.08 0-.08.08-.1.14-.1.06 0 .32 0 .46-.1z"/><path id="cG" d="M1.36 1.36l-.08-.05-.1-.04-.07-.05-.07-.05-.1-.07-.07-.06L.78.95.7.87.62.8.54.7.44.64.4.53.3.44.22.34.15.24.1.18.08.12 0 0c.1.05.25 0 .25 0 0 .03.02.06.03.07.37.54.8.9 1.2 1.12l-.12.16z"/><path id="cH" d="M.12 0l.06.02.07.02.06.02.08.02.06.02.07.02h.07l.06.03H.7l.06.02h.06L.9.2 1 .2l.13.02c.2.03.42.04.6.03 0 .04 0 .08.03.1 0 0-.04.05-.04.1-.2 0-.4 0-.62-.03C.75.38.38.3 0 .17L.12 0z"/><path id="cI" d="M.07 0H.4v.02h.05c.13.02.27.05.3.12C.74.2.7.28.64.38.6.45.5.4.44.38.4.4.1.22.05.16-.02.1-.04.02.06 0z"/><path id="cJ" d="M.02.04h.02V0H.1L.1 0h.1c.1.04.4.23.42.3C.64.4.6.44.55.46.5.47.45.5.4.5.33.5.26.44.22.4.18.36.04.2.02.15 0 .12 0 .05.02.05z"/><path id="cK" d="M.38.15L.4.18V.2h.02l.02.02.03.03v.02L.5.3l.02.02.02.02v.02h.02C.56.4.56.45.5.44.48.43.28.4.16.33.03.22-.05.08.03.02.1-.03.23 0 .38.15z"/><path id="cL" d="M.3.02h.06L.4 0H.5v.02h.02c.04.07 0 .14-.1.2-.13.06-.36.1-.4.04C-.04.2 0 .1.28.02z"/></defs></svg>