<svg xmlns="http://www.w3.org/2000/svg" width="28" height="25" xmlns:xlink="http://www.w3.org/1999/xlink"><title>Layer 9</title><desc>Created using Figma</desc><g><g><use id="Vector" fill="#7F1E88" xlink:href="#a" transform="translate(-14525 63) translate(14526.4 -52.346)"/><g id="Vector" transform="translate(-14525 63) translate(14532.9 -56.561)"><use fill="#F26D85" xlink:href="#b"/><use fill="#7F1E88" xlink:href="#c"/></g><g><g id="Vector" transform="translate(-14525 63) translate(14526.1 -61.624)"><use fill="#F2F2F2" xlink:href="#d"/><use fill="#7F1E88" xlink:href="#e"/></g><g id="Vector" transform="translate(-14525 63) translate(14531 -61.624)"><use fill="#F2F2F2" xlink:href="#f"/><use fill="#7F1E88" xlink:href="#g"/></g><g id="Vector" transform="translate(-14525 63) translate(14535.9 -61.624)"><use fill="#F2F2F2" xlink:href="#h"/><use fill="#7F1E88" xlink:href="#i"/></g><g id="Vector" transform="translate(-14525 63) translate(14540.7 -61.624)"><use fill="#F2F2F2" xlink:href="#j"/><use fill="#7F1E88" xlink:href="#k"/></g><g transform="translate(-14525 63) translate(14545.6 -61.624)"><use fill="#F2F2F2" xlink:href="#l"/><use fill="#7F1E88" xlink:href="#m"/></g></g></g></g><defs><path id="a" d="M15.6 0H1.34C.6 0 0 .6 0 1.35v8.08c0 .75.6 1.35 1.34 1.35h1.7c-.2 1.1-.77 2.73-2.67 3.57 3.67-.44 5.67-2.27 6.65-3.57h8.58c.74 0 1.35-.6 1.35-1.35V1.35C16.95.6 16.35 0 15.6 0z"/><path id="b" d="M1.34 0H15.6c.74 0 1.34.6 1.34 1.35v8.08c0 .75-.6 1.35-1.34 1.35h-1.68c.17 1.1.76 2.73 2.66 3.57-3.68-.44-5.68-2.27-6.66-3.57H1.34C.6 10.78 0 10.18 0 9.43V1.35C0 .6.6 0 1.34 0z"/><path id="c" d="M13.92 10.78v-.5h-.6l.1.58.5-.08zm2.66 3.57l-.06.5 3.3.38-3.04-1.34-.2.45zm-6.66-3.57l.4-.3-.15-.2h-.25v.5zM0 1.35h-.5.5zM1.34.5H15.6v-1H1.34v1zM15.6.5c.47 0 .84.38.84.85h1c0-1.02-.82-1.85-1.84-1.85v1zm.84.85v8.08h1V1.35h-1zm0 8.08c0 .47-.37.85-.84.85v1c1.02 0 1.84-.83 1.84-1.85h-1zm-.84.85h-1.68v1h1.68v-1zm-2.18.58c.2 1.17.84 3 2.96 3.94l.4-.9c-1.68-.75-2.2-2.2-2.37-3.2l-.98.16zm3.22 3c-3.52-.42-5.4-2.17-6.32-3.38l-.8.6c1.05 1.4 3.16 3.3 7 3.76l.12-1zm-6.72-3.58H1.34v1h8.58v-1zm-8.58 0c-.46 0-.84-.38-.84-.85h-1c0 1.02.82 1.85 1.84 1.85v-1zM.5 9.43V1.35h-1v8.08h1zm0-8.08C.5.88.88.5 1.34.5v-1C.32-.5-.5.33-.5 1.35h1z"/><path id="d" d="M2.15 0l.66 1.37 1.5.2L3.2 2.66l.25 1.5-1.32-.7-1.33.7.25-1.5L0 1.58l1.48-.2L2.15 0z"/><path id="e" d="M2.15 0l.44-.22-.45-.9-.45.9.45.22zm.66 1.37l-.43.2.1.24.27.05.07-.48zm1.5.2l.34.36.7-.7-.97-.13-.08.48zM3.2 2.66l-.35-.35-.18.18.03.25.5-.08zm.25 1.5l-.23.43.9.47-.18-.98-.5.08zm-1.32-.7L2.38 3l-.23-.12L1.9 3l.25.44zm-1.33.7l-.5-.08-.15.98.88-.47-.23-.43zm.25-1.5l.5.08.03-.25-.18-.18-.35.35zM0 1.58l-.07-.48-.98.14.7.7.35-.36zm1.48-.2l.08.47.25-.04.13-.22-.45-.2zM1.7.2l.67 1.36.88-.43L2.6-.22l-.9.44zm1.04 1.63l1.48.22.15-.97-1.5-.22-.13.97zm1.2-.62L2.88 2.3l.7.7 1.07-1.07-.7-.7zm-1.2 1.5l.25 1.5.96-.16-.25-1.5-.97.16zm.97.98L2.4 3l-.47.87 1.34.7.47-.86zM1.9 3l-1.3.7.45.88 1.33-.7L1.9 3zm-.6 1.23l.26-1.5-.97-.16-.27 1.5.98.16zm.12-1.93L.35 1.23l-.7.7L.73 3l.7-.7zM.07 2.07l1.5-.22L1.4.88l-1.47.22.14.97zm1.86-.5L2.6.23l-.9-.44-.66 1.37.9.43z"/><path id="f" d="M2.15 0l.66 1.37 1.5.2L3.2 2.66l.25 1.5-1.32-.7-1.33.7.25-1.5L0 1.58l1.48-.2L2.15 0z"/><path id="g" d="M2.15 0l.44-.22-.45-.9-.45.9.45.22zm.66 1.37l-.43.2.1.24.27.05.07-.48zm1.5.2l.34.36.7-.7-.97-.13-.08.48zM3.2 2.66l-.35-.35-.18.18.03.25.5-.08zm.25 1.5l-.23.43.9.47-.18-.98-.5.08zm-1.32-.7L2.38 3l-.23-.12-.23.13.23.44zm-1.33.7l-.5-.08-.15.98.88-.47-.23-.43zm.25-1.5l.5.08.03-.25-.18-.18-.35.35zM0 1.58l-.07-.48-.98.14.7.7.35-.36zm1.48-.2l.08.47.25-.04.13-.22-.45-.2zM1.7.2l.67 1.36.88-.43L2.6-.22l-.9.44zm1.04 1.63l1.48.22.15-.97-1.5-.22-.13.97zm1.2-.62L2.88 2.3l.7.7 1.07-1.07-.7-.7zm-1.2 1.5l.25 1.5.96-.16-.25-1.5-.97.16zm.97.98L2.4 3l-.46.87 1.32.7.47-.86zM1.93 3L.6 3.7l.45.88 1.33-.7L1.92 3zm-.6 1.23l.24-1.5-.97-.16-.27 1.5.98.16zm.1-1.93L.35 1.23l-.7.7L.73 3l.7-.7zM.07 2.07l1.5-.22L1.4.88l-1.47.22.14.97zm1.86-.5L2.6.23l-.9-.44-.66 1.37.9.43z"/><path id="h" d="M2.15 0l.66 1.37 1.5.2L3.2 2.66l.25 1.5-1.32-.7-1.33.7.25-1.5L0 1.58l1.48-.2L2.15 0z"/><path id="i" d="M2.15 0l.44-.22-.45-.9-.45.9.45.22zm.66 1.37l-.43.2.1.24.27.05.07-.48zm1.5.2l.34.36.7-.7-.98-.13-.07.48zM3.2 2.66l-.35-.35-.18.18.03.25.5-.08zm.25 1.5l-.23.43.9.47-.18-.98-.5.08zm-1.32-.7L2.38 3l-.23-.12L1.9 3l.25.44zm-1.33.7l-.5-.08-.15.98.88-.47-.23-.43zm.25-1.5l.5.08.03-.25-.18-.18-.35.35zM0 1.58l-.07-.48-.98.14.7.7.35-.36zm1.48-.2l.08.47.25-.04.13-.22-.45-.2zM1.7.2l.67 1.36.88-.43L2.6-.22l-.9.44zm1.04 1.63l1.48.22.14-.97L2.88.88l-.14.97zm1.2-.62L2.88 2.3l.7.7 1.07-1.07-.7-.7zm-1.2 1.5l.25 1.5.96-.16-.25-1.5-.97.16zm.97.98L2.4 3l-.47.87 1.34.7.47-.86zM1.9 3l-1.3.7.45.88 1.33-.7L1.9 3zm-.6 1.23l.26-1.5-.97-.16-.27 1.5.97.16zm.12-1.93L.35 1.23l-.7.7L.73 3l.7-.7zM.07 2.07l1.5-.22L1.4.88l-1.47.22.14.97zm1.86-.5L2.6.23l-.9-.44-.66 1.37.9.43z"/><path id="j" d="M2.15 0l.66 1.37 1.5.2L3.2 2.66l.25 1.5-1.32-.7-1.33.7.25-1.5L0 1.58l1.48-.2L2.15 0z"/><path id="k" d="M2.15 0l.44-.22-.45-.9-.45.9.45.22zm.66 1.37l-.43.2.1.24.27.05.07-.48zm1.5.2l.34.36.7-.7-.97-.13-.08.48zM3.2 2.66l-.35-.35-.18.18.03.25.5-.08zm.25 1.5l-.23.43.9.47-.18-.98-.5.08zm-1.32-.7L2.38 3l-.23-.12L1.9 3l.25.44zm-1.33.7l-.5-.08-.15.98.88-.47-.23-.43zm.25-1.5l.5.08.03-.25-.18-.18-.35.35zM0 1.58l-.07-.48-.98.14.7.7.35-.36zm1.48-.2l.08.47.25-.04.13-.22-.45-.2zM1.7.2l.67 1.36.88-.43L2.6-.22l-.9.44zm1.04 1.63l1.48.22.15-.97-1.5-.22-.13.97zm1.2-.62L2.88 2.3l.7.7 1.07-1.07-.7-.7zm-1.2 1.5l.25 1.5.96-.16-.25-1.5-.97.16zm.97.98L2.4 3l-.47.87 1.34.7.47-.86zM1.9 3l-1.3.7.45.88 1.33-.7L1.9 3zm-.6 1.23l.26-1.5-.97-.16-.27 1.5.98.16zm.12-1.93L.35 1.23l-.7.7L.73 3l.7-.7zM.07 2.07l1.5-.22L1.4.88l-1.47.22.14.97zm1.86-.5L2.6.23l-.9-.44-.66 1.37.9.43z"/><path id="l" d="M2.15 0l.66 1.37 1.5.2L3.2 2.66l.25 1.5-1.32-.7-1.33.7.25-1.5L0 1.58l1.48-.2L2.15 0z"/><path id="m" d="M2.15 0l.44-.22-.45-.9-.45.9.45.22zm.66 1.37l-.43.2.1.24.27.05.07-.48zm1.5.2l.34.36.7-.7-.97-.13-.08.48zM3.2 2.66l-.35-.35-.18.18.03.25.5-.08zm.25 1.5l-.23.43.9.47-.18-.98-.5.08zm-1.32-.7L2.38 3l-.23-.12-.23.13.23.44zm-1.33.7l-.5-.08-.15.98.88-.47-.23-.43zm.25-1.5l.5.08.03-.25-.18-.18-.35.35zM0 1.58l-.07-.48-.98.14.7.7.35-.36zm1.48-.2l.08.47.25-.04.13-.22-.45-.2zM1.7.2l.67 1.36.88-.43L2.6-.22l-.9.44zm1.04 1.63l1.48.22.15-.97-1.5-.22-.13.97zm1.2-.62L2.88 2.3l.7.7 1.07-1.07-.7-.7zm-1.2 1.5l.25 1.5.96-.16-.25-1.5-.97.16zm.97.98L2.4 3l-.46.87 1.32.7.47-.86zM1.93 3L.6 3.7l.45.88 1.33-.7L1.92 3zm-.6 1.23l.24-1.5-.97-.16-.27 1.5.98.16zm.1-1.93L.35 1.23l-.7.7L.73 3l.7-.7zM.07 2.07l1.5-.22L1.4.88l-1.47.22.14.97zm1.86-.5L2.6.23l-.9-.44-.66 1.37.9.43z"/></defs></svg>