<svg xmlns="http://www.w3.org/2000/svg" width="50" height="41" xmlns:xlink="http://www.w3.org/1999/xlink"><title>Layer 8</title><desc>Created using Figma</desc><g><g><g><g id="Vector" transform="translate(-11270 -2661) translate(11274 2669.67)"><use fill="#F2F2F2" xlink:href="#a"/><use fill="#7F1E88" xlink:href="#b"/></g><use id="Vector" fill="#F26D85" xlink:href="#c" transform="translate(-11270 -2661) translate(11277.1 2661.07)"/><use id="Vector" fill="#F26D85" xlink:href="#d" transform="translate(-11270 -2661) translate(11276.9 2672.62)"/><use id="Vector" fill="#7F1E88" xlink:href="#e" transform="translate(-11270 -2661) translate(11284.2 2661.07)"/><use id="Vector" fill="#7F1E88" xlink:href="#f" transform="translate(-11270 -2661) translate(11284.1 2672.62)"/><use id="Vector" fill="#F26D85" xlink:href="#g" transform="translate(-11270 -2661) translate(11291.4 2672.62)"/><use id="Vector" fill="#F26D85" xlink:href="#h" transform="translate(-11270 -2661) translate(11291.4 2661.07)"/><use id="Vector" fill="#7F1E88" xlink:href="#i" transform="translate(-11270 -2661) translate(11297.6 2661.07)"/><use id="Vector" fill="#7F1E88" xlink:href="#j" transform="translate(-11270 -2661) translate(11298.6 2672.62)"/><use id="Vector" fill="#F26D85" xlink:href="#k" transform="translate(-11270 -2661) translate(11302.8 2661.07)"/><use id="Vector" fill="#F26D85" xlink:href="#l" transform="translate(-11270 -2661) translate(11305.8 2672.62)"/><use id="Vector" fill="#7F1E88" xlink:href="#m" transform="translate(-11270 -2661) translate(11307.9 2661.07)"/><use id="Vector" fill="#7F1E88" xlink:href="#n" transform="translate(-11270 -2661) translate(11312.9 2672.62)"/><use id="Vector" fill="#7F1E88" xlink:href="#o" transform="translate(-11270 -2661) translate(11270.2 2661.07)"/><use id="Vector" fill="#7F1E88" xlink:href="#p" transform="translate(-11270 -2661) translate(11270 2672.62)"/><g id="Vector" transform="translate(-11270 -2661) translate(11275.7 2678.03)"><use fill="#F26D85" xlink:href="#q"/><use fill="#7F1E88" xlink:href="#r"/></g><use id="Vector" fill="#F26D85" xlink:href="#s" transform="translate(-11270 -2661) translate(11303.3 2678.03)"/><use id="Vector" fill="#7F1E88" xlink:href="#t" transform="translate(-11270 -2661) translate(11305.2 2678.92)"/><use id="Vector" fill="#7F1E88" xlink:href="#u" transform="translate(-11270 -2661) translate(11305.2 2689)"/><use id="Vector" fill="#7F1E88" xlink:href="#v" transform="translate(-11270 -2661) translate(11303.4 2687.12)"/><g transform="translate(-11270 -2661) translate(11272.2 2699.29)"><use fill="#F2F2F2" xlink:href="#w"/><use fill="#7F1E88" xlink:href="#x"/></g></g></g></g><defs><path id="a" d="M41.6 0H0v29.6h41.6V0z"/><path id="b" d="M0 0v-.5h-.5V0H0zm41.6 0h.5v-.5h-.5V0zm0 29.6v.5h.5v-.5h-.5zM0 29.6h-.5v.5H0v-.5zM0 .5h41.6v-1H0v1zM41.1 0v29.6h1V0h-1zm.5 29.1H0v1h41.6v-1zm-41.1.5V0h-1v29.6h1z"/><path id="c" d="M10 0H5.02L0 11.55h6.93L10 0z"/><path id="d" d="M.2 0L0 1.66c-.1.88 1.4 1.6 3.35 1.6 1.95 0 3.6-.72 3.66-1.6L7.14 0H.2z"/><path id="e" d="M8 0H3L0 11.55h6.93L8 0z"/><path id="f" d="M.12 0L0 1.66c-.06.88 1.48 1.6 3.43 1.6 1.94 0 3.55-.72 3.57-1.6L7.05 0H.12z"/><path id="g" d="M.04 0L0 1.66c-.02.88 1.55 1.6 3.5 1.6s3.52-.72 3.5-1.6L6.97 0H.04z"/><path id="h" d="M6 0H1L0 11.55h6.93L6 0z"/><path id="i" d="M5 0H0l1 11.55h6.93L5 0z"/><path id="j" d="M0 0l.04 1.66c.02.88 1.63 1.6 3.57 1.6 1.96 0 3.5-.72 3.44-1.6L6.94 0H0z"/><path id="k" d="M5 0H0l3.02 11.55h6.92L5 0z"/><path id="l" d="M6.93 0H0l.12 1.66c.06.88 1.7 1.6 3.65 1.6 1.94 0 3.45-.72 3.35-1.6L6.92 0z"/><path id="m" d="M5 0H0l5.02 11.55h6.93L5 0z"/><path id="n" d="M6.93 0H0l.2 1.66c.1.88 1.78 1.6 3.72 1.6 1.95 0 3.3-.72 3.15-1.6L6.93 0z"/><path id="o" d="M11.95 0h-5L0 11.55h6.93L11.95 0z"/><path id="p" d="M.15 0L0 1.66c-.13.88 1.2 1.6 3.16 1.6 1.94 0 3.62-.72 3.72-1.6L7.08 0H.15z"/><path id="q" d="M12.76 0H0v19.22h26.57V0h-13.8z"/><path id="r" d="M0 0v-.5h-.5V0H0zm0 19.22h-.5v.5H0v-.5zm26.57 0v.5h.5v-.5h-.5zm0-19.22h.5v-.5h-.5V0zm-13.8-.5H2.52v1h10.23v-1zM2.52-.5H0v1h2.53v-1zM-.5 0v6.6h1V0h-1zm0 6.6v12.62h1V6.62h-1zM0 19.73h12.48v-1H0v1zm12.48 0h9.07v-1h-9.07v1zm9.07 0h5.02v-1h-5.02v1zm5.52-.5v-5.28h-1v5.28h1zm0-5.28V0h-1v13.94h1zM26.57-.5h-13.8v1h13.8v-1z"/><path id="s" d="M10.8 0H0v20.9h10.8V0z"/><path id="t" d="M7.67 0H0v8.72h7.67V0z"/><path id="u" d="M0 0V8.7h7.66V0H0z"/><path id="v" d="M.7 1.4c.37 0 .7-.3.7-.7 0-.4-.33-.7-.7-.7-.4 0-.7.3-.7.7 0 .4.3.7.7.7z"/><path id="w" d="M45.6 0H0v1.63h45.6V0z"/><path id="x" d="M0 0v-.5c-.28 0-.5.22-.5.5H0zm45.6 0h.5c0-.28-.22-.5-.5-.5V0zm0 1.63v.5c.28 0 .5-.22.5-.5h-.5zM0 1.63h-.5c0 .28.22.5.5.5v-.5zM0 .5h45.6v-1H0v1zM45.1 0v1.63h1V0h-1zm.5 1.13H0v1h45.6v-1zm-45.1.5V0h-1v1.63h1z"/></defs></svg>