<svg width="12" height="15" viewBox="0 0 12 15" version="1.1" xmlns="http://www.w3.org/2000/svg" xmlns:xlink="http://www.w3.org/1999/xlink">
<g id="Canvas" fill="none">
<g id="Group">
<path id="Vector" d="M 10.72 0L 0.708571 0C 0.317811 0 0 0.327 0 0.7285L 0 14.2715C 0 14.673 0.317811 15 0.708571 15L 10.72 15C 11.1108 15 11.4286 14.673 11.4286 14.2715L 11.4286 0.7285C 11.4286 0.327 11.1108 0 10.72 0ZM 10.9422 14.2715C 10.9422 14.3975 10.8426 14.5 10.72 14.5L 0.708571 14.5C 0.586018 14.5 0.486322 14.3975 0.486322 14.2715L 0.486322 0.7285C 0.486322 0.6025 0.586018 0.5 0.708571 0.5L 10.72 0.5C 10.8426 0.5 10.9422 0.6025 10.9422 0.7285L 10.9422 14.2715Z" fill="#2D9CDB"/>
<path id="Vector_2" d="M 0 2.75L 2.67477 2.75L 2.67477 0L 0 0L 0 2.75ZM 0.486322 0.5L 2.18845 0.5L 2.18845 2.25L 0.486322 2.25L 0.486322 0.5Z" transform="translate(1.21582 11)" fill="#2D9CDB"/>
<path id="Vector_3" d="M 0 2.75L 2.67477 2.75L 2.67477 0L 0 0L 0 2.75ZM 0.486322 0.5L 2.18845 0.5L 2.18845 2.25L 0.486322 2.25L 0.486322 0.5Z" transform="translate(4.37695 11)" fill="#2D9CDB"/>
<path id="Vector_4" d="M 0 6L 2.67477 6L 2.67477 0L 0 0L 0 6ZM 0.486322 0.5L 2.18845 0.5L 2.18845 5.5L 0.486322 5.5L 0.486322 0.5Z" transform="translate(7.53809 7.75)" fill="#2D9CDB"/>
<path id="Vector_5" d="M 0 2.75L 2.67477 2.75L 2.67477 0L 0 0L 0 2.75ZM 0.486322 0.5L 2.18845 0.5L 2.18845 2.25L 0.486322 2.25L 0.486322 0.5Z" transform="translate(1.21582 7.75)" fill="#2D9CDB"/>
<path id="Vector_6" d="M 0 2.75L 2.67477 2.75L 2.67477 0L 0 0L 0 2.75ZM 0.486322 0.5L 2.18845 0.5L 2.18845 2.25L 0.486322 2.25L 0.486322 0.5Z" transform="translate(4.37695 7.75)" fill="#2D9CDB"/>
<path id="Vector_7" d="M 0 2.75L 2.67477 2.75L 2.67477 0L 0 0L 0 2.75ZM 0.486322 0.5L 2.18845 0.5L 2.18845 2.25L 0.486322 2.25L 0.486322 0.5Z" transform="translate(1.21582 4.5)" fill="#2D9CDB"/>
<path id="Vector_8" d="M 0 2.75L 2.67477 2.75L 2.67477 0L 0 0L 0 2.75ZM 0.486322 0.5L 2.18845 0.5L 2.18845 2.25L 0.486322 2.25L 0.486322 0.5Z" transform="translate(4.37695 4.5)" fill="#2D9CDB"/>
<path id="Vector_9" d="M 0 2.75L 2.67477 2.75L 2.67477 0L 0 0L 0 2.75ZM 0.486322 0.5L 2.18845 0.5L 2.18845 2.25L 0.486322 2.25L 0.486322 0.5Z" transform="translate(7.53809 4.5)" fill="#2D9CDB"/>
<path id="Vector_10" d="M 0 2.5L 8.99696 2.5L 8.99696 0L 0 0L 0 2.5ZM 0.486322 0.5L 8.51064 0.5L 8.51064 2L 0.486322 2L 0.486322 0.5Z" transform="translate(1.21582 1.25)" fill="#2D9CDB"/>
</g>
</g>
</svg>
