<svg width="70" height="70" viewBox="0 0 70 70" version="1.1" xmlns="http://www.w3.org/2000/svg" xmlns:xlink="http://www.w3.org/1999/xlink"><g id="Canvas" fill="none"><g id="Group"><g id="Ellipse"><g mask="url(#path0_ins)" transform="translate(0.285645 0.927979)"><ellipse cx="34.5714" cy="34.32" rx="34.5714" ry="34.32" stroke-width="16" stroke="#BDBDBD"/></g></g><mask id="mask0" mask-type="alpha" maskUnits="userSpaceOnUse" x="-7" y="-6" width="79" height="80"><g id="Vector 5"><path d="M 40.8571 15.912L 40.8571 5.928L 46.2 0L 75.4286 19.656L 77 39.936L 71.6571 63.024L 64.7429 77.376L 23.5714 78L 5.02857 60.528C 3.38115 51.4308 0.114568 33.4529 0.00293649 33.0755C 0.000983594 33.0756 0 33.0744 0 33.072C 0 33.0677 0.0009873 33.0689 0.00293649 33.0755C 0.202529 33.0695 10.5269 20.2165 15.7143 13.728L 22 19.656L 53.7429 58.656L 63.8 41.496L 40.8571 15.912Z" transform="translate(-6 -5)" fill="#C4C4C4"/>
<path d="M 40.8571 5.928L 40.8571 15.912L 63.8 41.496L 53.7429 58.656L 22 19.656L 15.7143 13.728C 10.4762 20.28 0 33.3216 0 33.072C 0 32.8224 3.35238 51.272 5.02857 60.528L 23.5714 78L 64.7429 77.376L 71.6571 63.024L 77 39.936L 75.4286 19.656L 46.2 0L 40.8571 5.928Z" transform="translate(-6 -5)" stroke="black"/></g></mask><g mask="url(#mask0)"><g id="Ellipse_2"><path fill-rule="evenodd" clip-rule="evenodd" d="M 34.5714 64.64C 51.4831 64.64 65.1429 51.0378 65.1429 34.32C 65.1429 17.6022 51.4831 4 34.5714 4C 29.4438 4 24.6229 5.24884 20.3894 7.45199C 10.6277 12.532 4 22.6689 4 34.32C 4 51.0378 17.6597 64.64 34.5714 64.64Z" stroke-width="8" stroke-miterlimit="8" transform="translate(0.285645 0.927979)" stroke="#25A3FB"/></g></g></g></g><defs><mask id="path0_ins" fill="white"><ellipse cx="34.5714" cy="34.32" rx="34.5714" ry="34.32"/></mask></defs></svg>
