<svg width="80" height="53" viewBox="0 0 80 53" version="1.1" xmlns="http://www.w3.org/2000/svg" xmlns:xlink="http://www.w3.org/1999/xlink">
<g id="Canvas" fill="none">
<g id="Vector">
<path d="M 0 52.6358C 0 52.6358 7.42458 58.6461 13.4613 66.097C 13.4613 66.097 26.2116 53.3174 37.5029 42.0554C 43.196 36.3772 50.0168 29.5415 50.0168 29.5415C 50.9116 20.8159 43.1335 14.452 36.5556 16.0803C 36.5556 16.0803 28.8395 23.6952 22.981 29.6549C 11.9015 40.9258 0 52.6358 0 52.6358Z" transform="matrix(-0.707107 -0.707107 0.707107 -0.707107 39.0256 73.7632)" fill="#2D9CDB"/>
<path d="M 48.5377 47.7943C 51.9528 46.7715 55.5239 44.7014 59.0845 41.0915C 75.7791 24.1658 59.0845 7.47119 59.0845 7.47119C 59.0845 7.47119 42.2744 -9.33899 25.4642 7.47119C 21.8789 11.0564 19.823 14.6417 18.8072 18.0638M 36.5556 16.0803C 43.1335 14.452 50.9116 20.8159 50.0168 29.5415C 50.0168 29.5415 43.196 36.3772 37.5029 42.0554C 26.2116 53.3174 13.4613 66.097 13.4613 66.097C 7.42458 58.6462 0 52.6358 0 52.6358C 0 52.6358 11.9015 40.9258 22.981 29.6549C 28.8395 23.6952 36.5556 16.0803 36.5556 16.0803Z" stroke-width="5" transform="matrix(-0.707107 -0.707107 0.707107 -0.707107 39.0256 73.7632)" stroke="#2D9CDB"/>
</g>
</g>
</svg>

