<svg width="78" height="64" viewBox="0 0 78 64" version="1.1" xmlns="http://www.w3.org/2000/svg" xmlns:xlink="http://www.w3.org/1999/xlink">
<title>1a766ae33ca019fae8fa82d0fb834a72</title>
<desc>Created using Figma</desc>
<g id="Canvas" transform="translate(54 -1268)">
<g id="1a766ae33ca019fae8fa82d0fb834a72">
<g id="Group">
<g id="Vector">
<use xlink:href="#path0_stroke" transform="translate(-39.591 1269)" fill="#25A3FB"/>
</g>
<g id="Vector">
<use xlink:href="#path1_stroke" transform="translate(-24.486 1269.38)" fill="#25A3FB"/>
</g>
<g id="Vector">
<use xlink:href="#path2_stroke" transform="translate(-53 1283.45)" fill="#25A3FB"/>
</g>
<g id="Vector">
<use xlink:href="#path3_stroke" transform="translate(-53 1291.63)" fill="#25A3FB"/>
</g>
</g>
</g>
</g>
<defs>
<path id="path0_stroke" d="M 24.053 49.648L 24.5577 50.2028C 24.7869 49.9943 24.8643 49.6664 24.7525 49.3774C 24.6407 49.0885 24.3628 48.898 24.053 48.898L 24.053 49.648ZM 15.105 57.788L 14.6003 57.2332L 14.6002 57.2334L 15.105 57.788ZM 10.895 61.62L 10.3403 62.1248C 10.4742 62.2719 10.661 62.3598 10.8598 62.3692C 11.0585 62.3785 11.2527 62.3085 11.3998 62.1746L 10.895 61.62ZM 3.96729e-07 49.648L 3.96729e-07 48.898C -0.296933 48.898 -0.565909 49.0732 -0.685964 49.3448C -0.806019 49.6163 -0.754546 49.9332 -0.554693 50.1528L 3.96729e-07 49.648ZM 38.4763 35.5052C 38.1699 35.784 38.1475 36.2583 38.4262 36.5647C 38.705 36.8711 39.1793 36.8935 39.4857 36.6148L 38.4763 35.5052ZM 54.414 22.02L 54.9187 22.5748C 55.0658 22.4409 55.1538 22.2541 55.1632 22.0554C 55.1726 21.8567 55.1026 21.6624 54.9688 21.5153L 54.414 22.02ZM 38.211 4.21L 38.7658 3.70529L 38.7654 3.70494L 38.211 4.21ZM 34.376 0L 34.9304 -0.505061C 34.6516 -0.811144 34.1775 -0.833387 33.8713 -0.554753L 34.376 0ZM 17.9913 13.8932C 17.6849 14.172 17.6625 14.6463 17.9412 14.9527C 18.22 15.2591 18.6943 15.2815 19.0007 15.0028L 17.9913 13.8932ZM 23.5483 49.0932L 14.6003 57.2332L 15.6097 58.3428L 24.5577 50.2028L 23.5483 49.0932ZM 14.6002 57.2334L 10.3902 61.0654L 11.3998 62.1746L 15.6098 58.3426L 14.6002 57.2334ZM 11.4497 61.1152L 0.554693 49.1432L -0.554693 50.1528L 10.3403 62.1248L 11.4497 61.1152ZM 3.96729e-07 50.398L 24.053 50.398L 24.053 48.898L 3.96729e-07 48.898L 3.96729e-07 50.398ZM 39.4857 36.6148L 54.9187 22.5748L 53.9093 21.4652L 38.4763 35.5052L 39.4857 36.6148ZM 54.9688 21.5153L 38.7658 3.70529L 37.6562 4.71471L 53.8592 22.5247L 54.9688 21.5153ZM 38.7654 3.70494L 34.9304 -0.505061L 33.8216 0.505061L 37.6566 4.71506L 38.7654 3.70494ZM 33.8713 -0.554753L 17.9913 13.8932L 19.0007 15.0028L 34.8807 0.554753L 33.8713 -0.554753Z"/>
<path id="path1_stroke" d="M -6.10352e-08 57.408L -0.317775 56.7286C -0.533575 56.8296 -0.68858 57.0271 -0.735384 57.2607C -0.782189 57.4943 -0.715225 57.7362 -0.554973 57.9125L -6.10352e-08 57.408ZM 3.827 61.618L 3.27203 62.1225C 3.40586 62.2697 3.59271 62.3577 3.79145 62.3672C 3.99019 62.3766 4.18454 62.3067 4.33171 62.1728L 3.827 61.618ZM 17.402 49.268L 17.9067 49.8228C 18.181 49.5732 18.2318 49.1607 18.0261 48.8521C 17.8204 48.5435 17.4201 48.4315 17.0842 48.5886L 17.402 49.268ZM 22.6014 3.27516C 22.2949 3.55387 22.2725 4.02821 22.5512 4.33464C 22.8299 4.64106 23.3042 4.66354 23.6106 4.38484L 22.6014 3.27516ZM 27.317 1.14441e-07L 27.8717 -0.504746C 27.593 -0.811075 27.1187 -0.833499 26.8124 -0.554836L 27.317 1.14441e-07ZM 47.35 22.017L 47.8548 22.5717C 48.1611 22.293 48.1835 21.8186 47.9047 21.5123L 47.35 22.017ZM 23.3722 42.8213C 23.0659 43.1001 23.0435 43.5744 23.3223 43.8808C 23.6011 44.1871 24.0754 44.2095 24.3818 43.9307L 23.3722 42.8213ZM -0.554973 57.9125L 3.27203 62.1225L 4.38197 61.1135L 0.554973 56.9035L -0.554973 57.9125ZM 4.33171 62.1728L 17.9067 49.8228L 16.8973 48.7132L 3.32229 61.0632L 4.33171 62.1728ZM 17.0842 48.5886L -0.317775 56.7286L 0.317775 58.0874L 17.7198 49.9473L 17.0842 48.5886ZM 23.6106 4.38484L 27.8216 0.554836L 26.8124 -0.554836L 22.6014 3.27516L 23.6106 4.38484ZM 26.7623 0.504747L 46.7953 22.5217L 47.9047 21.5123L 27.8717 -0.504746L 26.7623 0.504747ZM 46.8452 21.4623L 23.3722 42.8213L 24.3818 43.9307L 47.8548 22.5717L 46.8452 21.4623Z"/>
<path id="path2_stroke" d="M 4.704 5.0354e-07L 4.704 -0.750003L 4.70178 -0.749996L 4.704 5.0354e-07ZM 0 4.704L -0.75 4.70178L -0.75 4.704L 0 4.704ZM 0 30.497L -0.750003 30.497L -0.749997 30.4992L 0 30.497ZM 4.704 35.2L 4.70194 35.95L 4.704 35.95L 4.704 35.2ZM 47.688 35.2L 47.688 35.95L 47.6901 35.95L 47.688 35.2ZM 52.391 30.497L 53.141 30.4991L 53.141 30.497L 52.391 30.497ZM 52.391 4.704L 53.141 4.704L 53.141 4.70194L 52.391 4.704ZM 47.688 -0.75L 4.704 -0.75L 4.704 0.75L 47.688 0.75L 47.688 -0.75ZM 4.70178 -0.749996C 3.25719 -0.745716 1.873 -0.16996 0.851519 0.85152L 1.91218 1.91218C 2.65344 1.17092 3.65792 0.753103 4.70622 0.749997L 4.70178 -0.749996ZM 0.851519 0.85152C -0.16996 1.873 -0.745716 3.25719 -0.749997 4.70178L 0.749997 4.70622C 0.753103 3.65792 1.17092 2.65344 1.91218 1.91218L 0.851519 0.85152ZM -0.75 4.704L -0.75 30.497L 0.75 30.497L 0.75 4.704L -0.75 4.704ZM -0.749997 30.4992C -0.745715 31.9437 -0.169905 33.3279 0.851638 34.3492L 1.91218 33.2884C 1.17093 32.5473 0.753104 31.543 0.749997 30.4948L -0.749997 30.4992ZM 0.851638 34.3492C 1.87318 35.3705 3.25742 35.946 4.70194 35.95L 4.70606 34.45C 3.65788 34.4471 2.65344 34.0295 1.91218 33.2884L 0.851638 34.3492ZM 4.704 35.95L 47.688 35.95L 47.688 34.45L 4.704 34.45L 4.704 35.95ZM 47.6901 35.95C 49.1345 35.946 50.5187 35.3704 51.5401 34.3491L 50.4794 33.2884C 49.7383 34.0295 48.734 34.4471 47.6859 34.45L 47.6901 35.95ZM 51.5401 34.3491C 52.5615 33.3277 53.137 31.9435 53.141 30.4991L 51.641 30.4949C 51.6381 31.543 51.2205 32.5473 50.4794 33.2884L 51.5401 34.3491ZM 53.141 30.497L 53.141 4.704L 51.641 4.704L 51.641 30.497L 53.141 30.497ZM 53.141 4.70194C 53.137 3.25742 52.5615 1.87318 51.5402 0.851637L 50.4794 1.91218C 51.2205 2.65344 51.6381 3.65788 51.641 4.70606L 53.141 4.70194ZM 51.5402 0.851637C 50.5189 -0.169905 49.1347 -0.745714 47.6902 -0.749996L 47.6858 0.749997C 48.734 0.753104 49.7383 1.17093 50.4794 1.91218L 51.5402 0.851637Z"/>
<path id="path3_stroke" d="M 0 7.641L -0.75 7.641C -0.75 8.05521 -0.414214 8.391 1.66533e-16 8.391L 0 7.641ZM 52.391 7.641L 52.391 8.391C 52.8052 8.391 53.141 8.05521 53.141 7.641L 52.391 7.641ZM 52.391 7.78198e-07L 53.141 7.78198e-07C 53.141 -0.414213 52.8052 -0.749999 52.391 -0.749999L 52.391 7.78198e-07ZM 0 7.78198e-07L 0 -0.749999C -0.414214 -0.749999 -0.75 -0.414213 -0.75 7.78198e-07L 0 7.78198e-07ZM 0 8.391L 52.391 8.391L 52.391 6.891L 0 6.891L 0 8.391ZM 53.141 7.641L 53.141 7.78198e-07L 51.641 7.78198e-07L 51.641 7.641L 53.141 7.641ZM 52.391 -0.749999L 0 -0.749999L 0 0.750001L 52.391 0.750001L 52.391 -0.749999ZM -0.75 7.78198e-07L -0.75 7.641L 0.75 7.641L 0.75 7.78198e-07L -0.75 7.78198e-07Z"/>
</defs>
</svg>
