<svg width="74" height="74" viewBox="0 0 74 74" version="1.1" xmlns="http://www.w3.org/2000/svg" xmlns:xlink="http://www.w3.org/1999/xlink">
<title>a326f5be9cebb39d52310c12ad188038</title>
<desc>Created using Figma</desc>
<g id="Canvas" transform="translate(454 -1263)">
<g id="a326f5be9cebb39d52310c12ad188038">
<g id="Group">
<g id="Vector">
<use xlink:href="#path0_stroke" transform="translate(-453 1264)" fill="#25A3FB"/>
</g>
<g id="Vector">
<use xlink:href="#path1_stroke" transform="translate(-441.063 1275.94)" fill="#25A3FB"/>
</g>
<g id="Vector 2">
<use xlink:href="#path2_stroke" transform="translate(-433 1292)" fill="#25A3FB"/>
</g>
</g>
</g>
</g>
<defs>
<path id="path0_stroke" d="M 42.66 63.342L 42.931 62.6427C 42.8446 62.6092 42.7527 62.592 42.66 62.592L 42.66 63.342ZM 35.172 71.872L 35.588 72.496C 35.6427 72.4596 35.6924 72.4161 35.7357 72.3667L 35.172 71.872ZM 28.056 63.032L 28.6404 62.5619C 28.6235 62.5409 28.6054 62.5208 28.5863 62.5017L 28.056 63.032ZM 17.306 66.676L 17.306 67.426C 17.3879 67.426 17.4693 67.4126 17.5469 67.3862L 17.306 66.676ZM 15.564 55.462L 14.814 55.462C 14.814 55.5005 14.817 55.5389 14.8229 55.5769L 15.564 55.462ZM 4.432 53.242L 4.57849 52.5064C 4.53025 52.4968 4.48119 52.492 4.432 52.492L 4.432 53.242ZM 8.53 42.66L 7.85918 42.3246C 7.84868 42.3456 7.83917 42.3671 7.83068 42.389L 8.53 42.66ZM 6.18185e-07 35.172L 0.494679 34.6083C 0.469819 34.5865 0.443544 34.5663 0.416026 34.548L 6.18185e-07 35.172ZM 8.84 28.056L 8.50459 27.3852C 8.45673 27.4091 8.41158 27.4381 8.36989 27.4716L 8.84 28.056ZM 5.196 17.306L 4.446 17.306C 4.446 17.3879 4.45943 17.4693 4.48575 17.5469L 5.196 17.306ZM 16.41 15.564L 16.5249 16.3051C 16.6016 16.2932 16.676 16.2695 16.7454 16.2348L 16.41 15.564ZM 18.63 4.432L 19.3655 4.57857C 19.3752 4.5303 19.38 4.48121 19.38 4.432L 18.63 4.432ZM 29.211 8.53L 28.94 9.22931C 29.0264 9.26281 29.1183 9.28 29.211 9.28L 29.211 8.53ZM 36.701 1.9428e-07L 37.2647 0.494748C 37.3848 0.357915 37.451 0.182066 37.451 1.9428e-07L 36.701 1.9428e-07ZM 43.816 8.84L 43.2317 9.31019C 43.2486 9.33119 43.2666 9.35127 43.2857 9.37033L 43.816 8.84ZM 54.566 5.196L 54.8069 5.90625C 54.8393 5.89527 54.8709 5.8821 54.9014 5.86682L 54.566 5.196ZM 56.308 16.41L 57.058 16.41C 57.058 16.3715 57.055 16.3331 57.0491 16.295L 56.308 16.41ZM 67.44 18.63L 67.2935 19.3656C 67.3418 19.3752 67.3908 19.38 67.44 19.38L 67.44 18.63ZM 63.342 29.212L 64.0128 29.5474C 64.0233 29.5264 64.0328 29.5049 64.0413 29.483L 63.342 29.212ZM 71.872 36.7L 72.4023 36.1697C 72.3908 36.1582 72.3789 36.147 72.3667 36.1363L 71.872 36.7ZM 63.032 43.816L 63.2692 44.5275C 63.3538 44.4993 63.4327 44.4563 63.5021 44.4003L 63.032 43.816ZM 66.676 54.566L 67.426 54.566C 67.426 54.484 67.4126 54.4026 67.3862 54.325L 66.676 54.566ZM 55.462 56.308L 55.462 57.058C 55.5005 57.058 55.5389 57.055 55.5769 57.0491L 55.462 56.308ZM 53.242 67.44L 52.5064 67.2935C 52.4968 67.3418 52.492 67.3908 52.492 67.44L 53.242 67.44ZM 42.66 62.592C 42.3826 62.6452 42.1326 62.8087 42.1208 62.8206C 42.1167 62.825 42.1105 62.8316 42.1083 62.8339C 42.1048 62.8377 42.102 62.8408 42.101 62.8419C 42.0985 62.8447 42.0958 62.8477 42.0938 62.85C 42.0893 62.855 42.0833 62.8619 42.076 62.8701C 42.0614 62.8867 42.04 62.911 42.0124 62.9423C 41.9572 63.005 41.8765 63.0968 41.774 63.2135C 41.5689 63.4468 41.2762 63.7801 40.9251 64.18C 40.223 64.9797 39.287 66.046 38.3512 67.1123C 37.4154 68.1785 36.4796 69.2448 35.7779 70.0445C 35.427 70.4443 35.1346 70.7775 34.9299 71.0108C 34.8276 71.1274 34.7472 71.2191 34.6923 71.2815C 34.6649 71.3128 34.6439 71.3367 34.6297 71.3529C 34.6227 71.3609 34.6173 71.367 34.6137 71.3711C 34.6119 71.3732 34.6105 71.3747 34.6096 71.3758C 34.6092 71.3763 34.6088 71.3767 34.6086 71.3769C 34.6085 71.3771 34.6084 71.3772 34.6083 71.3772C 34.6083 71.3773 34.6083 71.3773 35.172 71.872C 35.7357 72.3667 35.7358 72.3666 35.7358 72.3666C 35.7359 72.3665 35.736 72.3664 35.7361 72.3663C 35.7363 72.366 35.7366 72.3656 35.7371 72.3651C 35.738 72.3641 35.7394 72.3625 35.7412 72.3605C 35.7448 72.3564 35.7501 72.3503 35.7572 72.3422C 35.7714 72.3261 35.7924 72.3021 35.8198 72.2709C 35.8746 72.2084 35.955 72.1168 36.0574 72.0002C 36.262 71.7669 36.5544 71.4337 36.9053 71.0339C 37.6071 70.2342 38.5428 69.168 39.4786 68.1017C 40.4144 67.0355 41.3502 65.9693 42.0523 65.1697C 42.4034 64.7698 42.6959 64.4367 42.9008 64.2036C 43.0032 64.087 43.0836 63.9956 43.1384 63.9333C 43.1658 63.9021 43.1866 63.8786 43.2005 63.8629C 43.2075 63.8549 43.2123 63.8495 43.2151 63.8464C 43.2167 63.8446 43.2168 63.8445 43.2161 63.8452C 43.2161 63.8452 43.2139 63.8476 43.2109 63.8509C 43.209 63.853 43.203 63.8594 43.199 63.8636C 43.1873 63.8753 42.9373 64.0388 42.66 64.092L 42.66 62.592ZM 34.756 71.248C 35.2272 71.124 35.6964 71.3358 35.7168 71.3566C 35.7235 71.3638 35.7335 71.3748 35.7367 71.3784C 35.7416 71.384 35.7452 71.3884 35.7455 71.3887C 35.7471 71.3907 35.7477 71.3915 35.7464 71.3898C 35.7442 71.3871 35.74 71.382 35.7334 71.3739C 35.7205 71.3579 35.7009 71.3338 35.6749 71.3016C 35.6229 71.2373 35.5466 71.1427 35.4492 71.022C 35.2546 70.7806 34.9766 70.4355 34.643 70.0212C 33.9758 69.1926 33.0865 68.0877 32.1972 66.9826C 31.3079 65.8774 30.4187 64.7723 29.7518 63.9434C 29.4184 63.5289 29.1405 63.1836 28.946 62.9418C 28.8488 62.8209 28.7724 62.7259 28.7203 62.6612C 28.6942 62.6288 28.6742 62.604 28.6608 62.5873C 28.6541 62.5789 28.649 62.5725 28.6455 62.5683C 28.6438 62.5662 28.6425 62.5646 28.6417 62.5635C 28.6412 62.563 28.6409 62.5626 28.6407 62.5623C 28.6406 62.5622 28.6405 62.5621 28.6405 62.562C 28.6404 62.5619 28.6404 62.5619 28.056 63.032C 27.4716 63.5021 27.4716 63.5021 27.4717 63.5022C 27.4718 63.5023 27.4718 63.5024 27.4719 63.5025C 27.4722 63.5028 27.4725 63.5032 27.4729 63.5037C 27.4738 63.5048 27.4751 63.5064 27.4768 63.5085C 27.4802 63.5128 27.4853 63.5191 27.492 63.5275C 27.5055 63.5442 27.5255 63.569 27.5515 63.6014C 27.6036 63.6662 27.68 63.7612 27.7773 63.882C 27.9718 64.1238 28.2496 64.4692 28.5831 64.8837C 29.25 65.7126 30.1392 66.8178 31.0286 67.923C 31.9179 69.0281 32.8074 70.1332 33.4747 70.962C 33.8084 71.3763 34.0866 71.7217 34.2815 71.9635C 34.379 72.0843 34.4558 72.1795 34.5083 72.2445C 34.5345 72.277 34.5551 72.3024 34.5693 72.3198C 34.5762 72.3283 34.5823 72.3359 34.587 72.3416C 34.5891 72.3441 34.5924 72.3481 34.5958 72.3522C 34.597 72.3536 34.6012 72.3587 34.6066 72.3648C 34.61 72.3687 34.6202 72.3799 34.627 72.3873C 34.6476 72.4082 35.1168 72.62 35.588 72.496L 34.756 71.248ZM 28.5863 62.5017C 28.2654 62.3118 27.8737 62.3045 27.8547 62.3095C 27.848 62.3114 27.8381 62.3143 27.8346 62.3154C 27.8291 62.3171 27.8245 62.3186 27.8231 62.319C 27.8192 62.3203 27.8151 62.3216 27.8122 62.3226C 27.8057 62.3248 27.7969 62.3277 27.7865 62.3312C 27.7655 62.3383 27.7347 62.3486 27.6952 62.3619C 27.616 62.3886 27.5002 62.4278 27.3531 62.4776C 27.0589 62.5771 26.6387 62.7194 26.1348 62.8902C 25.1268 63.2318 23.783 63.6873 22.4394 64.143C 21.0957 64.5986 19.7522 65.0543 18.7445 65.3961C 18.2407 65.567 17.8208 65.7094 17.5269 65.8091C 17.38 65.8589 17.2645 65.8981 17.1858 65.9248C 17.1464 65.9382 17.1162 65.9484 17.0959 65.9553C 17.0857 65.9587 17.078 65.9614 17.0729 65.9631C 17.0703 65.964 17.0683 65.9647 17.067 65.9651C 17.0664 65.9653 17.0659 65.9655 17.0656 65.9656C 17.0654 65.9656 17.0653 65.9657 17.0652 65.9657C 17.0651 65.9657 17.0651 65.9658 17.306 66.676C 17.5469 67.3862 17.547 67.3862 17.5471 67.3862C 17.5471 67.3862 17.5473 67.3861 17.5474 67.3861C 17.5478 67.386 17.5482 67.3858 17.5489 67.3856C 17.5502 67.3851 17.5521 67.3845 17.5547 67.3836C 17.5599 67.3819 17.5676 67.3792 17.5778 67.3758C 17.5981 67.3689 17.6283 67.3587 17.6676 67.3453C 17.7464 67.3186 17.8618 67.2794 18.0088 67.2296C 18.3026 67.1299 18.7225 66.9875 19.2263 66.8166C 20.234 66.4748 21.5775 66.0191 22.9211 65.5635C 24.2647 65.1079 25.6083 64.6524 26.6162 64.3109C 27.1201 64.1401 27.54 63.9979 27.8339 63.8984C 27.9809 63.8487 28.0962 63.8097 28.1747 63.7832C 28.214 63.77 28.2437 63.76 28.2635 63.7533C 28.2735 63.75 28.2802 63.7478 28.2841 63.7465C 28.2863 63.7457 28.2862 63.7458 28.2849 63.7462C 28.2848 63.7462 28.2812 63.7474 28.2764 63.7489C 28.2732 63.7498 28.2635 63.7527 28.257 63.7545C 28.2382 63.7595 27.8466 63.7522 27.5257 63.5623L 28.5863 62.5017ZM 17.306 65.926C 17.756 66.076 18.0323 66.4891 18.0379 66.5123C 18.0396 66.5203 18.0421 66.5322 18.0428 66.5361C 18.0439 66.5421 18.0447 66.5465 18.0448 66.5468C 18.0451 66.5486 18.0451 66.5491 18.0448 66.5469C 18.0442 66.5431 18.0431 66.5363 18.0414 66.5259C 18.0382 66.5055 18.0333 66.4746 18.0269 66.4337C 18.014 66.352 17.9952 66.2318 17.9713 66.0785C 17.9235 65.7721 17.8554 65.3342 17.7736 64.8086C 17.6102 63.7574 17.3926 62.3557 17.175 60.954C 16.9574 59.5523 16.74 58.1505 16.5769 57.0992C 16.4954 56.5736 16.4274 56.1355 16.3799 55.8289C 16.3561 55.6756 16.3374 55.5551 16.3247 55.473C 16.3183 55.4319 16.3134 55.4005 16.3101 55.3792C 16.3085 55.3686 16.3072 55.3606 16.3064 55.3552C 16.306 55.3525 16.3057 55.3505 16.3055 55.3491C 16.3054 55.3484 16.3053 55.3479 16.3052 55.3476C 16.3052 55.3474 16.3052 55.3473 16.3052 55.3472C 16.3051 55.3471 16.3051 55.3471 15.564 55.462C 14.8229 55.5769 14.8229 55.577 14.8229 55.5771C 14.8229 55.5771 14.8229 55.5773 14.8229 55.5774C 14.823 55.5778 14.8231 55.5783 14.8232 55.579C 14.8234 55.5803 14.8237 55.5824 14.8241 55.5851C 14.825 55.5905 14.8262 55.5985 14.8278 55.6091C 14.8311 55.6303 14.836 55.6618 14.8424 55.7029C 14.8551 55.785 14.8738 55.9055 14.8976 56.0588C 14.9451 56.3654 15.0131 56.8035 15.0946 57.3292C 15.2577 58.3805 15.4752 59.7823 15.6927 61.184C 15.9103 62.5858 16.128 63.9876 16.2915 65.039C 16.3732 65.5647 16.4414 66.0029 16.4893 66.3098C 16.5132 66.4631 16.5321 66.5839 16.545 66.6665C 16.5515 66.7076 16.5566 66.7397 16.5601 66.7618C 16.5618 66.7726 16.5633 66.7819 16.5644 66.7889C 16.5649 66.792 16.5657 66.7966 16.5665 66.8011C 16.5668 66.8027 16.5677 66.8082 16.569 66.8149C 16.5698 66.8191 16.5722 66.8313 16.574 66.8394C 16.5796 66.8629 16.856 67.276 17.306 67.426L 17.306 65.926ZM 16.314 55.462C 16.1731 55.0244 15.7809 54.744 15.758 54.7375C 15.7501 54.7355 15.7382 54.7325 15.734 54.7315C 15.7275 54.73 15.7221 54.7288 15.7205 54.7285C 15.716 54.7275 15.7115 54.7266 15.7084 54.7259C 15.7015 54.7245 15.6923 54.7226 15.6815 54.7204C 15.6597 54.716 15.6278 54.7095 15.5869 54.7013C 15.505 54.6848 15.3851 54.6608 15.2328 54.6303C 14.9282 54.5694 14.4932 54.4825 13.9714 54.3784C 12.9277 54.1701 11.5361 53.8927 10.1446 53.6153C 8.75306 53.338 7.36153 53.0608 6.3179 52.8529C 5.79608 52.749 5.36123 52.6623 5.05683 52.6017C 4.90463 52.5714 4.78505 52.5476 4.70351 52.5313C 4.66275 52.5232 4.63149 52.517 4.61043 52.5128C 4.5999 52.5107 4.59191 52.5091 4.58656 52.5081C 4.58388 52.5075 4.58187 52.5071 4.58052 52.5069C 4.57984 52.5067 4.57934 52.5066 4.579 52.5065C 4.57883 52.5065 4.5787 52.5065 4.57862 52.5065C 4.57853 52.5065 4.57849 52.5064 4.432 53.242C 4.28551 53.9776 4.28555 53.9776 4.28564 53.9776C 4.28572 53.9776 4.28585 53.9776 4.28602 53.9777C 4.28636 53.9777 4.28686 53.9778 4.28754 53.978C 4.28889 53.9782 4.2909 53.9786 4.29358 53.9792C 4.29893 53.9802 4.30691 53.9818 4.31744 53.9839C 4.3385 53.9881 4.36976 53.9943 4.41052 54.0025C 4.49205 54.0187 4.61163 54.0425 4.76383 54.0728C 5.06821 54.1334 5.50305 54.2201 6.02485 54.324C 7.06847 54.5319 8.45994 54.8091 9.85142 55.0864C 11.2429 55.3637 12.6343 55.6411 13.6778 55.8494C 14.1996 55.9535 14.6343 56.0403 14.9385 56.1012C 15.0907 56.1316 15.2099 56.1555 15.2911 56.1718C 15.3317 56.18 15.3624 56.1862 15.3826 56.1903C 15.3929 56.1924 15.3997 56.1938 15.4035 56.1946C 15.4057 56.1951 15.4052 56.195 15.4034 56.1946C 15.4032 56.1945 15.3988 56.1936 15.3929 56.1922C 15.3891 56.1913 15.3775 56.1884 15.3697 56.1864C 15.3471 56.1799 14.9549 55.8996 14.814 55.462L 16.314 55.462ZM 4.432 52.492C 5.02155 52.7784 5.1545 53.4432 5.14736 53.4673C 5.14487 53.475 5.14101 53.4865 5.13974 53.4902C 5.13778 53.4957 5.13624 53.4999 5.13618 53.5C 5.13558 53.5017 5.13544 53.502 5.13624 53.4999C 5.13762 53.4963 5.14009 53.4898 5.14384 53.48C 5.15124 53.4607 5.16245 53.4315 5.17735 53.3929C 5.20708 53.3157 5.25087 53.2023 5.30678 53.0577C 5.41856 52.7685 5.57845 52.3553 5.77047 51.8593C 6.15448 50.8673 6.6668 49.5447 7.17923 48.2219C 7.69166 46.8992 8.20418 45.5765 8.5886 44.5844C 8.78081 44.0884 8.94099 43.675 9.05312 43.3857C 9.10918 43.241 9.15323 43.1274 9.18327 43.0499C 9.19829 43.0111 9.2098 42.9814 9.21756 42.9614C 9.22144 42.9514 9.22438 42.9438 9.22635 42.9387C 9.22733 42.9361 9.22808 42.9342 9.22857 42.9329C 9.22882 42.9323 9.22901 42.9318 9.22913 42.9315C 9.2292 42.9313 9.22924 42.9312 9.22927 42.9311C 9.22931 42.9311 9.22932 42.931 8.53 42.66C 7.83068 42.389 7.83066 42.389 7.83063 42.3891C 7.8306 42.3892 7.83055 42.3893 7.83049 42.3895C 7.83037 42.3898 7.83018 42.3903 7.82993 42.3909C 7.82944 42.3922 7.82869 42.3941 7.82771 42.3967C 7.82574 42.4017 7.82279 42.4093 7.81891 42.4193C 7.81116 42.4394 7.79964 42.4691 7.78462 42.5078C 7.75459 42.5853 7.71053 42.699 7.65447 42.8437C 7.54233 43.133 7.38215 43.5464 7.18993 44.0424C 6.80551 45.0345 6.29297 46.3573 5.78052 47.6801C 5.26808 49.0028 4.75571 50.3257 4.37163 51.3178C 4.17959 51.8139 4.01959 52.2274 3.90767 52.5169C 3.85173 52.6616 3.80772 52.7756 3.77771 52.8534C 3.76273 52.8923 3.75109 52.9226 3.74314 52.9433C 3.73923 52.9535 3.7359 52.9622 3.73342 52.9688C 3.73231 52.9717 3.73072 52.9759 3.72918 52.9801C 3.72864 52.9816 3.72676 52.9866 3.72457 52.9929C 3.72318 52.9969 3.71924 53.0086 3.7167 53.0165C 3.70951 53.0407 3.84244 53.7056 4.432 53.992L 4.432 52.492ZM 9.20082 42.9954C 9.27201 42.5508 9.06358 42.1329 9.05109 42.1206C 9.04672 42.1164 9.04009 42.1102 9.03776 42.108C 9.03406 42.1046 9.03093 42.1018 9.02991 42.1009C 9.02713 42.0984 9.02421 42.0958 9.02191 42.0937C 9.01694 42.0893 9.01014 42.0833 9.00196 42.0761C 8.9854 42.0615 8.96113 42.0401 8.92985 42.0126C 8.8672 41.9574 8.77544 41.8767 8.65882 41.7743C 8.42553 41.5693 8.09229 41.2766 7.69245 40.9256C 6.89275 40.2234 5.82643 39.2874 4.76011 38.3516C 3.69378 37.4157 2.62742 36.4799 1.82765 35.778C 1.42776 35.4271 1.09452 35.1346 0.861251 34.9299C 0.744615 34.8276 0.652973 34.7472 0.590489 34.6923C 0.559247 34.6649 0.535295 34.6439 0.519153 34.6297C 0.511082 34.6227 0.504963 34.6173 0.500863 34.6137C 0.498812 34.6119 0.497266 34.6105 0.496233 34.6096C 0.495716 34.6092 0.495328 34.6088 0.495068 34.6086C 0.494939 34.6085 0.494841 34.6084 0.494776 34.6084C 0.494711 34.6083 0.494679 34.6083 6.18185e-07 35.172C -0.494677 35.7357 -0.494645 35.7358 -0.49458 35.7358C -0.494515 35.7359 -0.494418 35.736 -0.494288 35.7361C -0.494029 35.7363 -0.49364 35.7366 -0.493124 35.7371C -0.492091 35.738 -0.490545 35.7394 -0.488495 35.7412C -0.484395 35.7448 -0.478277 35.7501 -0.470207 35.7572C -0.454066 35.7714 -0.430115 35.7924 -0.398874 35.8198C -0.336393 35.8746 -0.244753 35.955 -0.12812 36.0574C 0.105144 36.2621 0.438379 36.5545 0.838258 36.9054C 1.63802 37.6073 2.70435 38.5431 3.77064 39.4789C 4.83695 40.4148 5.90319 41.3507 6.70277 42.0527C 7.10258 42.4038 7.43565 42.6963 7.66871 42.9011C 7.78527 43.0035 7.87668 43.0839 7.93889 43.1386C 7.97004 43.166 7.99361 43.1868 8.00928 43.2006C 8.01721 43.2076 8.02261 43.2124 8.02582 43.2152C 8.0276 43.2168 8.02776 43.217 8.02703 43.2163C 8.0268 43.2161 8.0259 43.2153 8.02546 43.2149C 8.02475 43.2143 8.02269 43.2124 8.02148 43.2113C 8.01941 43.2093 8.01297 43.2033 8.00873 43.1992C 7.99636 43.187 7.78799 42.7692 7.85918 42.3246L 9.20082 42.9954ZM 0.416026 34.548C 0.744105 35.0782 0.536856 35.6957 0.514952 35.7173C 0.507649 35.7241 0.496571 35.734 0.492962 35.7372C 0.48742 35.742 0.48317 35.7456 0.482879 35.7458C 0.481006 35.7474 0.48027 35.748 0.481959 35.7466C 0.484699 35.7444 0.489841 35.7402 0.497954 35.7336C 0.513864 35.7206 0.538029 35.7011 0.570226 35.6751C 0.634463 35.6231 0.729014 35.5468 0.849718 35.4495C 1.09105 35.255 1.43609 34.977 1.85037 34.6434C 2.67888 33.9763 3.78391 33.0869 4.88908 32.1976C 5.99424 31.3082 7.0995 30.4189 7.92847 29.7519C 8.34296 29.4185 8.68837 29.1406 8.93016 28.946C 9.05106 28.8488 9.14605 28.7724 9.21081 28.7203C 9.24319 28.6942 9.26802 28.6742 9.28475 28.6608C 9.29312 28.654 9.29946 28.6489 9.30371 28.6455C 9.30583 28.6438 9.30744 28.6425 9.30851 28.6417C 9.30904 28.6412 9.30944 28.6409 9.30971 28.6407C 9.30985 28.6406 9.30995 28.6405 9.31002 28.6405C 9.31008 28.6404 9.31012 28.6404 8.84 28.056C 8.36989 27.4716 8.36985 27.4717 8.36978 27.4717C 8.36972 27.4718 8.36962 27.4718 8.36948 27.472C 8.36921 27.4722 8.36881 27.4725 8.36827 27.4729C 8.3672 27.4738 8.3656 27.4751 8.36347 27.4768C 8.35922 27.4802 8.35288 27.4853 8.34452 27.492C 8.32778 27.5055 8.30295 27.5255 8.27057 27.5515C 8.2058 27.6036 8.11081 27.6801 7.98991 27.7773C 7.74811 27.9719 7.40268 28.2498 6.98818 28.5832C 6.15919 29.2502 5.05389 30.1396 3.94867 31.0289C 2.84347 31.9183 1.73831 32.8078 0.909604 33.4751C 0.495273 33.8088 0.149945 34.0869 -0.0917518 34.2818C -0.212561 34.3792 -0.307689 34.4559 -0.372659 34.5085C -0.405066 34.5346 -0.430386 34.5551 -0.447763 34.5693C -0.456293 34.5762 -0.463746 34.5823 -0.469416 34.5869C -0.471932 34.589 -0.475827 34.5922 -0.479795 34.5955C -0.481135 34.5966 -0.486167 34.6008 -0.492223 34.6061C -0.49609 34.6095 -0.507357 34.6196 -0.514783 34.6266C -0.536811 34.6482 -0.744115 35.2658 -0.416025 35.796L 0.416026 34.548ZM 9.17541 28.7268C 9.51886 28.3748 9.56607 27.868 9.56127 27.8504C 9.55953 27.8444 9.55683 27.8354 9.55587 27.8323C 9.55433 27.8273 9.55299 27.8232 9.55256 27.8219C 9.55139 27.8183 9.55014 27.8145 9.54917 27.8116C 9.54707 27.8053 9.54418 27.7967 9.5407 27.7863C 9.53367 27.7654 9.52334 27.7347 9.51001 27.6952C 9.48332 27.6162 9.44418 27.5004 9.39441 27.3534C 9.29486 27.0592 9.15257 26.6391 8.98179 26.1352C 8.64024 25.1273 8.18466 23.7835 7.72903 22.4398C 7.2734 21.0961 6.8177 19.7524 6.47592 18.7447C 6.30503 18.2408 6.16261 17.8209 6.06292 17.527C 6.01307 17.38 5.97391 17.2645 5.9472 17.1858C 5.93385 17.1464 5.92361 17.1163 5.91671 17.0959C 5.91326 17.0858 5.91065 17.078 5.9089 17.0729C 5.90802 17.0703 5.90736 17.0683 5.90692 17.067C 5.9067 17.0664 5.90653 17.0659 5.90642 17.0656C 5.90637 17.0654 5.90632 17.0653 5.9063 17.0652C 5.90627 17.0651 5.90625 17.0651 5.196 17.306C 4.48575 17.5469 4.48576 17.547 4.48579 17.547C 4.48582 17.5471 4.48586 17.5472 4.48591 17.5474C 4.48602 17.5477 4.48619 17.5482 4.48641 17.5489C 4.48685 17.5502 4.48751 17.5521 4.48839 17.5547C 4.49014 17.5599 4.49276 17.5676 4.49621 17.5777C 4.5031 17.5981 4.51334 17.6283 4.52669 17.6676C 4.55339 17.7464 4.59256 17.8618 4.6424 18.0088C 4.74209 18.3027 4.88451 18.7226 5.0554 19.2264C 5.39717 20.2342 5.85286 21.5778 6.30847 22.9215C 6.7641 24.2651 7.21964 25.6088 7.56115 26.6166C 7.7319 27.1205 7.87412 27.5404 7.97358 27.8342C 8.02332 27.9812 8.0623 28.0965 8.0888 28.175C 8.10207 28.2143 8.1121 28.244 8.11874 28.2638C 8.12211 28.2739 8.12439 28.2807 8.12573 28.2847C 8.12648 28.287 8.12653 28.2871 8.1262 28.2861C 8.1262 28.2861 8.12518 28.283 8.12385 28.2787C 8.12299 28.2759 8.12036 28.2672 8.11867 28.2614C 8.11392 28.2439 8.16115 27.7372 8.50459 27.3852L 9.17541 28.7268ZM 5.946 17.306C 5.79602 17.756 5.38295 18.0323 5.35967 18.0379C 5.35174 18.0396 5.3398 18.0421 5.33593 18.0428C 5.32994 18.0439 5.32546 18.0447 5.32522 18.0448C 5.32339 18.0451 5.32291 18.0451 5.32515 18.0448C 5.32894 18.0442 5.33572 18.0431 5.3461 18.0414C 5.36652 18.0382 5.39737 18.0333 5.43832 18.0269C 5.52005 18.014 5.6402 17.9952 5.79346 17.9713C 6.09989 17.9235 6.53778 17.8554 7.06341 17.7736C 8.11462 17.6102 9.51629 17.3926 10.918 17.175C 12.3198 16.9574 13.7215 16.74 14.7728 16.5769C 15.2984 16.4954 15.7365 16.4274 16.0431 16.3799C 16.1964 16.3561 16.3169 16.3374 16.399 16.3247C 16.4401 16.3183 16.4715 16.3134 16.4928 16.3101C 16.5034 16.3085 16.5114 16.3072 16.5168 16.3064C 16.5195 16.306 16.5215 16.3057 16.5229 16.3055C 16.5236 16.3054 16.5241 16.3053 16.5244 16.3052C 16.5246 16.3052 16.5247 16.3052 16.5248 16.3052C 16.5249 16.3051 16.5249 16.3051 16.41 15.564C 16.2951 14.8229 16.295 14.8229 16.2949 14.8229C 16.2949 14.8229 16.2947 14.8229 16.2946 14.8229C 16.2942 14.823 16.2937 14.8231 16.293 14.8232C 16.2917 14.8234 16.2896 14.8237 16.2869 14.8241C 16.2815 14.825 16.2735 14.8262 16.2629 14.8278C 16.2417 14.8311 16.2102 14.836 16.1691 14.8424C 16.087 14.8551 15.9665 14.8738 15.8132 14.8976C 15.5066 14.9451 15.0685 15.0131 14.5428 15.0946C 13.4915 15.2577 12.0898 15.4752 10.688 15.6927C 9.28621 15.9103 7.88438 16.128 6.83297 16.2915C 6.30728 16.3732 5.86908 16.4414 5.56224 16.4893C 5.40887 16.5132 5.28809 16.5321 5.20556 16.545C 5.16437 16.5515 5.13226 16.5566 5.11024 16.5601C 5.0994 16.5618 5.0901 16.5633 5.08311 16.5644C 5.07995 16.5649 5.07541 16.5657 5.07087 16.5665C 5.06926 16.5668 5.06377 16.5677 5.0571 16.569C 5.05288 16.5698 5.04069 16.5722 5.03259 16.574C 5.00914 16.5796 4.59598 16.856 4.446 17.306L 5.946 17.306ZM 16.7454 16.2348C 16.9888 16.041 17.1361 15.7519 17.1394 15.7387C 17.1405 15.734 17.1421 15.7269 17.1427 15.7244C 17.1435 15.7204 17.1443 15.7169 17.1445 15.7157C 17.1452 15.7125 17.1459 15.709 17.1465 15.706C 17.1478 15.6997 17.1496 15.691 17.1517 15.6803C 17.1561 15.6588 17.1624 15.6271 17.1706 15.5862C 17.187 15.5044 17.211 15.3846 17.2414 15.2324C 17.3023 14.9278 17.3891 14.4928 17.4932 13.9709C 17.7015 12.9272 17.9789 11.5357 18.2563 10.1442C 18.5337 8.75279 18.811 7.36137 19.0189 6.31782C 19.1229 5.79604 19.2096 5.36123 19.2702 5.05686C 19.3006 4.90468 19.3244 4.7851 19.3406 4.70358C 19.3488 4.66281 19.355 4.63156 19.3592 4.6105C 19.3613 4.59997 19.3629 4.59199 19.3639 4.58663C 19.3645 4.58396 19.3649 4.58194 19.3651 4.58059C 19.3653 4.57992 19.3654 4.57941 19.3654 4.57907C 19.3655 4.57891 19.3655 4.57878 19.3655 4.57869C 19.3655 4.57861 19.3655 4.57857 18.63 4.432C 17.8945 4.28543 17.8945 4.28548 17.8944 4.28556C 17.8944 4.28565 17.8944 4.28577 17.8944 4.28594C 17.8943 4.28628 17.8942 4.28679 17.8941 4.28746C 17.8938 4.28881 17.8934 4.29083 17.8929 4.2935C 17.8918 4.29885 17.8902 4.30683 17.8881 4.31736C 17.8839 4.33842 17.8777 4.36967 17.8696 4.41044C 17.8533 4.49196 17.8295 4.61153 17.7992 4.76371C 17.7385 5.06808 17.6519 5.50288 17.5479 6.02465C 17.3399 7.06819 17.0626 8.45958 16.7852 9.851C 16.5079 11.2424 16.2304 12.6339 16.0222 13.6775C 15.9181 14.1993 15.8313 14.6341 15.7705 14.9384C 15.7401 15.0906 15.7162 15.2101 15.6999 15.2914C 15.6917 15.3321 15.6855 15.363 15.6814 15.3836C 15.6793 15.3941 15.6778 15.4013 15.6769 15.4057C 15.6764 15.4081 15.6763 15.4087 15.6764 15.4082C 15.6764 15.408 15.6766 15.4071 15.6767 15.4067C 15.6769 15.406 15.6773 15.4038 15.6776 15.4026C 15.6781 15.4004 15.6796 15.3936 15.6807 15.3891C 15.684 15.376 15.8312 15.087 16.0746 14.8932L 16.7454 16.2348ZM 19.38 4.432C 19.0936 5.02156 18.4288 5.15449 18.4047 5.14735C 18.397 5.14487 18.3855 5.14101 18.3818 5.13973C 18.3762 5.13777 18.3721 5.13623 18.3719 5.13617C 18.3703 5.13557 18.3699 5.13543 18.3721 5.13624C 18.3757 5.13762 18.3822 5.14008 18.392 5.14384C 18.4113 5.15123 18.4404 5.16244 18.4791 5.17734C 18.5562 5.20707 18.6696 5.25087 18.8142 5.30677C 19.1034 5.41855 19.5165 5.57845 20.0125 5.77046C 21.0044 6.15447 22.3269 6.66679 23.6495 7.17922C 24.9721 7.69165 26.2948 8.20417 27.2867 8.58859C 27.7827 8.7808 28.196 8.94098 28.4853 9.05311C 28.63 9.10917 28.7436 9.15322 28.8211 9.18326C 28.8599 9.19828 28.8896 9.20979 28.9096 9.21755C 28.9196 9.22143 28.9272 9.22437 28.9323 9.22634C 28.9348 9.22733 28.9368 9.22807 28.938 9.22857C 28.9387 9.22881 28.9392 9.229 28.9395 9.22912C 28.9396 9.22919 28.9398 9.22923 28.9398 9.22927C 28.9399 9.2293 28.94 9.22931 29.211 8.53C 29.482 7.83069 29.482 7.83067 29.4819 7.83064C 29.4818 7.83061 29.4817 7.83056 29.4816 7.8305C 29.4812 7.83038 29.4808 7.83019 29.4801 7.82994C 29.4788 7.82944 29.4769 7.8287 29.4744 7.82771C 29.4693 7.82574 29.4617 7.8228 29.4517 7.81892C 29.4317 7.81116 29.402 7.79965 29.3632 7.78463C 29.2857 7.75459 29.172 7.71054 29.0274 7.65447C 28.738 7.54234 28.3247 7.38216 27.8287 7.18994C 26.8368 6.80552 25.5141 6.29298 24.1915 5.78053C 22.8688 5.26809 21.5461 4.75572 20.5541 4.37163C 20.0581 4.1796 19.6446 4.0196 19.3551 3.90768C 19.2104 3.85173 19.0964 3.80773 19.0186 3.77772C 18.9797 3.76274 18.9495 3.75109 18.9287 3.74315C 18.9185 3.73923 18.9098 3.7359 18.9033 3.73343C 18.9003 3.73232 18.8961 3.73073 18.8919 3.72918C 18.8905 3.72865 18.8854 3.72676 18.8791 3.72458C 18.8752 3.72319 18.8634 3.71924 18.8555 3.71671C 18.8313 3.70952 18.1664 3.84243 17.88 4.432L 19.38 4.432ZM 29.211 9.28C 29.4883 9.22685 29.7383 9.06332 29.7501 9.05142C 29.7543 9.0471 29.7605 9.04051 29.7626 9.03817C 29.7661 9.03441 29.7689 9.03124 29.7699 9.03019C 29.7724 9.02735 29.7751 9.02438 29.7771 9.02206C 29.7816 9.01705 29.7877 9.01021 29.7949 9.00201C 29.8096 8.98541 29.831 8.96109 29.8585 8.92979C 29.9138 8.86708 29.9945 8.77527 30.097 8.65862C 30.3021 8.42526 30.5949 8.09196 30.9461 7.6921C 31.6485 6.89236 32.5847 5.82606 33.5207 4.7598C 34.4568 3.69354 35.3928 2.62727 36.0948 1.82758C 36.4457 1.42773 36.7382 1.09452 36.943 0.86128C 37.0453 0.744657 37.1257 0.653025 37.1806 0.590548C 37.208 0.559309 37.229 0.53536 37.2432 0.51922C 37.2503 0.51115 37.2556 0.505032 37.2592 0.500932C 37.261 0.498881 37.2624 0.497336 37.2633 0.496302C 37.2638 0.495786 37.2641 0.495397 37.2643 0.495138C 37.2644 0.495008 37.2645 0.494911 37.2646 0.494846C 37.2646 0.494781 37.2647 0.494748 36.701 1.9428e-07C 36.1373 -0.494748 36.1373 -0.494715 36.1372 -0.49465C 36.1372 -0.494585 36.1371 -0.494488 36.137 -0.494359C 36.1368 -0.494099 36.1364 -0.493711 36.136 -0.493194C 36.1351 -0.492161 36.1337 -0.490616 36.1319 -0.488566C 36.1283 -0.484467 36.1229 -0.478349 36.1159 -0.47028C 36.1017 -0.454141 36.0807 -0.430193 36.0532 -0.398956C 35.9984 -0.336481 35.918 -0.244852 35.8156 -0.128232C 35.6109 0.105007 35.3184 0.438206 34.9675 0.838046C 34.2655 1.63773 33.3296 2.70396 32.3935 3.7702C 31.4575 4.83644 30.5213 5.90264 29.8191 6.70227C 29.4679 7.1021 29.1753 7.43521 28.9704 7.66834C 28.8679 7.78492 28.7875 7.87637 28.7327 7.93862C 28.7052 7.96979 28.6845 7.99338 28.6706 8.00905C 28.6636 8.01699 28.6588 8.02239 28.656 8.02557C 28.6544 8.02735 28.6543 8.02747 28.655 8.0267C 28.655 8.02668 28.6571 8.02429 28.6601 8.02105C 28.6621 8.01897 28.6681 8.01257 28.6721 8.00838C 28.6838 7.99661 28.9337 7.83315 29.211 7.78L 29.211 9.28ZM 37.451 1.9428e-07C 36.9716 0.699482 36.1384 0.49599 36.1308 0.487162C 36.1284 0.484366 36.1249 0.480181 36.1238 0.478896C 36.1232 0.478183 36.1222 0.476942 36.1219 0.47658C 36.1217 0.476377 36.1214 0.47591 36.1213 0.475875C 36.1213 0.47585 36.1219 0.476585 36.1235 0.478544C 36.1265 0.482225 36.1312 0.488113 36.1379 0.496373C 36.1511 0.512776 36.171 0.537333 36.197 0.56962C 36.249 0.634137 36.3253 0.728911 36.4226 0.849683C 36.6171 1.0912 36.895 1.43637 37.2285 1.85069C 37.8955 2.67931 38.7848 3.78435 39.6742 4.88947C 40.5636 5.99459 41.4529 7.09977 42.12 7.92867C 42.4535 8.34312 42.7314 8.6885 42.926 8.93027C 43.0232 9.05115 43.0997 9.14613 43.1518 9.21089C 43.1778 9.24327 43.1978 9.2681 43.2113 9.28482C 43.218 9.29319 43.2231 9.29953 43.2265 9.30378C 43.2282 9.3059 43.2295 9.30751 43.2304 9.30858C 43.2308 9.30911 43.2311 9.30952 43.2314 9.30978C 43.2315 9.30992 43.2316 9.31002 43.2316 9.31009C 43.2317 9.31015 43.2317 9.31019 43.816 8.84C 44.4003 8.36981 44.4003 8.36978 44.4002 8.36971C 44.4002 8.36964 44.4001 8.36954 44.4 8.36941C 44.3998 8.36914 44.3995 8.36874 44.399 8.3682C 44.3982 8.36713 44.3969 8.36553 44.3952 8.3634C 44.3917 8.35915 44.3866 8.35281 44.3799 8.34445C 44.3664 8.32772 44.3465 8.30289 44.3204 8.27051C 44.2683 8.20575 44.1919 8.11077 44.0946 7.98988C 43.9 7.74811 43.6221 7.40273 43.2886 6.98827C 42.6216 6.15936 41.7322 5.05416 40.8428 3.94903C 39.9534 2.8439 39.064 1.73881 38.397 0.910122C 38.0634 0.495784 37.7855 0.150505 37.5909 -0.091144C 37.4936 -0.211954 37.417 -0.306939 37.3648 -0.371724C 37.3387 -0.404088 37.3186 -0.429067 37.3049 -0.446007C 37.2981 -0.454418 37.2927 -0.461153 37.2888 -0.465911C 37.287 -0.468171 37.285 -0.47061 37.2833 -0.472747C 37.2826 -0.473572 37.2809 -0.475693 37.2788 -0.478135C 37.2776 -0.479681 37.2739 -0.48406 37.2714 -0.486983C 37.2636 -0.495938 36.4304 -0.699489 35.951 1.9428e-07L 37.451 1.9428e-07ZM 43.2857 9.37033C 43.6066 9.56017 43.9983 9.56751 44.0173 9.56248C 44.024 9.5606 44.0339 9.55765 44.0374 9.55659C 44.0429 9.55489 44.0475 9.55342 44.0489 9.55295C 44.0528 9.55168 44.0569 9.55036 44.0598 9.54937C 44.0663 9.54721 44.0751 9.54428 44.0855 9.5408C 44.1065 9.53374 44.1373 9.52338 44.1768 9.51006C 44.256 9.48335 44.3718 9.4442 44.5189 9.39443C 44.8131 9.29487 45.2333 9.15257 45.7372 8.9818C 46.7452 8.64024 48.089 8.18465 49.4326 7.72902C 50.7763 7.27339 52.1198 6.8177 53.1275 6.47591C 53.6313 6.30502 54.0512 6.1626 54.3451 6.06291C 54.492 6.01306 54.6075 5.9739 54.6862 5.94719C 54.7256 5.93384 54.7558 5.92361 54.7761 5.91671C 54.7863 5.91326 54.794 5.91064 54.7991 5.90889C 54.8017 5.90801 54.8037 5.90735 54.805 5.90691C 54.8056 5.90669 54.8061 5.90652 54.8064 5.90641C 54.8066 5.90636 54.8067 5.90632 54.8068 5.90629C 54.8069 5.90626 54.8069 5.90625 54.566 5.196C 54.3251 4.48575 54.325 4.48577 54.3249 4.48579C 54.3249 4.48582 54.3247 4.48586 54.3246 4.48592C 54.3242 4.48603 54.3238 4.4862 54.3231 4.48642C 54.3218 4.48686 54.3199 4.48752 54.3173 4.4884C 54.3121 4.49015 54.3044 4.49276 54.2942 4.49621C 54.2739 4.50311 54.2437 4.51335 54.2044 4.5267C 54.1256 4.5534 54.0102 4.59256 53.8632 4.64241C 53.5694 4.7421 53.1495 4.88451 52.6457 5.0554C 51.638 5.39718 50.2945 5.85286 48.9509 6.30848C 47.6073 6.7641 46.2637 7.21964 45.2558 7.56114C 44.7519 7.7319 44.332 7.87411 44.0381 7.97356C 43.8911 8.0233 43.7758 8.06227 43.6973 8.08876C 43.658 8.10202 43.6283 8.11203 43.6085 8.11865C 43.5985 8.122 43.5918 8.12424 43.5879 8.12553C 43.5857 8.12627 43.5858 8.12623 43.5871 8.12581C 43.5872 8.12578 43.5908 8.12462 43.5956 8.12312C 43.5988 8.12216 43.6085 8.11929 43.615 8.11746C 43.6338 8.11247 44.0255 8.11984 44.3463 8.30967L 43.2857 9.37033ZM 54.9014 5.86682C 54.2552 5.87856 53.8354 5.36523 53.8314 5.34702C 53.8302 5.34107 53.8285 5.33215 53.828 5.32932C 53.8277 5.32769 53.8272 5.3249 53.827 5.32396C 53.8269 5.32336 53.8267 5.32216 53.8267 5.32186C 53.8265 5.32089 53.8265 5.3211 53.8269 5.32346C 53.8276 5.32767 53.8287 5.33479 53.8304 5.34522C 53.8336 5.36584 53.8385 5.39684 53.8449 5.4378C 53.8577 5.5196 53.8765 5.6398 53.9004 5.79304C 53.9481 6.09946 54.0162 6.53735 54.0979 7.06296C 54.2613 8.11415 54.479 9.51588 54.6966 10.9177C 54.9143 12.3195 55.1318 13.7213 55.295 14.7727C 55.3765 15.2984 55.4445 15.7365 55.4921 16.0431C 55.5159 16.1964 55.5346 16.3169 55.5473 16.399C 55.5537 16.4401 55.5586 16.4716 55.5619 16.4928C 55.5635 16.5034 55.5648 16.5115 55.5656 16.5169C 55.566 16.5196 55.5663 16.5216 55.5666 16.5229C 55.5667 16.5236 55.5667 16.5241 55.5668 16.5245C 55.5668 16.5246 55.5668 16.5248 55.5668 16.5249C 55.5669 16.5249 55.5669 16.525 56.308 16.41C 57.0491 16.295 57.0491 16.295 57.0491 16.2949C 57.0491 16.2948 57.0491 16.2947 57.0491 16.2945C 57.049 16.2942 57.0489 16.2937 57.0488 16.293C 57.0486 16.2916 57.0483 16.2896 57.0479 16.2869C 57.047 16.2815 57.0458 16.2735 57.0441 16.2628C 57.0409 16.2416 57.036 16.2101 57.0296 16.1691C 57.0168 16.0869 56.9982 15.9664 56.9744 15.8131C 56.9268 15.5065 56.8588 15.0684 56.7772 14.5427C 56.6141 13.4913 56.3965 12.0894 56.1789 10.6876C 55.9612 9.28575 55.7436 7.88391 55.5801 6.83257C 55.4984 6.30692 55.4303 5.8688 55.3825 5.56209C 55.3586 5.40877 55.3398 5.28812 55.3269 5.20574C 55.3204 5.16462 55.3154 5.13271 55.312 5.11094C 55.3103 5.10018 55.3088 5.09124 55.3078 5.08471C 55.3073 5.08169 55.3067 5.07785 55.3061 5.07418C 55.3058 5.07285 55.3051 5.06868 55.3043 5.06368C 55.3037 5.06051 55.3019 5.05135 55.3007 5.04523C 55.2967 5.02684 54.8768 4.51344 54.2306 4.52518L 54.9014 5.86682ZM 55.558 16.41C 55.6989 16.8476 56.0911 17.128 56.114 17.1345C 56.1219 17.1366 56.1338 17.1395 56.138 17.1405C 56.1445 17.142 56.1499 17.1432 56.1515 17.1435C 56.156 17.1445 56.1605 17.1454 56.1636 17.1461C 56.1705 17.1475 56.1797 17.1494 56.1905 17.1516C 56.2123 17.156 56.2442 17.1625 56.2851 17.1707C 56.367 17.1872 56.4869 17.2112 56.6392 17.2417C 56.9438 17.3026 57.3788 17.3895 57.9006 17.4936C 58.9443 17.7019 60.3359 17.9793 61.7274 18.2567C 63.1189 18.534 64.5105 18.8112 65.5541 19.0191C 66.0759 19.123 66.5108 19.2097 66.8152 19.2703C 66.9674 19.3006 67.087 19.3244 67.1685 19.3407C 67.2093 19.3488 67.2405 19.355 67.2616 19.3592C 67.2721 19.3613 67.2801 19.3629 67.2854 19.3639C 67.2881 19.3645 67.2901 19.3649 67.2915 19.3652C 67.2922 19.3653 67.2927 19.3654 67.293 19.3655C 67.2932 19.3655 67.2933 19.3655 67.2934 19.3655C 67.2935 19.3655 67.2935 19.3656 67.44 18.63C 67.5865 17.8944 67.5864 17.8944 67.5864 17.8944C 67.5863 17.8944 67.5862 17.8944 67.586 17.8943C 67.5856 17.8943 67.5851 17.8942 67.5845 17.894C 67.5831 17.8938 67.5811 17.8934 67.5784 17.8928C 67.5731 17.8918 67.5651 17.8902 67.5546 17.8881C 67.5335 17.8839 67.5022 17.8777 67.4615 17.8695C 67.38 17.8533 67.2604 17.8295 67.1082 17.7992C 66.8038 17.7386 66.369 17.6519 65.8472 17.548C 64.8035 17.3401 63.4121 17.0629 62.0206 16.7856C 60.6291 16.5083 59.2377 16.2309 58.1942 16.0226C 57.6724 15.9185 57.2377 15.8317 56.9335 15.7708C 56.7813 15.7404 56.6621 15.7165 56.5809 15.7002C 56.5403 15.692 56.5097 15.6858 56.4894 15.6817C 56.4791 15.6796 56.4723 15.6782 56.4686 15.6774C 56.4663 15.6769 56.4668 15.677 56.4686 15.6774C 56.4688 15.6775 56.4732 15.6784 56.4791 15.6798C 56.4829 15.6807 56.4945 15.6836 56.5023 15.6856C 56.5249 15.6921 56.9171 15.9724 57.058 16.41L 55.558 16.41ZM 67.44 19.38C 66.8504 19.0936 66.7175 18.4288 66.7246 18.4047C 66.7271 18.397 66.731 18.3855 66.7323 18.3818C 66.7342 18.3763 66.7358 18.3721 66.7358 18.372C 66.7364 18.3703 66.7366 18.37 66.7358 18.3721C 66.7344 18.3758 66.7319 18.3822 66.7282 18.392C 66.7208 18.4113 66.7095 18.4405 66.6947 18.4791C 66.6649 18.5563 66.6211 18.6697 66.5652 18.8143C 66.4534 19.1035 66.2935 19.5167 66.1015 20.0127C 65.7175 21.0047 65.2052 22.3273 64.6928 23.6501C 64.1803 24.9728 63.6678 26.2955 63.2834 27.2876C 63.0912 27.7836 62.931 28.197 62.8189 28.4863C 62.7628 28.631 62.7188 28.7446 62.6887 28.8221C 62.6737 28.8609 62.6622 28.8906 62.6544 28.9106C 62.6506 28.9206 62.6476 28.9282 62.6457 28.9333C 62.6447 28.9359 62.6439 28.9378 62.6434 28.9391C 62.6432 28.9397 62.643 28.9402 62.6429 28.9405C 62.6428 28.9407 62.6428 28.9408 62.6427 28.9409C 62.6427 28.9409 62.6427 28.941 63.342 29.212C 64.0413 29.483 64.0413 29.483 64.0414 29.4829C 64.0414 29.4828 64.0415 29.4827 64.0415 29.4825C 64.0416 29.4822 64.0418 29.4817 64.0421 29.4811C 64.0426 29.4798 64.0433 29.4779 64.0443 29.4753C 64.0463 29.4703 64.0492 29.4627 64.0531 29.4527C 64.0609 29.4326 64.0724 29.4029 64.0874 29.3642C 64.1174 29.2867 64.1615 29.173 64.2175 29.0283C 64.3297 28.739 64.4899 28.3256 64.6821 27.8296C 65.0665 26.8375 65.579 25.5147 66.0915 24.1919C 66.6039 22.8692 67.1163 21.5464 67.5004 20.5542C 67.6924 20.0581 67.8524 19.6446 67.9643 19.3551C 68.0203 19.2104 68.0643 19.0964 68.0943 19.0186C 68.1093 18.9797 68.1209 18.9494 68.1289 18.9287C 68.1328 18.9185 68.1361 18.9098 68.1386 18.9032C 68.1397 18.9003 68.1413 18.8961 68.1428 18.8919C 68.1434 18.8905 68.1452 18.8854 68.1474 18.8791C 68.1488 18.8751 68.1528 18.8634 68.1553 18.8555C 68.1625 18.8313 68.0296 18.1664 67.44 17.88L 67.44 19.38ZM 62.6712 28.8766C 62.6 29.3212 62.8084 29.7391 62.8209 29.7514C 62.8253 29.7556 62.8319 29.7618 62.8342 29.764C 62.8379 29.7674 62.8411 29.7702 62.8421 29.7711C 62.8449 29.7736 62.8478 29.7762 62.8501 29.7783C 62.8551 29.7827 62.8619 29.7887 62.87 29.7959C 62.8866 29.8105 62.9109 29.8319 62.9422 29.8594C 63.0048 29.9146 63.0966 29.9953 63.2132 30.0977C 63.4465 30.3027 63.7797 30.5954 64.1796 30.9464C 64.9792 31.6486 66.0456 32.5846 67.1119 33.5204C 68.1782 34.4563 69.2446 35.3921 70.0443 36.094C 70.4442 36.4449 70.7775 36.7374 71.0107 36.9421C 71.1274 37.0444 71.219 37.1248 71.2815 37.1797C 71.3128 37.2071 71.3367 37.2281 71.3529 37.2423C 71.3609 37.2493 71.367 37.2547 71.3711 37.2583C 71.3732 37.2601 71.3747 37.2615 71.3758 37.2624C 71.3763 37.2628 71.3767 37.2632 71.3769 37.2634C 71.3771 37.2635 71.3772 37.2636 71.3772 37.2636C 71.3773 37.2637 71.3773 37.2637 71.872 36.7C 72.3667 36.1363 72.3666 36.1362 72.3666 36.1362C 72.3665 36.1361 72.3664 36.136 72.3663 36.1359C 72.366 36.1357 72.3656 36.1354 72.3651 36.1349C 72.3641 36.134 72.3625 36.1326 72.3605 36.1308C 72.3564 36.1272 72.3503 36.1219 72.3422 36.1148C 72.3261 36.1006 72.3021 36.0796 72.2709 36.0522C 72.2084 35.9974 72.1168 35.917 72.0001 35.8146C 71.7669 35.6099 71.4336 35.3175 71.0337 34.9666C 70.234 34.2647 69.1677 33.3289 68.1014 32.3931C 67.0351 31.4572 65.9688 30.5213 65.1692 29.8193C 64.7694 29.4682 64.4364 29.1757 64.2033 28.9709C 64.0867 28.8685 63.9953 28.7881 63.9331 28.7334C 63.902 28.706 63.8784 28.6852 63.8627 28.6714C 63.8548 28.6644 63.8494 28.6596 63.8462 28.6568C 63.8444 28.6552 63.8442 28.655 63.845 28.6557C 63.8452 28.6559 63.8461 28.6567 63.8465 28.6571C 63.8472 28.6577 63.8493 28.6596 63.8505 28.6607C 63.8526 28.6627 63.859 28.6687 63.8633 28.6728C 63.8756 28.685 64.084 29.1028 64.0128 29.5474L 62.6712 28.8766ZM 71.3417 37.2303C 71.122 36.7074 71.3482 36.1633 71.3655 36.1468C 71.3714 36.1415 71.3803 36.1337 71.3832 36.1312C 71.3876 36.1274 71.391 36.1246 71.3911 36.1245C 71.3925 36.1234 71.3928 36.1231 71.391 36.1246C 71.388 36.1271 71.3826 36.1314 71.3744 36.1381C 71.3584 36.1511 71.3341 36.1707 71.3018 36.1968C 71.2375 36.2487 71.1428 36.3251 71.0221 36.4224C 70.7806 36.617 70.4355 36.895 70.0212 37.2285C 69.1926 37.8957 68.0876 38.7851 66.9825 39.6745C 65.8774 40.5638 64.7723 41.4531 63.9434 42.1201C 63.5289 42.4536 63.1835 42.7315 62.9418 42.926C 62.8209 43.0232 62.7259 43.0997 62.6611 43.1518C 62.6288 43.1778 62.6039 43.1978 62.5872 43.2113C 62.5788 43.218 62.5725 43.2231 62.5683 43.2265C 62.5661 43.2282 62.5645 43.2295 62.5635 43.2304C 62.5629 43.2308 62.5625 43.2311 62.5623 43.2313C 62.5621 43.2314 62.562 43.2315 62.562 43.2316C 62.5619 43.2316 62.5619 43.2317 63.032 43.816C 63.5021 44.4003 63.5022 44.4003 63.5022 44.4003C 63.5023 44.4002 63.5024 44.4001 63.5025 44.4C 63.5028 44.3998 63.5032 44.3995 63.5038 44.3991C 63.5048 44.3982 63.5064 44.3969 63.5086 44.3952C 63.5128 44.3918 63.5191 44.3867 63.5275 44.3799C 63.5442 44.3665 63.5691 44.3465 63.6014 44.3204C 63.6662 44.2683 63.7612 44.1919 63.8821 44.0947C 64.1239 43.9001 64.4692 43.6222 64.8837 43.2887C 65.7126 42.6218 66.8178 41.7324 67.923 40.843C 69.0281 39.9537 70.1332 39.0642 70.962 38.3969C 71.3763 38.0633 71.7217 37.7851 71.9634 37.5903C 72.0842 37.4929 72.1793 37.4162 72.2443 37.3637C 72.2767 37.3375 72.3019 37.3171 72.3192 37.3031C 72.3277 37.2962 72.335 37.2903 72.3404 37.2859C 72.3428 37.2839 72.3463 37.2811 72.3497 37.2782C 72.3509 37.2772 72.3551 37.2738 72.36 37.2695C 72.3632 37.2668 72.3723 37.2588 72.3783 37.2533C 72.3958 37.2368 72.622 36.6926 72.4023 36.1697L 71.3417 37.2303ZM 62.7948 43.1045C 62.3855 43.4357 62.3002 43.9803 62.3065 44.0061C 62.3088 44.0147 62.3125 44.0277 62.3138 44.0321C 62.3159 44.0391 62.3177 44.0448 62.3182 44.0464C 62.3197 44.051 62.3212 44.0555 62.3222 44.0586C 62.3244 44.0654 62.3274 44.0744 62.3309 44.0848C 62.338 44.106 62.3484 44.1369 62.3617 44.1764C 62.3884 44.2556 62.4275 44.3714 62.4772 44.5185C 62.5768 44.8127 62.719 45.2328 62.8898 45.7368C 63.2313 46.7448 63.6869 48.0886 64.1426 49.4323C 64.5983 50.776 65.0541 52.1196 65.396 53.1274C 65.5669 53.6313 65.7093 54.0512 65.8091 54.3451C 65.8589 54.4921 65.8981 54.6075 65.9248 54.6863C 65.9382 54.7256 65.9484 54.7558 65.9553 54.7761C 65.9588 54.7863 65.9614 54.794 65.9631 54.7992C 65.964 54.8018 65.9647 54.8037 65.9651 54.805C 65.9653 54.8057 65.9655 54.8062 65.9656 54.8065C 65.9657 54.8066 65.9657 54.8068 65.9657 54.8069C 65.9658 54.8069 65.9658 54.807 66.676 54.566C 67.3862 54.325 67.3862 54.325 67.3862 54.3249C 67.3862 54.3248 67.3861 54.3247 67.3861 54.3245C 67.386 54.3242 67.3858 54.3237 67.3856 54.3231C 67.3851 54.3218 67.3845 54.3198 67.3836 54.3172C 67.3818 54.3121 67.3792 54.3044 67.3758 54.2942C 67.3689 54.2739 67.3586 54.2437 67.3453 54.2043C 67.3186 54.1256 67.2794 54.0101 67.2295 53.8632C 67.1298 53.5693 66.9874 53.1494 66.8165 52.6455C 66.4746 51.6378 66.0188 50.2942 65.5631 48.9505C 65.1075 47.6068 64.6519 46.2632 64.3104 45.2554C 64.1397 44.7515 63.9976 44.3317 63.8982 44.0379C 63.8485 43.891 63.8096 43.7758 63.7832 43.6974C 63.7699 43.6581 63.76 43.6286 63.7535 43.609C 63.7501 43.5991 63.748 43.5926 63.7468 43.5891C 63.7461 43.587 63.7463 43.5876 63.747 43.5896C 63.7471 43.5899 63.7486 43.5946 63.7505 43.6009C 63.7517 43.605 63.7553 43.6177 63.7576 43.6262C 63.7638 43.6518 63.6784 44.1963 63.2692 44.5275L 62.7948 43.1045ZM 65.926 54.566C 66.076 54.116 66.4891 53.8397 66.5123 53.8341C 66.5203 53.8324 66.5322 53.8299 66.5361 53.8292C 66.5421 53.8281 66.5465 53.8273 66.5468 53.8273C 66.5486 53.8269 66.5491 53.8269 66.5469 53.8272C 66.5431 53.8278 66.5363 53.8289 66.5259 53.8306C 66.5055 53.8338 66.4746 53.8387 66.4337 53.8451C 66.352 53.858 66.2318 53.8768 66.0785 53.9007C 65.7721 53.9485 65.3342 54.0166 64.8086 54.0984C 63.7574 54.2618 62.3557 54.4794 60.954 54.697C 59.5523 54.9146 58.1505 55.132 57.0992 55.2951C 56.5736 55.3766 56.1355 55.4446 55.8289 55.4921C 55.6756 55.5159 55.5551 55.5346 55.473 55.5473C 55.4319 55.5537 55.4005 55.5586 55.3792 55.5619C 55.3686 55.5635 55.3606 55.5648 55.3552 55.5656C 55.3525 55.566 55.3505 55.5663 55.3491 55.5665C 55.3484 55.5667 55.3479 55.5667 55.3476 55.5668C 55.3474 55.5668 55.3473 55.5668 55.3472 55.5668C 55.3471 55.5669 55.3471 55.5669 55.462 56.308C 55.5769 57.0491 55.577 57.0491 55.5771 57.0491C 55.5771 57.0491 55.5773 57.0491 55.5774 57.0491C 55.5778 57.049 55.5783 57.0489 55.579 57.0488C 55.5803 57.0486 55.5824 57.0483 55.5851 57.0479C 55.5905 57.047 55.5985 57.0458 55.6091 57.0442C 55.6303 57.0409 55.6618 57.036 55.7029 57.0296C 55.785 57.0169 55.9055 56.9982 56.0588 56.9744C 56.3654 56.9269 56.8035 56.8589 57.3292 56.7774C 58.3805 56.6143 59.7823 56.3968 61.184 56.1793C 62.5858 55.9617 63.9876 55.744 65.039 55.5806C 65.5647 55.4988 66.0029 55.4306 66.3098 55.3828C 66.4631 55.3588 66.5839 55.3399 66.6665 55.327C 66.7076 55.3205 66.7397 55.3154 66.7618 55.3119C 66.7726 55.3102 66.7819 55.3087 66.7889 55.3076C 66.792 55.3071 66.7966 55.3063 66.8011 55.3055C 66.8027 55.3053 66.8082 55.3043 66.8149 55.303C 66.8191 55.3022 66.8313 55.2998 66.8394 55.298C 66.8629 55.2924 67.276 55.016 67.426 54.566L 65.926 54.566ZM 55.462 55.558C 55.0244 55.6989 54.744 56.0911 54.7375 56.114C 54.7355 56.1219 54.7325 56.1338 54.7315 56.138C 54.73 56.1445 54.7288 56.1499 54.7285 56.1515C 54.7275 56.156 54.7266 56.1605 54.7259 56.1636C 54.7245 56.1705 54.7226 56.1797 54.7204 56.1905C 54.716 56.2123 54.7095 56.2442 54.7013 56.2851C 54.6848 56.367 54.6608 56.4869 54.6303 56.6392C 54.5694 56.9438 54.4825 57.3788 54.3784 57.9006C 54.1701 58.9443 53.8927 60.3359 53.6153 61.7274C 53.338 63.1189 53.0608 64.5105 52.8529 65.5541C 52.749 66.0759 52.6623 66.5108 52.6017 66.8152C 52.5714 66.9674 52.5476 67.087 52.5313 67.1685C 52.5232 67.2093 52.517 67.2405 52.5128 67.2616C 52.5107 67.2721 52.5091 67.2801 52.5081 67.2854C 52.5075 67.2881 52.5071 67.2901 52.5069 67.2915C 52.5067 67.2922 52.5066 67.2927 52.5065 67.293C 52.5065 67.2932 52.5065 67.2933 52.5065 67.2934C 52.5065 67.2935 52.5064 67.2935 53.242 67.44C 53.9776 67.5865 53.9776 67.5864 53.9776 67.5864C 53.9776 67.5863 53.9776 67.5862 53.9777 67.586C 53.9777 67.5856 53.9778 67.5851 53.978 67.5845C 53.9782 67.5831 53.9786 67.5811 53.9792 67.5784C 53.9802 67.5731 53.9818 67.5651 53.9839 67.5546C 53.9881 67.5335 53.9943 67.5022 54.0025 67.4615C 54.0187 67.38 54.0425 67.2604 54.0728 67.1082C 54.1334 66.8038 54.2201 66.369 54.324 65.8472C 54.5319 64.8035 54.8091 63.4121 55.0864 62.0206C 55.3637 60.6291 55.6411 59.2377 55.8494 58.1942C 55.9535 57.6724 56.0403 57.2377 56.1012 56.9335C 56.1316 56.7813 56.1555 56.6621 56.1718 56.5809C 56.18 56.5403 56.1862 56.5097 56.1903 56.4894C 56.1924 56.4791 56.1938 56.4723 56.1946 56.4686C 56.1951 56.4663 56.195 56.4668 56.1946 56.4686C 56.1945 56.4688 56.1936 56.4732 56.1922 56.4791C 56.1913 56.4829 56.1884 56.4945 56.1864 56.5023C 56.1799 56.5249 55.8996 56.9171 55.462 57.058L 55.462 55.558ZM 52.492 67.44C 52.7784 66.8504 53.4432 66.7175 53.4673 66.7246C 53.475 66.7271 53.4865 66.731 53.4902 66.7323C 53.4957 66.7342 53.4999 66.7358 53.5 66.7358C 53.5017 66.7364 53.502 66.7366 53.4999 66.7358C 53.4963 66.7344 53.4898 66.7319 53.48 66.7282C 53.4607 66.7208 53.4315 66.7095 53.3929 66.6947C 53.3157 66.6649 53.2023 66.6211 53.0577 66.5652C 52.7685 66.4534 52.3553 66.2935 51.8593 66.1015C 50.8673 65.7175 49.5447 65.2052 48.2219 64.6928C 46.8992 64.1803 45.5765 63.6678 44.5844 63.2834C 44.0884 63.0912 43.675 62.931 43.3857 62.8189C 43.241 62.7628 43.1274 62.7188 43.0499 62.6887C 43.0111 62.6737 42.9814 62.6622 42.9614 62.6544C 42.9514 62.6506 42.9438 62.6476 42.9387 62.6457C 42.9361 62.6447 42.9342 62.6439 42.9329 62.6434C 42.9323 62.6432 42.9318 62.643 42.9315 62.6429C 42.9313 62.6428 42.9312 62.6428 42.9311 62.6427C 42.9311 62.6427 42.931 62.6427 42.66 63.342C 42.389 64.0413 42.389 64.0413 42.3891 64.0414C 42.3892 64.0414 42.3893 64.0415 42.3895 64.0415C 42.3898 64.0416 42.3903 64.0418 42.3909 64.0421C 42.3922 64.0426 42.3941 64.0433 42.3967 64.0443C 42.4017 64.0463 42.4093 64.0492 42.4193 64.0531C 42.4394 64.0609 42.4691 64.0724 42.5078 64.0874C 42.5853 64.1174 42.699 64.1615 42.8437 64.2175C 43.133 64.3297 43.5464 64.4899 44.0424 64.6821C 45.0345 65.0665 46.3573 65.579 47.6801 66.0915C 49.0028 66.6039 50.3257 67.1163 51.3178 67.5004C 51.8139 67.6924 52.2274 67.8524 52.5169 67.9643C 52.6616 68.0203 52.7756 68.0643 52.8534 68.0943C 52.8923 68.1093 52.9226 68.1209 52.9433 68.1289C 52.9535 68.1328 52.9622 68.1361 52.9688 68.1386C 52.9717 68.1397 52.9759 68.1413 52.9801 68.1428C 52.9816 68.1434 52.9866 68.1452 52.9929 68.1474C 52.9969 68.1488 53.0086 68.1528 53.0165 68.1553C 53.0407 68.1625 53.7056 68.0296 53.992 67.44L 52.492 67.44Z"/>
<path id="path1_stroke" d="M 47.998 24L 47.998 23.25C 47.5838 23.25 47.248 23.5858 47.248 24L 47.998 24ZM 47.999 24L 47.999 24.75C 48.4132 24.75 48.749 24.4142 48.749 24L 47.999 24ZM 47.248 24C 47.248 36.8408 36.8398 47.25 23.998 47.25L 23.998 48.75C 37.6682 48.75 48.748 37.6692 48.748 24L 47.248 24ZM 23.998 47.25C 11.1583 47.25 0.75 36.8408 0.75 24L -0.75 24C -0.75 37.6692 10.3297 48.75 23.998 48.75L 23.998 47.25ZM 0.75 24C 0.75 11.1592 11.1583 0.75 23.999 0.75L 23.999 -0.75C 10.3297 -0.75 -0.75 10.3308 -0.75 24L 0.75 24ZM 23.999 0.75C 36.8398 0.75 47.249 11.1592 47.249 24L 48.749 24C 48.749 10.3308 37.6682 -0.75 23.999 -0.75L 23.999 0.75ZM 47.999 23.25L 47.998 23.25L 47.998 24.75L 47.999 24.75L 47.999 23.25Z"/>
<path id="path2_stroke" d="M 16 8C 16.7038 7.74072 16.7037 7.7405 16.7036 7.74025C 16.7035 7.74012 16.7034 7.73984 16.7033 7.73959C 16.7032 7.73909 16.7029 7.73847 16.7027 7.73772C 16.7021 7.73624 16.7014 7.73427 16.7005 7.73182C 16.6986 7.72693 16.6961 7.72013 16.6928 7.71149C 16.6863 7.69421 16.6768 7.66953 16.6645 7.63797C 16.6399 7.57484 16.6039 7.48409 16.5566 7.36964C 16.462 7.14086 16.322 6.81674 16.1383 6.42894C 15.7719 5.65534 15.2266 4.61845 14.5137 3.57649C 13.1264 1.54885 10.9301 -0.75 8 -0.75L 8 0.75C 10.1225 0.75 11.9262 2.45115 13.2758 4.42351C 13.9313 5.38155 14.4386 6.34466 14.7827 7.07106C 14.9543 7.43326 15.0841 7.73414 15.1704 7.94286C 15.2135 8.04716 15.2457 8.12828 15.2668 8.18235C 15.2773 8.20937 15.2851 8.22962 15.29 8.24261C 15.2924 8.2491 15.2942 8.25378 15.2952 8.25658C 15.2958 8.25798 15.2961 8.25891 15.2963 8.25936C 15.2964 8.25959 15.2964 8.25969 15.2964 8.25968C 15.2964 8.25967 15.2964 8.25957 15.2964 8.25957C 15.2963 8.25944 15.2962 8.25928 16 8ZM 8 -0.75C 7.36021 -0.75 5.19058 -0.756844 3.1685 0.34086C 2.14392 0.897059 1.15325 1.73839 0.423299 2.99922C -0.305667 4.25834 -0.75 5.89315 -0.75 8L 0.75 8C 0.75 6.10685 1.14777 4.74166 1.72144 3.75078C 2.29411 2.76161 3.06661 2.10294 3.88413 1.65914C 5.54626 0.756844 7.37663 0.75 8 0.75L 8 -0.75ZM -0.75 8C -0.75 10.1069 -0.305667 11.7417 0.423299 13.0008C 1.15325 14.2616 2.14392 15.1029 3.1685 15.6591C 5.19058 16.7568 7.36021 16.75 8 16.75L 8 15.25C 7.37663 15.25 5.54626 15.2432 3.88413 14.3409C 3.06661 13.8971 2.29411 13.2384 1.72144 12.2492C 1.14777 11.2583 0.75 9.89315 0.75 8L -0.75 8ZM 8 16.75C 9.29058 16.75 10.4787 16.1401 11.4918 15.338C 12.5116 14.5307 13.4253 13.4729 14.1827 12.4449C 14.9433 11.4126 15.5652 10.3847 15.9961 9.61715C 16.212 9.23257 16.3811 8.9114 16.4967 8.68517C 16.5546 8.57202 16.5991 8.48249 16.6296 8.42052C 16.6448 8.38953 16.6565 8.36543 16.6646 8.34869C 16.6686 8.34032 16.6717 8.33379 16.6739 8.32917C 16.675 8.32686 16.6759 8.32502 16.6766 8.32367C 16.6769 8.32299 16.6772 8.32244 16.6774 8.322C 16.6775 8.32178 16.6776 8.32155 16.6776 8.32144C 16.6777 8.32124 16.6778 8.32106 16 8C 15.3222 7.67894 15.3222 7.67882 15.3223 7.67874C 15.3223 7.67875 15.3223 7.6787 15.3223 7.67873C 15.3223 7.67878 15.3222 7.67895 15.322 7.67925C 15.3218 7.67983 15.3213 7.68089 15.3205 7.68243C 15.3191 7.68549 15.3167 7.69044 15.3134 7.69721C 15.3069 7.71074 15.2968 7.73156 15.2832 7.75917C 15.2561 7.81439 15.2152 7.89673 15.1612 8.00233C 15.0531 8.2136 14.8933 8.51743 14.6881 8.88285C 14.2769 9.61534 13.6882 10.5874 12.9752 11.5551C 12.2589 12.5271 11.4358 13.4693 10.5608 14.162C 9.6792 14.8599 8.81468 15.25 8 15.25L 8 16.75ZM 16 8C 16.6637 8.34931 16.6636 8.3494 16.6636 8.34946C 16.6636 8.34944 16.6636 8.34947 16.6636 8.34943C 16.6637 8.34935 16.6638 8.34914 16.6639 8.34882C 16.6643 8.34818 16.6649 8.34705 16.6657 8.34546C 16.6674 8.34227 16.6701 8.3372 16.6738 8.33031C 16.6811 8.31653 16.6925 8.29546 16.7076 8.26759C 16.7378 8.21185 16.7832 8.12895 16.8427 8.02278C 16.9616 7.81035 17.1367 7.50521 17.3587 7.13835C 17.8037 6.40315 18.4333 5.42715 19.1752 4.45501C 19.9204 3.47847 20.7605 2.53041 21.6229 1.83322C 22.5 1.12407 23.307 0.75 24 0.75L 24 -0.75C 22.7983 -0.75 21.6579 -0.124068 20.6798 0.666777C 19.6868 1.46959 18.7638 2.52153 17.9827 3.545C 17.1983 4.57285 16.5384 5.59685 16.0755 6.36165C 15.8436 6.74479 15.6601 7.06465 15.534 7.28972C 15.4709 7.4023 15.4222 7.49127 15.3889 7.55272C 15.3722 7.58345 15.3594 7.6073 15.3506 7.62379C 15.3462 7.63203 15.3428 7.63844 15.3404 7.64294C 15.3392 7.64519 15.3383 7.64697 15.3376 7.64826C 15.3372 7.64891 15.337 7.64944 15.3368 7.64984C 15.3367 7.65004 15.3365 7.65026 15.3365 7.65036C 15.3364 7.65054 15.3363 7.65069 16 8ZM 24 0.75C 25.0656 0.75 26.873 0.761998 28.4153 1.64997C 29.877 2.49156 31.25 4.21514 31.25 8L 32.75 8C 32.75 3.78486 31.1757 1.50844 29.1637 0.350033C 27.2323 -0.761998 25.0397 -0.75 24 -0.75L 24 0.75ZM 31.25 8C 31.25 9.90117 30.8752 11.2712 30.3296 12.2637C 29.7862 13.2523 29.0517 13.9061 28.2657 14.3453C 26.6636 15.2406 24.8444 15.25 24 15.25L 24 16.75C 24.8399 16.75 27.0206 16.7594 28.9974 15.6547C 30.001 15.0939 30.9507 14.2477 31.6441 12.9863C 32.3354 11.7288 32.75 10.0988 32.75 8L 31.25 8ZM 24 15.25C 23.307 15.25 22.5 14.8759 21.6229 14.1668C 20.7605 13.4696 19.9204 12.5215 19.1752 11.545C 18.4333 10.5729 17.8037 9.59685 17.3587 8.86165C 17.1367 8.49479 16.9616 8.18965 16.8427 7.97722C 16.7832 7.87105 16.7378 7.78815 16.7076 7.73241C 16.6925 7.70454 16.6811 7.68347 16.6738 7.66969C 16.6701 7.6628 16.6674 7.65773 16.6657 7.65454C 16.6649 7.65295 16.6643 7.65182 16.6639 7.65118C 16.6638 7.65086 16.6637 7.65065 16.6636 7.65057C 16.6636 7.65053 16.6636 7.65056 16.6636 7.65054C 16.6636 7.6506 16.6637 7.65069 16 8C 15.3363 8.34931 15.3364 8.34946 15.3365 8.34964C 15.3365 8.34974 15.3367 8.34996 15.3368 8.35016C 15.337 8.35056 15.3372 8.35109 15.3376 8.35174C 15.3383 8.35303 15.3392 8.35481 15.3404 8.35706C 15.3428 8.36156 15.3462 8.36797 15.3506 8.37621C 15.3594 8.3927 15.3722 8.41655 15.3889 8.44728C 15.4222 8.50873 15.4709 8.5977 15.534 8.71028C 15.6601 8.93535 15.8436 9.25521 16.0755 9.63835C 16.5384 10.4032 17.1983 11.4271 17.9827 12.455C 18.7638 13.4785 19.6868 14.5304 20.6798 15.3332C 21.6579 16.1241 22.7983 16.75 24 16.75L 24 15.25Z"/>
</defs>
</svg>
