<?xml version="1.0" encoding="UTF-8"?>
<!-- Generator: Adobe Illustrator 19.0.0, SVG Export Plug-In . SVG Version: 6.00 Build 0)  -->
<svg version="1.1" id="Слой_1" xmlns="http://www.w3.org/2000/svg" xmlns:xlink="http://www.w3.org/1999/xlink" x="0px" y="0px" viewBox="0 0 500 500" style="enable-background:new 0 0 500 500;" xml:space="preserve">
<style type="text/css">
	.st0{fill:#FFFFFF;}
</style>
<g>
	<path class="st0" d="M249.6,24.9c-122.1,0-221,98.9-221,221c0,122.1,99,221,221,221c122.1,0,221-98.9,221-221   C470.6,123.9,371.7,24.9,249.6,24.9z M249.6,439c-106.4,0-193-86.6-193-193c0-106.4,86.6-193,193-193c106.4,0,193,86.6,193,193   C442.6,352.4,356,439,249.6,439z"/>
	<g>
		<path class="st0" d="M249.6,70c-97,0-176,78.9-176,176c0,97,78.9,176,176,176c97.1,0,175.9-78.9,175.9-176    C425.5,148.9,346.6,70,249.6,70z M221.7,284.5L121,153.2l159.5,56.5l97.8,129L221.7,284.5z"/>
	</g>
	<path id="XMLID_1_" class="st0" d="M273.8,245.9c0,13.4-10.8,24.2-24.2,24.2s-24.2-10.8-24.2-24.2c0-13.4,10.8-24.2,24.2-24.2   S273.8,232.6,273.8,245.9z"/>
</g>
</svg>