<?xml version="1.0" encoding="iso-8859-1"?>
<!-- Generator: Adobe Illustrator 19.0.0, SVG Export Plug-In . SVG Version: 6.00 Build 0)  -->
<svg xmlns="http://www.w3.org/2000/svg" xmlns:xlink="http://www.w3.org/1999/xlink" version="1.1" id="Capa_1" x="0px" y="0px" viewBox="0 0 512.099 512.099" style="enable-background:new 0 0 512.099 512.099;" xml:space="preserve" width="512px" height="512px">
<g>
	<g>
		<g>
			<path d="M472.994,359.089c66.392-116.173,46.439-262.459-48.64-356.608c-3.328-3.309-8.704-3.309-12.032,0L264.695,150.108     l-96.341-96.427c-31.987-31.259-83.258-30.67-114.517,1.317c-30.752,31.468-30.752,81.733,0,113.2l96.427,96.341L2.636,412.081     c-3.309,3.328-3.309,8.704,0,12.032c55.862,56.083,131.702,87.695,210.859,87.893c50.867-0.088,100.845-13.347,145.067-38.485     l36.096,36.096c3.328,3.309,8.704,3.309,12.032,0l102.4-102.4c3.309-3.328,3.309-8.704,0-12.032L472.994,359.089z      M290.295,148.572l19.541,19.541c3.58,3.065,8.966,2.649,12.032-0.931c2.736-3.195,2.736-7.906,0-11.101l-19.541-19.541     l13.568-13.568l19.541,19.541c3.58,3.065,8.966,2.649,12.032-0.931c2.736-3.195,2.736-7.906,0-11.101l-19.541-19.541     l13.568-13.568l19.541,19.541c3.58,3.065,8.966,2.649,12.032-0.931c2.736-3.195,2.736-7.906,0-11.101L353.527,85.34     l13.568-13.568l19.541,19.541c3.58,3.065,8.967,2.649,12.032-0.931c2.736-3.195,2.736-7.906,0-11.101L379.127,59.74     l13.568-13.568l19.541,19.541c3.58,3.065,8.966,2.649,12.032-0.931c2.736-3.195,2.736-7.906,0-11.101L404.727,34.14     l13.568-13.483c83.512,87.789,100.756,219.469,42.667,325.803l-51.2-51.285c21.568-49.712,22.794-105.897,3.413-156.501     c-1.042-2.708-3.388-4.701-6.229-5.291c-2.839-0.618-5.797,0.25-7.851,2.304l-74.411,74.411l-47.957-47.957L290.295,148.572z      M395.767,281.095l-58.624-58.624l64.768-64.768c12.482,40.946,10.768,84.908-4.864,124.757v-0.085L395.767,281.095z      M20.812,418.14l13.483-13.568l19.541,19.541c3.58,3.065,8.966,2.649,12.032-0.931c2.736-3.195,2.736-7.906,0-11.101     L46.327,392.54l13.568-13.568l19.541,19.541c3.58,3.065,8.967,2.649,12.032-0.931c2.736-3.195,2.736-7.906,0-11.101     L71.927,366.94l13.568-13.568l19.541,19.541c3.58,3.065,8.966,2.649,12.032-0.931c2.736-3.195,2.736-7.906,0-11.101     L97.527,341.34l13.568-13.568l19.541,19.541c3.58,3.065,8.966,2.649,12.032-0.931c2.736-3.195,2.736-7.906,0-11.101     l-19.541-19.541l13.568-13.568l19.541,19.541c3.58,3.065,8.966,2.649,12.032-0.931c2.736-3.195,2.736-7.906,0-11.101     l-19.541-19.541l13.568-13.568l19.541,19.541l28.672,28.672l-74.325,74.411c-3.328,3.336-3.322,8.739,0.014,12.068     c0.845,0.843,1.858,1.499,2.972,1.927c23.752,8.966,48.937,13.535,74.325,13.483c28.3,0.005,56.299-5.804,82.261-17.067     l51.2,51.2C240.471,518.702,108.821,501.48,20.812,418.14z M222.967,336.903l39.509,40.021l19.968,19.968     c-21.995,8.48-45.376,12.792-68.949,12.715c-18.695,0.021-37.294-2.681-55.211-8.021L222.967,336.903z M401.228,491.441     l-34.56-34.56l-63.147-63.147l-15.701-15.701l-93.867-93.867l-25.6-25.6l-102.4-102.4c-24.018-25.868-22.519-66.309,3.349-90.327     c24.505-22.753,62.407-22.771,86.934-0.041l53.76,53.675l-28.075,28.075c-3.58,3.065-3.996,8.452-0.931,12.032     c3.065,3.58,8.452,3.996,12.032,0.931c0.334-0.286,0.645-0.597,0.931-0.931l28.075-28.075l13.568,13.568l-28.075,28.075     c-3.58,3.065-3.996,8.452-0.931,12.032c3.065,3.58,8.452,3.996,12.032,0.931c0.334-0.286,0.645-0.597,0.931-0.931l28.075-28.075     l11.008,11.008l2.475,2.475l-28.075,28.075c-3.58,3.065-3.996,8.452-0.931,12.032c3.065,3.58,8.452,3.996,12.032,0.931     c0.334-0.286,0.645-0.597,0.931-0.931l28.16-27.989l11.008,11.008l2.475,2.475l-28.075,28.075     c-3.58,3.065-3.996,8.452-0.931,12.032c3.065,3.58,8.452,3.996,12.032,0.931c0.334-0.286,0.645-0.597,0.931-0.931l28.16-27.989     l13.568,13.568l-28.075,28.075c-3.58,3.065-3.996,8.452-0.931,12.032c3.065,3.58,8.452,3.996,12.032,0.931     c0.334-0.286,0.645-0.597,0.931-0.931l28.075-28.075l13.568,13.568l-28.075,28.075c-3.58,3.065-3.996,8.452-0.931,12.032     s8.452,3.996,12.032,0.931c0.334-0.286,0.645-0.597,0.931-0.931l28.075-28.075l6.4,6.4l7.083,7.083l-28.075,28.075     c-3.58,3.065-3.996,8.452-0.931,12.032s8.452,3.996,12.032,0.931c0.334-0.286,0.645-0.597,0.931-0.931l28.16-27.989     l13.568,13.568l-28.075,28.075c-3.58,3.065-3.996,8.452-0.931,12.032s8.452,3.996,12.032,0.931     c0.334-0.286,0.645-0.597,0.931-0.931l28.075-28.075l13.568,13.568l-28.075,28.075c-3.58,3.065-3.996,8.452-0.931,12.032     c3.065,3.58,8.452,3.996,12.032,0.931c0.334-0.286,0.645-0.597,0.931-0.931l28.075-28.075l13.568,13.568l-28.075,28.075     c-3.58,3.065-3.996,8.452-0.931,12.032s8.452,3.996,12.032,0.931c0.334-0.286,0.645-0.597,0.931-0.931l28.075-28.075     l13.568,13.568l-28.075,28.075c-3.58,3.065-3.996,8.452-0.931,12.032s8.452,3.996,12.032,0.931     c0.334-0.286,0.645-0.597,0.931-0.931l28.075-28.075l13.568,13.568L401.228,491.441z" fill="#FFFFFF"/>
			<path d="M115.362,76.807c-21.208,0-38.4,17.192-38.4,38.4c0,21.208,17.192,38.4,38.4,38.4c21.208,0,38.4-17.192,38.4-38.4     C153.762,93.999,136.57,76.807,115.362,76.807z M115.362,136.54c-11.782,0-21.333-9.551-21.333-21.333     c0-11.782,9.551-21.333,21.333-21.333c11.782,0,21.333,9.551,21.333,21.333C136.695,126.989,127.144,136.54,115.362,136.54z" fill="#FFFFFF"/>
		</g>
	</g>
</g>
<g>
</g>
<g>
</g>
<g>
</g>
<g>
</g>
<g>
</g>
<g>
</g>
<g>
</g>
<g>
</g>
<g>
</g>
<g>
</g>
<g>
</g>
<g>
</g>
<g>
</g>
<g>
</g>
<g>
</g>
</svg>
