<?xml version="1.0" encoding="UTF-8"?>
<!-- Generator: Adobe Illustrator 21.1.0, SVG Export Plug-In . SVG Version: 6.00 Build 0)  -->
<svg version="1.1" id="Слой_1" xmlns="http://www.w3.org/2000/svg" xmlns:xlink="http://www.w3.org/1999/xlink" x="0px" y="0px" viewBox="0 0 2000 561.2" style="enable-background:new 0 0 2000 561.2;" xml:space="preserve">
<style type="text/css">
	.st0{display:none;fill:#FFFFFF;}
	.st1{display:none;}
	.st2{display:inline;fill:#4C79AB;}
	.st3{display:inline;fill:#4BADE0;}
	.st4{fill:#4BADE0;}
</style>
<polygon class="st0" points="910.7,80.2 546.1,711.8 663,779.3 1054.5,101.1 1018.3,80.2 "/>
<g class="st1">
	<polygon class="st2" points="1060,1.9 968.3,2.2 1014.4,76.7  "/>
	<polygon class="st2" points="927.3,-162.6 949.7,-126.5 1122.4,-125.7 1039.6,18.5 1061.2,53.4 1181.6,-163.3  "/>
	<polygon class="st3" points="922.8,77.1 1014.5,76.8 968.4,2.3  "/>
</g>
<g>
	<polygon class="st4" points="1104.8,0 432.4,0 768.1,561.2  "/>
	<polygon class="st4" points="98.6,561.2 771,561.2 435.3,0  "/>
	<polygon class="st4" points="129.3,-506.8 280.5,-254 1257.2,-254 1446,-254 1502.3,-254 1502.3,-253.7 1553,-253.7 1501.9,-166.9    1501.8,-167 1401.6,0 1401,0 916,808.4 1065.4,1058.3 2004,-506.8  "/>
</g>
</svg>