<?xml version="1.0" encoding="UTF-8"?>
<!-- Generator: Adobe Illustrator 21.1.0, SVG Export Plug-In . SVG Version: 6.00 Build 0)  -->
<svg version="1.1" id="Слой_1" xmlns="http://www.w3.org/2000/svg" xmlns:xlink="http://www.w3.org/1999/xlink" x="0px" y="0px" viewBox="0 0 2000 1637" style="enable-background:new 0 0 2000 1637;" xml:space="preserve">
<style type="text/css">
	.st0{display:none;fill:#FFFFFF;}
	.st1{display:none;}
	.st2{display:inline;fill:#4C79AB;}
	.st3{display:inline;fill:#4BADE0;}
	.st4{fill:#6FB5E1;}
</style>
<polygon class="st0" points="910.7,621 546.1,1252.6 663,1320.1 1054.5,642 1018.3,621 "/>
<g class="st1">
	<polygon class="st2" points="1060,542.7 968.3,543 1014.4,617.5  "/>
	<polygon class="st2" points="927.3,378.3 949.7,414.3 1122.4,415.1 1039.6,559.3 1061.2,594.3 1181.6,377.5  "/>
	<polygon class="st3" points="922.8,617.9 1014.5,617.6 968.4,543.1  "/>
</g>
<g>
	<polygon class="st4" points="1034.8,540.8 362.4,540.8 698.1,1102  "/>
	<polygon class="st4" points="28.6,1102 701,1102 365.3,540.8  "/>
	<polygon class="st4" points="59.3,34 210.5,286.8 1187.2,286.8 1376,286.8 1432.3,286.8 1432.3,287.1 1483,287.1 1431.9,373.9    1431.8,373.8 1331.6,540.8 1331,540.8 846,1349.2 995.4,1599.1 1934,34  "/>
</g>
<rect x="210.5" y="201.5" class="st4" width="1346.2" height="85.3"/>
</svg>