<?xml version="1.0" encoding="utf-8"?>
<!-- Generator: Adobe Illustrator 19.0.0, SVG Export Plug-In . SVG Version: 6.00 Build 0)  -->
<svg version="1.1" id="Слой_1" xmlns="http://www.w3.org/2000/svg" xmlns:xlink="http://www.w3.org/1999/xlink" x="0px" y="0px"
	 viewBox="0 0 500 500" style="enable-background:new 0 0 500 500;" xml:space="preserve">
<style type="text/css">
	.st0{fill:#FFFFFF;}
</style>
<g id="XMLID_1_">
	<path id="XMLID_2_" class="st0" d="M290.7,215.8c6-3.7,9.1-10.2,9.1-19.6c0-10.4-4-17.3-12-20.6c-6.9-2.3-15.7-3.5-26.4-3.5h-48.5
		v49.2h54.2C276.8,221.3,284.7,219.5,290.7,215.8z"/>
	<path id="XMLID_4_" class="st0" d="M290.1,262c-5.3-2.4-12.7-3.7-22.3-3.8h-54.9v59.5h54.2c9.7,0,17.2-1.3,22.6-3.9
		c9.8-4.8,14.7-14.1,14.7-27.9C304.4,274.3,299.6,266.3,290.1,262z"/>
	<path id="XMLID_12_" class="st0" d="M394.4,31.1H115.9c-45.8,0-83,35.8-83,80v268.6c0,44.2,37.2,80,83,80h278.4
		c45.8,0,83-35.9,83-80V111.2C477.4,66.9,440.2,31.1,394.4,31.1z M341.5,324.7c-4.2,7-9.5,12.8-15.8,17.6
		c-7.1,5.4-15.5,9.2-25.2,11.2c-9.7,2-20.2,3-31.5,3H168.4V133.3h107.8c27.2,0.4,46.5,8.3,57.8,23.8c6.8,9.5,10.2,20.8,10.2,34.1
		c0,13.6-3.4,24.6-10.3,32.8c-3.9,4.6-9.5,8.9-17,12.7c11.4,4.1,20,10.7,25.8,19.7c5.8,9,8.7,19.9,8.7,32.7
		C351.4,302.3,348.1,314.2,341.5,324.7z"/>
</g>
</svg>
