<svg width="181" height="181" fill="none" xmlns="http://www.w3.org/2000/svg"><g opacity=".3"><path fill-rule="evenodd" clip-rule="evenodd" d="M39.856 125.206c-2.948-1.486-4.14-4.455-4.599-6.882-.559-1.555-.773-3.277-.805-4.826l-.001-.05.001-.049c.126-4.386 2.26-9.291 5.428-13.784l.064-70.191h103.379v34.778c8.284.005 16.57.012 24.858.023H177l-8.037 3.84a42136 42136 0 00-25.64 10.953v68.052H39.95v-20.33l-.095.036.001-1.57zm2.094 19.864h99.373V77.698c7.518-3.215 14.939-6.386 22.183-9.479l4.672-1.994a43010.757 43010.757 0 00-26.855-.024V31.424h-99.38l-.064 68.834c-3.26 4.476-5.313 9.206-5.428 13.198.031 1.474.242 3.023.742 4.338.448 2.542 1.658 5.19 4.646 6.046l.018.005v.043l.066-.024.027.007v21.199z" fill="#1E3364"/><path d="M41.942 31.424l-.085 92.464.093-.034v21.216h99.373V31.424h-99.38z" fill="#fff"/><path d="M55.263 101.845l-.633.387.633-.387zM50.209 115.233z" fill="#00A9DD"/><path d="M65.843 129.297a2.834 2.834 0 00-1.313 1.063c-.16.267-.243.573-.24.885a1.415 1.415 0 00.522 1.159c.353.289.799.441 1.255.429a1.776 1.776 0 001.363-.51c.27-.293.417-.679.41-1.078a1.467 1.467 0 00-.499-1.094 4.702 4.702 0 00-1.486-.854h-.012zm10.38-4.934a1.461 1.461 0 00-1.16.48 2.542 2.542 0 00-.493 1.703c-.051.604.12 1.205.478 1.693a1.62 1.62 0 001.155.5c.216.002.43-.04.63-.123.2-.082.38-.204.532-.358a3.243 3.243 0 00.043-3.373 1.523 1.523 0 00-1.19-.522h.004zm-10.96 2.527c.313.185.638.345.974.479a2.412 2.412 0 001.015-.707c.256-.272.404-.627.417-1a1.239 1.239 0 00-.436-.943 1.62 1.62 0 00-1.158-.406 1.735 1.735 0 00-1.159.387 1.199 1.199 0 00-.467.962 1.435 1.435 0 00.803 1.228h.012zm-18.425-10.486v23.793h89.62V77.963l-89.62 38.441zm22.194 17.41a4.753 4.753 0 01-2.965.889c-1.434 0-2.527-.371-3.278-1.113a3.228 3.228 0 01-.973-2.407 2.93 2.93 0 01.567-1.793 3.02 3.02 0 011.545-1.093 2.681 2.681 0 01-1.776-2.632 2.81 2.81 0 011.092-2.318 4.392 4.392 0 012.82-.869 4.575 4.575 0 012.822.819 2.563 2.563 0 011.085 2.16 2.883 2.883 0 01-.48 1.63c-.33.494-.814.863-1.378 1.051a3.302 3.302 0 011.61 1.159c.401.542.61 1.201.591 1.874a3.17 3.17 0 01-1.282 2.666v-.023zm10.6-1.379a4.072 4.072 0 01-1.962 1.862 5.618 5.618 0 01-2.286.429 9.16 9.16 0 01-1.374-.089 6.376 6.376 0 01-1.24-.305l.274-1.932c.675.29 1.401.441 2.136.444a2.536 2.536 0 002.386-1.263c.363-.65.54-1.388.513-2.133a3.424 3.424 0 01-1.007.877c-.411.214-.87.316-1.333.298a3.574 3.574 0 01-2.645-1.005 3.928 3.928 0 01-1.073-2.905 4.471 4.471 0 01.904-2.887c.718-.886 1.794-1.328 3.228-1.325 1.239 0 2.204.325 2.9.989a4.337 4.337 0 011.193 2.284c.165.826.24 1.668.224 2.511 0 1.727-.278 3.118-.838 4.15zm5.02 2.152h-2.387v-2.426h2.386v2.426zm9.332-10.173l-4.367 10.173h-2.703l4.606-10.077h-5.336v-1.901h7.8v1.805zm16.65.239h-4.248v2.89h4.039v1.932h-4.035v5.023h-2.405v-11.85h6.649v2.005zm15.684 9.876h-2.405v-8.346l.034-1.831h-.05l-.544 1.696-2.885 8.5h-2.289l-2.885-8.5-.544-1.696h-.05l.034 1.831v8.346h-2.409v-11.881h4.074l2.374 6.916.521 2.098h.055l.525-2.098 2.374-6.916h4.07v11.881z" fill="#1E3364"/><path d="M136.458 76.39l16.263-7.65h-16.263V35.967H46.931v63.625c-2.703 3.316-5.445 6.832-6.827 10.143l-2.97 2.581s-2.316 14.257 9.82 11.441c3.907-1.43 11.514-5.128 17.6-14.578 33.067-15.456 37.396-14.868 71.9-31.209l.004-1.58z" fill="#1E3364"/><path d="M64.252 87.027l3.696-1.746c-.421 3.164.216 10.842 5.9 8.976 4.32-1.469 8.494-8.114 11.861-12.751a8544.93 8544.93 0 00-2.969 9.66l5.888-1.851c.973-3.385 1.947-6.772 2.92-10.162l4.401-1.206-2.965 9.88c1.802-.582 3.593-1.17 5.375-1.762l6.718-8.886c-.903 4.818.441 6.483 2.896 6.274 2.761-.278 5.02-5.9 6.839-9.01-.479 2.171-1.271 4.74-1.159 6.449l4.17-1.391c2.43-3.11 4.857-6.216 7.279-9.32h2.475l-2.085 6.723c1.699-.545 3.394-1.082 5.097-1.623.494-1.704.992-3.4 1.486-5.1l16.032.047c-24.797 10.13-54.532 22.216-80.148 32.676a45.06 45.06 0 01-4.722 8.191c33.708-14.397 71.46-30.582 104.941-44.87-14.279-.018-28.551-.027-42.817-.027-2.093 2.77-4.29 5.904-6.26 8.303l2.456-8.303c-1.621 0-3.243-.031-4.865-.047-1.324 3.767-3.915 8.5-6.116 11.92-.923 1.383-1.054-.077-.742-1.16 1.079-3.59 2.16-7.177 3.244-10.76a728.79 728.79 0 01-4.776.093c-.495 1.72-.985 3.431-1.483 5.147l-6.719 8.766 4.124-13.96h-4.958c-.803 2.782-1.605 5.566-2.405 8.35-1.409.338-2.815.678-4.22 1.02l2.78-9.37c-1.792 0-3.588-.03-5.376-.046-1.05 3.545-2.101 7.084-3.154 10.618L77.068 88.36c-.34.387-1.008.796-1.464.734-1.494-.262-1.363-3.863-1.22-6.32a25.627 25.627 0 008.155-5.449c4.495-4.234 5.398-11.127-.556-11.127-5.614.054-11.445 6.124-13.514 15.73-1.452.594-2.854 1.077-4.665 1.88a9.986 9.986 0 00-2.884-5.366c6.178-3.4 13.263-11.591 9.267-17-3.023-3.803-12.499-2.412-18.376 4.922l-1.544 5.47c.332 0 .664.024 1 .024 6.066-8.412 11.306-7.032 11.398-3.663.093 2.921-3.861 8.416-9.05 12.075a11.815 11.815 0 013.332 6.99c-10.959 5.509-20.249 17.576-20.496 26.196.077 3.663 1.267 7.789 5.24 7.65 9.325-.463 23.554-19.616 22.565-34.079h-.004zm15.63-17.352c.866.417.738 1.878.476 2.84-.452 2.137-2.56 5.17-5.433 6.78.699-3.376 3.247-10.265 4.958-9.62zM43.48 111.872c.131-8.346 7.305-16.456 13.68-21.023-.278 7.851-3.938 17.893-7.954 21.942-4.448 4.293-5.804 1.839-5.726-.919zM64.758 47.103a2.647 2.647 0 00-.533-1.75 1.436 1.436 0 00-2.251 0c-.384.5-.576 1.12-.54 1.75-.037.63.155 1.25.54 1.75a1.438 1.438 0 002.251 0 2.64 2.64 0 00.533-1.75zm2.05 0c0 1.286-.332 2.28-.996 2.96a3 3 0 01-2.24.896 2.534 2.534 0 01-1.285-.31 2.584 2.584 0 01-.865-.818v4.107h-1.95v-10.58h1.718v1.303a2.75 2.75 0 011.047-1.047 2.848 2.848 0 011.42-.387 2.882 2.882 0 012.213.885c.626.672.938 1.664.938 2.975M78.153 47.651v-.185h-.328a7.336 7.336 0 00-1.73.143 1.066 1.066 0 00-.919 1.07.913.913 0 00.293.692c.257.202.58.3.904.274.43.018.852-.119 1.19-.386a2.006 2.006 0 00.59-1.608zm1.977 3.211H78.2v-1.116a2.32 2.32 0 01-.634.722 2.876 2.876 0 01-1.73.49 2.782 2.782 0 01-2.035-.69 2.143 2.143 0 01-.621-1.585 2.088 2.088 0 01.668-1.611c.615-.567 1.63-.85 3.042-.85h1.275v-.317a1.132 1.132 0 00-.738-1.117 2.363 2.363 0 00-.938-.17c-.391 0-.78.05-1.159.151-.426.12-.836.293-1.22.514v-1.546a6.463 6.463 0 011.32-.386 8.983 8.983 0 011.426-.116c1.336 0 2.266.34 2.784 1.012.369.547.546 1.2.502 1.859l-.012 4.756zM92.331 49.398v-4.59h-2.166v1.109a12.32 12.32 0 01-.085 1.762 3.892 3.892 0 01-.706 1.72h2.957zm3.197 3.397h-1.803v-1.932h-5.29v1.932h-1.788v-3.397h.834c.402-.473.68-1.039.811-1.646.12-.647.174-1.305.159-1.963v-2.43h5.861v6.04h1.216v3.396zM109.363 50.847h-1.961v-3.875l.054-1.403-3.348 5.278h-2.097V43.36h1.966v3.933l-.062 1.341 3.251-5.274h2.197v7.488zM121.858 47.103a2.934 2.934 0 00-.49-1.777 1.544 1.544 0 00-1.313-.665 1.57 1.57 0 00-1.243.564 2.73 2.73 0 00-.575 1.878 2.765 2.765 0 00.575 1.866 1.588 1.588 0 001.243.576 1.542 1.542 0 001.313-.669 2.92 2.92 0 00.49-1.773zm2.055 0a3.716 3.716 0 01-.23 1.549 3.72 3.72 0 01-.844 1.318 4.376 4.376 0 01-5.556.027 3.762 3.762 0 01-1.101-2.875 3.711 3.711 0 011.078-2.836 4.344 4.344 0 015.552-.042 3.791 3.791 0 011.101 2.879" fill="#fff"/></g></svg>