<svg width="23" height="27" fill="none" xmlns="http://www.w3.org/2000/svg"><path fill-rule="evenodd" clip-rule="evenodd" d="M14.965 3.13l.29-.425.289-.42.645-.943a.246.246 0 00-.072-.35.26.26 0 00-.358.07L14.48 2.93a8.721 8.721 0 00-3.082-.551c-1.1 0-2.145.197-3.081.551l-.295-.432-.983-1.435a.265.265 0 00-.36-.07.249.249 0 00-.073.349l.645.943.29.42.29.426c-2.198.997-3.685 2.885-3.685 5.046H18.65c0-2.16-1.487-4.05-3.684-5.046zM4.145 9.186v11.092c0 .881.735 1.598 1.642 1.598H6.97a1.42 1.42 0 00-.063.42v3.193c0 .835.697 1.512 1.555 1.512s1.555-.677 1.555-1.512v-3.193c0-.147-.024-.287-.063-.42h2.886c-.04.133-.061.273-.061.42v3.193c0 .835.695 1.512 1.553 1.512.86 0 1.556-.677 1.556-1.512v-3.193c0-.147-.023-.287-.064-.42h1.185c.906 0 1.64-.717 1.64-1.598V9.185H4.145zm-2.59 0C.695 9.185 0 9.862 0 10.697v6.471c0 .835.696 1.512 1.555 1.512.858 0 1.553-.677 1.553-1.512v-6.471c0-.835-.695-1.512-1.553-1.512zm19.686 0c-.86 0-1.555.677-1.555 1.512v6.471c0 .835.695 1.512 1.555 1.512.857 0 1.553-.677 1.553-1.512v-6.471c0-.835-.696-1.512-1.553-1.512zM8.289 6.16a.767.767 0 01-.778-.756c0-.419.348-.755.778-.755.43 0 .777.336.777.755a.767.767 0 01-.777.756zm6.216 0a.767.767 0 01-.777-.756c0-.419.348-.755.777-.755.43 0 .777.336.777.755a.767.767 0 01-.777.756z" fill="#1E3364"/></svg>