<svg width="24" height="27" fill="none" xmlns="http://www.w3.org/2000/svg"><path fill-rule="evenodd" clip-rule="evenodd" d="M15.897 4.332c.87-1.123 1.53-2.711 1.291-4.332-1.422.099-3.085 1.009-4.055 2.195-.884 1.075-1.611 2.674-1.327 4.226 1.555.048 3.16-.884 4.09-2.089zm7.686 15.247c-4.526-1.721-5.252-8.156-.772-10.626-1.366-1.713-3.286-2.706-5.099-2.706-2.394 0-3.406 1.145-5.069 1.145-1.714 0-3.016-1.142-5.086-1.142-2.034 0-4.199 1.242-5.571 3.367-1.93 2.992-1.6 8.617 1.528 13.41 1.119 1.714 2.613 3.641 4.567 3.658 1.74.018 2.23-1.115 4.587-1.128 2.357-.014 2.805 1.143 4.54 1.124 1.956-.016 3.533-2.152 4.652-3.867.801-1.228 1.1-1.848 1.723-3.235z" fill="#1E3364"/></svg>