<svg viewBox="0 0 18 18"><path opacity=".5" fill-rule="evenodd" clip-rule="evenodd" d="M15.89 1.406h-.843V0H13.64v1.406H4.359V0H2.953v1.406H2.11C.946 1.406 0 2.353 0 3.516V15.89C0 17.054.946 18 2.11 18h13.78c1.164 0 2.11-.946 2.11-2.11V3.517c0-1.163-.946-2.11-2.11-2.11zm.704 14.485a.704.704 0 01-.703.703H2.109a.704.704 0 01-.703-.703V6.609h15.188v9.282zm0-10.688H1.406V3.516c0-.388.316-.704.703-.704h.844V4.22H4.36V2.812h9.282V4.22h1.406V2.812h.844c.387 0 .703.316.703.704v1.687zM4.078 8.086H2.672v1.406h1.406V8.086zm1.406 0h1.407v1.406H5.484V8.086zm4.22 0H8.296v1.406h1.406V8.086zm1.405 0h1.407v1.406h-1.407V8.086zm4.22 0h-1.407v1.406h1.406V8.086zM2.671 10.898h1.406v1.407H2.672v-1.407zm4.219 0H5.484v1.407h1.407v-1.407zm1.406 0h1.406v1.407H8.297v-1.407zm4.219 0h-1.407v1.407h1.407v-1.407zm-9.844 2.813h1.406v1.406H2.672v-1.406zm4.219 0H5.484v1.406h1.407v-1.406zm1.406 0h1.406v1.406H8.297v-1.406zm4.219 0h-1.407v1.406h1.407v-1.406zm1.406-2.813h1.406v1.407h-1.406v-1.407z" fill="currentColor"/></svg>