<svg viewBox="0 0 117 37" fill="none" xmlns="http://www.w3.org/2000/svg"><g clip-path="url(#clip0)"><path d="M1.558 0v35.861H117.03V0H1.558z" fill="#fff"/><path d="M7.19 28.611c-.09.06-.15.09-.239.15.09-.06.15-.12.24-.15zM5.243 33.704c.09-.09.18-.15.27-.24-.09.09-.18.18-.27.24zM114.453 33.345H7.82L50.725 15.01h63.728v18.335z" fill="#06AADE"/><path d="M4.015 2.516v26.005c-.57.81-1.079 1.588-1.378 2.367L.27 32.027s-1.289 5.572 5.033 4.913c2.038-.27 5.633-2.367 8.33-6.89 15.55-6.652 23.58-10.397 34.485-14.92h66.335V2.515H4.015z" fill="#1E3464"/><path d="M13.363 19.594l1.768-.84c-.21 1.529.12 5.214 2.846 4.315 2.067-.72 4.105-3.895 5.693-6.112-.48 1.558-.96 3.086-1.439 4.644.93-.3 1.888-.6 2.817-.899.48-1.618.929-3.266 1.408-4.883.72-.18 1.408-.39 2.127-.57a935.46 935.46 0 01-1.438 4.734c.87-.27 1.708-.57 2.577-.839 1.078-1.438 2.157-2.846 3.236-4.284-.42 2.307.21 3.116 1.378 3.026 1.318-.12 2.397-2.846 3.296-4.314-.24 1.048-.6 2.277-.57 3.085.66-.21 1.349-.449 2.008-.659a581.514 581.514 0 013.505-4.464h1.169l-.989 3.236c.81-.27 1.618-.51 2.457-.779.24-.809.48-1.648.72-2.457l7.7.03C41.736 16.388 27.444 22.17 15.13 27.204c-.69 1.527-1.439 2.845-2.248 3.954 16.18-6.92 34.337-14.68 50.426-21.541-6.861 0-13.723 0-20.584-.03-1.019 1.318-2.067 2.846-2.996 3.985.39-1.318.78-2.667 1.169-3.985-.78 0-1.558-.03-2.337-.03-.63 1.798-1.888 4.075-2.937 5.722-.45.66-.509-.03-.36-.569.51-1.708 1.05-3.445 1.559-5.153-.75 0-1.528.03-2.307.03-.24.809-.48 1.648-.72 2.457l-3.235 4.194c.659-2.247 1.318-4.464 1.977-6.71h-2.397c-.39 1.347-.779 2.666-1.168 4.014-.69.15-1.348.33-2.037.48l1.348-4.495c-.87 0-1.738-.03-2.577-.03-.51 1.708-1.019 3.386-1.528 5.093-1.588 1.858-3.146 3.715-4.734 5.573-.15.18-.48.39-.689.36-.72-.12-.66-1.858-.6-3.027 1.349-.539 2.757-1.468 3.926-2.606 2.217-1.977 2.666-5.303-.21-5.303-2.697.03-5.513 2.936-6.502 7.55-.689.3-1.378.51-2.247.899-.18-.84-.54-1.768-1.378-2.577 2.966-1.618 6.382-5.572 4.464-8.179-1.438-1.797-5.992-1.138-8.808 2.367-.24.869-.48 1.738-.75 2.636h.48c2.906-4.044 5.423-3.385 5.483-1.767.06 1.408-1.858 4.044-4.345 5.812.87.869 1.409 1.947 1.588 3.355C4.584 22.35.12 28.132 0 32.296c.03 1.768.6 3.745 2.517 3.685 4.494-.24 11.325-9.437 10.846-16.387zm7.52-8.33c.42.21.36.9.24 1.349-.21 1.019-1.229 2.487-2.607 3.266.3-1.618 1.528-4.914 2.367-4.614zM3.386 31.518c.06-3.984 3.505-7.879 6.561-10.096-.12 3.775-1.887 8.599-3.835 10.546-2.127 2.067-2.786.869-2.726-.45zM70.8 27.533h-2.218v2.247H70.8v-2.247zM107.293 29.75h2.247V18.725h-3.776l-2.217 6.41-.479 1.948h-.06l-.479-1.947-2.218-6.411h-3.775V29.75h2.218v-7.76l-.03-1.707h.06l.509 1.587 2.666 7.88h2.128l2.696-7.88.51-1.588h.029l-.029 1.708v7.76zM75.893 29.78l4.074-9.438v-1.647h-7.25v1.737h4.943l-4.284 9.348h2.517zM94.02 20.582v-1.857h-6.203V29.75h2.248v-4.674h3.745v-1.828h-3.746v-2.666h3.955zM66.724 21.6c-.21-.898-.569-1.617-1.108-2.126-.66-.6-1.558-.93-2.697-.93-1.348 0-2.337.42-2.996 1.23-.57.688-.839 1.587-.839 2.696 0 1.138.33 2.037.989 2.696.63.63 1.438.929 2.457.929.51 0 .899-.09 1.228-.27.33-.18.63-.45.929-.809 0 .78-.15 1.438-.48 1.978-.449.778-1.198 1.168-2.216 1.168-.66 0-1.319-.15-1.978-.42l-.24 1.798c.39.15.78.24 1.139.3.39.06.809.09 1.288.09.81 0 1.528-.12 2.127-.39.78-.36 1.379-.929 1.828-1.738.51-.958.78-2.247.78-3.864 0-.96-.09-1.708-.21-2.337zm-2.696 2.308c-.27.3-.63.45-1.049.45-.45 0-.809-.15-1.078-.45-.3-.33-.45-.87-.45-1.558 0-.72.15-1.229.45-1.588.27-.3.629-.45 1.078-.45.45 0 .81.15 1.109.48.27.33.42.839.42 1.558-.03.689-.18 1.228-.48 1.558zM56.687 24.866c-.36-.479-.869-.838-1.498-1.048.57-.21.989-.54 1.289-.989.3-.45.449-.959.449-1.528 0-.839-.33-1.498-1.019-2.007-.659-.51-1.558-.75-2.636-.75-1.079 0-1.948.27-2.607.81-.69.54-1.019 1.258-1.019 2.157 0 1.138.54 1.977 1.648 2.457-.599.21-1.108.539-1.438 1.018-.36.48-.51 1.019-.51 1.678 0 .899.3 1.648.9 2.247.689.689 1.707 1.018 3.056 1.018 1.108 0 2.037-.27 2.756-.838.78-.6 1.199-1.438 1.199-2.487-.03-.66-.21-1.258-.57-1.738zm-4.464-4.254c.3-.24.63-.36 1.049-.36.45 0 .809.12 1.078.36.27.24.42.54.42.869 0 .33-.12.63-.39.929-.27.3-.569.509-.959.659-.389-.18-.689-.33-.898-.45-.51-.3-.75-.689-.75-1.138.03-.33.18-.63.45-.869zm2.337 7.07c-.3.33-.719.48-1.258.48-.45 0-.84-.12-1.169-.39-.33-.27-.48-.629-.48-1.078 0-.3.06-.57.21-.839.24-.39.63-.719 1.229-.989.6.24 1.049.51 1.378.81.33.299.48.628.48 1.018s-.15.719-.39.989zM70.53 8.748c0-.48-.12-.869-.36-1.138-.21-.24-.45-.36-.749-.36-.3 0-.54.12-.749.36-.24.27-.36.659-.36 1.138 0 .48.12.869.36 1.139.21.24.45.359.749.359.3 0 .54-.12.75-.36.239-.27.359-.659.359-1.138zm1.348 0c0 .839-.21 1.498-.66 1.947-.389.39-.868.6-1.467.6-.33 0-.6-.06-.84-.21-.239-.15-.419-.33-.569-.54v2.697h-1.288v-6.95h1.139v.868c.18-.3.39-.54.689-.689.3-.15.599-.24.928-.24.6 0 1.11.21 1.469.57.39.42.599 1.078.599 1.947zM79.368 9.108v-.12h-.21c-.539 0-.928.03-1.138.09-.42.12-.6.36-.6.719 0 .18.06.33.18.45.12.119.33.179.6.179.33 0 .599-.09.779-.27.24-.21.39-.569.39-1.048zm1.289 2.097h-1.259v-.72c-.12.21-.27.36-.42.48-.299.21-.688.33-1.138.33-.569 0-1.018-.15-1.348-.45-.27-.27-.42-.629-.42-1.048 0-.45.15-.78.45-1.049.42-.36 1.079-.57 2.007-.57h.84V7.97c0-.36-.15-.599-.48-.749-.18-.09-.39-.12-.63-.12-.269 0-.539.03-.778.09-.24.06-.51.18-.81.33V6.5c.27-.12.57-.21.87-.24.3-.06.629-.09.928-.09.87 0 1.499.21 1.828.66.24.3.33.689.33 1.228v3.146h.03zM88.716 10.246V7.22h-1.438v.72c0 .539-.03.928-.06 1.168-.06.42-.21.809-.48 1.138h1.978zm2.098 2.247h-1.199v-1.288H86.14v1.288H84.94v-2.247h.54c.27-.3.449-.659.539-1.078.06-.3.09-.75.09-1.289V6.292h3.865v3.984h.809v2.217h.03zM99.952 11.205h-1.289V8.658l.03-.928-2.217 3.475h-1.378V6.292h1.288v2.576l-.03.899 2.128-3.475h1.468v4.913zM108.191 8.748c0-.48-.12-.869-.329-1.168-.21-.3-.51-.45-.869-.45-.33 0-.599.12-.809.36-.24.3-.39.689-.39 1.228 0 .54.12.929.39 1.228.21.24.509.39.809.39.359 0 .659-.15.869-.45.209-.27.329-.659.329-1.138zm1.348 0c0 .809-.239 1.438-.719 1.888-.479.449-1.078.659-1.827.659-.749 0-1.378-.21-1.828-.66-.479-.449-.719-1.078-.719-1.887 0-.809.24-1.438.719-1.857.48-.45 1.079-.66 1.828-.66.749 0 1.378.21 1.827.66.48.419.719 1.048.719 1.857z" fill="#fff"/></g><defs><clipPath id="clip0"><path fill="#fff" d="M0 0h117v37H0z"/></clipPath></defs></svg>