<svg viewBox="0 0 166 138" fill="none" xmlns="http://www.w3.org/2000/svg"><path d="M127.491.036h-3.83v41.192l3.83.155V.036zM153.256 41.069l-29.595 12.794v80.056H6.119v3.83H127.49v-80.24L166 41.07h-12.744z" fill="#00A9DD"/><path d="M6.475 0l-.1 108.959.109-.041v25.001H123.66V0H6.475z" fill="#fff"/><path d="M22.182 82.984l-.746.455.746-.455zM16.223 98.76zM34.658 115.333a3.337 3.337 0 00-1.548 1.252c-.19.315-.287.676-.283 1.043a1.661 1.661 0 00.615 1.366c.417.34.942.52 1.48.505.295.02.59-.024.868-.128a2.07 2.07 0 00.739-.473c.319-.345.492-.8.483-1.27a1.718 1.718 0 00-.588-1.288 5.518 5.518 0 00-1.753-1.007h-.013zm12.238-5.814a1.706 1.706 0 00-1.366.565 2.994 2.994 0 00-.582 2.007c-.06.712.14 1.42.564 1.995a1.903 1.903 0 002.732.022 3.818 3.818 0 00.05-3.974 1.784 1.784 0 00-1.402-.615h.004zm-12.921 2.978c.367.217.75.406 1.147.564a2.85 2.85 0 001.198-.833c.3-.321.475-.74.491-1.179a1.454 1.454 0 00-.514-1.111 1.907 1.907 0 00-1.366-.478 2.046 2.046 0 00-1.366.455 1.421 1.421 0 00-.55 1.134 1.694 1.694 0 00.946 1.448h.014zM12.248 100.14v28.037h105.676V54.841L12.248 100.14zm26.17 20.516a5.608 5.608 0 01-3.496 1.047c-1.69 0-2.98-.437-3.866-1.311a3.807 3.807 0 01-1.147-2.837 3.45 3.45 0 01.67-2.112 3.557 3.557 0 011.82-1.289 3.156 3.156 0 01-2.094-3.101 3.316 3.316 0 011.288-2.731 5.176 5.176 0 013.324-1.025 5.408 5.408 0 013.328.965 3.03 3.03 0 011.28 2.546 3.396 3.396 0 01-.565 1.921 3.16 3.16 0 01-1.625 1.238c.758.25 1.42.727 1.898 1.366.473.638.718 1.415.697 2.209a3.73 3.73 0 01-1.511 3.141v-.027zm12.499-1.626a4.8 4.8 0 01-2.313 2.195 6.642 6.642 0 01-2.696.505 10.85 10.85 0 01-1.62-.104 7.656 7.656 0 01-1.462-.36l.323-2.277a6.45 6.45 0 002.518.524 2.994 2.994 0 002.814-1.489 4.789 4.789 0 00.605-2.513c-.324.419-.728.77-1.188 1.033a3.129 3.129 0 01-1.57.351 4.212 4.212 0 01-3.12-1.184 4.639 4.639 0 01-1.265-3.424 5.263 5.263 0 011.065-3.401c.847-1.044 2.116-1.565 3.806-1.562 1.462 0 2.6.383 3.42 1.166a5.11 5.11 0 011.407 2.691c.195.974.283 1.966.264 2.959 0 2.036-.328 3.675-.988 4.89zm5.919 2.536h-2.814v-2.859h2.814v2.859zm11.004-11.988l-5.15 11.988h-3.186l5.432-11.874h-6.293v-2.24h9.197v2.126zm19.633.282h-5.008v3.406h4.762v2.277H82.47v5.919h-2.836v-13.965h7.84v2.363zm18.495 11.638h-2.837v-9.834l.041-2.159h-.059l-.642 1.999-3.401 10.017h-2.7l-3.401-10.017-.642-1.999h-.06l.042 2.159v9.834h-2.841v-14.001h4.803l2.8 8.15.615 2.473h.063l.62-2.473 2.8-8.15h4.799v14.001z" fill="#00A9DD"/><path d="M117.924 52.988l19.178-9.015h-19.178V5.354H12.357V80.33c-3.187 3.907-6.42 8.05-8.05 11.952L.806 95.323s-2.732 16.801 11.578 13.481c4.608-1.684 13.577-6.042 20.753-17.178 38.992-18.213 44.096-17.52 84.783-36.775l.004-1.863z" fill="#1E3364"/><path d="M32.782 65.523l4.357-2.058c-.496 3.729.255 12.775 6.957 10.576 5.095-1.73 10.017-9.561 13.987-15.025-1.168 3.791-2.335 7.586-3.5 11.383l6.943-2.18 3.442-11.975 5.19-1.421-3.497 11.642A775.12 775.12 0 0073 64.39l7.922-10.472c-1.065 5.678.52 7.64 3.415 7.394 3.256-.328 5.92-6.953 8.064-10.618-.565 2.56-1.498 5.587-1.366 7.6l4.917-1.64c2.866-3.663 5.726-7.324 8.583-10.982h2.918l-2.458 7.923c2.003-.642 4.002-1.275 6.01-1.913.582-2.008 1.17-4.006 1.753-6.01l18.904.055c-29.24 11.938-64.303 26.18-94.508 38.505a53.075 53.075 0 01-5.568 9.653c39.748-16.965 84.263-36.038 123.743-52.875-16.838-.021-33.667-.032-50.489-.032-2.468 3.265-5.059 6.957-7.38 9.785l2.895-9.785c-1.912 0-3.825-.036-5.737-.054-1.562 4.439-4.617 10.016-7.212 14.046-1.088 1.63-1.243-.091-.874-1.366 1.272-4.232 2.547-8.458 3.825-12.68-1.876.042-3.754.078-5.633.109-.582 2.026-1.16 4.043-1.748 6.064l-7.922 10.331 4.862-16.45H74.07a9108.2 9108.2 0 00-2.836 9.84c-1.66.397-3.32.798-4.977 1.201 1.096-3.685 2.189-7.365 3.278-11.04-2.112 0-4.23-.037-6.338-.056a9021.563 9021.563 0 01-3.72 12.512l-11.582 13.66c-.401.455-1.189.937-1.726.865-1.762-.31-1.607-4.553-1.439-7.45a30.22 30.22 0 009.616-6.42c5.3-4.99 6.366-13.112-.655-13.112-6.62.064-13.496 7.217-15.936 18.536-1.712.7-3.365 1.27-5.5 2.217a11.766 11.766 0 00-3.401-6.324c7.285-4.007 15.64-13.66 10.927-20.034-3.565-4.48-14.738-2.84-21.668 5.8l-1.821 6.448c.391 0 .783.027 1.18.027 7.152-9.912 13.33-8.286 13.44-4.316.109 3.442-4.553 9.917-10.673 14.228a13.919 13.919 0 013.93 8.237C11.246 72.288.29 86.508 0 96.666c.091 4.316 1.493 9.179 6.178 9.015 10.996-.547 27.774-23.116 26.609-40.158h-.005zm18.43-20.448c1.02.492.87 2.213.56 3.346-.532 2.518-3.018 6.092-6.405 7.991.824-3.98 3.829-12.097 5.846-11.337zM8.288 94.799c.154-9.835 8.614-19.392 16.131-24.773-.328 9.251-4.644 21.085-9.38 25.856-5.244 5.059-6.842 2.168-6.751-1.083zM33.378 18.476a3.119 3.119 0 00-.628-2.063 1.695 1.695 0 00-2.654 0 3.096 3.096 0 00-.638 2.063 3.087 3.087 0 00.638 2.063 1.694 1.694 0 002.654 0 3.11 3.11 0 00.628-2.063zm2.418 0c0 1.516-.392 2.686-1.175 3.488a3.537 3.537 0 01-2.64 1.056 2.992 2.992 0 01-1.517-.364 3.045 3.045 0 01-1.02-.965v4.839h-2.299V14.064h2.026v1.534c.291-.516.718-.943 1.234-1.233a3.36 3.36 0 011.676-.456 3.4 3.4 0 012.609 1.043c.737.792 1.106 1.96 1.106 3.506M49.173 19.123v-.219h-.387a8.646 8.646 0 00-2.04.169 1.256 1.256 0 00-1.083 1.26 1.074 1.074 0 00.346.816 1.53 1.53 0 001.065.323 2.117 2.117 0 001.403-.455 2.362 2.362 0 00.696-1.894zm2.331 3.783h-2.276V21.59a2.732 2.732 0 01-.747.852c-.6.405-1.315.608-2.04.578a3.283 3.283 0 01-2.4-.815 2.527 2.527 0 01-.732-1.867 2.458 2.458 0 01.788-1.898c.725-.668 1.921-1.002 3.587-1.002h1.503v-.373a1.334 1.334 0 00-.87-1.316 2.79 2.79 0 00-1.106-.2 5.23 5.23 0 00-1.366.177 6.346 6.346 0 00-1.439.606V14.51a7.623 7.623 0 011.557-.455 10.6 10.6 0 011.68-.136c1.576 0 2.673.4 3.283 1.192.436.644.644 1.415.592 2.19l-.014 5.605zM65.892 21.18v-5.408h-2.554v1.307c.016.693-.018 1.387-.1 2.076a4.586 4.586 0 01-.834 2.026h3.488zm3.77 4.003h-2.127v-2.276h-6.237v2.276H59.19v-4.002h.983a4.444 4.444 0 00.956-1.94 11.26 11.26 0 00.187-2.313v-2.864h6.912v7.117h1.434v4.002zM85.975 22.888h-2.313v-4.566l.064-1.653-3.948 6.22h-2.472v-8.824h2.318V18.7l-.073 1.58 3.834-6.216h2.59v8.824zM100.709 18.476a3.458 3.458 0 00-.578-2.094 1.822 1.822 0 00-1.548-.783 1.854 1.854 0 00-1.466.665 3.22 3.22 0 00-.679 2.212 3.26 3.26 0 00.679 2.2 1.875 1.875 0 001.466.678 1.821 1.821 0 001.548-.788c.413-.616.616-1.349.578-2.09zm2.422 0a4.383 4.383 0 01-1.265 3.379 5.165 5.165 0 01-6.552.032 4.43 4.43 0 01-1.298-3.388 4.38 4.38 0 011.27-3.342 5.127 5.127 0 016.548-.05 4.454 4.454 0 011.297 3.392" fill="#fff"/></svg>