<svg width="29" height="20" fill="none" xmlns="http://www.w3.org/2000/svg"><path d="M25.79.156H2.71A2.465 2.465 0 00.25 2.617v14.766c0 1.36 1.11 2.46 2.46 2.46h23.08a2.464 2.464 0 002.46-2.46V2.617c0-1.35-1.097-2.46-2.46-2.46zm-.346 1.64c-.502.501-9.155 9.108-9.454 9.405a2.445 2.445 0 01-1.74.721 2.446 2.446 0 01-1.742-.722L3.056 1.797h22.388zM1.891 17.05V2.952l7.09 7.052-7.09 7.045zm1.166 1.154l7.086-7.042 1.207 1.2a4.074 4.074 0 002.9 1.202 4.073 4.073 0 002.899-1.2l1.208-1.202 7.086 7.042H3.057zm23.552-1.154l-7.09-7.045 7.09-7.052V17.05z" fill="#fff"/></svg>