<svg width="93" height="86" fill="none" xmlns="http://www.w3.org/2000/svg"><path d="M68.281 81.603H13.789c-4.906 0-8.897-3.997-8.897-8.913V4.397h59.903v.767c0 18.987-.002 32.672-.004 42.55v.097c-.002 12.522-.003 18.904.003 22.214.006 3.343.021 3.522.042 3.707h0l.002.022h0l.001.004h0v.002h0a6.66 6.66 0 01.015.139h0a12.78 12.78 0 002.505 6.476l.922 1.228zm-2.99-7.896v0zm3.396-54.38V2.449c0-1.075-.87-1.948-1.946-1.948H2.946A1.947 1.947 0 001 2.448V72.69C1 79.752 6.737 85.5 13.79 85.5h65.42C86.264 85.5 92 79.752 92 72.69V21.276c0-1.075-.87-1.948-1.946-1.948H68.687zm0 53.363V23.224h19.421V72.69c0 4.916-3.991 8.913-8.897 8.913h-1.627c-4.906 0-8.897-3.997-8.897-8.913zM53.229 40.603v16.38h-16.35v-16.38h16.35zm1.946-27.069H14.693a1.947 1.947 0 00-1.946 1.949c0 1.075.87 1.948 1.946 1.948h40.482a1.947 1.947 0 001.946-1.948c0-1.075-.87-1.949-1.946-1.949zm0 11.587H14.693a1.947 1.947 0 00-1.946 1.948c0 1.075.87 1.948 1.946 1.948h40.482a1.947 1.947 0 001.946-1.948c0-1.075-.87-1.948-1.946-1.948zm1.946 45.396c0-1.075-.87-1.948-1.946-1.948H14.693a1.947 1.947 0 00-1.946 1.948c0 1.075.87 1.949 1.946 1.949h40.482a1.947 1.947 0 001.946-1.949zm-1.946-33.81H34.934a1.947 1.947 0 00-1.946 1.948v20.276c0 1.075.87 1.948 1.946 1.948h20.24a1.947 1.947 0 001.947-1.948V38.655c0-1.075-.87-1.948-1.946-1.948zm-40.482 8.241h8.675A1.947 1.947 0 0025.313 43c0-1.075-.87-1.948-1.945-1.948h-8.675A1.947 1.947 0 0012.747 43c0 1.075.87 1.948 1.946 1.948zm0 11.587h8.675a1.947 1.947 0 001.945-1.949c0-1.075-.87-1.948-1.945-1.948h-8.675a1.947 1.947 0 00-1.946 1.948c0 1.075.87 1.949 1.946 1.949z" fill="currentColor" stroke="#fff"/></svg>