<svg width="24" height="26" fill="none" xmlns="http://www.w3.org/2000/svg"><path fill-rule="evenodd" clip-rule="evenodd" d="M2.136 13c0 .495-.363.897-.81.897a.772.772 0 01-.573-.263A.948.948 0 01.516 13C.523 5.824 5.776.008 12.257 0c.448 0 .81.401.81.897 0 .495-.362.896-.81.896C6.67 1.8 2.142 6.813 2.136 13zm12.139 2.234c2.241-2.482 2.747-4.963 2.862-5.958a.95.95 0 00-.232-.746l-1.814-2.007a.97.97 0 01-.114-1.11L17.865.448c.222-.392.676-.533 1.05-.327L23.55 2.54c.302.165.48.52.446.89-.243 2.556-1.25 8.837-6.824 15.01-5.575 6.174-11.248 7.287-13.557 7.556-.334.038-.655-.158-.804-.493L.627 20.37c-.186-.413-.059-.914.294-1.16l4.484-3.196a.752.752 0 011.002.125l1.813 2.008a.76.76 0 00.674.256c.898-.126 3.14-.686 5.38-3.168zm-8.9-1.337c.447 0 .81-.402.81-.897.003-3.712 2.72-6.72 6.072-6.724.448 0 .81-.401.81-.897 0-.495-.362-.896-.81-.896C8.011 4.488 4.57 8.298 4.565 13c0 .495.362.897.81.897z" fill="#fff"/></svg>