<svg width="45" height="59" fill="none" xmlns="http://www.w3.org/2000/svg"><path d="M16.074 25.381l.111-.232.605-1.272.111-.22-.074-.245-.382-1.272-.173-.587-.556.183-1.173.392-.555.183.173.587.123.404-2.16.721-1.816-6.042 2.161-.722.123.416.173.587.556-.183 1.173-.392.555-.183-.172-.587-.68-2.25-.172-.588-.556.183-1.173.392-.555.183.037.123-.16-.086-.236.073-2.79.942-.234.074-.111.232-.593 1.211-.025.061-.012.061v.013l-.05.17.05.172L9.963 25.7l.074.245.222.122 1.21.66.21.123.234-.073 3.927-1.321.234-.074zm6.457-3.413h-.444v-.428l.802-1.21.593 1.639h-.296v2.544h3.481v-2.545h-.617l-1.494-4.158 1.445-2.178h.666v-2.544h-3.481v2.398l-1.1 1.663v-1.517h.445v-2.544h-3.407v2.544h.432v6.336h-.432v2.545h3.407v-2.545zm14.223-6.299l-2.963-.99-.555-.184-.173.587-.37 1.235-.173.587.271.098-3.358 5.53-.494-.172-.173.587-.37 1.236-.173.587.556.183 2.197.734.556.183.173-.587.37-1.235.173-.587-.457-.147.26-.44 1.63.538-.025.514-.457-.147-.173.587-.37 1.235-.173.588.555.183 2.198.734.555.183.173-.587.37-1.235.173-.587-.493-.16.259-6.556.271.098.173-.587.37-1.235.174-.587-.507-.184zm-2.963 5.382l-.506-.171.543-.905-.037 1.076zm-8.47 14.666l-2.395-7.78-2.382 7.78h-7.742l6.26 4.807-2.395 7.78 6.26-4.807 6.26 4.807-2.396-7.78 6.26-4.807h-7.73z" fill="#7A7C81"/><path d="M22.087 22.482h-.445V21.37l1.42-2.14 1.173 3.253h-.506v1.505h2.506v-1.505h-.469l-1.704-4.746 1.741-2.617h.432v-1.505H23.73v1.505h.358L21.655 18.8V15.12h.444v-1.505h-2.432v1.505h.432v7.375h-.432V24h2.432v-1.517h-.012zm-.186 1.31h-2.049V22.69h.432v-7.78h-.432v-1.088h2.05v1.089h-.445v4.538l3-4.538h-.543v-1.089h2.111v1.089h-.345l-1.852 2.8 1.79 4.98h.407v1.1h-2.111v-1.1h.593L23.11 18.8l-1.666 2.52v1.381h.444v1.09h.012zm14.421-6.166l.432-1.431-3.136-1.052-.432 1.431.42.135-3.902 6.422-.382-.123-.432 1.431 2.383.795.432-1.43-.593-.196.815-1.334 2.346.783-.062 1.59-.593-.195-.432 1.43 2.383.796.432-1.431-.383-.135.297-7.633.407.147zm-.926 7.56v.073l.346.11-.309 1.04-2.012-.673.308-1.04.655.22.086-2.018-2.63-.88-1.024 1.7.654.22-.309 1.04-2.012-.673.308-1.04.346.11 4.124-6.789-.482-.159.31-1.04 2.765.93-.309 1.04-.481-.159-.334 7.988zm-.913-3.156l.185-4.685-2.383 3.939 2.198.746zm-.173-.282l-1.717-.575 1.865-3.082-.148 3.657zm-18.52 3.205l.642-1.345-.42-1.407-1.358.453.296.99-3.086 1.04-2.111-7.021 3.086-1.04.309 1.015 1.358-.452-.74-2.447-1.359.453.099.342-.457.147-.432-.232-2.864.966-.605 1.248-.013.061 2.358 7.84.013.037 1.271.698 3.964-1.334.049-.012zm-3.988 1.125l-1.136-.623-2.32-7.731.555-1.138 2.716-.905.432.233.716-.245-.099-.343.988-.33.617 2.055-.987.33-.309-1.015-3.457 1.162 2.235 7.413 3.457-1.162-.297-.991.988-.33.346 1.125-.568 1.187-3.877 1.308zm11.433 5.236l-.247-.795-.247.795-1.605 5.21h-5.988l.642.49 4.198 3.229-1.605 5.223-.247.795.642-.49 4.198-3.228 4.197 3.229.643.49-.247-.796-1.605-5.223 4.197-3.23.642-.488h-5.988l-1.58-5.211zm2.432 8.831l1.667 5.407-4.346-3.34-4.358 3.34 1.667-5.407-4.347-3.34h5.371l1.667-5.406 1.667 5.407h5.383l-4.37 3.34z" fill="#1E3364"/><path opacity=".7" d="M22.975 30.495l1.852 6.03.494-.807-2.395-7.743-2.383 7.743.593.807 1.84-6.03zM12.803 35.717l2.345.807 4.84 3.718-.963.257-6.222-4.782zM22.926 42.579v.917l-6.26 4.795 1.47-2.03 4.79-3.682z" fill="#7A7C81"/><path d="M25.976 40.243l.827.281 2.383 7.768-1.358-2.03-1.852-6.019z" fill="#7A7C81"/><path d="M44.125 6.801h-2.123c-6.149 0-10.717-1.468-13.458-2.691-2.976-1.333-4.519-2.691-4.531-2.691L22.482 0l-1.445 1.492c-.098.098-1.481 1.383-4.296 2.655-2.692 1.21-7.285 2.666-13.865 2.666H.752l-.05 23.498c0 6.201.914 13.333 7.692 19.302 3.964 3.486 8.964 6.507 12.001 8.11l2.124 1.064 2.123-1.064c3.025-1.603 8.026-4.612 11.989-8.11 6.778-5.97 7.692-13.113 7.692-19.302L44.125 6.8zM35.2 48.035c-4.334 3.816-9.976 7.058-12.668 8.391h-.037c-2.691-1.333-8.358-4.587-12.68-8.391C4.147 43.045 2.84 37.148 2.84 30.31l.049-21.382c13.766 0 19.68-5.944 19.68-5.944s6.569 5.944 19.433 5.944l.173 21.382c0 6.825-1.296 12.733-6.975 17.724z" fill="#7A7C81"/><path opacity=".54" d="M22.445 56.402c-2.716-1.345-8.334-4.587-12.618-8.366C4.16 43.046 2.85 37.149 2.85 30.312L2.888 8.93c12.618 0 18.63-4.978 19.557-5.822V.05L21.05 1.493c-.1.098-1.482 1.382-4.297 2.655-2.691 1.21-7.284 2.666-13.865 2.666H.752l-.05 23.498c0 6.201.914 13.332 7.692 19.302 3.964 3.486 8.964 6.507 12.001 8.11l2.05 1.027v-2.349z" fill="#7A7C81"/></svg>