<?xml version="1.0" encoding="UTF-8"?>
<!DOCTYPE svg PUBLIC "-//W3C//DTD SVG 1.1//EN" "http://www.w3.org/Graphics/SVG/1.1/DTD/svg11.dtd"><svg xmlns="http://www.w3.org/2000/svg" xmlns:xlink="http://www.w3.org/1999/xlink"><symbol id="vk" viewBox="0 0 21 12"><path d="M16.218.302l-.256.546s-1.213 2.576-2.69 4.199c-.474.525-.716.683-.978.683-.21 0-.308-.176-.308-.649v-4.9H7.395v.376c0 .547.839.67.839 2.151v3.056c0 .615-.034.853-.325.853-.772 0-2.604-2.645-3.633-5.649L4.02.182h-3C.694.182.455.404.455.729c0 .597.703 3.362 3.46 7.067 1.851 2.492 4.285 3.84 6.478 3.84 1.337 0 1.662-.221 1.662-.784V8.94c0-.479.188-.683.463-.683.308 0 .852.098 2.124 1.349l2.039 2.03h2.913c.257 0 .497-.118.497-.545 0-.564-.737-1.571-1.868-2.766-.462-.614-1.216-1.28-1.456-1.588-.342-.358-.24-.563 0-.938 0 0 2.587-3.637 2.845-4.831C19.698.54 19.509.3 19.064.3h-2.846z"/></symbol><symbol id="tg" viewBox="0 0 21 16"><path d="M19.64 0h-.026c-.662 0-1.694.358-6.432 2.248l-.82.332c-1.906.766-5.347 2.197-10.376 4.317-.874.332-1.324.664-1.377.97-.079.588.768.793 1.853 1.125l.318.102c.926.28 2.064.587 2.673.587.582 0 1.218-.204 1.906-.664l2.567-1.66c3.362-2.171 5.135-3.295 5.294-3.347l.053-.025c.106-.026.238-.026.318.051.106.102.106.255.08.307-.08.383-4.712 4.419-5.083 4.776l-.026.103c-1.006.996-2.091 1.609-.397 2.733l.397.255c1.27.818 2.117 1.405 3.414 2.223l.344.23c1.032.664 1.853 1.43 2.912 1.328.476-.051.98-.486 1.244-1.737l.026-.077c.609-3.142 1.8-9.988 2.091-12.798.027-.255 0-.562-.026-.69V.64c-.027-.128-.08-.307-.238-.41C20.117.052 19.799 0 19.64 0Z" fill="currentColor"/></symbol><symbol id="yt" viewBox="0 0 26 18"><path d="M24.0197 1.65625C23.3412.45 22.6049.228125 21.1056.14375 19.608.0421875 15.842 0 12.5793 0 9.31045 0 5.54286.0421876 4.04677.142188 2.55068.228125 1.8128.448437 1.12807 1.65625.429264 2.86094.0697021 4.93594.0697021 8.58906V8.60156c0 3.63754.3595619 5.72814 1.0583679 6.92034.68473 1.2062 1.42105 1.425 2.91714 1.5265 1.49765.0875 5.26524.1391 8.53409.1391 3.2627 0 7.0287-.0516 8.5279-.1375 1.4992-.1016 2.2356-.3203 2.914-1.5266.7051-1.1921 1.0615-3.2828 1.0615-6.92028v-.00781-.00469c0-3.65468-.3564-5.72968-1.063-6.93437zM9.44958 13.2812V3.90625l7.81662 4.6875-7.81662 4.68745z"/></symbol><symbol id="sun" viewBox="0 0 25 25"><path fill-rule="evenodd" clip-rule="evenodd" d="M12.193.18c.135-.24.48-.24.614 0l2.017 3.588a8.481 8.481 0 00-2.324-.316c-.8 0-1.584.106-2.324.317l2.017-3.59zm.307 4.78c-4.16 0-7.545 3.38-7.545 7.536s3.385 7.538 7.545 7.538 7.545-3.382 7.545-7.537c0-4.156-3.385-7.538-7.545-7.538zm7.832 12.059a9.092 9.092 0 01-3.32 3.316l3.952 1.062c.262.07.502-.169.432-.43l-1.064-3.948zM4.038 3.612a.352.352 0 00-.432.431l1.062 3.931a8.97 8.97 0 013.29-3.301l-3.92-1.06zm-3.86 8.579l3.585-2.031a8.48 8.48 0 00-.317 2.336c0 .814.106 1.598.317 2.337l-3.585-2.03a.352.352 0 010-.613zm4.49 4.828l-1.063 3.947c-.07.262.17.502.431.431l3.952-1.062a9.093 9.093 0 01-3.32-3.316zm5.478 4.205c.755.212 1.54.317 2.354.317.815 0 1.6-.105 2.354-.317l-2.048 3.598a.352.352 0 01-.612 0l-2.048-3.598zm6.89-16.543a9.104 9.104 0 013.295 3.296l1.068-3.93a.352.352 0 00-.432-.432L17.036 4.68zm7.785 7.517a.351.351 0 010 .612l-3.585 2.028c.201-.748.319-1.53.319-2.341 0-.805-.116-1.581-.315-2.324l3.581 2.025z"/></symbol><symbol id="apple" viewBox="0 0 24 27"><path fill-rule="evenodd" clip-rule="evenodd" d="M15.897 4.332c.87-1.123 1.53-2.711 1.291-4.332-1.422.099-3.085 1.009-4.055 2.195-.884 1.075-1.611 2.674-1.327 4.226 1.555.048 3.16-.884 4.09-2.089zm7.686 15.247c-4.526-1.721-5.252-8.156-.772-10.626-1.366-1.713-3.286-2.706-5.099-2.706-2.394 0-3.406 1.145-5.069 1.145-1.714 0-3.016-1.142-5.086-1.142-2.034 0-4.199 1.242-5.571 3.367-1.93 2.992-1.6 8.617 1.528 13.41 1.119 1.714 2.613 3.641 4.567 3.658 1.74.018 2.23-1.115 4.587-1.128 2.357-.014 2.805 1.143 4.54 1.124 1.956-.016 3.533-2.152 4.652-3.867.801-1.228 1.1-1.848 1.723-3.235z"/></symbol><symbol id="android" viewBox="0 0 23 27"><path fill-rule="evenodd" clip-rule="evenodd" d="M14.965 3.13l.29-.425.289-.42.645-.943a.246.246 0 00-.072-.35.26.26 0 00-.358.07L14.48 2.93a8.721 8.721 0 00-3.082-.551c-1.1 0-2.145.197-3.081.551l-.295-.432-.983-1.435a.265.265 0 00-.36-.07.249.249 0 00-.073.349l.645.943.29.42.29.426c-2.198.997-3.685 2.885-3.685 5.046H18.65c0-2.16-1.487-4.05-3.684-5.046zM4.145 9.186v11.092c0 .881.735 1.598 1.642 1.598H6.97a1.42 1.42 0 00-.063.42v3.193c0 .835.697 1.512 1.555 1.512s1.555-.677 1.555-1.512v-3.193c0-.147-.024-.287-.063-.42h2.886c-.04.133-.061.273-.061.42v3.193c0 .835.695 1.512 1.553 1.512.86 0 1.556-.677 1.556-1.512v-3.193c0-.147-.023-.287-.064-.42h1.185c.906 0 1.64-.717 1.64-1.598V9.185H4.145zm-2.59 0C.695 9.185 0 9.862 0 10.697v6.471c0 .835.696 1.512 1.555 1.512.858 0 1.553-.677 1.553-1.512v-6.471c0-.835-.695-1.512-1.553-1.512zm19.686 0c-.86 0-1.555.677-1.555 1.512v6.471c0 .835.695 1.512 1.555 1.512.857 0 1.553-.677 1.553-1.512v-6.471c0-.835-.696-1.512-1.553-1.512zM8.289 6.16a.767.767 0 01-.778-.756c0-.419.348-.755.778-.755.43 0 .777.336.777.755a.767.767 0 01-.777.756zm6.216 0a.767.767 0 01-.777-.756c0-.419.348-.755.777-.755.43 0 .777.336.777.755a.767.767 0 01-.777.756z"/></symbol><symbol id="moon" viewBox="0 0 25 25"><path d="M24.392 14.246c-.256-.064-.512 0-.736.16a9.37 9.37 0 01-2.845 1.67c-.99.385-2.078.578-3.229.578a9.38 9.38 0 01-6.649-2.761 9.46 9.46 0 01-2.75-6.677c0-1.092.193-2.151.512-3.114A8.63 8.63 0 0110.23 1.34a.822.822 0 00-.128-1.156c-.224-.16-.48-.225-.735-.16C6.649.763 4.284 2.4 2.589 4.583A12.698 12.698 0 000 12.288c0 3.499 1.407 6.677 3.708 8.988C6.01 23.588 9.143 25 12.66 25c2.941 0 5.659-1.027 7.833-2.729a12.663 12.663 0 004.475-7.03c.128-.45-.128-.899-.575-.995z"/></symbol><symbol id="mail" viewBox="0 0 29 20"><path d="M25.79.156H2.71A2.465 2.465 0 00.25 2.617v14.766c0 1.36 1.11 2.46 2.46 2.46h23.08a2.464 2.464 0 002.46-2.46V2.617c0-1.35-1.097-2.46-2.46-2.46zm-.346 1.64c-.502.501-9.155 9.108-9.454 9.405a2.445 2.445 0 01-1.74.721 2.446 2.446 0 01-1.742-.722L3.056 1.797h22.388zM1.891 17.05V2.952l7.09 7.052-7.09 7.045zm1.166 1.154l7.086-7.042 1.207 1.2a4.074 4.074 0 002.9 1.202 4.073 4.073 0 002.899-1.2l1.208-1.202 7.086 7.042H3.057zm23.552-1.154l-7.09-7.045 7.09-7.052V17.05z"/></symbol><symbol id="phone" viewBox="0 0 27 28"><path d="M6.048 18.283c2.564 3.066 5.652 5.48 9.175 7.187 1.341.636 3.135 1.39 5.134 1.52.124.005.243.01.367.01 1.341 0 2.418-.463 3.297-1.417.005-.005.016-.016.021-.027.313-.377.668-.716 1.04-1.077.253-.243.512-.496.76-.755 1.147-1.196 1.147-2.715-.011-3.873l-3.238-3.238c-.55-.571-1.207-.873-1.896-.873-.69 0-1.353.302-1.918.868l-1.93 1.928c-.177-.102-.36-.194-.532-.28a6.66 6.66 0 01-.593-.323c-1.756-1.115-3.351-2.57-4.876-4.44-.77-.975-1.287-1.793-1.648-2.629.506-.458.98-.937 1.438-1.406.162-.167.329-.334.496-.5.582-.583.894-1.256.894-1.94 0-.684-.307-1.358-.894-1.94L9.528 3.473c-.188-.189-.366-.372-.55-.56A29.545 29.545 0 007.886 1.83C7.33 1.286 6.678 1 5.99 1c-.684 0-1.342.286-1.918.835L2.056 3.85A4.14 4.14 0 00.822 6.5c-.102 1.288.135 2.657.749 4.31.943 2.56 2.365 4.935 4.477 7.473zM2.137 6.613a2.85 2.85 0 01.856-1.831l2.004-2.004c.313-.302.658-.458.992-.458.328 0 .662.156.97.469.36.334.7.684 1.066 1.056.183.188.372.377.56.57l1.606 1.606c.334.334.506.674.506 1.008 0 .334-.172.673-.506 1.007-.167.167-.334.34-.501.506-.501.507-.97.986-1.487 1.444l-.027.027c-.447.447-.377.873-.27 1.196l.017.043c.415.997.991 1.945 1.89 3.077 1.617 1.993 3.32 3.54 5.194 4.73.232.15.48.27.712.388.215.108.414.21.592.323.022.01.038.021.06.032.177.092.35.135.522.135.431 0 .711-.275.803-.366l2.015-2.015c.312-.313.652-.48.986-.48.409 0 .743.253.953.48l3.249 3.243c.646.646.64 1.347-.016 2.031-.227.243-.464.474-.717.717-.377.366-.77.743-1.126 1.169-.62.668-1.357.98-2.311.98a4.95 4.95 0 01-.28-.01c-1.767-.114-3.41-.803-4.644-1.39-3.351-1.622-6.293-3.923-8.733-6.843-2.01-2.419-3.362-4.67-4.256-7.084-.555-1.482-.766-2.672-.68-3.755z"/></symbol><symbol id="ska-sign" viewBox="0 0 45 59"><path d="M16.074 25.381l.111-.232.605-1.272.111-.22-.074-.245-.382-1.272-.173-.587-.556.183-1.173.392-.555.183.173.587.123.404-2.16.721-1.816-6.042 2.161-.722.123.416.173.587.556-.183 1.173-.392.555-.183-.172-.587-.68-2.25-.172-.588-.556.183-1.173.392-.555.183.037.123-.16-.086-.236.073-2.79.942-.234.074-.111.232-.593 1.211-.025.061-.012.061v.013l-.05.17.05.172L9.963 25.7l.074.245.222.122 1.21.66.21.123.234-.073 3.927-1.321.234-.074zm6.457-3.413h-.444v-.428l.802-1.21.593 1.639h-.296v2.544h3.481v-2.545h-.617l-1.494-4.158 1.445-2.178h.666v-2.544h-3.481v2.398l-1.1 1.663v-1.517h.445v-2.544h-3.407v2.544h.432v6.336h-.432v2.545h3.407v-2.545zm14.223-6.299l-2.963-.99-.555-.184-.173.587-.37 1.235-.173.587.271.098-3.358 5.53-.494-.172-.173.587-.37 1.236-.173.587.556.183 2.197.734.556.183.173-.587.37-1.235.173-.587-.457-.147.26-.44 1.63.538-.025.514-.457-.147-.173.587-.37 1.235-.173.588.555.183 2.198.734.555.183.173-.587.37-1.235.173-.587-.493-.16.259-6.556.271.098.173-.587.37-1.235.174-.587-.507-.184zm-2.963 5.382l-.506-.171.543-.905-.037 1.076zm-8.47 14.666l-2.395-7.78-2.382 7.78h-7.742l6.26 4.807-2.395 7.78 6.26-4.807 6.26 4.807-2.396-7.78 6.26-4.807h-7.73z"/><path d="M22.087 22.482h-.445V21.37l1.42-2.14 1.173 3.253h-.506v1.505h2.506v-1.505h-.469l-1.704-4.746 1.741-2.617h.432v-1.505H23.73v1.505h.358L21.655 18.8V15.12h.444v-1.505h-2.432v1.505h.432v7.375h-.432V24h2.432v-1.517h-.012zm-.186 1.31h-2.049V22.69h.432v-7.78h-.432v-1.088h2.05v1.089h-.445v4.538l3-4.538h-.543v-1.089h2.111v1.089h-.345l-1.852 2.8 1.79 4.98h.407v1.1h-2.111v-1.1h.593L23.11 18.8l-1.666 2.52v1.381h.444v1.09h.012zm14.421-6.166l.432-1.431-3.136-1.052-.432 1.431.42.135-3.902 6.422-.382-.123-.432 1.431 2.383.795.432-1.43-.593-.196.815-1.334 2.346.783-.062 1.59-.593-.195-.432 1.43 2.383.796.432-1.431-.383-.135.297-7.633.407.147zm-.926 7.56v.073l.346.11-.309 1.04-2.012-.673.308-1.04.655.22.086-2.018-2.63-.88-1.024 1.7.654.22-.309 1.04-2.012-.673.308-1.04.346.11 4.124-6.789-.482-.159.31-1.04 2.765.93-.309 1.04-.481-.159-.334 7.988zm-.913-3.156l.185-4.685-2.383 3.939 2.198.746zm-.173-.282l-1.717-.575 1.865-3.082-.148 3.657zm-18.52 3.205l.642-1.345-.42-1.407-1.358.453.296.99-3.086 1.04-2.111-7.021 3.086-1.04.309 1.015 1.358-.452-.74-2.447-1.359.453.099.342-.457.147-.432-.232-2.864.966-.605 1.248-.013.061 2.358 7.84.013.037 1.271.698 3.964-1.334.049-.012zm-3.988 1.125l-1.136-.623-2.32-7.731.555-1.138 2.716-.905.432.233.716-.245-.099-.343.988-.33.617 2.055-.987.33-.309-1.015-3.457 1.162 2.235 7.413 3.457-1.162-.297-.991.988-.33.346 1.125-.568 1.187-3.877 1.308zm11.433 5.236l-.247-.795-.247.795-1.605 5.21h-5.988l.642.49 4.198 3.229-1.605 5.223-.247.795.642-.49 4.198-3.228 4.197 3.229.643.49-.247-.796-1.605-5.223 4.197-3.23.642-.488h-5.988l-1.58-5.211zm2.432 8.831l1.667 5.407-4.346-3.34-4.358 3.34 1.667-5.407-4.347-3.34h5.371l1.667-5.406 1.667 5.407h5.383l-4.37 3.34z"/><path d="M22.975 30.495l1.852 6.03.494-.807-2.395-7.743-2.383 7.743.593.807 1.84-6.03zM12.803 35.717l2.345.807 4.84 3.718-.963.257-6.222-4.782zM22.926 42.579v.917l-6.26 4.795 1.47-2.03 4.79-3.682z"/><path d="M25.976 40.243l.827.281 2.383 7.768-1.358-2.03-1.852-6.019z"/><path d="M44.125 6.801h-2.123c-6.149 0-10.717-1.468-13.458-2.691-2.976-1.333-4.519-2.691-4.531-2.691L22.482 0l-1.445 1.492c-.098.098-1.481 1.383-4.296 2.655-2.692 1.21-7.285 2.666-13.865 2.666H.752l-.05 23.498c0 6.201.914 13.333 7.692 19.302 3.964 3.486 8.964 6.507 12.001 8.11l2.124 1.064 2.123-1.064c3.025-1.603 8.026-4.612 11.989-8.11 6.778-5.97 7.692-13.113 7.692-19.302L44.125 6.8zM35.2 48.035c-4.334 3.816-9.976 7.058-12.668 8.391h-.037c-2.691-1.333-8.358-4.587-12.68-8.391C4.147 43.045 2.84 37.148 2.84 30.31l.049-21.382c13.766 0 19.68-5.944 19.68-5.944s6.569 5.944 19.433 5.944l.173 21.382c0 6.825-1.296 12.733-6.975 17.724z"/><path d="M22.445 56.402c-2.716-1.345-8.334-4.587-12.618-8.366C4.16 43.046 2.85 37.149 2.85 30.312L2.888 8.93c12.618 0 18.63-4.978 19.557-5.822V.05L21.05 1.493c-.1.098-1.482 1.382-4.297 2.655-2.691 1.21-7.284 2.666-13.865 2.666H.752l-.05 23.498c0 6.201.914 13.332 7.692 19.302 3.964 3.486 8.964 6.507 12.001 8.11l2.05 1.027v-2.349z"/></symbol><symbol id="zenit-sign" viewBox="0 0 65 45"><path d="M21.706 19.205c0-.395-.147-.691-.391-.691-.684 0-1.662 2.172-2.249 4.64 1.858-1.233 2.64-2.764 2.64-3.949zM3.422 39.744c0 .543.196 1.48.831 1.48 2.542 0 5.72-6.763 5.867-12.046-4.4 3.061-6.698 7.455-6.698 10.566zM26.4 16.835h2.64l-1.32 4.592 2.053-.543 1.174-4.049h2.444l-2.004 6.912 3.275-4.394.733-2.468h2.396l-1.418 4.887c-.049.198-.342 1.235-.097 1.235.244 0 .88-1.136 1.564-2.42.782-1.382 1.418-2.863 1.71-3.702h2.396l-1.173 4.147 3.031-4.147h21.12L14.03 38.855l.977-3.456 40.04-16.54h-7.823l-.733 2.568-2.493.79.977-3.357h-1.222l-3.47 4.542-2.152.74c.098-1.086.294-2.172.538-3.258l-.978 1.876c-.782 1.481-1.466 2.666-2.689 2.666-.88 0-1.27-.84-1.27-1.926 0-.395.048-.79.146-1.234l-3.275 4.394-2.69.889 1.37-4.79-2.054.544-1.417 4.986-2.934.988 1.32-4.592-2.982 3.802c-1.27 1.63-2.542 2.518-3.569 2.518-2.004 0-2.248-3.308-2.102-4.641-1.075.494-1.466.691-1.809.889.49 7.11-6.697 16.934-11.244 16.934C1.076 44.187 0 43.101 0 40.583c0-3.654 2.738-9.035 10.07-13.232-.195-1.431-.684-2.666-1.564-3.456v-.148c2.494-1.925 4.351-4.098 4.351-6.023 0-.889-.684-1.234-1.417-1.234-1.37 0-3.178 1.728-4.205 3.16h-.489l.783-2.765c1.857-2.518 4.888-3.407 6.502-3.407 1.662 0 3.08.642 3.08 2.666 0 2.42-2.054 4.888-5.085 6.764a6.587 6.587 0 011.418 2.715c.733-.395 1.515-.79 2.298-1.135.88-4.345 3.96-7.702 6.697-7.702 1.37 0 2.005.84 2.005 1.975 0 2.617-2.396 4.64-5.72 6.418-.098.593-.098.938-.098 1.284 0 1.185.244 1.728.684 1.728.294 0 .636-.247 1.076-.74l4.498-5.382 1.515-5.234zm30.017 16.243l.098-.888h2.102v-1.185h-3.178l-.342 3.258a3.18 3.18 0 011.125-.197c.83 0 1.27.345 1.27.84 0 .394-.342.79-.977.79-.489 0-1.027-.198-1.467-.544l-.146 1.284c.44.296 1.075.543 1.71.543 1.516 0 2.347-.889 2.347-2.074 0-1.382-1.32-2.073-2.542-1.827zm-2.102-.345c0-.987-.782-1.876-2.151-1.876-1.32 0-2.151.84-2.151 2.123v.05h1.418v-.05c0-.593.293-.938.782-.938.44 0 .684.296.684.69 0 .297-.147.593-.44.939l-2.59 3.11h4.448v-1.234h-1.76l1.027-1.185c.488-.543.733-.987.733-1.63zm-12.32-.395h1.271v4.493h1.418v-5.826H42.68l-.685 1.333zm5.476-1.432c-1.37 0-2.2.938-2.2 2.172 0 1.087.83 1.827 1.809 1.827.195 0 .293 0 .537-.05l-1.32 1.976h1.614l.83-1.235c.636-.987 1.027-1.728 1.027-2.567-.097-1.284-.928-2.123-2.297-2.123zm0 2.962c-.49 0-.88-.345-.88-.888 0-.494.342-.889.88-.889.537 0 .88.395.88.889 0 .543-.343.888-.88.888zM30.017 13.429l1.662-5.135-4.351-3.16h5.329L34.319 0l1.662 5.135h5.329l-4.302 3.16 1.613 5.134-4.302-3.16-4.302 3.16z"/></symbol><svg id="play" viewBox="0 0 24 28"><path d="M22.52 13.136a1 1 0 010 1.728L1.503 27.123A1 1 0 010 26.259V1.741A1 1 0 011.504.877l21.015 12.26z"/></svg><symbol id="pause" viewBox="0 0 19 29"><path d="M0 .813h6.054v28H0zM12.108.813h6.054v28h-6.054z"/></symbol><symbol id="arrow" viewBox="0 0 22 13"><path d="M2 11.5l9-9 9 9" stroke-width="3" stroke-linecap="round"/></symbol><symbol id="news-ph" viewBox="0 0 93 86"><path d="M68.281 81.603H13.789c-4.906 0-8.897-3.997-8.897-8.913V4.397h59.903v.767c0 18.987-.002 32.672-.004 42.55v.097c-.002 12.522-.003 18.904.003 22.214.006 3.343.021 3.522.042 3.707h0l.002.022h0l.001.004h0v.002h0a6.66 6.66 0 01.015.139h0a12.78 12.78 0 002.505 6.476l.922 1.228zm-2.99-7.896v0zm3.396-54.38V2.449c0-1.075-.87-1.948-1.946-1.948H2.946A1.947 1.947 0 001 2.448V72.69C1 79.752 6.737 85.5 13.79 85.5h65.42C86.264 85.5 92 79.752 92 72.69V21.276c0-1.075-.87-1.948-1.946-1.948H68.687zm0 53.363V23.224h19.421V72.69c0 4.916-3.991 8.913-8.897 8.913h-1.627c-4.906 0-8.897-3.997-8.897-8.913zM53.229 40.603v16.38h-16.35v-16.38h16.35zm1.946-27.069H14.693a1.947 1.947 0 00-1.946 1.949c0 1.075.87 1.948 1.946 1.948h40.482a1.947 1.947 0 001.946-1.948c0-1.075-.87-1.949-1.946-1.949zm0 11.587H14.693a1.947 1.947 0 00-1.946 1.948c0 1.075.87 1.948 1.946 1.948h40.482a1.947 1.947 0 001.946-1.948c0-1.075-.87-1.948-1.946-1.948zm1.946 45.396c0-1.075-.87-1.948-1.946-1.948H14.693a1.947 1.947 0 00-1.946 1.948c0 1.075.87 1.949 1.946 1.949h40.482a1.947 1.947 0 001.946-1.949zm-1.946-33.81H34.934a1.947 1.947 0 00-1.946 1.948v20.276c0 1.075.87 1.948 1.946 1.948h20.24a1.947 1.947 0 001.947-1.948V38.655c0-1.075-.87-1.948-1.946-1.948zm-40.482 8.241h8.675A1.947 1.947 0 0025.313 43c0-1.075-.87-1.948-1.945-1.948h-8.675A1.947 1.947 0 0012.747 43c0 1.075.87 1.948 1.946 1.948zm0 11.587h8.675a1.947 1.947 0 001.945-1.949c0-1.075-.87-1.948-1.945-1.948h-8.675a1.947 1.947 0 00-1.946 1.948c0 1.075.87 1.949 1.946 1.949z"/></symbol><symbol id="whatsapp" viewBox="0 0 35 35"><path fill-rule="evenodd" clip-rule="evenodd" d="M29.9006 5.08636C26.6104 1.80811 22.2348 0.0019226 17.5732 0C7.9676 0 0.15004 7.77994 0.146177 17.3421C0.144889 20.3989 0.947251 23.3828 2.47234 26.0129L0 35L9.23833 32.5882C11.7839 33.9701 14.6497 34.6984 17.5661 34.6992H17.5734C27.1779 34.6992 34.9963 26.9186 35 17.356C35.0019 12.7217 33.1909 8.36441 29.9006 5.08636ZM17.5732 31.7702H17.5672C14.9682 31.7692 12.4192 31.074 10.195 29.7609L9.66634 29.4484L4.18418 30.8796L5.64745 25.5602L5.30293 25.0148C3.85297 22.7197 3.08731 20.0669 3.0886 17.3432C3.09161 9.39536 9.5895 2.9292 17.579 2.9292C21.4478 2.93048 25.0847 4.43182 27.8193 7.15659C30.554 9.88135 32.0591 13.5031 32.0578 17.3549C32.0544 25.3034 25.5569 31.7702 17.5732 31.7702ZM25.5183 20.9739C25.0829 20.7569 22.942 19.7089 22.5428 19.564C22.144 19.4194 21.8533 19.3474 21.5633 19.7811C21.2729 20.2147 20.4386 21.191 20.1844 21.48C19.9303 21.7693 19.6766 21.8056 19.241 21.5885C18.8055 21.3717 17.4025 20.9139 15.7392 19.4376C14.4449 18.2885 13.571 16.8694 13.3169 16.4357C13.0632 16.0016 13.3148 15.7897 13.5079 15.5513C13.9793 14.9688 14.4513 14.358 14.5964 14.069C14.7417 13.7798 14.669 13.5266 14.5599 13.3098C14.4513 13.093 13.5805 10.9599 13.2177 10.092C12.864 9.24731 12.5053 9.36139 12.2379 9.34814C11.9841 9.33554 11.6937 9.33298 11.4033 9.33298C11.1131 9.33298 10.6413 9.44128 10.242 9.87537C9.843 10.3092 8.71823 11.3575 8.71823 13.4905C8.71823 15.6235 10.2785 17.6841 10.4962 17.9734C10.7138 18.2626 13.5667 22.6398 17.9347 24.5167C18.9736 24.9636 19.7845 25.2299 20.4171 25.4297C21.4603 25.7595 22.4093 25.713 23.1597 25.6014C23.9964 25.4769 25.7357 24.553 26.0989 23.5408C26.4616 22.5285 26.4616 21.6609 26.3526 21.48C26.244 21.2993 25.9536 21.191 25.5183 20.9739Z"></path></symbol><symbol id="tg" viewBox="0 0 35 29"><path d="M13.7337 18.8733L13.1547 26.8685C13.9831 26.8685 14.3419 26.5192 14.7721 26.0996L18.6557 22.4557L26.703 28.2416C28.1789 29.0492 29.2187 28.6239 29.6168 26.9086L34.899 2.60791L34.9005 2.60648C35.3686 0.464487 34.1115 -0.373122 32.6735 0.152353L1.62488 11.823C-0.494127 12.6306 -0.462043 13.7904 1.26466 14.3158L9.20256 16.7399L27.6407 5.41283C28.5084 4.84869 29.2974 5.16083 28.6484 5.72496L13.7337 18.8733Z"></path></symbol><symbol id="feedback" viewBox="0 0 32 32"><path fill-rule="evenodd" clip-rule="evenodd" d="M23.7 20.853l-1.868 1.899a.472.472 0 01-.201.138l-4.702 1.559h2.893a.598.598 0 110 1.196H3.896a.598.598 0 010-1.196h12.44c-.045 0-.087-.044-.125-.083l-.015-.015a.586.586 0 01-.145-.605l.36-1.092H3.897a.598.598 0 010-1.196h12.916l.843-2.534a.5.5 0 01.121-.221l5.925-5.944V6.055h-5.39c-.33 0-.591-.234-.591-.564V0H0v32h23.7V20.853zM3.897 18.467h8.45a.598.598 0 010 1.197h-8.45a.598.598 0 010-1.197zm15.926 10.169H3.896a.598.598 0 010-1.197h15.926a.598.598 0 110 1.197zM18.916.883V4.86h4.004L18.916.883zm1.418 21.193L17.566 23l.925-2.768 1.843 1.843zm1.106-.586l7.573-7.59-2.346-2.346-7.59 7.573 2.363 2.363zm7.89-12.593l2.34 2.34-1.812 1.816-2.344-2.344 1.816-1.812z"/></symbol><symbol id="calendar" viewBox="0 0 18 18"><path opacity=".5" fill-rule="evenodd" clip-rule="evenodd" d="M15.89 1.406h-.843V0H13.64v1.406H4.359V0H2.953v1.406H2.11C.946 1.406 0 2.353 0 3.516V15.89C0 17.054.946 18 2.11 18h13.78c1.164 0 2.11-.946 2.11-2.11V3.517c0-1.163-.946-2.11-2.11-2.11zm.704 14.485a.704.704 0 01-.703.703H2.109a.704.704 0 01-.703-.703V6.609h15.188v9.282zm0-10.688H1.406V3.516c0-.388.316-.704.703-.704h.844V4.22H4.36V2.812h9.282V4.22h1.406V2.812h.844c.387 0 .703.316.703.704v1.687zM4.078 8.086H2.672v1.406h1.406V8.086zm1.406 0h1.407v1.406H5.484V8.086zm4.22 0H8.296v1.406h1.406V8.086zm1.405 0h1.407v1.406h-1.407V8.086zm4.22 0h-1.407v1.406h1.406V8.086zM2.671 10.898h1.406v1.407H2.672v-1.407zm4.219 0H5.484v1.407h1.407v-1.407zm1.406 0h1.406v1.407H8.297v-1.407zm4.219 0h-1.407v1.407h1.407v-1.407zm-9.844 2.813h1.406v1.406H2.672v-1.406zm4.219 0H5.484v1.406h1.407v-1.406zm1.406 0h1.406v1.406H8.297v-1.406zm4.219 0h-1.407v1.406h1.407v-1.406zm1.406-2.813h1.406v1.407h-1.406v-1.407z" fill="currentColor"/></symbol><symbol id="search" viewBox="0 0 20 20"><path d="m19.756 18.578-5.688-5.688a7.878 7.878 0 0 0 1.765-4.973C15.833 3.552 12.282 0 7.917 0S0 3.552 0 7.917s3.552 7.916 7.917 7.916a7.878 7.878 0 0 0 4.973-1.765l5.688 5.688a.831.831 0 0 0 1.178 0 .832.832 0 0 0 0-1.178Zm-11.84-4.411a6.257 6.257 0 0 1-6.25-6.25 6.257 6.257 0 0 1 6.25-6.25 6.257 6.257 0 0 1 6.25 6.25 6.257 6.257 0 0 1-6.25 6.25Z" fill="currentColor"/></symbol></svg>