<svg viewBox="0 0 25 25" fill="none" xmlns="http://www.w3.org/2000/svg"><path fill-rule="evenodd" clip-rule="evenodd" d="M12.193.18c.135-.24.48-.24.614 0l2.017 3.588a8.481 8.481 0 00-2.324-.316c-.8 0-1.584.106-2.324.317l2.017-3.59zm.307 4.78c-4.16 0-7.545 3.38-7.545 7.536s3.385 7.538 7.545 7.538 7.545-3.382 7.545-7.537c0-4.156-3.385-7.538-7.545-7.538zm7.832 12.059a9.092 9.092 0 01-3.32 3.316l3.952 1.062c.262.07.502-.169.432-.43l-1.064-3.948zM4.038 3.612a.352.352 0 00-.432.431l1.062 3.931a8.97 8.97 0 013.29-3.301l-3.92-1.06zm-3.86 8.579l3.585-2.031a8.48 8.48 0 00-.317 2.336c0 .814.106 1.598.317 2.337l-3.585-2.03a.352.352 0 010-.613zm4.49 4.828l-1.063 3.947c-.07.262.17.502.431.431l3.952-1.062a9.093 9.093 0 01-3.32-3.316zm5.478 4.205c.755.212 1.54.317 2.354.317.815 0 1.6-.105 2.354-.317l-2.048 3.598a.352.352 0 01-.612 0l-2.048-3.598zm6.89-16.543a9.104 9.104 0 013.295 3.296l1.068-3.93a.352.352 0 00-.432-.432L17.036 4.68zm7.785 7.517a.351.351 0 010 .612l-3.585 2.028c.201-.748.319-1.53.319-2.341 0-.805-.116-1.581-.315-2.324l3.581 2.025z" /></svg>