<?xml version="1.0" encoding="UTF-8"?><!DOCTYPE svg PUBLIC "-//W3C//DTD SVG 1.1//EN" "http://www.w3.org/Graphics/SVG/1.1/DTD/svg11.dtd"><svg xmlns="http://www.w3.org/2000/svg" xmlns:xlink="http://www.w3.org/1999/xlink"><symbol id="info" viewBox="0 0 28.621 28.621"><path d="M14.311 0c-6.904 0-12.5 5.596-12.5 12.5 0 4.723 2.618 8.828 6.48 10.955l-.147 5.166 5.898-3.635c.089.002.178.014.269.014 6.904 0 12.5-5.596 12.5-12.5S21.215 0 14.311 0zm1.592 19.784H12.7V9.474h3.203v10.31zM14.28 8.211c-1.013 0-1.687-.718-1.665-1.604-.021-.927.652-1.624 1.686-1.624 1.033 0 1.689.697 1.71 1.624-.001.886-.679 1.604-1.731 1.604z"/></symbol><symbol id="eye" viewBox="0 0 469.333 469.333"><path d="M234.667 170.667c-35.307 0-64 28.693-64 64s28.693 64 64 64 64-28.693 64-64-28.694-64-64-64z"/><path d="M234.667 74.667C128 74.667 36.907 141.013 0 234.667c36.907 93.653 128 160 234.667 160 106.773 0 197.76-66.347 234.667-160-36.907-93.654-127.894-160-234.667-160zm0 266.666c-58.88 0-106.667-47.787-106.667-106.667S175.787 128 234.667 128s106.667 47.787 106.667 106.667-47.787 106.666-106.667 106.666z"/></symbol><symbol id="code" viewBox="0 0 511.997 511.997"><path d="M506.76 242.828l-118.4-125.44c-7.277-7.718-19.424-8.07-27.142-.787-7.706 7.277-8.064 19.43-.781 27.142l105.965 112.256-105.965 112.269c-7.283 7.712-6.925 19.859.781 27.142a19.151 19.151 0 0 0 13.178 5.235 19.172 19.172 0 0 0 13.965-6.01l118.4-125.446c6.981-7.404 6.981-18.963-.001-26.361zM151.566 368.262L45.608 255.999l105.958-112.262c7.277-7.712 6.925-19.866-.787-27.142-7.706-7.277-19.866-6.925-27.142.787l-118.4 125.44c-6.982 7.398-6.982 18.963 0 26.362L123.643 394.63c3.776 4 8.864 6.016 13.965 6.016 4.723 0 9.466-1.741 13.171-5.242 7.719-7.277 8.064-19.43.787-27.142zM287.061 52.697c-10.477-1.587-20.282 5.606-21.882 16.083l-56.32 368.64c-1.6 10.483 5.6 20.282 16.083 21.882.986.147 1.958.218 2.925.218 9.325 0 17.504-6.803 18.957-16.301l56.32-368.64c1.6-10.484-5.6-20.282-16.083-21.882z"/></symbol><symbol id="new-window" viewBox="0 0 1000 1000"><path d="M292.19 12.89c-21.64 5.74-40.85 22.08-49.91 42.4-3.53 7.51-4.2 18.55-5.08 94.74l-1.1 86.13-86.13 1.1c-81.93 1.1-86.57 1.33-96.06 5.74-15.9 7.51-27.83 19.43-35.78 35.77l-7.29 14.8-.66 314.69c-.44 314.25-.44 314.69 4.2 329.93 3.97 13.25 6.63 17.22 18.33 29.15 11.92 11.71 15.9 14.35 29.15 18.33 15.24 4.64 15.68 4.64 329.93 4.19l314.69-.66 14.8-7.29c16.34-7.95 28.27-19.88 35.78-35.78 4.42-9.5 4.64-14.13 5.74-96.06l1.1-86.13 86.13-1.1c81.93-1.1 86.57-1.33 96.06-5.74 15.9-7.51 27.83-19.43 35.78-35.77l7.29-14.8.66-314.69c.44-314.25.44-314.69-4.19-329.93-3.98-13.25-6.63-17.23-18.33-29.15-11.7-11.48-16.12-14.35-28.71-18.33-15.02-4.64-16.12-4.64-325.73-4.42-238.74.01-312.94.67-320.67 2.88zm622.98 373.43v301.44H312.29V84.88h602.88v301.44zM237.2 509.33v197.21l6.4 13.25c7.51 15.68 19.21 28.05 34.45 36l11.04 5.96 199.2.66 199.42.44v152.38H84.83V312.35H237.2v196.98z"/><path d="M562.94 163.28c-30.03 10.82-33.35 51.9-5.52 68.24 7.29 4.42 11.7 4.64 79.28 5.3l71.55.66-119.47 119.69c-82.38 82.6-120.58 122.35-123.01 127.87-4.64 11.48-4.2 21.64 1.77 32.68 9.05 17 29.15 24.07 47.48 16.56 5.52-2.43 45.27-40.63 127.87-123.01L762.58 291.8l.66 71.55c.66 67.58.88 71.99 5.3 79.28 5.3 9.28 16.34 17 26.72 18.99 17.67 3.31 37.76-9.72 42.62-27.38 1.55-6.63 2.21-44.83 1.77-128.09l-.66-118.59-5.08-8.17c-2.87-4.42-8.83-10.38-13.25-13.25l-8.17-5.08-120.36-.44c-99.82-.43-121.91.01-129.19 2.66z"/></symbol></svg>