<svg width="60" height="57" viewBox="0 0 60 57" version="1.1" xmlns="http://www.w3.org/2000/svg" xmlns:xlink="http://www.w3.org/1999/xlink">
<title>price-tag</title>
<desc>Created using Figma</desc>
<g id="Canvas" transform="translate(853 -1271)">
<g id="price-tag">
<g id="Group">
<g id="Vector">
<use xlink:href="#path0_fill" transform="translate(-812.585 1309.07)" fill="#25A3FB"/>
</g>
<g id="Vector">
<use xlink:href="#path1_fill" transform="translate(-853 1271)" fill="#25A3FB"/>
</g>
<g id="Vector">
<use xlink:href="#path2_fill" transform="translate(-814.506 1280)" fill="#25A3FB"/>
</g>
</g>
</g>
</g>
<defs>
<path id="path0_fill" d="M 11.1795 0.430209L 5.58348 8.47021L 1.63447 5.22921C 1.20747 4.87821 0.578473 4.94221 0.227473 5.36721C -0.123527 5.79421 -0.0615272 6.42521 0.366473 6.77421L 5.15248 10.7032C 5.33248 10.8512 5.55647 10.9312 5.78647 10.9312C 5.83147 10.9312 5.87748 10.9282 5.92348 10.9212C 6.19948 10.8832 6.44747 10.7312 6.60747 10.5022L 12.8215 1.57321C 13.1365 1.12021 13.0255 0.497209 12.5715 0.181209C 12.1165 -0.137791 11.4945 -0.0237906 11.1795 0.430209Z"/>
<path id="path1_fill" d="M 50.09 31.538L 56.415 25.23L 56.415 11.089L 45.3 1.71661e-08L 31.295 1.71661e-08L 30.536 0.757L 6 25.213L 6.008 25.221L 0 31.213L 25.147 56.414L 33.943 47.641C 35.523 53.041 40.511 57 46.414 57C 53.582 57 59.414 51.168 59.414 44C 59.415 38.109 55.473 33.128 50.09 31.538ZM 44.473 2L 54.415 11.919L 54.415 24.399L 47.725 31.066C 47.631 31.056 47.534 31.059 47.439 31.051C 47.365 31.045 47.29 31.038 47.217 31.032C 47.16 31.028 47.099 31.021 47.043 31.017C 46.828 31.005 46.62 30.998 46.415 30.998C 39.247 30.998 33.415 36.83 33.415 43.998C 33.415 44.197 33.421 44.399 33.433 44.609C 33.437 44.681 33.446 44.759 33.451 44.833C 33.456 44.898 33.461 44.965 33.467 45.033C 33.473 45.109 33.471 45.188 33.479 45.264L 31.151 47.585L 8.837 25.225L 32.122 2L 44.473 2ZM 2.829 31.217L 7.421 26.637L 29.742 49.006L 25.15 53.586L 2.829 31.217ZM 46.415 55C 40.866 55 36.276 50.866 35.532 45.519L 35.529 45.499C 35.507 45.338 35.496 45.199 35.48 45.051C 35.472 44.978 35.462 44.899 35.456 44.829C 35.435 44.554 35.414 44.28 35.414 44C 35.414 37.935 40.349 33 46.414 33C 46.695 33 46.971 33.021 47.247 33.042C 47.291 33.046 47.341 33.053 47.386 33.057C 47.566 33.075 47.742 33.091 47.942 33.119L 47.967 33.122C 53.298 33.881 57.414 38.463 57.414 43.999C 57.415 50.066 52.48 55 46.415 55Z"/>
<path id="path2_fill" d="M 3.936 7.871C 6.106 7.871 7.871 6.106 7.871 3.936C 7.871 1.766 6.106 3.28064e-07 3.936 3.28064e-07C 1.766 3.28064e-07 -5.18799e-07 1.766 -5.18799e-07 3.936C -5.18799e-07 6.106 1.766 7.871 3.936 7.871ZM 3.936 2.001C 5.003 2.001 5.871 2.869 5.871 3.937C 5.871 5.003 5.003 5.872 3.936 5.872C 2.869 5.872 2 5.004 2 3.937C 2 2.869 2.868 2.001 3.936 2.001Z"/>
</defs>
</svg>
