<svg width="20" height="15" viewBox="0 0 20 15" version="1.1" xmlns="http://www.w3.org/2000/svg" xmlns:xlink="http://www.w3.org/1999/xlink">
<g id="Canvas" fill="none">
<g id="Group">
<g id="Vector" transform="translate(3.23242 3.31577)">
<mask id="path-1-inside-1" fill="white">
<path d="M 4.18182 2.93211e-07C 1.87596 2.93211e-07 0 1.89024 0 4.21365C 0 6.53706 1.87596 8.4273 4.18182 8.4273C 6.48768 8.4273 8.36364 6.53706 8.36364 4.21365C 8.36364 1.89024 6.48772 2.93211e-07 4.18182 2.93211e-07ZM 4.18182 7.81663C 2.21014 7.81663 0.606061 6.20034 0.606061 4.21365C 0.606061 2.22697 2.21014 0.610674 4.18182 0.610674C 6.1535 0.610674 7.75758 2.22697 7.75758 4.21365C 7.75758 6.20034 6.15354 7.81663 4.18182 7.81663Z"/>
</mask>
<path d="M 4.18182 2.93211e-07C 1.87596 2.93211e-07 0 1.89024 0 4.21365C 0 6.53706 1.87596 8.4273 4.18182 8.4273C 6.48768 8.4273 8.36364 6.53706 8.36364 4.21365C 8.36364 1.89024 6.48772 2.93211e-07 4.18182 2.93211e-07ZM 4.18182 7.81663C 2.21014 7.81663 0.606061 6.20034 0.606061 4.21365C 0.606061 2.22697 2.21014 0.610674 4.18182 0.610674C 6.1535 0.610674 7.75758 2.22697 7.75758 4.21365C 7.75758 6.20034 6.15354 7.81663 4.18182 7.81663Z" fill="black"/>
<g mask="url(#path-1-inside-1)">
<path d="M 4.18182 -1C 1.31654 -1 -1 1.34512 -1 4.21365L 1 4.21365C 1 2.43536 2.43538 1 4.18182 1L 4.18182 -1ZM -1 4.21365C -1 7.08218 1.31654 9.4273 4.18182 9.4273L 4.18182 7.4273C 2.43538 7.4273 1 5.99194 1 4.21365L -1 4.21365ZM 4.18182 9.4273C 7.0471 9.4273 9.36364 7.08218 9.36364 4.21365L 7.36364 4.21365C 7.36364 5.99194 5.92826 7.4273 4.18182 7.4273L 4.18182 9.4273ZM 9.36364 4.21365C 9.36364 1.34512 7.04715 -1 4.18182 -1L 4.18182 1C 5.92829 1 7.36364 2.43536 7.36364 4.21365L 9.36364 4.21365ZM 4.18182 6.81663C 2.76956 6.81663 1.60606 5.65521 1.60606 4.21365L -0.393939 4.21365C -0.393939 6.74546 1.65072 8.81663 4.18182 8.81663L 4.18182 6.81663ZM 1.60606 4.21365C 1.60606 2.77209 2.76956 1.61067 4.18182 1.61067L 4.18182 -0.389326C 1.65072 -0.389326 -0.393939 1.68184 -0.393939 4.21365L 1.60606 4.21365ZM 4.18182 1.61067C 5.59408 1.61067 6.75758 2.77209 6.75758 4.21365L 8.75758 4.21365C 8.75758 1.68184 6.71292 -0.389326 4.18182 -0.389326L 4.18182 1.61067ZM 6.75758 4.21365C 6.75758 5.65522 5.59411 6.81663 4.18182 6.81663L 4.18182 8.81663C 6.71296 8.81663 8.75758 6.74545 8.75758 4.21365L 6.75758 4.21365Z" fill="#2D9CDB"/>
</g>
</g>
<g id="Vector_2">
<mask id="path-3-inside-2" fill="white">
<path d="M 19.697 11.4581C 19.5296 11.4581 19.3939 11.5948 19.3939 11.7634L 19.3939 13.4122L 14.8283 13.4122L 14.8283 7.69117C 14.8283 6.72822 14.6526 5.78932 14.3178 4.91333L 14.6101 4.61874C 14.9074 4.31923 14.9726 3.84844 14.7687 3.47385C 13.9973 2.05631 12.8459 0.896155 11.4391 0.118848C 11.0673 -0.0865827 10.6001 -0.0208741 10.3028 0.278641L 10.034 0.549536C 9.24274 0.24082 8.3981 0.0729662 7.52921 0.0596943C 5.5048 0.0283056 3.60206 0.80549 2.17155 2.24688C 0.741045 3.68828 -0.0298238 5.60547 0.000883254 7.64533C 0.030661 9.62362 0.842096 11.4778 2.28565 12.8662C 3.71632 14.2422 5.59466 15 7.5747 15L 13.8788 15C 14.4023 15 14.8283 14.5708 14.8283 14.0433L 14.8283 14.0229L 19.697 14.0229C 19.8643 14.0229 20 13.8862 20 13.7176L 20 11.7634C 20 11.5948 19.8643 11.4581 19.697 11.4581ZM 10.7314 0.710428C 10.8394 0.601647 11.0105 0.578482 11.1477 0.654287C 12.4531 1.37557 13.5215 2.45207 14.2373 3.76746C 14.3125 3.90564 14.2896 4.07809 14.1816 4.18691L 14.0582 4.31125C 13.7157 3.60295 13.2635 2.94541 12.7106 2.36181C 12.0982 1.71535 11.3943 1.19506 10.6291 0.81347L 10.7314 0.710428ZM 14.2222 14.0433C 14.2222 14.2341 14.0682 14.3893 13.8788 14.3893L 7.5747 14.3893C 3.78868 14.3893 0.662944 11.3598 0.606863 7.63608C 0.578661 5.76286 1.28654 4.00233 2.60012 2.67871C 3.88852 1.3805 5.59398 0.669473 7.41309 0.669473C 7.44864 0.669473 7.4844 0.669757 7.52 0.670287C 11.2156 0.726794 14.2222 3.87637 14.2222 7.69117L 14.2222 14.0433Z"/>
</mask>
<path d="M 19.697 11.4581C 19.5296 11.4581 19.3939 11.5948 19.3939 11.7634L 19.3939 13.4122L 14.8283 13.4122L 14.8283 7.69117C 14.8283 6.72822 14.6526 5.78932 14.3178 4.91333L 14.6101 4.61874C 14.9074 4.31923 14.9726 3.84844 14.7687 3.47385C 13.9973 2.05631 12.8459 0.896155 11.4391 0.118848C 11.0673 -0.0865827 10.6001 -0.0208741 10.3028 0.278641L 10.034 0.549536C 9.24274 0.24082 8.3981 0.0729662 7.52921 0.0596943C 5.5048 0.0283056 3.60206 0.80549 2.17155 2.24688C 0.741045 3.68828 -0.0298238 5.60547 0.000883254 7.64533C 0.030661 9.62362 0.842096 11.4778 2.28565 12.8662C 3.71632 14.2422 5.59466 15 7.5747 15L 13.8788 15C 14.4023 15 14.8283 14.5708 14.8283 14.0433L 14.8283 14.0229L 19.697 14.0229C 19.8643 14.0229 20 13.8862 20 13.7176L 20 11.7634C 20 11.5948 19.8643 11.4581 19.697 11.4581ZM 10.7314 0.710428C 10.8394 0.601647 11.0105 0.578482 11.1477 0.654287C 12.4531 1.37557 13.5215 2.45207 14.2373 3.76746C 14.3125 3.90564 14.2896 4.07809 14.1816 4.18691L 14.0582 4.31125C 13.7157 3.60295 13.2635 2.94541 12.7106 2.36181C 12.0982 1.71535 11.3943 1.19506 10.6291 0.81347L 10.7314 0.710428ZM 14.2222 14.0433C 14.2222 14.2341 14.0682 14.3893 13.8788 14.3893L 7.5747 14.3893C 3.78868 14.3893 0.662944 11.3598 0.606863 7.63608C 0.578661 5.76286 1.28654 4.00233 2.60012 2.67871C 3.88852 1.3805 5.59398 0.669473 7.41309 0.669473C 7.44864 0.669473 7.4844 0.669757 7.52 0.670287C 11.2156 0.726794 14.2222 3.87637 14.2222 7.69117L 14.2222 14.0433Z" fill="black"/>
<g mask="url(#path-3-inside-2)">
<path d="M 19.3939 13.4122L 19.3939 14.4122L 20.3939 14.4122L 20.3939 13.4122L 19.3939 13.4122ZM 14.8283 13.4122L 13.8283 13.4122L 13.8283 14.4122L 14.8283 14.4122L 14.8283 13.4122ZM 14.3178 4.91333L 13.608 4.20891L 13.1531 4.66722L 13.3837 5.27037L 14.3178 4.91333ZM 14.6101 4.61874L 15.3199 5.32316L 15.3199 5.32316L 14.6101 4.61874ZM 14.7687 3.47385L 13.8904 3.95188L 13.8904 3.95191L 14.7687 3.47385ZM 11.4391 0.118848L 10.9554 0.994104L 10.9555 0.994129L 11.4391 0.118848ZM 10.3028 0.278641L 9.59304 -0.425779L 9.59304 -0.425779L 10.3028 0.278641ZM 10.034 0.549536L 9.67049 1.48114L 10.2816 1.71959L 10.7438 1.25396L 10.034 0.549536ZM 7.52921 0.0596943L 7.51371 1.05957L 7.51394 1.05958L 7.52921 0.0596943ZM 0.000883254 7.64533L 1.00077 7.63028L 1.00077 7.63027L 0.000883254 7.64533ZM 2.28565 12.8662L 1.59244 13.5869L 1.59245 13.5869L 2.28565 12.8662ZM 14.8283 14.0229L 14.8283 13.0229L 13.8283 13.0229L 13.8283 14.0229L 14.8283 14.0229ZM 10.7314 0.710428L 10.0217 0.00587482L 10.0216 0.00600764L 10.7314 0.710428ZM 11.1477 0.654287L 10.664 1.52953L 10.6641 1.52956L 11.1477 0.654287ZM 14.2373 3.76746L 15.1157 3.28947L 15.1157 3.28944L 14.2373 3.76746ZM 14.1816 4.18691L 13.4718 3.48249L 13.4718 3.4825L 14.1816 4.18691ZM 14.0582 4.31125L 13.158 4.74662L 13.773 6.01828L 14.768 5.01567L 14.0582 4.31125ZM 12.7106 2.36181L 13.4366 1.67409L 13.4366 1.67409L 12.7106 2.36181ZM 10.6291 0.81347L 9.91931 0.109049L 8.94476 1.09101L 10.1828 1.70838L 10.6291 0.81347ZM 0.606863 7.63608L -0.393023 7.65114L -0.393023 7.65114L 0.606863 7.63608ZM 2.60012 2.67871L 1.89033 1.97429L 1.89032 1.9743L 2.60012 2.67871ZM 7.52 0.670287L 7.53528 -0.329597L 7.53486 -0.329603L 7.52 0.670287ZM 19.697 10.4581C 18.9702 10.4581 18.3939 11.0497 18.3939 11.7634L 20.3939 11.7634C 20.3939 12.1399 20.089 12.4581 19.697 12.4581L 19.697 10.4581ZM 18.3939 11.7634L 18.3939 13.4122L 20.3939 13.4122L 20.3939 11.7634L 18.3939 11.7634ZM 19.3939 12.4122L 14.8283 12.4122L 14.8283 14.4122L 19.3939 14.4122L 19.3939 12.4122ZM 15.8283 13.4122L 15.8283 7.69117L 13.8283 7.69117L 13.8283 13.4122L 15.8283 13.4122ZM 15.8283 7.69117C 15.8283 6.60615 15.6303 5.54626 15.2519 4.5563L 13.3837 5.27037C 13.675 6.03239 13.8283 6.85028 13.8283 7.69117L 15.8283 7.69117ZM 15.0276 5.61775L 15.3199 5.32316L 13.9004 3.91432L 13.608 4.20891L 15.0276 5.61775ZM 15.3199 5.32316C 15.933 4.70538 16.059 3.75272 15.6471 2.9958L 13.8904 3.95191C 13.8863 3.94441 13.8866 3.93908 13.8868 3.93724C 13.8871 3.93535 13.8891 3.9257 13.9004 3.91432L 15.3199 5.32316ZM 15.6471 2.99582C 14.7849 1.41172 13.497 0.113403 11.9227 -0.756433L 10.9555 0.994129C 12.1948 1.67891 13.2096 2.70091 13.8904 3.95188L 15.6471 2.99582ZM 11.9227 -0.756408C 11.1633 -1.17606 10.2081 -1.04552 9.59304 -0.425779L 11.0126 0.983062C 11.0011 0.994655 10.9891 0.998681 10.9823 0.999645C 10.9755 1.0006 10.9656 0.999756 10.9554 0.994104L 11.9227 -0.756408ZM 9.59304 -0.425779L 9.32419 -0.154884L 10.7438 1.25396L 11.0126 0.983061L 9.59304 -0.425779ZM 10.3975 -0.382064C 9.49548 -0.733992 8.53293 -0.925091 7.54448 -0.940189L 7.51394 1.05958C 8.26327 1.07102 8.99001 1.21563 9.67049 1.48114L 10.3975 -0.382064ZM 7.54471 -0.940186C 5.24728 -0.975807 3.083 -0.0911114 1.46177 1.54246L 2.88133 2.95131C 4.12111 1.70209 5.76232 1.03242 7.51371 1.05957L 7.54471 -0.940186ZM 1.46177 1.54246C -0.1593 3.17587 -1.03374 5.35284 -0.999003 7.66038L 1.00077 7.63027C 0.974092 5.8581 1.64139 4.20069 2.88133 2.95131L 1.46177 1.54246ZM -0.999003 7.66038C -0.965156 9.90908 -0.0406944 12.0161 1.59244 13.5869L 2.97886 12.1454C 1.72489 10.9394 1.02648 9.33817 1.00077 7.63028L -0.999003 7.66038ZM 1.59245 13.5869C 3.20888 15.1416 5.33546 16 7.5747 16L 7.5747 14C 5.85387 14 4.22375 13.3428 2.97886 12.1454L 1.59245 13.5869ZM 7.5747 16L 13.8788 16L 13.8788 14L 7.5747 14L 7.5747 16ZM 13.8788 16C 14.9618 16 15.8283 15.1159 15.8283 14.0433L 13.8283 14.0433C 13.8283 14.0328 13.8335 14.0216 13.8401 14.015C 13.8433 14.0118 13.8482 14.0081 13.8554 14.005C 13.8633 14.0016 13.8719 14 13.8788 14L 13.8788 16ZM 15.8283 14.0433L 15.8283 14.0229L 13.8283 14.0229L 13.8283 14.0433L 15.8283 14.0433ZM 14.8283 15.0229L 19.697 15.0229L 19.697 13.0229L 14.8283 13.0229L 14.8283 15.0229ZM 19.697 15.0229C 20.4237 15.0229 21 14.4313 21 13.7176L 19 13.7176C 19 13.3411 19.3049 13.0229 19.697 13.0229L 19.697 15.0229ZM 21 13.7176L 21 11.7634L 19 11.7634L 19 13.7176L 21 13.7176ZM 21 11.7634C 21 11.0497 20.4237 10.4581 19.697 10.4581L 19.697 12.4581C 19.3049 12.4581 19 12.1399 19 11.7634L 21 11.7634ZM 11.441 1.41498C 11.2248 1.63271 10.9064 1.66352 10.664 1.52953L 11.6314 -0.220956C 11.1146 -0.506552 10.4539 -0.429416 10.0217 0.00587484L 11.441 1.41498ZM 10.6641 1.52956C 11.802 2.15833 12.7338 3.09667 13.359 4.24549L 15.1157 3.28944C 14.3091 1.80747 13.1042 0.592821 11.6313 -0.22099L 10.6641 1.52956ZM 13.359 4.24545C 13.2306 4.00958 13.2575 3.69849 13.4718 3.48249L 14.8914 4.89134C 15.3218 4.4577 15.3944 3.8017 15.1157 3.28947L 13.359 4.24545ZM 13.4718 3.4825L 13.3484 3.60683L 14.768 5.01567L 14.8914 4.89133L 13.4718 3.4825ZM 14.9585 3.87587C 14.5712 3.07519 14.0603 2.3325 13.4366 1.67409L 11.9846 3.04953C 12.4666 3.55832 12.8601 4.1307 13.158 4.74662L 14.9585 3.87587ZM 13.4366 1.67409C 12.745 0.944014 11.9468 0.353101 11.0753 -0.0814419L 10.1828 1.70838C 10.8419 2.03702 11.4515 2.48669 11.9847 3.04954L 13.4366 1.67409ZM 11.3389 1.51789L 11.4411 1.41485L 10.0216 0.00600764L 9.91931 0.109049L 11.3389 1.51789ZM 13.2222 14.0433C 13.2222 13.689 13.5087 13.3893 13.8788 13.3893L 13.8788 15.3893C 14.6276 15.3893 15.2222 14.7792 15.2222 14.0433L 13.2222 14.0433ZM 13.8788 13.3893L 7.5747 13.3893L 7.5747 15.3893L 13.8788 15.3893L 13.8788 13.3893ZM 7.5747 13.3893C 4.31986 13.3893 1.65437 10.7833 1.60675 7.62103L -0.393023 7.65114C -0.328487 11.9363 3.2575 15.3893 7.5747 15.3893L 7.5747 13.3893ZM 1.60675 7.62103C 1.58258 6.01549 2.18689 4.51473 3.30991 3.38312L 1.89032 1.9743C 0.386191 3.48993 -0.425255 5.51024 -0.393023 7.65114L 1.60675 7.62103ZM 3.3099 3.38313C 4.41132 2.27333 5.86159 1.66947 7.41309 1.66947L 7.41309 -0.330527C 5.32636 -0.330527 3.36572 0.487673 1.89033 1.97429L 3.3099 3.38313ZM 7.41309 1.66947C 7.44334 1.66947 7.47412 1.66972 7.50513 1.67018L 7.53486 -0.329603C 7.49468 -0.3302 7.45395 -0.330527 7.41309 -0.330527L 7.41309 1.66947ZM 7.50471 1.67017C 10.6252 1.71788 13.2222 4.39332 13.2222 7.69117L 15.2222 7.69117C 15.2222 3.35942 11.8061 -0.264294 7.53528 -0.329596L 7.50471 1.67017ZM 13.2222 7.69117L 13.2222 14.0433L 15.2222 14.0433L 15.2222 7.69117L 13.2222 7.69117Z" fill="#2D9CDB"/>
</g>
</g>
<g id="Vector_3" transform="translate(9.05054 1.69525)">
<mask id="path-5-inside-3" fill="white">
<path d="M 0.202068 0.593293C 0.437624 0.6772 0.669664 0.778409 0.891887 0.894152C 0.936372 0.917317 0.983927 0.928309 1.0308 0.928309C 1.14049 0.928309 1.24639 0.868097 1.30025 0.763101C 1.3771 0.613283 1.31888 0.429103 1.17019 0.35167C 0.923442 0.223143 0.665704 0.110738 0.404129 0.0175496C 0.24627 -0.0386731 0.0732195 0.0446635 0.0174215 0.203642C -0.0383765 0.362621 0.0442905 0.53707 0.202068 0.593293Z"/>
</mask>
<path d="M 0.202068 0.593293C 0.437624 0.6772 0.669664 0.778409 0.891887 0.894152C 0.936372 0.917317 0.983927 0.928309 1.0308 0.928309C 1.14049 0.928309 1.24639 0.868097 1.30025 0.763101C 1.3771 0.613283 1.31888 0.429103 1.17019 0.35167C 0.923442 0.223143 0.665704 0.110738 0.404129 0.0175496C 0.24627 -0.0386731 0.0732195 0.0446635 0.0174215 0.203642C -0.0383765 0.362621 0.0442905 0.53707 0.202068 0.593293Z" fill="black"/>
<g mask="url(#path-5-inside-3)">
<path d="M 0.202068 0.593293L -0.133598 1.53527L -0.133486 1.53531L 0.202068 0.593293ZM 0.891887 0.894152L 0.429945 1.78106L 0.43002 1.7811L 0.891887 0.894152ZM 1.30025 0.763101L 2.19002 1.21952L 2.19002 1.2195L 1.30025 0.763101ZM 1.17019 0.35167L 0.708221 1.23857L 0.708291 1.2386L 1.17019 0.35167ZM 0.404129 0.0175496L 0.739727 -0.924456L 0.739643 -0.924486L 0.404129 0.0175496ZM -0.133486 1.53531C 0.0586127 1.60374 0.24843 1.68652 0.429945 1.78106L 1.35383 0.00724152C 1.0909 -0.129704 0.816635 -0.249341 0.537623 -0.348728L -0.133486 1.53531ZM 0.43002 1.7811C 0.620144 1.88011 0.826553 1.92831 1.0308 1.92831L 1.0308 -0.071691C 1.1413 -0.071691 1.2526 -0.0454726 1.35375 0.00720266L 0.43002 1.7811ZM 1.0308 1.92831C 1.50362 1.92831 1.9596 1.66871 2.19002 1.21952L 0.410484 0.306685C 0.533186 0.0674809 0.777365 -0.071691 1.0308 -0.071691L 1.0308 1.92831ZM 2.19002 1.2195C 2.51596 0.584077 2.2721 -0.201954 1.63209 -0.535263L 0.708291 1.2386C 0.365649 1.06016 0.238236 0.642488 0.410477 0.306698L 2.19002 1.2195ZM 1.63216 -0.535226C 1.34466 -0.68498 1.0447 -0.815806 0.739727 -0.924456L 0.0685304 0.959555C 0.286708 1.03728 0.502225 1.13127 0.708221 1.23857L 1.63216 -0.535226ZM 0.739643 -0.924486C 0.0543916 -1.16854 -0.688767 -0.803875 -0.926149 -0.12753L 0.960992 0.534814C 0.835206 0.893202 0.438148 1.0912 0.0686146 0.959585L 0.739643 -0.924486ZM -0.926149 -0.12753C -1.1624 0.545591 -0.815063 1.29244 -0.133598 1.53527L 0.537735 -0.348688C 0.903644 -0.218299 1.08565 0.179652 0.960992 0.534814L -0.926149 -0.12753Z" fill="#2D9CDB"/>
</g>
</g>
<g id="Vector_4" transform="translate(10.6665 2.58322)">
<mask id="path-7-inside-4" fill="white">
<path d="M 0.488393 0.0637712C 0.355988 -0.0393513 0.165645 -0.0148024 0.0633017 0.118569C -0.0390418 0.251981 -0.0147182 0.443732 0.117686 0.546896C 0.776514 1.06011 1.32007 1.72733 1.68948 2.47634C 1.74245 2.5837 1.84965 2.64586 1.96108 2.64586C 2.00637 2.64586 2.05239 2.6356 2.09571 2.61391C 2.24556 2.53883 2.3067 2.35559 2.23219 2.20459C 1.82225 1.37338 1.21926 0.633123 0.488393 0.0637712Z"/>
</mask>
<path d="M 0.488393 0.0637712C 0.355988 -0.0393513 0.165645 -0.0148024 0.0633017 0.118569C -0.0390418 0.251981 -0.0147182 0.443732 0.117686 0.546896C 0.776514 1.06011 1.32007 1.72733 1.68948 2.47634C 1.74245 2.5837 1.84965 2.64586 1.96108 2.64586C 2.00637 2.64586 2.05239 2.6356 2.09571 2.61391C 2.24556 2.53883 2.3067 2.35559 2.23219 2.20459C 1.82225 1.37338 1.21926 0.633123 0.488393 0.0637712Z" fill="black"/>
<g mask="url(#path-7-inside-4)">
<path d="M 0.488393 0.0637712L 1.10294 -0.725111L 1.10286 -0.725172L 0.488393 0.0637712ZM 0.0633017 0.118569L -0.73004 -0.490208L -0.73013 -0.490091L 0.0633017 0.118569ZM 0.117686 0.546896L -0.496931 1.33572L -0.496843 1.33579L 0.117686 0.546896ZM 1.68948 2.47634L 0.792631 2.91867L 0.792701 2.91881L 1.68948 2.47634ZM 2.09571 2.61391L 1.64781 1.71982L 1.64779 1.71983L 2.09571 2.61391ZM 2.23219 2.20459L 1.33533 2.64691L 1.33541 2.64707L 2.23219 2.20459ZM 1.10286 -0.725172C 0.53112 -1.17047 -0.290846 -1.06255 -0.73004 -0.490208L 0.856643 0.727346C 0.622136 1.03295 0.180857 1.09177 -0.126074 0.852714L 1.10286 -0.725172ZM -0.73013 -0.490091C -1.16569 0.0776894 -1.06416 0.893759 -0.496931 1.33572L 0.732303 -0.24193C 1.03473 -0.00629483 1.0876 0.426272 0.856733 0.727229L -0.73013 -0.490091ZM -0.496843 1.33579C 0.0429369 1.75626 0.489971 2.30501 0.792631 2.91867L 2.58634 2.03401C 2.15017 1.14965 1.51009 0.363947 0.732215 -0.241999L -0.496843 1.33579ZM 0.792701 2.91881C 1.01913 3.37774 1.48045 3.64586 1.96108 3.64586L 1.96108 1.64586C 2.21884 1.64586 2.46577 1.78966 2.58627 2.03387L 0.792701 2.91881ZM 1.96108 3.64586C 2.15826 3.64586 2.35807 3.60094 2.54363 3.50798L 1.64779 1.71983C 1.74672 1.67027 1.85449 1.64586 1.96108 1.64586L 1.96108 3.64586ZM 2.5436 3.50799C 3.18869 3.18483 3.44504 2.4027 3.12897 1.76211L 1.33541 2.64707C 1.16835 2.30848 1.30244 1.89283 1.64781 1.71982L 2.5436 3.50799ZM 3.12905 1.76227C 2.65238 0.795762 1.95289 -0.0629914 1.10294 -0.725111L -0.126152 0.852653C 0.485632 1.32924 0.992122 1.951 1.33533 2.64691L 3.12905 1.76227Z" fill="#2D9CDB"/>
</g>
</g>
<g id="Vector_5" transform="translate(4.52539 4.61856)">
<mask id="path-9-inside-5" fill="white">
<path d="M 4.97758 1.34446C 4.83269 1.42886 4.78311 1.61564 4.86687 1.76163C 5.0663 2.10927 5.17172 2.50665 5.17172 2.91088C 5.17172 4.17921 4.14764 5.21109 2.88889 5.21109C 1.63014 5.21109 0.606061 4.17921 0.606061 2.91088C 0.606061 1.64255 1.63014 0.610674 2.88889 0.610674C 3.41366 0.610674 3.90695 0.785042 4.31544 1.11497C 4.44606 1.22045 4.63677 1.19924 4.74142 1.0677C 4.8461 0.936123 4.82509 0.743964 4.69451 0.63848C 4.18473 0.226764 3.54348 -3.97574e-08 2.88889 -3.97574e-08C 1.29596 -3.97574e-08 0 1.30582 0 2.91088C 0 4.51594 1.29596 5.82176 2.88889 5.82176C 4.48182 5.82176 5.77778 4.51594 5.77778 2.91088C 5.77778 2.3995 5.64424 1.89647 5.39156 1.45605C 5.30784 1.30994 5.12247 1.26007 4.97758 1.34446Z"/>
</mask>
<path d="M 4.97758 1.34446C 4.83269 1.42886 4.78311 1.61564 4.86687 1.76163C 5.0663 2.10927 5.17172 2.50665 5.17172 2.91088C 5.17172 4.17921 4.14764 5.21109 2.88889 5.21109C 1.63014 5.21109 0.606061 4.17921 0.606061 2.91088C 0.606061 1.64255 1.63014 0.610674 2.88889 0.610674C 3.41366 0.610674 3.90695 0.785042 4.31544 1.11497C 4.44606 1.22045 4.63677 1.19924 4.74142 1.0677C 4.8461 0.936123 4.82509 0.743964 4.69451 0.63848C 4.18473 0.226764 3.54348 -3.97574e-08 2.88889 -3.97574e-08C 1.29596 -3.97574e-08 0 1.30582 0 2.91088C 0 4.51594 1.29596 5.82176 2.88889 5.82176C 4.48182 5.82176 5.77778 4.51594 5.77778 2.91088C 5.77778 2.3995 5.64424 1.89647 5.39156 1.45605C 5.30784 1.30994 5.12247 1.26007 4.97758 1.34446Z" fill="black"/>
<g mask="url(#path-9-inside-5)">
<path d="M 4.86687 1.76163L 5.73427 1.26402L 5.73426 1.264L 4.86687 1.76163ZM 4.31544 1.11497L 3.6871 1.89291L 3.68718 1.89297L 4.31544 1.11497ZM 4.74142 1.0677L 3.95888 0.445102L 3.95885 0.445131L 4.74142 1.0677ZM 4.69451 0.63848L 5.32288 -0.13943L 5.32282 -0.139481L 4.69451 0.63848ZM 5.39156 1.45605L 4.52389 1.95319L 4.52418 1.9537L 5.39156 1.45605ZM 4.47426 0.480361C 3.85137 0.843178 3.64388 1.63945 3.99948 2.25926L 5.73426 1.264C 5.92234 1.59183 5.814 2.01453 5.4809 2.20856L 4.47426 0.480361ZM 3.99947 2.25925C 4.11124 2.45408 4.17172 2.67969 4.17172 2.91088L 6.17172 2.91088C 6.17172 2.33362 6.02136 1.76446 5.73427 1.26402L 3.99947 2.25925ZM 4.17172 2.91088C 4.17172 3.63409 3.58822 4.21109 2.88889 4.21109L 2.88889 6.21109C 4.70706 6.21109 6.17172 4.72433 6.17172 2.91088L 4.17172 2.91088ZM 2.88889 4.21109C 2.18956 4.21109 1.60606 3.63409 1.60606 2.91088L -0.393939 2.91088C -0.393939 4.72433 1.07072 6.21109 2.88889 6.21109L 2.88889 4.21109ZM 1.60606 2.91088C 1.60606 2.18767 2.18956 1.61067 2.88889 1.61067L 2.88889 -0.389326C 1.07072 -0.389326 -0.393939 1.09743 -0.393939 2.91088L 1.60606 2.91088ZM 2.88889 1.61067C 3.18487 1.61067 3.45642 1.70659 3.6871 1.89291L 4.94377 0.337024C 4.35748 -0.13651 3.64245 -0.389326 2.88889 -0.389326L 2.88889 1.61067ZM 3.68718 1.89297C 4.25096 2.34824 5.07473 2.25497 5.52398 1.69027L 3.95885 0.445131C 4.19881 0.143512 4.64116 0.0926631 4.94369 0.336963L 3.68718 1.89297ZM 5.52396 1.6903C 5.9698 1.12992 5.88196 0.312181 5.32288 -0.13943L 4.06613 1.41639C 3.76822 1.17575 3.7224 0.742324 3.95888 0.445102L 5.52396 1.6903ZM 5.32282 -0.139481C 4.63537 -0.694693 3.77242 -1 2.88889 -1L 2.88889 1C 3.31453 1 3.73409 1.14822 4.06619 1.41644L 5.32282 -0.139481ZM 2.88889 -1C 0.736539 -1 -1 0.760703 -1 2.91088L 1 2.91088C 1 1.85095 1.85538 1 2.88889 1L 2.88889 -1ZM -1 2.91088C -1 5.06106 0.736539 6.82176 2.88889 6.82176L 2.88889 4.82176C 1.85538 4.82176 1 3.97081 1 2.91088L -1 2.91088ZM 2.88889 6.82176C 5.04124 6.82176 6.77778 5.06106 6.77778 2.91088L 4.77778 2.91088C 4.77778 3.97081 3.9224 4.82176 2.88889 4.82176L 2.88889 6.82176ZM 6.77778 2.91088C 6.77778 2.22621 6.59918 1.55142 6.25893 0.958399L 4.52418 1.9537C 4.68931 2.24152 4.77778 2.5728 4.77778 2.91088L 6.77778 2.91088ZM 6.25923 0.958912C 5.90108 0.333833 5.10143 0.115045 4.47426 0.480361L 5.4809 2.20856C 5.14351 2.40509 4.7146 2.28604 4.52389 1.95319L 6.25923 0.958912Z" fill="#2D9CDB"/>
</g>
</g>
</g>
</g>
</svg>
