<svg width="70" height="71" viewBox="0 0 70 71" version="1.1" xmlns="http://www.w3.org/2000/svg" xmlns:xlink="http://www.w3.org/1999/xlink">
<title>fbab455d3fcf4ce62897433f001c23e0</title>
<desc>Created using Figma</desc>
<g id="Canvas" transform="translate(54 -990)">
<g id="fbab455d3fcf4ce62897433f001c23e0">
<g id="Group">
<g id="Vector">
<use xlink:href="#path0_stroke" transform="translate(-53.0654 990.931)" fill="#25A3FB"/>
</g>
<mask id="mask0_alpha" mask-type="alpha">
<g id="b">
<g id="Vector">
<use xlink:href="#path1_fill" transform="translate(-54 990)" fill="#FFFFFF"/>
</g>
</g>
</mask>
<g id="Vector" mask="url(#mask0_alpha)">
<use xlink:href="#path2_stroke" transform="translate(-53.0654 995.444)" fill="#25A3FB"/>
</g>
<g id="Vector" mask="url(#mask0_alpha)">
<use xlink:href="#path3_stroke" transform="translate(-22.447 1013.22)" fill="#25A3FB"/>
</g>
</g>
</g>
</g>
<defs>
<path id="path0_stroke" d="M 1.40182e-08 16.1477C -0.414214 16.1477 -0.75 16.4835 -0.75 16.8977C -0.75 17.3119 -0.414214 17.6477 1.40182e-08 17.6477L 1.40182e-08 16.1477ZM 68.1308 17.6477C 68.545 17.6477 68.8808 17.3119 68.8808 16.8977C 68.8808 16.4835 68.545 16.1477 68.1308 16.1477L 68.1308 17.6477ZM 1.40182e-08 33.5347C -0.414214 33.5347 -0.75 33.8705 -0.75 34.2847C -0.75 34.699 -0.414214 35.0347 1.40182e-08 35.0347L 1.40182e-08 33.5347ZM 68.1308 35.0347C 68.545 35.0347 68.8808 34.699 68.8808 34.2847C 68.8808 33.8705 68.545 33.5347 68.1308 33.5347L 68.1308 35.0347ZM 1.40182e-08 50.9217C -0.414214 50.9217 -0.75 51.2575 -0.75 51.6717C -0.75 52.086 -0.414214 52.4217 1.40182e-08 52.4217L 1.40182e-08 50.9217ZM 68.1308 52.4217C 68.545 52.4217 68.8808 52.086 68.8808 51.6717C 68.8808 51.2575 68.545 50.9217 68.1308 50.9217L 68.1308 52.4217ZM 44.6705 69.1368C 44.6705 69.5511 45.0063 69.8868 45.4205 69.8868C 45.8347 69.8868 46.1705 69.5511 46.1705 69.1368L 44.6705 69.1368ZM 46.1705 17.0661C 46.1705 16.6519 45.8347 16.3161 45.4205 16.3161C 45.0063 16.3161 44.6705 16.6519 44.6705 17.0661L 46.1705 17.0661ZM 21.9603 69.1368C 21.9603 69.5511 22.296 69.8868 22.7103 69.8868C 23.1245 69.8868 23.4603 69.5511 23.4603 69.1368L 21.9603 69.1368ZM 23.4603 17.0661C 23.4603 16.6519 23.1245 16.3161 22.7103 16.3161C 22.296 16.3161 21.9603 16.6519 21.9603 17.0661L 23.4603 17.0661ZM 14.8887 9.64521C 14.8887 10.0594 15.2245 10.3952 15.6387 10.3952C 16.0529 10.3952 16.3887 10.0594 16.3887 9.64521L 14.8887 9.64521ZM 16.3887 1.39634e-08C 16.3887 -0.414214 16.0529 -0.75 15.6387 -0.75C 15.2245 -0.75 14.8887 -0.414214 14.8887 1.39634e-08L 16.3887 1.39634e-08ZM 51.9527 9.64521C 51.9527 10.0594 52.2885 10.3952 52.7027 10.3952C 53.1169 10.3952 53.4527 10.0594 53.4527 9.64521L 51.9527 9.64521ZM 53.4527 1.39634e-08C 53.4527 -0.414214 53.1169 -0.75 52.7027 -0.75C 52.2885 -0.75 51.9527 -0.414214 51.9527 1.39634e-08L 53.4527 1.39634e-08ZM 1.40182e-08 17.6477L 68.1308 17.6477L 68.1308 16.1477L 1.40182e-08 16.1477L 1.40182e-08 17.6477ZM 68.1308 16.1477L 1.40182e-08 16.1477L 1.40182e-08 17.6477L 68.1308 17.6477L 68.1308 16.1477ZM 1.40182e-08 35.0347L 68.1308 35.0347L 68.1308 33.5347L 1.40182e-08 33.5347L 1.40182e-08 35.0347ZM 68.1308 33.5347L 1.40182e-08 33.5347L 1.40182e-08 35.0347L 68.1308 35.0347L 68.1308 33.5347ZM 1.40182e-08 52.4217L 68.1308 52.4217L 68.1308 50.9217L 1.40182e-08 50.9217L 1.40182e-08 52.4217ZM 68.1308 50.9217L 1.40182e-08 50.9217L 1.40182e-08 52.4217L 68.1308 52.4217L 68.1308 50.9217ZM 46.1705 69.1368L 46.1705 17.0661L 44.6705 17.0661L 44.6705 69.1368L 46.1705 69.1368ZM 44.6705 17.0661L 44.6705 69.1368L 46.1705 69.1368L 46.1705 17.0661L 44.6705 17.0661ZM 23.4603 69.1368L 23.4603 17.0661L 21.9603 17.0661L 21.9603 69.1368L 23.4603 69.1368ZM 21.9603 17.0661L 21.9603 69.1368L 23.4603 69.1368L 23.4603 17.0661L 21.9603 17.0661ZM 16.3887 9.64521L 16.3887 1.39634e-08L 14.8887 1.39634e-08L 14.8887 9.64521L 16.3887 9.64521ZM 14.8887 1.39634e-08L 14.8887 9.64521L 16.3887 9.64521L 16.3887 1.39634e-08L 14.8887 1.39634e-08ZM 53.4527 9.64521L 53.4527 1.39634e-08L 51.9527 1.39634e-08L 51.9527 9.64521L 53.4527 9.64521Z"/>
<path id="path1_fill" d="M 0 71L 70 71L 70 0L 0 0L 0 71Z"/>
<path id="path2_stroke" d="M 1.40182e-08 64.5442L -0.75 64.5442C -0.75 64.9584 -0.414214 65.2942 1.40182e-08 65.2942L 1.40182e-08 64.5442ZM 68.1308 64.5442L 68.1308 65.2942C 68.545 65.2942 68.8808 64.9584 68.8808 64.5442L 68.1308 64.5442ZM 68.1308 -1.30325e-07L 68.8808 -1.30325e-07C 68.8808 -0.414214 68.545 -0.75 68.1308 -0.75L 68.1308 -1.30325e-07ZM 1.40182e-08 -1.30325e-07L 1.40182e-08 -0.75C -0.414214 -0.75 -0.75 -0.414214 -0.75 -1.30325e-07L 1.40182e-08 -1.30325e-07ZM 1.40182e-08 65.2942L 68.1308 65.2942L 68.1308 63.7942L 1.40182e-08 63.7942L 1.40182e-08 65.2942ZM 68.8808 64.5442L 68.8808 -1.30325e-07L 67.3808 -1.30325e-07L 67.3808 64.5442L 68.8808 64.5442ZM 68.1308 -0.75L 1.40182e-08 -0.75L 1.40182e-08 0.75L 68.1308 0.75L 68.1308 -0.75ZM -0.75 -1.30325e-07L -0.75 64.5442L 0.75 64.5442L 0.75 -1.30325e-07L -0.75 -1.30325e-07Z"/>
<path id="path3_stroke" d="M 30.6846 20.7534L 31.4346 20.7533C 31.4345 20.3391 31.0987 20.0033 30.6845 20.0034C 30.2703 20.0034 29.9346 20.3392 29.9346 20.7534L 30.6846 20.7534ZM 21.7401 20.7546L 20.9901 20.7546L 20.9901 20.7547L 21.7401 20.7546ZM 29.9346 20.7546C 29.9346 21.1688 30.2703 21.5046 30.6846 21.5046C 31.0988 21.5046 31.4346 21.1688 31.4346 20.7546L 29.9346 20.7546ZM -0.528112 6.31001C -0.821553 6.60235 -0.822441 7.07723 -0.530096 7.37067C -0.237751 7.66411 0.237122 7.665 0.530562 7.37265L -0.528112 6.31001ZM 7.39753 0.531321C 7.69097 0.238976 7.69186 -0.235897 7.39952 -0.529337C 7.10717 -0.822778 6.6323 -0.823666 6.33886 -0.531321L 7.39753 0.531321ZM 6.33891 7.3727C 6.63237 7.66502 7.10725 7.66409 7.39957 7.37062C 7.69188 7.07715 7.69095 6.60228 7.39749 6.30996L 6.33891 7.3727ZM 0.529291 -0.531368C 0.235824 -0.823687 -0.239049 -0.822757 -0.531367 -0.52929C -0.823686 -0.235823 -0.822756 0.239049 -0.529289 0.531368L 0.529291 -0.531368ZM 29.9346 20.7535C 29.9347 21.7351 29.5434 22.6771 28.8457 23.3722L 29.9045 24.4348C 30.884 23.4588 31.4347 22.1346 31.4346 20.7533L 29.9346 20.7535ZM 28.8457 23.3722C 28.148 24.0674 27.201 24.4586 26.2128 24.4587L 26.213 25.9587C 27.5971 25.9585 28.925 25.4107 29.9045 24.4348L 28.8457 23.3722ZM 26.2128 24.4587C 25.2247 24.4589 24.2776 24.068 23.5796 23.3729L 22.5212 24.4358C 23.5009 25.4114 24.829 25.9589 26.213 25.9587L 26.2128 24.4587ZM 23.5796 23.3729C 22.8818 22.678 22.4902 21.7361 22.4901 20.7545L 20.9901 20.7547C 20.9903 22.136 21.5414 23.4601 22.5212 24.4358L 23.5796 23.3729ZM 22.4901 20.7546C 22.4901 19.773 22.8816 18.831 23.5793 18.136L 22.5207 17.0733C 21.541 18.0491 20.9901 19.3733 20.9901 20.7546L 22.4901 20.7546ZM 23.5793 18.136C 24.2771 17.4409 25.2242 17.0499 26.2123 17.0499L 26.2123 15.5499C 24.8283 15.5499 23.5003 16.0975 22.5207 17.0733L 23.5793 18.136ZM 26.2123 17.0499C 27.2005 17.0499 28.1476 17.4409 28.8454 18.136L 29.904 17.0733C 28.9244 16.0975 27.5964 15.5499 26.2123 15.5499L 26.2123 17.0499ZM 28.8454 18.136C 29.5431 18.831 29.9346 19.773 29.9346 20.7546L 31.4346 20.7546C 31.4346 19.3733 30.8836 18.0491 29.904 17.0733L 28.8454 18.136ZM 31.4346 20.7546L 31.4346 20.7534L 29.9346 20.7534L 29.9346 20.7546L 31.4346 20.7546ZM 0.530562 7.37265L 7.39753 0.531321L 6.33886 -0.531321L -0.528112 6.31001L 0.530562 7.37265ZM 6.33886 -0.531321L -0.528112 6.31001L 0.530562 7.37265L 7.39753 0.531321L 6.33886 -0.531321ZM 7.39749 6.30996L 0.529291 -0.531368L -0.529289 0.531368L 6.33891 7.3727L 7.39749 6.30996Z"/>
</defs>
</svg>
