<svg width="81" height="81" viewBox="0 0 81 81" version="1.1" xmlns="http://www.w3.org/2000/svg" xmlns:xlink="http://www.w3.org/1999/xlink">
<g id="Canvas" fill="none">
<g id="&#239;&#133;&#164;">
<path d="M 78.627 45.2461C 78.9434 47.1445 79.1016 49.043 78.7852 50.9414C 78.4688 52.998 77.9941 54.7383 77.0449 56.1621C 77.3613 58.0605 77.2031 59.959 76.7285 61.8574C 76.0957 63.7559 75.3047 65.4961 74.1973 66.7617C 74.1973 71.1914 73.0898 74.6719 70.5586 77.2031C 68.0273 79.7344 64.3887 81 59.8008 81L 53.3145 81C 50.1504 81 46.6699 80.5254 42.873 79.5762C 40.6582 79.1016 37.4941 78.1523 33.6973 76.7285L 28.9512 75.1465C 27.3691 74.8301 26.2617 74.5137 25.3125 74.5137L 25.3125 75.9375C 25.3125 77.3613 24.6797 78.627 23.7305 79.5762C 22.7812 80.5254 21.5156 81 20.25 81L 5.0625 81C 3.63867 81 2.37305 80.5254 1.42383 79.5762C 0.474609 78.627 0 77.3613 0 75.9375L 0 35.4375C 0 34.1719 0.474609 32.9062 1.42383 31.957C 2.37305 31.0078 3.63867 30.375 5.0625 30.375L 20.25 30.375C 21.9902 30.375 23.4141 31.166 24.3633 32.5898C 24.8379 32.5898 25.3125 32.4316 25.6289 32.2734C 26.5781 31.7988 27.6855 30.6914 29.2676 28.9512C 30.2168 28.002 31.6406 26.2617 33.5391 23.7305C 35.7539 20.5664 37.4941 18.5098 38.6016 17.5605C 39.2344 16.9277 39.709 15.9785 40.1836 14.5547C 40.5 13.7637 40.8164 12.498 41.1328 10.5996C 42.3984 3.63867 44.9297 0 48.5684 0C 52.998 0 56.3203 1.26562 58.5352 3.79688C 60.5918 6.32812 61.6992 9.9668 61.6992 14.7129C 61.6992 16.7695 61.3828 18.8262 60.75 20.7246C 60.2754 21.9902 59.6426 23.4141 58.6934 25.3125L 58.377 25.7871L 69.4512 25.7871C 72.6152 25.7871 75.3047 27.0527 77.5195 29.2676C 79.7344 31.6406 81 34.3301 81 37.4941C 81 40.6582 80.209 43.1895 78.627 45.2461ZM 5.0625 75.9375L 20.25 75.9375L 20.25 35.4375L 5.0625 35.4375L 5.0625 75.9375ZM 72.1406 43.6641C 73.4062 43.3477 74.3555 42.7148 74.9883 41.4492C 75.6211 40.3418 75.9375 38.918 75.9375 37.3359C 75.9375 35.7539 75.3047 34.1719 74.0391 32.9062C 72.7734 31.6406 71.1914 30.8496 69.4512 30.8496L 51.7324 30.8496C 51.7324 29.4258 51.8906 28.002 52.5234 26.5781C 52.8398 25.7871 53.3145 24.5215 54.1055 22.9395C 54.8965 21.3574 55.5293 20.0918 55.8457 19.1426C 56.3203 17.7188 56.6367 16.2949 56.6367 14.7129C 56.6367 11.8652 56.1621 9.65039 55.5293 8.38477C 54.2637 6.16992 52.0488 5.0625 48.5684 5.0625C 47.9355 5.69531 47.3027 6.64453 46.9863 7.91016C 46.6699 8.70117 46.3535 9.9668 46.0371 11.5488C 45.5625 13.9219 45.2461 15.6621 44.9297 16.6113C 44.1387 18.5098 43.1895 20.0918 42.082 21.1992C 40.9746 22.3066 39.2344 24.3633 37.0195 27.3691C 34.4883 30.6914 32.5898 32.9062 31.3242 34.1719C 29.1094 36.3867 27.0527 37.3359 25.3125 37.3359L 25.3125 69.4512C 26.5781 69.4512 28.1602 69.7676 30.0586 70.2422C 31.166 70.5586 33.0645 71.1914 35.7539 72.1406C 39.2344 73.4062 42.082 74.1973 43.9805 74.6719C 47.3027 75.6211 50.4668 75.9375 53.3145 75.9375L 59.8008 75.9375C 62.9648 75.9375 65.4961 75.1465 67.0781 73.4062C 68.8184 71.5078 69.4512 68.6602 68.8184 64.7051C 70.2422 64.0723 71.1914 62.6484 71.8242 60.5918C 72.457 58.5352 72.1406 56.6367 71.1914 54.8965C 72.2988 54.4219 73.0898 53.3145 73.5645 51.7324C 73.8809 50.1504 74.0391 48.5684 73.7227 46.9863C 73.4062 45.4043 72.9316 44.2969 72.1406 43.6641ZM 16.4531 68.3438C 16.4531 67.3945 15.9785 66.4453 15.3457 65.6543C 14.5547 65.0215 13.6055 64.5469 12.6562 64.5469C 11.5488 64.5469 10.5996 65.0215 9.9668 65.6543C 9.17578 66.4453 8.85938 67.3945 8.85938 68.3438C 8.85938 69.4512 9.17578 70.4004 9.9668 71.0332C 10.5996 71.8242 11.5488 72.1406 12.6562 72.1406C 13.6055 72.1406 14.5547 71.8242 15.3457 71.0332C 15.9785 70.4004 16.4531 69.4512 16.4531 68.3438Z" fill="#2D9CDB"/>
</g>
</g>
</svg>

