<?xml version="1.0" encoding="UTF-8"?>
<!-- Generator: Adobe Illustrator 19.2.0, SVG Export Plug-In . SVG Version: 6.00 Build 0)  -->
<svg version="1.1" id="Слой_1" xmlns="http://www.w3.org/2000/svg" xmlns:xlink="http://www.w3.org/1999/xlink" x="0px" y="0px" viewBox="0 0 283.5 283.5" style="enable-background:new 0 0 283.5 283.5;" xml:space="preserve">
<style type="text/css">
	.st0{fill:#3D3D3D;stroke:#201600;stroke-width:2;stroke-miterlimit:10;}
</style>
<path class="st0" d="M241,173.4c-18.6,32.9-56.2,54.3-98.2,54.3c-5.6,0-11.2-0.4-16.9-1.1c-30.1-4.1-57-18.6-75.6-40.9  c-5-5.9-9.2-12.2-12.6-18.8c-0.3,0.2-0.6,0.3-0.9,0.5c3.5,6.6,7.7,13,12.7,18.9c18.8,22.5,45.9,37.1,76.3,41.2  c5.7,0.8,11.4,1.2,17,1.2c42.3,0,80.2-21.6,99.1-54.7C241.5,173.8,241.3,173.6,241,173.4z"/>
</svg>