<?xml version="1.0" encoding="iso-8859-1"?>
<!-- Generator: Adobe Illustrator 19.0.0, SVG Export Plug-In . SVG Version: 6.00 Build 0)  -->
<svg xmlns="http://www.w3.org/2000/svg" xmlns:xlink="http://www.w3.org/1999/xlink" version="1.1" id="Layer_1" x="0px" y="0px" viewBox="0 0 512 512" style="enable-background:new 0 0 512 512;" xml:space="preserve" width="512px" height="512px">
<g>
	<g>
		<path d="M438.498,2.993C436.585,1.077,433.988,0,431.279,0H80.721c-5.632,0-10.199,4.566-10.199,10.199v491.602    c0,5.633,4.567,10.199,10.199,10.199h349.686c5.626,0,10.189-4.555,10.199-10.181l0.873-491.602    C441.484,7.509,440.412,4.91,438.498,2.993z M420.225,491.602H90.92V20.398h330.143L420.225,491.602z" fill="#FFFFFF"/>
	</g>
</g>
<g>
	<g>
		<path d="M404.696,426.342l-46.765-47.18c0.112-1.397,0.186-2.806,0.186-4.233c0-29.023-23.611-52.634-52.633-52.634    s-52.633,23.611-52.633,52.634c0,1.409,0.072,2.803,0.182,4.185l-47.089,47.207c-2.762,2.769-3.697,6.874-2.407,10.567    c1.291,3.693,4.579,6.323,8.466,6.768l22.207,2.549l2.548,22.207c0.447,3.891,3.081,7.182,6.779,8.47    c1.096,0.381,2.229,0.567,3.35,0.567c2.665,0,5.277-1.045,7.223-2.997l46.969-47.087c1.453,0.121,2.92,0.198,4.404,0.198    c1.468,0,2.917-0.076,4.354-0.195l46.645,47.06c1.948,1.965,4.568,3.02,7.246,3.02c1.117,0,2.244-0.184,3.336-0.562    c3.706-1.283,6.348-4.578,6.795-8.476l2.549-22.208l22.207-2.549c3.881-0.446,7.166-3.067,8.46-6.753    C408.37,433.217,407.445,429.116,404.696,426.342z M254.61,445.067l-1.06-9.234c-0.541-4.712-4.258-8.43-8.97-8.97l-9.302-1.067    l24.592-24.654c4.619,8.007,11.281,14.687,19.275,19.328L254.61,445.067z M305.483,407.163c-17.774,0-32.235-14.46-32.235-32.235    c-0.001-17.775,14.459-32.236,32.235-32.236c17.775,0,32.235,14.46,32.235,32.236    C337.718,392.703,323.258,407.163,305.483,407.163z M366.036,426.862c-4.712,0.541-8.43,4.258-8.97,8.97l-1.049,9.15    l-24.259-24.475c8-4.63,14.672-11.301,19.302-19.301l24.363,24.579L366.036,426.862z" fill="#FFFFFF"/>
	</g>
</g>
<g>
	<g>
		<path d="M210.104,351.872H131.57c-5.632,0-10.199,4.566-10.199,10.199c0,5.633,4.567,10.199,10.199,10.199h78.534    c5.632,0,10.199-4.566,10.199-10.199C220.303,356.439,215.736,351.872,210.104,351.872z" fill="#FFFFFF"/>
	</g>
</g>
<g>
	<g>
		<path d="M297.307,61.195h-82.614c-5.632,0-10.199,4.566-10.199,10.199c0,5.633,4.567,10.199,10.199,10.199h82.614    c5.632,0,10.199-4.566,10.199-10.199C307.506,65.761,302.939,61.195,297.307,61.195z" fill="#FFFFFF"/>
	</g>
</g>
<g>
	<g>
		<path d="M375.841,104.032H136.159c-5.632,0-10.199,4.566-10.199,10.199s4.567,10.199,10.199,10.199h239.681    c5.632,0,10.199-4.566,10.199-10.199S381.473,104.032,375.841,104.032z" fill="#FFFFFF"/>
	</g>
</g>
<g>
	<g>
		<path d="M330.964,174.406H223.363c-5.632,0-10.199,4.566-10.199,10.199s4.567,10.199,10.199,10.199h107.602    c5.632,0,10.199-4.566,10.199-10.199S336.596,174.406,330.964,174.406z" fill="#FFFFFF"/>
	</g>
</g>
<g>
	<g>
		<path d="M186.645,174.406h-5.61c-5.632,0-10.199,4.566-10.199,10.199s4.567,10.199,10.199,10.199h5.61    c5.632,0,10.199-4.566,10.199-10.199S192.277,174.406,186.645,174.406z" fill="#FFFFFF"/>
	</g>
</g>
<g>
	<g>
		<path d="M330.964,214.183H223.363c-5.632,0-10.199,4.566-10.199,10.199c0,5.633,4.567,10.199,10.199,10.199h107.602    c5.632,0,10.199-4.566,10.199-10.199C341.163,218.749,336.596,214.183,330.964,214.183z" fill="#FFFFFF"/>
	</g>
</g>
<g>
	<g>
		<path d="M186.645,214.183h-5.61c-5.632,0-10.199,4.566-10.199,10.199c0,5.633,4.567,10.199,10.199,10.199h5.61    c5.632,0,10.199-4.566,10.199-10.199C196.845,218.749,192.277,214.183,186.645,214.183z" fill="#FFFFFF"/>
	</g>
</g>
<g>
	<g>
		<path d="M330.964,254.98H223.363c-5.632,0-10.199,4.566-10.199,10.199c0,5.633,4.567,10.199,10.199,10.199h107.602    c5.632,0,10.199-4.566,10.199-10.199C341.163,259.546,336.596,254.98,330.964,254.98z" fill="#FFFFFF"/>
	</g>
</g>
<g>
	<g>
		<path d="M186.645,254.98h-5.61c-5.632,0-10.199,4.566-10.199,10.199c0,5.633,4.567,10.199,10.199,10.199h5.61    c5.632,0,10.199-4.566,10.199-10.199C196.845,259.546,192.277,254.98,186.645,254.98z" fill="#FFFFFF"/>
	</g>
</g>
<g>
</g>
<g>
</g>
<g>
</g>
<g>
</g>
<g>
</g>
<g>
</g>
<g>
</g>
<g>
</g>
<g>
</g>
<g>
</g>
<g>
</g>
<g>
</g>
<g>
</g>
<g>
</g>
<g>
</g>
</svg>
