<svg xmlns="http://www.w3.org/2000/svg" width="22" height="15" viewBox="0 0 512.001 512.001" enable-background="new 0 0 512.001 512.001"><path fill="#FBF5F5" d="M503.7 231.9c-28.74-36.85-65.96-67.32-107.64-88.13-42.55-21.25-88.32-32.27-136.1-32.85-1.32-.03-6.6-.03-7.92 0-47.78.58-93.55 11.6-136.1 32.85-41.68 20.8-78.9 51.28-107.64 88.12-11.07 14.2-11.07 34 0 48.2 28.74 36.85 65.96 67.32 107.64 88.13 42.54 21.25 88.32 32.27 136.1 32.85 1.32.03 6.6.03 7.92 0 47.78-.58 93.55-11.6 136.1-32.85 41.68-20.8 78.9-51.28 107.64-88.12 11.07-14.2 11.07-34 0-48.2zM125.24 349.6c-38.92-19.43-73.68-47.9-100.5-82.3-5.2-6.66-5.2-15.94 0-22.6 26.82-34.4 61.58-62.87 100.5-82.3 11.06-5.52 22.34-10.3 33.84-14.33-29.58 26.6-48.2 65.12-48.2 107.93 0 42.8 18.62 81.34 48.2 107.93-11.5-4.04-22.78-8.8-33.84-14.33zM256 380.3c-68.54 0-124.3-55.76-124.3-124.3S187.46 131.7 256 131.7 380.3 187.46 380.3 256 324.54 380.3 256 380.3zm231.27-113c-26.83 34.4-61.6 62.87-100.5 82.3-11.05 5.5-22.33 10.26-33.82 14.3 29.56-26.6 48.18-65.1 48.18-107.9 0-42.82-18.64-81.35-48.22-107.94 11.5 4.04 22.8 8.82 33.86 14.34 38.92 19.43 73.68 47.9 100.52 82.3 5.18 6.66 5.18 15.94 0 22.6z" class="active-path"/><path fill="#fff" d="M256 202.8c-29.33 0-53.2 23.87-53.2 53.2s23.87 53.2 53.2 53.2 53.2-23.87 53.2-53.2c0-29.33-23.87-53.2-53.2-53.2zm0 85.57c-17.85 0-32.37-14.52-32.37-32.37 0-17.85 14.52-32.37 32.37-32.37 17.85 0 32.37 14.52 32.37 32.37 0 17.85-14.52 32.37-32.37 32.37z" class="active-path"/></svg>