<svg xmlns="http://www.w3.org/2000/svg" width="29" height="46" xmlns:xlink="http://www.w3.org/1999/xlink"><title>Group</title><desc>Created using Figma</desc><g><g><use id="Vector" fill="#F2F2F2" xlink:href="#a" transform="translate(-11474 210) translate(11475 -209)"/><use id="Vector" fill="#7F1E88" xlink:href="#b" transform="translate(-11474 210) translate(11475.1 -209)"/><use id="Vector" fill="#7F1E88" xlink:href="#c" transform="translate(-11474 210) translate(11486.9 -175.975)"/><use id="Vector" fill="#7F1E88" xlink:href="#d" transform="translate(-11474 210) translate(11496.6 -208.999)"/><g id="Vector" transform="translate(-11474 210) translate(11475.1 -186.134)"><use fill="#F26D85" xlink:href="#e"/><use fill="#7F1E88" xlink:href="#f"/></g><use fill="#7F1E88" xlink:href="#g" transform="translate(-11474 210) translate(11487.5 -192.253)"/></g></g><defs><path id="a" d="M23.45 0s-1.9 5.28-1.9 8.2c0 3.65 5.18 12.38 5.18 18.64 0 5.46-.9 12.28-.9 12.28-4.44 5.7-10.93 4.92-10.93 4.92V33.02h-3.08v11.02s-6.48.77-10.9-4.92c0 0-.92-6.82-.92-12.28 0-6.26 5.2-15 5.2-18.65C5.2 5.27 3.27 0 3.27 0"/><path id="b" d="M.45 39.18c.03.26.27.43.52.4.26-.03.43-.27.4-.52l-.92.12zM3.7-.16c-.08-.24-.34-.36-.58-.28-.24.1-.37.36-.28.6l.87-.32zM.9 39.12c.47-.06.47-.06.47-.06s0 0 0-.02c0 0 0-.03 0-.06-.02-.05-.03-.12-.04-.22-.02-.2-.06-.48-.1-.85-.1-.7-.2-1.73-.3-2.92-.24-2.38-.47-5.43-.47-8.14h-.92c0 2.75.23 5.84.45 8.23.1 1.2.22 2.23.3 2.95.05.37.1.66.1.85.02.1.03.18.04.23 0 .03 0 .05 0 .06 0 0 0 0 0 .02 0 0 0 0 .47-.06zM.47 26.84c0-3.03 1.27-6.7 2.57-10.14.64-1.7 1.3-3.34 1.78-4.78.5-1.43.85-2.73.85-3.73h-.93c0 .82-.3 2-.78 3.42-.5 1.42-1.13 3.04-1.78 4.76-1.3 3.4-2.62 7.23-2.62 10.46h.92zM5.66 8.2c0-1.54-.5-3.64-.98-5.32-.24-.85-.5-1.6-.67-2.16-.08-.27-.15-.5-.2-.64-.03-.08-.05-.14-.07-.18 0-.02 0-.03 0-.04 0 0-.02 0-.02 0s0-.02 0-.02 0 0-.42.16c-.44.16-.44.16-.44.16 0 .02 0 .04.02.06 0 .03.03.1.06.16.05.15.13.37.2.64.2.53.43 1.27.66 2.1.48 1.7.94 3.68.94 5.07h.93z"/><path id="c" d="M2.62 11.02c0 .26.2.46.46.46s.46-.2.46-.46h-.92zM3.08 0h.46c0-.26-.2-.46-.46-.46V0zM0 0v-.46c-.26 0-.46.2-.46.46H0zm-.46 11.02c0 .26.2.46.46.46s.46-.2.46-.46h-.92zm4 0V0h-.92v11.02h.92zM3.08-.46H0v.92h3.08v-.92zM-.46 0v11.02h.92V0h-.92z"/><path id="d" d="M2.35.16c.08-.24-.04-.5-.28-.6-.24-.08-.5.04-.6.28l.88.32zm1.47 38.9c-.04.25.14.5.4.52.25.03.48-.14.52-.4l-.92-.12zM1.92 0c-.45-.16-.45-.16-.45-.16s0 0 0 .02c0 0 0 .02-.02.04 0 .04-.03.1-.06.18-.06.15-.14.37-.23.64C1 1.27.75 2.02.5 2.88c-.47 1.68-.96 3.78-.96 5.3h.92c0-1.38.46-3.37.94-5.05.24-.84.47-1.58.65-2.1.1-.28.16-.5.22-.65.02-.07.04-.13.06-.16 0-.02 0-.04 0-.05.02 0 .02 0 .02 0s0 0-.44-.17zM-.47 8.2c0 1 .35 2.28.83 3.72.5 1.44 1.14 3.08 1.8 4.78 1.3 3.44 2.55 7.1 2.55 10.14h.93c0-3.23-1.33-7.05-2.62-10.46-.65-1.72-1.3-3.34-1.78-4.76-.5-1.43-.8-2.6-.8-3.43h-.9zm5.18 18.64c0 2.7-.22 5.76-.45 8.14-.1 1.2-.23 2.2-.3 2.93-.05.38-.1.66-.12.86 0 .1-.02.17-.02.22 0 .03 0 .05 0 .06 0 .02 0 .02 0 .02s0 0 .45.06c.46.06.46.06.46.06s0 0 0-.02c0 0 0-.03 0-.06 0-.05.02-.13.04-.23.02-.2.06-.48.1-.85.08-.72.2-1.75.3-2.95.24-2.4.47-5.5.47-8.23h-.93z"/><path id="e" d="M26.04 0L.42.16 0 2.63l11.75 7.53h2.9l11.8-7.9-.4-2.26z"/><path id="f" d="M26.04 0l.46-.08c-.04-.23-.24-.4-.46-.38V0zM.42.16V-.3C.2-.3 0-.14-.03.08l.45.08zM0 2.63l-.46-.08c-.03.18.05.37.2.47l.26-.4zm11.75 7.53l-.25.4c.08.04.16.06.25.06v-.46zm2.9 0v.46c.1 0 .2-.02.27-.08l-.26-.38zm11.8-7.9l.27.4c.16-.12.23-.3.2-.48l-.46.08zm-.4-2.72L.4-.3v.92L26.06.46v-.92zM-.04.08l-.43 2.47.92.16L.88.25l-.9-.16zm-.22 2.94l11.75 7.53.5-.78L.25 2.24l-.5.78zm12 7.6h2.9V9.7h-2.9v.92zm3.17-.08l11.8-7.9-.52-.76-11.8 7.9.52.76zm12-8.36L26.5-.08l-.9.16.4 2.27.92-.17z"/><path id="g" d="M0-.46c-.26 0-.46.2-.46.46s.2.46.46.46v-.92zm1.8.92c.27 0 .48-.2.48-.46s-.2-.46-.46-.46v.92zM0 .46h1.8v-.92H0v.92z"/></defs></svg>