<svg xmlns="http://www.w3.org/2000/svg" width="50" height="45" xmlns:xlink="http://www.w3.org/1999/xlink"><title>Group</title><desc>Created using Figma</desc><g><g><g id="Vector" transform="translate(-11618 210) translate(11623.4 -209)"><use fill="#F2F2F2" xlink:href="#a"/><use fill="#7F1E88" xlink:href="#b"/></g><use id="Vector" fill="#7F1E88" xlink:href="#c" transform="translate(-11618 210) translate(11619 -191.924)"/><use id="Vector" fill="#7F1E88" xlink:href="#d" transform="translate(-11618 210) translate(11626.8 -192.628)"/><use id="Vector" fill="#7F1E88" xlink:href="#e" transform="translate(-11618 210) translate(11629.3 -191.682)"/><use id="Vector" fill="#7F1E88" xlink:href="#f" transform="translate(-11618 210) translate(11643.4 -192.628)"/><use id="Vector" fill="#7F1E88" xlink:href="#g" transform="translate(-11618 210) translate(11649 -191.682)"/><use id="Vector" fill="#7F1E88" xlink:href="#h" transform="translate(-11618 210) translate(11628.3 -198.705)"/><use id="Vector" fill="#7F1E88" xlink:href="#i" transform="translate(-11618 210) translate(11642.3 -198.705)"/><use id="Vector" fill="#7F1E88" xlink:href="#j" transform="translate(-11618 210) translate(11637.5 -184.28)"/><use id="Vector" fill="#7F1E88" xlink:href="#k" transform="translate(-11618 210) translate(11636 -178.989)"/><use id="Vector" fill="#7F1E88" xlink:href="#l" transform="translate(-11618 210) translate(11637.1 -174.299)"/><g id="Vector" transform="translate(-11618 210) translate(11646.7 -189.065)"><use fill="#F26D85" xlink:href="#m"/><use fill="#7F1E88" xlink:href="#n"/></g><g transform="translate(-11618 210) translate(11649.6 -186.152)"><use fill="#F26D85" xlink:href="#o"/><use fill="#7F1E88" xlink:href="#p"/></g></g></g><defs><path id="a" d="M16.15 43c2.3-.1 2.87-.64 5-3.12 2.12-2.47 8.32-5.77 10-12.83C32.8 20 33.34 16.5 28.07 8.7 22.8.93 16.15 0 16.15 0S9.5.92 4.22 8.7C-1.06 16.5-.5 20 1.16 27.06c1.67 7.06 7.87 10.36 10 12.83 2.12 2.48 2.68 3.03 5 3.12z"/><path id="b" d="M16.15 43l-.02.5h.04l-.02-.5zm5-3.12l-.38-.32.37.32zM16.14 0l.07-.5h-.14l.07.5zm-15 27.05l-.47.1.48-.1zm10 12.83l.38-.32-.38.32zm5.02 3.62c1.2-.05 2.02-.22 2.82-.75.76-.5 1.48-1.32 2.52-2.54l-.75-.64c-1.08 1.25-1.7 1.95-2.33 2.36-.58.38-1.2.54-2.3.58l.03 1zm5.35-3.3c.5-.58 1.27-1.23 2.17-2 .9-.76 1.94-1.64 2.97-2.66 2.04-2.04 4.1-4.75 4.95-8.38l-.97-.23c-.8 3.43-2.7 5.9-4.7 7.9-1 1-2 1.85-2.9 2.6-.9.78-1.73 1.48-2.28 2.13l.75.65zm10.1-13.04c.84-3.53 1.4-6.25 1.1-9.06-.34-2.84-1.56-5.74-4.22-9.67l-.83.56c2.6 3.85 3.74 6.6 4.04 9.2.32 2.66-.22 5.2-1.05 8.73l.97.23zM28.5 8.43C25.8 4.47 22.73 2.2 20.37 1c-1.2-.63-2.24-1-2.96-1.2-.35-.12-.65-.2-.85-.23-.1-.03-.2-.04-.24-.05-.02 0-.04 0-.05 0 0 0-.02 0-.02 0s0-.02 0-.02 0 0-.08.5c-.07.5-.07.5-.07.5.02 0 .04 0 .06 0 .05 0 .1.03.2.04.2.04.45.1.8.2.68.2 1.64.55 2.77 1.14 2.3 1.18 5.2 3.28 7.77 7.1l.83-.55zM16.15 0c-.07-.5-.07-.5-.07-.5s-.02 0-.03 0c0 0-.03 0-.06.02-.06 0-.15.02-.25.05-.2.04-.5.1-.86.22-.74.2-1.78.57-2.97 1.2C9.57 2.2 6.5 4.46 3.8 8.42l.83.56C7.2 5.15 10.1 3.05 12.4 1.87c1.12-.6 2.07-.93 2.77-1.14.34-.1.6-.16.8-.2.08 0 .14-.03.2-.04 0 0 .03 0 .04 0 0 0 0 0 .02 0 0 0 0 0-.07-.5zM3.8 8.43C1.14 12.36-.08 15.26-.4 18.1c-.32 2.8.24 5.53 1.08 9.06l.97-.23C.82 23.4.28 20.86.58 18.2c.3-2.6 1.44-5.35 4.05-9.2l-.83-.57zM.68 27.16c.86 3.63 2.9 6.34 4.95 8.38 1.03 1.02 2.07 1.9 2.98 2.67.9.77 1.67 1.42 2.18 2l.75-.64c-.55-.65-1.37-1.35-2.28-2.12-.9-.76-1.9-1.62-2.9-2.6-2-2-3.9-4.48-4.7-7.9l-.97.22zm10.1 13.05c1.04 1.23 1.76 2.05 2.53 2.55.8.53 1.63.7 2.83.75l.04-1c-1.12-.04-1.73-.2-2.3-.58-.63-.4-1.26-1.1-2.34-2.36l-.75.65z"/><path id="c" d="M4.94.42c.24-.15.3-.46.15-.7-.15-.22-.46-.3-.7-.14l.54.84zM1.88 16.46c-.1.25 0 .54.25.66.25.1.55 0 .66-.25l-.92-.4zM4.68 0C4.4-.42 4.4-.42 4.4-.42c-.02 0-.03.02-.05.03-.03.03-.08.07-.13.1-.1.08-.27.2-.47.36-.38.3-.9.77-1.45 1.37C1.23 2.6.02 4.43-.37 6.68l.98.17C.96 4.8 2.03 3.23 3.05 2.1c.5-.55.98-.97 1.34-1.26C4.56.7 4.7.6 4.8.52c.05-.03.08-.06.1-.08.02 0 .03 0 .04-.02 0 0 0 0-.27-.42zM-.38 6.68c-.4 2.3.2 3.64 1 4.6.37.45.78.8 1.1 1.12.32.33.5.57.6.83l.95-.28c-.15-.52-.5-.92-.85-1.26-.34-.35-.7-.67-1.04-1.06C.77 9.9.26 8.86.6 6.84l-.97-.16zm2.7 6.55c.18.65.1 1.44-.07 2.1-.08.34-.18.6-.25.82-.03.1-.06.18-.1.23 0 .03 0 .05 0 .06 0 0 0 0-.02 0 0 0 0 0 0 .02 0 0 0 0 .46.2.45.2.45.2.45.2s0 0 0-.02c0 0 .02-.04.04-.07.02-.06.06-.16.1-.27.1-.22.2-.55.3-.92.17-.73.3-1.73.04-2.63l-.96.28z"/><path id="d" d="M-.14-.32c-.26.07-.42.35-.34.6.07.28.35.43.62.36l-.28-.96zM9.8 1.1c.22-.17.26-.5.1-.7C9.7.18 9.4.14 9.2.3l.6.8zM0 .16c.14.48.14.48.14.48C.17.63.2.63.22.6.27.62.35.6.45.57.64.54.9.5 1.24.5c.64 0 1.37.12 1.92.6L3.8.3C3-.36 1.98-.5 1.22-.5.85-.5.5-.45.27-.4c-.12 0-.23.03-.3.05-.02 0-.05 0-.07.02 0 0-.02 0-.02 0s-.02 0-.02 0 0 0 .14.5zm3.16.93c.8.66 2.05.98 3.25 1 1.2 0 2.5-.3 3.4-1L9.2.3c-.68.53-1.72.8-2.78.8C5.35 1.07 4.37.8 3.8.3l-.64.77z"/><path id="e" d="M-.5 1.44c0 .28.22.5.5.5s.5-.22.5-.5h-1zM1.52.47c.26-.08.4-.36.32-.63-.1-.26-.37-.4-.63-.3l.32.93zM0 1.44c.5 0 .5 0 .5 0s0 .02 0 .02c0-.03 0-.04 0-.07.03-.1.04-.16.1-.26.1-.2.35-.48.92-.67l-.3-.94C.4-.2-.04.23-.3.65c-.1.2-.16.4-.2.53 0 .07 0 .14-.02.17 0 .03 0 .05 0 .06 0 .02 0 .03 0 .03s0 0 .5 0z"/><path id="f" d="M9.36.64c.26.07.54-.08.62-.35.07-.27-.08-.55-.35-.62l-.27.96zM.3.3C.1.15-.2.2-.4.4c-.16.2-.13.53.1.7L.3.3zM9.5.17c.13-.48.13-.48.13-.48-.02 0-.02 0-.03 0-.02-.02-.05-.03-.1-.03-.05-.02-.15-.04-.27-.06-.23-.05-.58-.1-.96-.1-.75 0-1.77.14-2.58.82l.63.77C6.88.6 7.63.5 8.26.5c.32 0 .6.04.8.07.1.02.17.04.23.05 0 0 .03 0 .05 0 0 .02 0 .02 0 .02s0 0 .14-.48zM5.7.32c-.57.47-1.55.76-2.62.77C2 1.1.98.82.3.3l-.6.8c.9.7 2.18 1 3.4 1 1.2-.02 2.43-.34 3.23-1L5.7.3z"/><path id="g" d="M.87 1.44c0 .28.22.5.5.5.27 0 .5-.22.5-.5h-1zm-.7-1.9c-.28-.1-.56.04-.64.3-.1.27.05.55.3.63l.33-.94zm1.2 1.9c.5 0 .5 0 .5 0s0-.02 0-.03c0 0 0-.02 0-.05 0-.03-.02-.1-.04-.17-.02-.12-.1-.33-.2-.53C1.4.23.95-.2.16-.47l-.32.94c.57.2.8.47.92.67.06.1.08.17.1.25 0 .02 0 .03 0 .05 0 0 0 0 .5 0z"/><path id="h" d="M-.08-.35c-.27.04-.46.3-.4.57.03.27.28.46.56.4l-.16-.97zm7.77 2.6c.18.2.5.2.7.02.2-.2.2-.5.03-.7l-.74.67zM0 .14c.08.48.08.48.08.48.02 0 .03 0 .05 0C.17.63.23.6.3.6.46.6.68.56.95.54 1.5.5 2.25.48 3.08.54c1.68.1 3.52.53 4.6 1.7l.75-.68C7.06.1 4.87-.36 3.13-.47 2.27-.52 1.46-.5.9-.45c-.3.02-.53.04-.7.06-.08.02-.14.03-.2.04 0 0-.03 0-.04 0 0 0 0 0-.02 0 0 0 0 0 .08.5z"/><path id="i" d="M7.98.63c.28.05.53-.14.57-.4.05-.28-.14-.54-.4-.58l-.17.98zm-8.35.93c-.18.2-.17.52.03.7.2.2.52.18.7-.02l-.73-.68zM8.06.14c.08-.5.08-.5.08-.5s-.02 0-.02 0-.03 0-.05 0c-.05 0-.1-.02-.2-.03-.16 0-.4-.03-.7-.05C6.62-.5 5.8-.52 4.93-.47 3.2-.37 1 .1-.38 1.56l.75.68C1.47 1.07 3.3.64 4.97.54c.84-.06 1.6-.04 2.14 0 .28.02.5.05.66.06.07 0 .13.02.17.03.02 0 .03 0 .04 0 0 0 0 0 .1-.5z"/><path id="j" d="M.42-.26C.28-.5-.03-.56-.26-.42c-.24.14-.3.45-.16.68l.84-.52zm2.1 1.6v-.5.5zM5.3.28c.14-.24.07-.55-.16-.7-.24-.14-.54-.07-.7.16l.86.54zm-5.7 0C.2 1.28 1.34 1.9 2.55 1.84l-.04-1C1.68.88.88.45.43-.25l-.84.5zm2.97 1.58C4.3 1.8 5.2.38 5.28.27l-.85-.54C4.38-.2 3.73.8 2.5.85l.05 1z"/><path id="k" d="M4.37 2.75v-.5.5zm4.3-1.08l.43.23c.1-.16.08-.35-.02-.5l-.42.27zM4.36.24v.5c.07 0 .14-.02.2-.04l-.2-.46zm-.08 0L4.1.7c.05.02.12.04.2.04v-.5zM0 1.67l-.42-.27c-.1.15-.1.34-.02.5L0 1.67zm4.3 1.08v-.5h-.02v.5zm.07.5c1.9.02 3.05-.26 3.74-.57.36-.16.62-.35.75-.47.08-.07.14-.14.18-.18.02-.03.04-.06.04-.08 0 0 .02-.02.02-.02 0-.02 0-.02 0-.02s0 0-.44-.23-.44-.24-.44-.24 0-.02 0-.02c0 .03 0 .04-.05.07-.1.1-.2.18-.47.3-.52.23-1.52.5-3.32.48v1zm4.3-1.58c.4-.27.4-.27.4-.27 0-.02 0-.02 0-.03-.02 0-.03-.04-.05-.06-.03-.04-.1-.12-.15-.2C8.74.94 8.54.7 8.3.47 7.86.03 7.14-.5 6.27-.5v1c.47 0 .95.3 1.35.7.2.18.36.36.48.5.05.08.1.14.12.18 0 .02.02.03.03.04 0 0 0 0 0 .02 0 0 0 0 .43-.27zM6.26-.5c-.7 0-1.23.07-1.55.13-.17.03-.3.07-.4.1-.03 0-.07.02-.1.03 0 0-.02 0-.03 0 0 0-.02 0-.02.02 0 0 0 0 .2.46s.2.46.2.46.02 0 .05-.02C4.7.66 4.78.64 4.9.6c.3-.05.72-.1 1.36-.1v-1zm-1.9.24H4.3v1h.07v-1zm-.08.5c.2-.46.2-.46.2-.46-.02 0-.02 0-.02 0-.02 0-.03-.02-.05-.02-.02 0-.06-.02-.1-.04-.08-.02-.22-.06-.4-.1C3.64-.42 3.1-.5 2.4-.5v1c.64 0 1.06.05 1.35.1.13.04.22.06.28.08.03 0 .04 0 .06.02 0 0 0 0 .2-.46zM2.4-.5C1.53-.5.8.03.35.47.12.7-.08.94-.2 1.1c-.07.08-.13.16-.16.2-.02.03-.04.06-.04.07 0 0 0 0-.02.02 0 0 0 0 .42.27.42.26.42.26.42.26.02-.02.02-.03.04-.05.03-.04.07-.1.12-.17.12-.14.27-.32.47-.5.4-.4.88-.7 1.35-.7v-1zM0 1.67c-.44.23-.44.23-.44.23s0 0 0 .02c0 0 .02 0 .02.02s.03.05.05.08c.04.04.1.1.18.2.14.1.4.3.75.46.7.3 1.84.6 3.74.57l-.02-1c-1.8.02-2.8-.25-3.32-.48-.26-.12-.38-.2-.47-.3-.05-.03-.05-.04-.07-.06 0 0 0 .02 0 .02s0 .02-.43.25zm4.3 1.58h.07v-1H4.3v1z"/><path id="l" d="M.3-.4c-.24-.17-.55-.1-.7.1-.17.24-.1.55.1.7l.6-.8zM3.2 1v.5-.5zm3.55-.6c.22-.17.28-.48.12-.7-.17-.23-.48-.3-.7-.13l.57.8zM-.3.4c.45.3 1.7 1.1 3.52 1.1v-1C1.72.52.65-.16.3-.4l-.6.8zm3.52 1.1c1.83 0 3.1-.8 3.55-1.1L6.2-.42C5.82-.17 4.75.5 3.2.5v1z"/><path id="m" d="M10.17 20.15c5.6 0 10.17-4.5 10.17-10.07S15.78 0 10.17 0C4.55 0 0 4.5 0 10.08c0 5.56 4.55 10.07 10.17 10.07z"/><path id="n" d="M19.84 10.08c0 5.28-4.33 9.57-9.67 9.57v1c5.9 0 10.67-4.73 10.67-10.57h-1zm-9.67 9.57c-5.35 0-9.67-4.3-9.67-9.57h-1c0 5.84 4.78 10.57 10.67 10.57v-1zM.5 10.08C.5 4.78 4.82.5 10.17.5v-1C4.27-.5-.5 4.23-.5 10.08h1zM10.17.5c5.34 0 9.67 4.3 9.67 9.58h1C20.84 4.23 16.06-.5 10.17-.5v1z"/><path id="o" d="M7.23 14.33c4 0 7.23-3.2 7.23-7.17C14.46 3.2 11.22 0 7.23 0 3.23 0 0 3.2 0 7.16s3.24 7.17 7.23 7.17z"/><path id="p" d="M13.96 7.16c0 3.68-3 6.67-6.73 6.67v1c4.26 0 7.73-3.43 7.73-7.67h-1zm-6.73 6.67c-3.72 0-6.73-3-6.73-6.67h-1c0 4.24 3.46 7.67 7.73 7.67v-1zM.5 7.16C.5 3.5 3.5.5 7.23.5v-1C2.96-.5-.5 2.93-.5 7.16h1zM7.23.5c3.72 0 6.73 3 6.73 6.66h1c0-4.23-3.47-7.66-7.73-7.66v1z"/></defs></svg>