<svg xmlns="http://www.w3.org/2000/svg" width="38" height="45" xmlns:xlink="http://www.w3.org/1999/xlink"><title>Group</title><desc>Created using Figma</desc><g><g><g id="Vector" transform="translate(-11160 210) translate(11161 -197.964)"><use fill="#F26D85" xlink:href="#a"/><use fill="#7F1E88" xlink:href="#b"/></g><g id="Vector" transform="translate(-11160 210) translate(11164.6 -197.064)"><use fill="#F2F2F2" xlink:href="#c"/><use fill="#7F1E88" xlink:href="#d"/></g><g id="Vector" transform="translate(-11160 210) translate(11164.2 -209)"><use fill="#F26D85" xlink:href="#e"/><use fill="#7F1E88" xlink:href="#f"/></g><use id="Vector" fill="#7F1E88" xlink:href="#g" transform="translate(-11160 210) translate(11166.5 -200.877)"/><use id="Vector" fill="#7F1E88" xlink:href="#h" transform="translate(-11160 210) translate(11165.8 -199.45)"/><use id="Vector" fill="#7F1E88" xlink:href="#i" transform="translate(-11160 210) translate(11183.9 -180.477)"/><use fill="#7F1E88" xlink:href="#j" transform="translate(-11160 210) translate(11187.2 -179.129)"/></g></g><defs><path id="a" d="M19.48 14.56c-.36-5.84-3.16-8.54-4.96-8.63C12.87 5.85 4.66 5 3.34.05L2.96 0S-1.02 4.4.26 11.32c1.25 6.92 3.5 10.8 3.96 12.5.45 1.7 1.1 5.66-1 7 4.07 3.7 16.08-2.15 16.8-8.98.06-.2.12-.5.18-.83-.5-2.3-.6-4.67-.72-6.44z"/><path id="b" d="M19.48 14.56l.5-.03-.5.03zm-4.96-8.63l.02-.5-.02.5zM3.34.05l.48-.13-.08-.33-.34-.05-.06.5zM2.96 0l.06-.5-.26-.03-.17.2.36.33zm.27 30.82l-.27-.42-.55.36.5.43.33-.38zm16.8-8.98l-.5-.13v.08l.5.06zm.17-.83l.5.1v-.2l-.5.1zm-.22-6.47c-.18-3-1-5.22-2.03-6.72-1-1.48-2.3-2.3-3.4-2.37l-.06 1c.68.03 1.7.6 2.63 1.94.9 1.33 1.68 3.37 1.85 6.22l1-.07zm-5.44-9.1c-.8-.04-3.2-.26-5.57-1.1-2.4-.82-4.55-2.2-5.15-4.4l-.96.25c.73 2.73 3.32 4.26 5.78 5.1 2.48.87 5.02 1.1 5.85 1.15l.04-1zM3.4-.45L3.02-.5 2.9.5l.38.04.12-1zM2.96 0C2.6-.33 2.6-.33 2.6-.33s-.02 0-.02 0c-.02.02-.03.04-.05.06-.03.03-.08.1-.13.16-.1.13-.27.34-.46.62-.36.53-.84 1.34-1.27 2.35-.85 2-1.55 4.98-.9 8.54l.97-.17C.12 7.88.77 5.2 1.6 3.26c.4-.95.83-1.67 1.17-2.18.17-.25.3-.44.4-.57.06-.05.1-.1.12-.13 0 0 .02-.02.02-.03 0 0 0 0-.36-.34zm-3.2 11.4c.64 3.5 1.53 6.25 2.3 8.3.4 1.03.77 1.9 1.07 2.6.3.72.5 1.25.6 1.64l.98-.25c-.12-.47-.35-1.06-.65-1.78-.3-.7-.66-1.56-1.04-2.57-.77-2.04-1.63-4.7-2.26-8.12l-.98.18zm3.98 12.54c.22.84.48 2.18.43 3.5-.04 1.33-.4 2.43-1.2 2.96l.53.84c1.26-.8 1.63-2.36 1.67-3.77.05-1.42-.23-2.9-.46-3.78l-.96.24zM2.9 31.2c1.15 1.05 2.83 1.38 4.6 1.23 1.77-.14 3.77-.77 5.6-1.7 3.67-1.9 7.04-5.17 7.42-8.84l-1-.12c-.33 3.17-3.32 6.22-6.87 8.05-1.76.9-3.57 1.48-5.22 1.6-1.64.14-3-.18-3.87-.98l-.67.74zm17.6-9.23c.07-.22.13-.53.2-.87l-1-.18c-.05.33-.1.6-.16.8l.97.25zm.2-1.07c-.5-2.25-.6-4.6-.72-6.37l-1 .06c.1 1.76.22 4.18.73 6.52l1-.22z"/><path id="c" d="M15.95 13.75C15.6 7.9 12.8 5.2 10.98 5.12 9.42 5.05 1.98 4.3.06 0c-.12 1.1-.1 2.47.42 3.7 1.08 2.5 2.47 3.22 1.14 8.2 1.7.1 2.47 0 2.47 0s.17 1.6 0 2.15c.7.12 1.3.24 1.3.24L5 15.72l1.98.36s0 2.15 1.38 2.5c1.4.36 4.04-1.37 5.42-4.37.6.3 1.44.7 2.27 1.06-.04-.55-.07-1.08-.1-1.55z"/><path id="d" d="M15.95 13.75h-.12.12zm-4.97-8.63V5v.12zM.06 0l.12-.05-.2-.42-.04.46h.12zm.42 3.7l-.12.04.12-.05zm1.14 8.2l-.12-.04-.04.15.15.02.02-.13zm2.47 0l.1-.02v-.13l-.13.02.02.12zm0 2.15L3.96 14l-.05.15.15.02.02-.12zm1.3.24l.13.03.04-.13-.13-.03-.03.12zM5 15.72l-.13-.04-.04.13.14.02.02-.12zm1.98.36h.13v-.12H7l-.02.1zm6.8-1.87l.06-.1-.12-.07-.05.12.1.05zm2.27 1.06l-.05.1.2.1-.03-.2h-.12zm.03-1.56c-.2-2.94-.98-5.1-1.97-6.53C13.14 5.8 11.96 5.06 11 5l-.02.25c.85.04 1.97.7 2.93 2.1.96 1.4 1.75 3.5 1.93 6.4h.25zM10.98 5c-.77-.04-3-.25-5.3-.98C3.4 3.3 1.12 2.04.2-.05l-.23.1c.98 2.2 3.36 3.47 5.66 4.2 2.32.75 4.6.96 5.38 1V5zM-.05 0c-.12 1.1-.1 2.5.42 3.74l.23-.1C.07 2.44.06 1.1.2 0h-.26zm.42 3.74C.9 5 1.53 5.8 1.83 6.9c.3 1.1.33 2.5-.33 4.96l.24.07c.67-2.5.66-3.95.33-5.1C1.75 5.7 1.13 4.9.6 3.64l-.24.1zm1.25 8.28c.86.06 1.48.06 1.9.04.2 0 .35-.02.45-.02.05 0 .1 0 .12-.02 0 0 .02 0 .03 0 0 0 0 0 0-.13-.03-.13-.03-.13-.03-.13s-.02 0-.03 0c-.03 0-.06 0-.1.02-.1 0-.26 0-.46 0-.4.03-1 .03-1.85-.03l-.02.25zm2.5-.13c-.13 0-.13 0-.13 0 0 .02 0 .02 0 .03 0 0 0 .03 0 .05 0 .04 0 .1.02.2 0 .15.02.36.03.6 0 .23.02.48 0 .7 0 .23-.02.4-.06.53l.24.1c.06-.16.08-.38.1-.6 0-.24 0-.5-.02-.74 0-.23-.03-.45-.04-.62 0-.08 0-.14-.02-.2 0 0 0-.03 0-.04 0-.02 0-.02 0-.02s0 0-.13 0zm-.03 2.27c.36.06.7.12.93.17.12.02.22.04.3.05.02 0 .05 0 .06 0 0 0 .02 0 .02 0s0 0 .03-.1c.04-.13.04-.13.04-.13s-.02 0-.03 0c0 0-.03-.02-.07-.02-.06-.02-.16-.03-.28-.06-.24-.05-.58-.1-.94-.17l-.03.24zm1.22.1l-.43 1.42.24.06.43-1.43-.24-.07zm-.33 1.58l2 .36.03-.23-1.98-.36-.05.25zm2 .24c-.1 0-.1 0-.1 0s0 0 0 .02c0 0 0 .04 0 .07 0 .05 0 .14 0 .24.03.2.08.5.16.8.18.6.55 1.3 1.3 1.5l.07-.26c-.63-.16-.96-.73-1.13-1.3-.08-.3-.12-.56-.14-.76 0-.1-.02-.2-.02-.24 0-.03 0-.05 0-.07 0 0 0 0-.12 0zm1.36 2.63c.75.2 1.8-.18 2.82-.95 1.02-.78 2.05-1.98 2.75-3.5l-.23-.1C13 15.66 12 16.82 11 17.58c-1 .75-1.97 1.07-2.6.9l-.07.25zm5.4-4.4c.6.33 1.44.7 2.27 1.08l.1-.22c-.83-.37-1.66-.75-2.26-1.06l-.1.22zm2.44.96c-.03-.56-.07-1.08-.1-1.56l-.24.02c.03.47.06 1 .1 1.54h.24z"/><path id="e" d="M13.9.03C6.6-.4.1 3.36 0 9.65c-.1 6.3 9.57 7.28 11.38 7.37 1.8.1 4.6 2.8 4.97 8.63.36 5.84.63 18.33 15.44 12.58-3.13-1.1-6.46-3.2-6.22-6.9.17-2.58 2.2-4.8 2.97-7.25 1.5-4.8.92-10.36-1.07-14.93C25.05 3.55 19.98.4 13.9.03z"/><path id="f" d="M13.9.03l.04-.5-.03.5zm-2.52 17l.02-.5-.02.5zm20.4 21.2l.2.47 1.25-.5-1.28-.44-.16.47zm-6.2-6.9l-.5-.04.5.03zm2.97-7.25l-.48-.15.48.15zM27.48 9.15l.46-.2-.46.2zM13.94-.45C10.2-.7 6.64.14 3.98 1.9 1.3 3.65-.45 6.3-.5 9.64l1 .02C.54 6.7 2.1 4.33 4.52 2.74c2.45-1.6 5.8-2.42 9.36-2.2l.06-1zM-.5 9.64c-.05 3.46 2.6 5.4 5.3 6.48 2.7 1.06 5.64 1.34 6.55 1.4l.05-1c-.9-.05-3.67-.3-6.24-1.33C2.6 14.17.46 12.48.5 9.66l-1-.02zm11.85 7.87c.7.03 1.72.6 2.64 1.94.9 1.33 1.67 3.37 1.85 6.22l1-.06c-.2-3-1-5.22-2.03-6.73-1.02-1.5-2.3-2.32-3.42-2.38l-.05 1zm4.5 8.16c.17 2.87.33 7.6 2.38 10.87 1.04 1.67 2.58 2.96 4.84 3.45 2.25.48 5.15.15 8.9-1.3l-.36-.94c-3.65 1.42-6.33 1.7-8.32 1.26-1.96-.42-3.3-1.53-4.2-3-1.9-3-2.05-7.43-2.23-10.4l-1 .06zm16.1 12.08c-1.53-.54-3.05-1.3-4.18-2.37-1.1-1.05-1.8-2.37-1.7-4.04l-1-.07c-.12 2.03.74 3.62 2 4.82 1.26 1.17 2.96 2.02 4.55 2.58l.33-.94zm-5.87-6.4c.07-1.2.58-2.3 1.2-3.48.62-1.17 1.34-2.38 1.74-3.65l-.95-.3c-.36 1.16-1.04 2.3-1.67 3.5-.63 1.2-1.22 2.5-1.32 3.86l1 .06zm2.94-7.13c1.54-4.92.95-10.62-1.08-15.28l-.92.4c1.95 4.48 2.5 9.93 1.05 14.58l.95.3zM27.94 8.95c-2.52-5.8-7.78-9.04-14-9.4l-.06.98c5.9.36 10.8 3.4 13.14 8.82l.92-.4z"/><path id="g" d="M.42-.28c-.16-.23-.47-.3-.7-.14-.23.16-.3.47-.14.7l.84-.56zM7.5 1.17l-.07-.5H7.4l.1.5zm5.28.7c.24.13.54.03.67-.22.13-.24.03-.54-.22-.67l-.45.9zM0 0c-.42.28-.42.28-.4.28 0 0 0 0 0 .02 0 0 0 .02.02.03.02.02.05.06.08.1.06.06.17.17.3.28.26.2.7.5 1.3.72 1.22.46 3.2.75 6.28.24l-.17-1c-2.95.5-4.73.2-5.75-.17-.5-.2-.8-.4-1-.57C.54-.14.48-.2.44-.24.43-.26.42-.27.4-.28c.02 0 .02 0-.4.28zm7.56 1.66c3.23-.45 4.45-.18 5.22.2l.45-.88C12.2.45 10.7.2 7.43.68l.13.98z"/><path id="h" d="M.48-.14C.4-.4.13-.56-.14-.48c-.26.07-.42.35-.34.62l.96-.28zM11.5 5.2c.24.14.55.06.68-.2.13-.23.04-.53-.2-.67l-.48.88zM0 0c-.48.14-.48.14-.48.14 0 .02 0 .04.02.05 0 .02.02.07.04.12.04.1.1.26.2.44.16.34.46.83.9 1.3.88.98 2.36 1.95 4.75 2.04l.04-1c-2.1-.08-3.34-.92-4.06-1.7C1.05 1 .83.62.68.32.6.17.55.06.52-.03.5-.07.5-.1.5-.13c-.02 0-.02 0-.02 0s0 0-.48.13zm5.43 4.1c2.2.1 3.72.37 4.72.64.48.13.82.25 1.05.34.1.04.2.08.24.1.03 0 .04.02.05.03 0 0 0 0 .24-.43.24-.44.24-.44.24-.44-.02 0-.03 0-.03 0-.02-.02-.05-.04-.08-.05-.07-.03-.17-.08-.3-.13-.25-.1-.64-.24-1.17-.38-1.03-.27-2.65-.57-4.93-.66l-.04 1z"/><path id="i" d="M.6.1C.64-.17.46-.44.2-.5c-.27-.04-.53.13-.6.4l1 .2zm3.7 8.98c.25.12.55.02.68-.23.12-.25.02-.55-.23-.67l-.45.9zM.1 0c-.5-.1-.5-.1-.5-.1s0 .02 0 .03c0 0 0 .03 0 .05 0 .05-.02.12-.03.2-.03.18-.05.45-.06.76-.02.6.02 1.5.23 2.44C.16 5.3 1.35 7.6 4.3 9.08l.45-.9C2.1 6.88 1.08 4.85.7 3.16.5 2.3.48 1.56.5.98.53.7.55.48.57.32.56.24.58.2.58.15c0-.02 0-.03 0-.04C.6.1.6.1.1 0z"/><path id="j" d="M.6.16C.7-.1.55-.4.3-.47c-.27-.1-.56.05-.64.3L.6.17zm.8 5.13c.2.2.5.2.7 0 .2-.2.2-.5 0-.7l-.7.7zM.13 0c-.47-.16-.47-.16-.47-.16s0 0 0 .02c0 0 0 .02-.02.03 0 0-.02.05-.03.1 0 .07-.03.2-.05.35-.04.28-.07.73-.02 1.23.1 1.03.57 2.37 1.87 3.7l.7-.7C1 3.43.63 2.3.54 1.5.48 1.05.5.73.53.47.56.4.58.3.6.24.6.2.6.18.6.17c0 0 0 0-.47-.17z"/></defs></svg>