<svg xmlns="http://www.w3.org/2000/svg" width="62" height="63" xmlns:xlink="http://www.w3.org/1999/xlink"><title>podarki</title><desc>Created using Figma</desc><g><g><g id="Vector" transform="translate(-11893 -233) translate(11909.9 234)"><use fill="#F26D85" xlink:href="#a"/><use fill="#7F1E88" xlink:href="#b"/></g><g id="Vector" transform="translate(-11893 -233) translate(11922.5 234)"><use fill="#F26D85" xlink:href="#c"/><use fill="#7F1E88" xlink:href="#d"/></g><g id="Vector" transform="translate(-11893 -233) translate(11894 246.065)"><use fill="#F2F2F2" xlink:href="#e"/><use fill="#7F1E88" xlink:href="#f"/></g><g id="Vector" transform="translate(-11893 -233) translate(11897.6 258.298)"><use fill="#F2F2F2" xlink:href="#g"/><use fill="#7F1E88" xlink:href="#h"/></g><g transform="translate(-11893 -233) translate(11919.3 246.065)"><use fill="#F26D85" xlink:href="#i"/><use fill="#7F1E88" xlink:href="#j"/></g></g></g><defs><path id="a" d="M10.75 4.07c2.1 2.1 3.37 5.92 4.04 8.52.32 1.28-.86 2.45-2.16 2.12-2.6-.66-6.45-1.93-8.55-4.02C2 8.62.7 4.8.05 2.2-.27.9.9-.28 2.2.05c2.6.66 6.46 1.93 8.55 4z"/><path id="b" d="M14.8 12.6l.47-.14-.48.13zm-2.16 2.12l-.12.48.12-.48zM.06 2.2l-.5.1.5-.1zM2.2.05l.12-.5-.12.5zm8.2 4.37c.98.98 1.8 2.4 2.44 3.9.65 1.52 1.13 3.1 1.46 4.38l.97-.24c-.34-1.3-.83-2.95-1.5-4.52-.68-1.57-1.56-3.1-2.67-4.22l-.7.7zm3.9 8.28c.24.93-.6 1.77-1.53 1.54l-.25.96c1.66.43 3.18-1.07 2.75-2.74l-.97.25zm-1.53 1.54c-1.3-.33-2.88-.8-4.4-1.46-1.52-.65-2.94-1.46-3.92-2.43l-.7.7c1.1 1.1 2.65 1.98 4.23 2.65 1.58.68 3.22 1.17 4.54 1.5l.25-.96zm-8.32-3.9c-1-.97-1.8-2.38-2.45-3.9C1.35 4.94.87 3.34.54 2.07l-.97.24c.34 1.33.83 2.96 1.5 4.54.7 1.57 1.56 3.1 2.67 4.22l.7-.7zM.55 2.08C.3 1.15 1.14.3 2.07.54l.24-.97C.66-.85-.85.65-.43 2.3l.97-.23zM2.07.54c1.3.33 2.88.8 4.4 1.45C8 2.63 9.4 3.44 10.4 4.42l.7-.7c-1.1-1.12-2.66-2-4.23-2.66C5.27.4 3.64-.1 2.32-.43l-.24.97z"/><path id="c" d="M10.75 10.7c-2.1 2.1-5.94 3.36-8.55 4.02-1.3.33-2.47-.84-2.14-2.13C.72 10 2 6.15 4.1 4.06 6.2 2 10.02.72 12.63.07c1.3-.34 2.48.83 2.15 2.12-.68 2.6-1.96 6.42-4.05 8.5z"/><path id="d" d="M2.2 14.72l.12.48-.12-.48zM.06 12.6l-.5-.14.5.13zM4.1 4.06l.35.36-.36-.36zm8.54-4l-.12-.5.12.5zm2.15 2.12l.47.1-.48-.1zm-4.4 8.15c-.98.97-2.4 1.78-3.93 2.43-1.5.65-3.1 1.13-4.4 1.46l.25.96c1.32-.33 2.96-.82 4.55-1.5 1.57-.67 3.12-1.54 4.23-2.64l-.7-.7zm-8.32 3.9c-.94.22-1.77-.62-1.54-1.54l-.97-.24c-.42 1.67 1.1 3.17 2.75 2.74l-.24-.96zM.54 12.7c.33-1.27.8-2.85 1.46-4.37.65-1.5 1.46-2.92 2.45-3.9l-.7-.7c-1.12 1.1-2 2.64-2.67 4.2C.4 9.52-.1 11.16-.42 12.47l.96.25zm3.9-8.27c1-.98 2.4-1.8 3.93-2.44 1.52-.65 3.1-1.13 4.4-1.46l-.25-.97C11.2-.1 9.56.4 7.98 1.07S4.85 2.6 3.74 3.72l.7.7zm8.33-3.9c.93-.23 1.77.62 1.53 1.54l.97.24c.43-1.65-1.1-3.15-2.75-2.73l.25.97zm1.53 1.54c-.33 1.28-.8 2.86-1.46 4.37-.65 1.52-1.46 2.93-2.44 3.9l.7.72c1.1-1.1 2-2.65 2.66-4.22.68-1.58 1.17-3.2 1.5-4.53l-.96-.23z"/><path id="e" d="M58.23 12.23H1.77C.8 12.23 0 11.45 0 10.48V1.76C0 .8.8 0 1.77 0h56.46C59.2 0 60 .8 60 1.76v8.72c0 .97-.8 1.75-1.77 1.75z"/><path id="f" d="M58.23 11.73H1.77v1h56.46v-1zm-56.46 0c-.7 0-1.27-.56-1.27-1.25h-1c0 1.25 1.02 2.25 2.27 2.25v-1zM.5 10.48V1.76h-1v8.72h1zm0-8.72C.5 1.06 1.06.5 1.77.5v-1C.52-.5-.5.5-.5 1.76h1zM1.77.5h56.46v-1H1.77v1zm56.46 0c.7 0 1.27.57 1.27 1.26h1C60.5.5 59.48-.5 58.23-.5v1zm1.27 1.26v8.72h1V1.76h-1zm0 8.72c0 .7-.56 1.25-1.27 1.25v1c1.25 0 2.27-1 2.27-2.25h-1z"/><path id="g" d="M51 36.7H1.78C.8 36.7 0 35.9 0 34.94V1.76C0 .8.8 0 1.77 0H51c.98 0 1.77.8 1.77 1.76v33.18c0 .97-.8 1.76-1.76 1.76z"/><path id="h" d="M52.77 34.94h-.5.5zM51 36.2H1.78v1H51v-1zm-49.23 0c-.7 0-1.27-.56-1.27-1.26h-1c0 1.25 1.02 2.26 2.27 2.26v-1zM.5 34.94V1.76h-1v33.18h1zm0-33.18C.5 1.06 1.06.5 1.77.5v-1C.52-.5-.5.5-.5 1.76h1zM1.77.5H51v-1H1.78v1zM51 .5c.7 0 1.27.57 1.27 1.26h1C53.27.5 52.25-.5 51-.5v1zm1.27 1.26v33.18h1V1.76h-1zm0 33.18c0 .7-.56 1.26-1.26 1.26v1c1.25 0 2.27-1 2.27-2.26h-1z"/><path id="i" d="M7.63 48.93H1.77C.8 48.93 0 48.15 0 47.18V1.76C0 .8.8 0 1.77 0h5.86C8.6 0 9.4.8 9.4 1.76v45.42c0 .97-.8 1.75-1.77 1.75z"/><path id="j" d="M9.4 47.18h.5-.5zm-1.77 1.25H1.77v1h5.86v-1zm-5.86 0c-.7 0-1.27-.56-1.27-1.25h-1c0 1.25 1.02 2.25 2.27 2.25v-1zM.5 47.18V1.76h-1v45.42h1zm0-45.42C.5 1.06 1.06.5 1.77.5v-1C.52-.5-.5.5-.5 1.76h1zM1.77.5h5.86v-1H1.77v1zm5.86 0c.7 0 1.27.57 1.27 1.26h1C9.9.5 8.88-.5 7.63-.5v1zM8.9 1.76v45.42h1V1.76h-1zm0 45.42c0 .7-.57 1.25-1.27 1.25v1c1.25 0 2.27-1 2.27-2.25h-1z"/></defs></svg>