<svg xmlns="http://www.w3.org/2000/svg" width="48" height="44" xmlns:xlink="http://www.w3.org/1999/xlink"><title>Group</title><desc>Created using Figma</desc><g><g><use id="Vector" fill="#F2F2F2" xlink:href="#a" transform="translate(-11775 209) translate(11777 -209)"/><use id="Vector" fill="#7F1E88" xlink:href="#b" transform="translate(-11775 209) translate(11776 -203.138)"/><use id="Vector" fill="#7F1E88" xlink:href="#c" transform="translate(-11775 209) translate(11779.8 -190.077)"/><use id="Vector" fill="#7F1E88" xlink:href="#d" transform="translate(-11775 209) translate(11780.5 -174.947)"/><g id="Vector" transform="translate(-11775 209) translate(11797.1 -194.267)"><use fill="#F26D85" xlink:href="#e"/><use fill="#7F1E88" xlink:href="#f"/></g><g id="Vector" transform="translate(-11775 209) translate(11806.3 -195.105)"><use fill="#F2F2F2" xlink:href="#g"/><use fill="#7F1E88" xlink:href="#h"/></g><g id="Vector" transform="translate(-11775 209) translate(11810.1 -196.934)"><use fill="#F2F2F2" xlink:href="#i"/><use fill="#7F1E88" xlink:href="#j"/></g><use id="Vector" fill="#7F1E88" xlink:href="#k" transform="translate(-11775 209) translate(11802 -192.21)"/><use id="Vector" fill="#7F1E88" xlink:href="#l" transform="translate(-11775 209) translate(11803.9 -190.749)"/><use id="Vector" fill="#7F1E88" xlink:href="#m" transform="translate(-11775 209) translate(11802 -189.391)"/><use id="Vector" fill="#7F1E88" xlink:href="#n" transform="translate(-11775 209) translate(11785.2 -181.848)"/><use id="Vector" fill="#7F1E88" xlink:href="#o" transform="translate(-11775 209) translate(11799.9 -173.818)"/><use id="Vector" fill="#7F1E88" xlink:href="#p" transform="translate(-11775 209) translate(11802.1 -174.404)"/><use id="Vector" fill="#7F1E88" xlink:href="#q" transform="translate(-11775 209) translate(11805.3 -176.095)"/><use fill="#7F1E88" xlink:href="#r" transform="translate(-11775 209) translate(11807.8 -178.101)"/></g></g><defs><path id="a" d="M22 44c12.16 0 22.02-9.85 22.02-22s-9.86-22-22-22C9.84 0 0 9.85 0 22s9.85 22 22 22z"/><path id="b" d="M38.82 4.54c.25.1.54-.04.64-.3.1-.26-.04-.54-.3-.64l-.34.94zM29.2 1.3l-.12.47.12-.48zM16.03.26l.07.5-.07-.5zM.4 10.7l.45.24-.44-.24zm-.38 1.78l-.5.07.5-.07zm4.45 1.24l.3.4-.3-.4zm2.97-3.64l.4.3-.4-.3zm3.22-3.78l-.33-.38.33.38zm10.48-3.18c.27 0 .5-.2.5-.48.02-.28-.2-.5-.47-.52l-.03 1zm18.02.48c-3.2-1.18-6.55-2-9.85-2.8l-.22.97c3.3.8 6.6 1.6 9.74 2.77l.34-.94zM29.3.8C25-.23 20.44-.9 15.96-.23l.15 1c4.33-.67 8.7-.02 12.98 1L29.3.8zM15.96-.23C9.45.75 3.18 4.6-.03 10.47l.88.47C3.9 5.4 9.85 1.7 16.1.76l-.15-1zM-.03 10.47c-.33.6-.55 1.33-.44 2.08l1-.14c-.08-.46.06-.98.32-1.46l-.88-.48zm-.44 2.08c.2 1.38 1.1 2.13 2.17 2.33 1.03.2 2.2-.12 3.07-.76l-.6-.8c-.67.5-1.56.7-2.3.57-.67-.13-1.22-.57-1.35-1.5l-1 .15zm5.24 1.57c.68-.5 1.24-1.15 1.72-1.8.47-.66.9-1.34 1.34-1.94l-.8-.6c-.47.64-.9 1.32-1.36 1.94-.45.62-.9 1.17-1.5 1.6l.6.8zm3.07-3.74c1-1.33 1.93-2.65 3.15-3.7l-.67-.76c-1.3 1.14-2.3 2.54-3.3 3.86l.8.6zM11 6.68C13.82 4.17 17.35 3 21.13 3.1l.03-1c-3.95-.1-7.83 1.18-10.84 3.8l.66.75z"/><path id="c" d="M17.2.5c.27-.03.47-.27.45-.55-.03-.27-.27-.47-.55-.45l.1 1zM-.3 12.4c-.22.17-.27.48-.1.7.17.22.48.27.7.1l-.6-.8zM17.15 0c-.05-.5-.05-.5-.05-.5s0 0-.02 0c0 0-.03 0-.05 0-.04.02-.1.02-.17.04-.14.02-.36.06-.63.12-.52.13-1.3.35-2.2.74-1.8.75-4.24 2.18-6.7 4.74l.73.7c2.35-2.48 4.63-3.8 6.36-4.52.85-.36 1.55-.57 2.04-.68.25-.06.43-.1.56-.12.06 0 .1 0 .14-.02.02 0 .03 0 .03 0s0 0-.05-.5zm-9.8 5.14c-4.8 5.03-5.85 5.9-7.65 7.26l.6.8c1.86-1.4 2.95-2.33 7.76-7.37l-.72-.7z"/><path id="d" d="M-.04-.47c-.28.03-.48.27-.46.54.02.28.27.48.54.46l-.08-1zM17.14 4.5c.28-.05.47-.3.43-.57-.04-.28-.3-.47-.56-.43l.14 1zM.04.52c2.88-.23 5.5.9 8.3 2.07 2.73 1.15 5.6 2.33 8.8 1.9l-.13-1c-2.88.4-5.5-.65-8.28-1.82C6 .54 3.12-.72-.04-.47l.08 1z"/><path id="e" d="M.47.38C.23 1.04-.4 3.14.4 5.64c.76 2.38 2.4 3.7 2.96 4.1 2.47-1.16 4.93-2.32 7.4-3.5L9.23 0 .47.38z"/><path id="f" d="M.47.38l-.02-.5c-.2 0-.4.14-.45.33L.47.4zM.4 5.64l.47-.16-.48.16zm2.96 4.1l-.3.42c.16.1.35.12.52.04l-.22-.45zm7.4-3.5l.2.46c.23-.1.34-.34.28-.57l-.48.12zM9.23 0l.5-.12c-.07-.23-.28-.4-.52-.38l.03.5zM0 .2c-.25.7-.94 2.94-.08 5.6l.95-.32C.1 3.14.72 1.18.94.55L0 .2zm-.08 5.6c.8 2.52 2.54 3.9 3.15 4.36l.6-.8C3.1 8.95 1.58 7.7.86 5.47l-.95.3zm3.66 4.4c2.46-1.16 4.93-2.33 7.4-3.5l-.44-.9C8.08 6.96 5.6 8.13 3.14 9.3l.44.9zm7.66-4.07L9.72-.12l-.97.24 1.52 6.25.97-.24zM9.2-.5L.46-.12l.04 1L9.25.5l-.05-1z"/><path id="g" d="M0 .84L1.52 7.1l3.74-1.4L3.8 0 0 .84z"/><path id="h" d="M0 .84l-.1-.5C-.25.4-.36.47-.43.58-.5.7-.52.83-.5.97L0 .83zM1.52 7.1l-.48.1c.03.14.12.26.25.33.12.06.26.07.4.03l-.18-.47zm3.74-1.4l.17.48c.24-.08.38-.34.3-.6l-.47.13zM3.8 0l.5-.12c-.07-.26-.33-.43-.6-.37l.1.5zM-.5.96L1.05 7.2 2 6.97.5.72l-1 .24zm2.2 6.6l3.73-1.38-.34-.94-3.75 1.38.35.94zM5.74 5.6L4.3-.13l-.97.24 1.44 5.72.97-.25zM3.7-.5L-.1.36l.2.98L3.93.5l-.22-1z"/><path id="i" d="M1.45 7.54L0 1.84 7.62 0l4.27 4.1L1.44 7.55z"/><path id="j" d="M1.45 7.54l-.5.13c.05.13.14.24.26.3.13.08.27.1.4.05l-.15-.48zM0 1.84l-.12-.5c-.13.03-.24.12-.3.23-.08.1-.1.25-.06.38L0 1.83zM7.62 0l.35-.36c-.12-.12-.3-.17-.46-.13l.12.5zm4.27 4.1l.15.5c.16-.07.3-.2.33-.37.04-.18-.02-.35-.14-.48l-.35.36zM1.92 7.43L.48 1.72l-.96.23L.96 7.67l.97-.25zm-1.8-5.1L7.72.48l-.22-1L-.1 1.35l.24.97zM7.26.35l4.27 4.1.7-.7L7.97-.37l-.7.72zm4.46 3.28L1.3 7.07l.3.95L12.05 4.6l-.32-.96z"/><path id="k" d="M0-.5c-.28 0-.5.22-.5.5s.22.5.5.5v-1zm4.85 1c.27 0 .5-.22.5-.5s-.23-.5-.5-.5v1zM0 .5h4.85v-1H0v1z"/><path id="l" d="M-.1.18c-.27.06-.45.32-.4.6.07.26.33.44.6.38L-.1.18zm3.42.3c.27-.05.45-.3.4-.58-.07-.27-.33-.45-.6-.4l.2 1zM.1 1.17L3.32.5l-.2-1L-.1.2l.2.98z"/><path id="m" d="M-.2 1.82c-.25.1-.37.4-.26.66.1.25.4.37.65.27l-.4-.93zM5.74.46c.25-.1.37-.4.27-.65-.1-.25-.4-.37-.66-.26l.4.92zM.2 2.76L5.72.45l-.4-.92-5.52 2.28.4.93z"/><path id="n" d="M.15 4.78c-.26-.08-.54.06-.63.33-.08.27.07.55.33.63l.3-.95zm12.44 3.4l-.02.5v-.5zm8.4-2.9l-.3-.42.3.4zm3.47-2.88l.33.38-.33-.38zm3.5-1.9c.26-.04.46-.28.42-.56-.04-.27-.3-.47-.56-.44l.12 1zM-.16 5.73c4.08 1.3 8.3 2.85 12.73 2.95l.02-1C8.34 7.6 4.25 6.08.15 4.78l-.3.95zm12.73 2.95c3.2.05 6.2-1.2 8.7-3l-.57-.82c-2.42 1.74-5.12 2.9-8.1 2.82l-.02 1zm8.7-3c1.26-.9 2.4-1.9 3.52-2.9l-.66-.75c-1.12 1-2.23 1.98-3.43 2.83l.6.82zm3.52-2.9c.5-.45 1-1 1.55-1.45.55-.46 1.07-.77 1.6-.83l-.1-1C27-.4 26.3.06 25.7.56c-.58.5-1.1 1.06-1.56 1.47l.66.75z"/><path id="o" d="M.37-.33c-.18-.2-.5-.23-.7-.04-.2.18-.23.5-.04.7l.74-.66zm0 2.78c-.03.27.16.53.44.57.28.04.53-.15.57-.43l-1-.15zM0 0c-.37.33-.37.33-.37.33 0 .02.02.03.03.04.03.03.06.07.1.13.1.13.2.28.3.5.23.42.42.9.32 1.45l1 .14c.1-.8-.17-1.57-.43-2.07C.82.27.67.05.57-.1.5-.15.47-.22.43-.25.43-.28.4-.3.4-.3.4-.33.37-.33.37-.34c0 0 0 0-.38.33z"/><path id="p" d="M.02-.5c-.27 0-.5.2-.52.48 0 .27.2.5.48.52l.04-1zm3.9 3.7c.06.28.33.45.6.4.27-.06.44-.32.38-.6l-.97.2zM0 0c-.02.5-.02.5-.02.5S0 .5 0 .5C.04.5.08.5.1.5c.1.02.25.04.42.07.35.06.8.16 1.27.35.94.38 1.87 1.06 2.13 2.3L4.9 3C4.55 1.3 3.27.4 2.16-.02 1.6-.24 1.06-.36.7-.43.5-.45.3-.47.2-.48.17-.48.1-.48.1-.5c-.02 0-.03 0-.04 0C0-.5 0-.5 0-.5s0 0-.02.5z"/><path id="q" d="M-.1-.36c-.28.06-.45.33-.4.6.08.27.35.44.6.38l-.2-.98zm4.68 2.94c.1.26.37.4.63.33.27-.08.42-.36.34-.62l-.96.3zM0 .13c.1.5.1.5.1.5C.13.6.13.6.13.6s0 0 .03 0C.17.6.2.6.25.6.38.56.52.54.7.52c.37-.04.85-.05 1.37.03 1.03.15 2.08.64 2.5 2.02l.97-.3C4.94.4 3.47-.25 2.22-.42c-.6-.1-1.2-.1-1.62-.05-.2.02-.4.05-.5.07-.07 0-.12.02-.16.03 0 0-.03 0-.04 0 0 0 0 0 .1.5z"/><path id="r" d="M-.13-.23c-.27.07-.42.34-.35.6.07.28.34.44.6.36l-.25-.96zm5.47 1.88c.2.2.5.23.7.04.22-.2.23-.5.05-.7l-.76.65zM0 .25c.13.48.13.48.13.48s.02 0 .03 0C.2.73.23.7.28.7.38.68.53.65.7.62 1.1.56 1.6.5 2.17.5c1.14 0 2.4.27 3.18 1.15L6.1 1C5-.23 3.4-.5 2.15-.5c-.63 0-1.2.07-1.6.13-.2.03-.4.07-.5.1-.06 0-.1.02-.14.02 0 0-.02 0-.03 0-.02.02-.02.02-.02.02s0 0 .12.48z"/></defs></svg>