<svg xmlns="http://www.w3.org/2000/svg" width="78" height="78" xmlns:xlink="http://www.w3.org/1999/xlink"><title>Group</title><desc>Created using Figma</desc><g><g><g id="Vector" transform="matrix(.707 -.707 .707 .707 -9 25.014)"><use fill="#7F1E88" xlink:href="#a"/><use fill="#F26D85" xlink:href="#b"/></g><g id="Vector" transform="translate(-11420 814) translate(11465.1 -768.901)"><use fill="#7F1E88" xlink:href="#c"/><use fill="#F26D85" xlink:href="#d"/></g><g id="Vector" transform="matrix(.707 -.707 .707 .707 -2.9 25.014)"><use fill="#F2F2F2" xlink:href="#e"/><use fill="#F26D85" xlink:href="#f"/></g><g transform="translate(-11420 814) translate(11460.5 -773.512)"><use fill="#7F1E88" xlink:href="#g"/><use fill="#F26D85" xlink:href="#h"/></g></g></g><defs><path id="a" d="M24.05 48.1c13.3 0 24.05-10.76 24.05-24.05C48.1 10.77 37.34 0 24.05 0 10.77 0 0 10.77 0 24.05 0 37.35 10.77 48.1 24.05 48.1z"/><path id="b" d="M47.5 24.05C47.5 37 37 47.5 24.04 47.5v1.2c13.62 0 24.66-11.03 24.66-24.65h-1.2zM24.04 47.5C11.1 47.5.6 37 .6 24.04H-.6c0 13.62 11.03 24.66 24.65 24.66v-1.2zM.6 24.04C.6 11.1 11.1.6 24.06.6V-.6C10.43-.6-.6 10.42-.6 24.04H.6zM24.06.6C37 .6 47.5 11.1 47.5 24.06h1.2C48.7 10.43 37.68-.6 24.06-.6V.6z"/><path id="c" d="M30.05 30.05c-2.06 2.07-5.4 2-7.4-.1L0 5.8 5.8 0l24.14 22.64c2.12 2 2.18 5.36.1 7.4z"/><path id="d" d="M30.05 30.05l-.43-.43.43.43zm-7.4-.1l-.45.4.44-.4zM0 5.8l-.43-.42c-.23.23-.24.6 0 .84l.43-.4zM5.8 0l.42-.44c-.24-.23-.6-.22-.84 0L5.8 0zm24.14 22.64l.4-.44-.4.44zm-.32 6.98c-1.8 1.82-4.77 1.77-6.53-.1l-.9.83c2.23 2.38 5.98 2.44 8.3.14l-.88-.88zm-6.53-.1L.43 5.4l-.88.82L22.2 30.35l.9-.83zM.42 6.24l5.8-5.8-.85-.87-5.8 5.8.85.87zM5.4.44L29.5 23.1l.83-.9L6.22-.44 5.4.44zM29.5 23.1c1.87 1.75 1.92 4.7.1 6.52l.87.87c2.3-2.32 2.23-6.07-.15-8.3l-.83.9z"/><path id="e" d="M19.73 39.45c10.9 0 19.72-8.83 19.72-19.73S30.62 0 19.72 0 0 8.83 0 19.73s8.83 19.72 19.73 19.72z"/><path id="f" d="M38.84 19.73c0 10.55-8.56 19.1-19.12 19.1v1.23c11.24 0 20.34-9.1 20.34-20.34h-1.22zm-19.12 19.1C9.18 38.84.63 30.3.63 19.74H-.62c0 11.23 9.1 20.33 20.32 20.33v-1.22zM.63 19.74C.6 9.17 9.16.6 19.7.6V-.6C8.5-.6-.6 8.5-.6 19.7H.6zM19.7.6C30.3.6 38.84 9.18 38.84 19.74h1.22C40.06 8.5 30.96-.6 19.72-.6V.6z"/><path id="g" d="M8.05 5.84l-2.2 2.2C4.5 9.4 2.32 9.4 1 8.05-.33 6.73-.33 4.55 1 3.22L3.2 1C4.55-.33 6.73-.33 8.06 1c1.33 1.33 1.33 3.5 0 4.84z"/><path id="h" d="M8.05 5.84l.43.43-.43-.43zm-2.2 2.2l.42.44-.43-.43zM1 3.22l.43.44L1 3.2zM3.2 1L2.8.57 3.2 1zm4.85 0l.43-.43-.43.43zm-.43 4.4l-2.2 2.22.85.86 2.2-2.2-.85-.87zm-2.2 2.22c-1.1 1.1-2.9 1.1-4 0l-.85.86c1.57 1.57 4.13 1.57 5.7 0l-.86-.86zm-4 0c-1.08-1.1-1.08-2.9 0-3.98l-.85-.86C-1 4.35-1 6.9.57 8.48l.86-.86zm0-3.98l2.22-2.2-.86-.87-2.2 2.2.85.87zm2.22-2.2c1.1-1.1 2.9-1.1 3.98 0l.86-.87C6.9-1 4.35-1 2.78.57l.86.86zm3.98 0c1.1 1.08 1.1 2.87 0 3.97l.86.87c1.57-1.57 1.57-4.13 0-5.7l-.86.86z"/></defs></svg>