<svg xmlns="http://www.w3.org/2000/svg" width="512" height="512" viewBox="0 0 60 60" enable-background="new 0 0 60 60"><path fill="#fff" d="M48 42.9l-9.54-4.8c-.9-.44-1.46-1.34-1.46-2.35v-3.38c.23-.28.47-.6.72-.95 1.24-1.75 2.23-3.7 2.95-5.8C42.07 24.97 43 23.57 43 22v-4c0-.96-.36-1.9-1-2.63v-5.3c.06-.56.28-3.84-2.1-6.54C37.86 1.2 34.53 0 30 0s-7.85 1.2-9.9 3.53c-2.38 2.7-2.16 5.98-2.1 6.53v5.3c-.64.74-1 1.68-1 2.64v4c0 1.22.55 2.35 1.5 3.1.9 3.64 2.83 6.37 3.5 7.25v3.3c0 .97-.53 1.86-1.38 2.33l-8.92 4.86C8.8 44.42 7 47.46 7 50.76V54c0 4.75 15.04 6 23 6s23-1.25 23-6v-3.04c0-3.44-1.9-6.53-5-8.07zM51 54c0 1.36-7.4 4-21 4S9 55.36 9 54v-3.24c0-2.57 1.4-4.93 3.66-6.16l8.92-4.87c1.5-.8 2.42-2.38 2.42-4.07v-4.02l-.23-.28c-.03-.03-2.48-3-3.4-7.07l-.1-.4-.35-.23c-.57-.38-.92-1-.92-1.68v-4c0-.57.24-1.1.67-1.5l.33-.3V9.9c0-.03-.35-2.8 1.6-5.02C23.25 2.96 26.08 2 30 2c3.9 0 6.73.95 8.4 2.83 1.93 2.2 1.6 5 1.6 5.04v6.36l.33.3c.43.4.67.9.67 1.47v4c0 .87-.57 1.64-1.42 1.9l-.5.15-.16.5c-.67 2.08-1.62 4-2.83 5.7-.3.43-.6.8-.86 1.1l-.25.27v4.13c0 1.77.97 3.36 2.56 4.15l9.55 4.78c2.4 1.2 3.9 3.6 3.9 6.28V54z"/></svg>