<svg xmlns="http://www.w3.org/2000/svg" width="512" height="512" viewBox="0 0 426.667 426.667" enable-background="new 0 0 426.667 426.667"><g fill="#FBFBFA"><path d="M261.33 245.33v-64c11.4 0 22.12-4.43 30.17-12.5 8.06-8.06 12.5-18.77 12.5-30.16s-4.44-22.12-12.5-30.18c-8.06-8.06-18.77-12.5-30.17-12.5H58.67V32h202.66c28.5 0 55.28 11.1 75.43 31.24C356.9 83.4 368 110.18 368 138.67s-11.1 55.27-31.24 75.42c-20.15 20.14-46.93 31.23-75.43 31.23zM261.33 394.67H58.67v-64h202.66c11.4 0 22.12-4.44 30.17-12.5C299.56 310.1 304 299.4 304 288c0-11.4-4.44-22.1-12.5-30.17-8.06-8.06-18.77-12.5-30.17-12.5H112v-64h149.33c28.5 0 55.28 11.1 75.42 31.24C356.92 232.73 368 259.5 368 288c0 28.5-11.1 55.27-31.24 75.42-20.15 20.15-46.93 31.25-75.43 31.25zM80 64h64v298.67H80zM108.44 0h64v64h-64zM200.88 0h64v64h-64zM108.44 362.67h64v64h-64zM200.88 362.67h64v64h-64z" class="active-path"/></g></svg>