<svg xmlns="http://www.w3.org/2000/svg" viewBox="0 0 144.7 144.7"><defs><style>.cls-1,.cls-3{fill: #fff;}.cls-2{fill: #e9a917;}.cls-3{stroke: #fff;stroke-miterlimit: 10;}</style></defs><title>white</title><path d="M101.84 80.4h5.36v5.35h-5.36zM101.84 75.03h5.36v5.36h-5.36zM101.84 69.67h5.36v5.36h-5.36zM101.84 64.3h5.36v5.37h-5.36zM101.84 58.94h5.36v5.36h-5.36zM101.84 53.58h5.36v5.36h-5.36zM101.84 48.22h5.36v5.36h-5.36zM96.48 42.86h5.36v5.36h-5.36zM87 64.3v5.37h-5.36v5.36h10.73V64.3zM58.05 64.3v5.37H52.7v5.36H63.4V64.3zM91.1 37.5H48.23v5.36H96.5V37.5zM42.86 42.86h5.36v5.36h-5.36z" class="cls-1"/><path d="M101.84 91.1v-5.35h-59v5.36h-5.36v5.37h5.36v5.36h59v-5.36h5.36V91.1z" class="cls-2"/><path d="M37.5 48.22h5.36v5.36H37.5zM107.2 91.1h5.36v5.37h-5.36zM101.84 96.48h5.36v5.36h-5.36zM101.84 85.75h5.36v5.36h-5.36zM91.1 101.84H42.87v5.36H101.85v-5.36h-5.36zM53.58 85.75h48.27V80.4H42.87v5.35h5.36zM37.5 96.48h5.36v5.36H37.5zM37.5 85.75h5.36v5.36H37.5zM32.14 91.1h5.36v5.37h-5.36zM37.5 53.58v32.17h5.36V53.58zM62.17 88.43h5.36v5.36h-5.36zM77.05 88.43h5.36v5.36h-5.35zM72.35 9.1a63.24 63.24 0 1 0 63.24 63.25A63.3 63.3 0 0 0 72.34 9.1zm0 115.5a52.24 52.24 0 1 1 52.24-52.25 52.3 52.3 0 0 1-52.25 52.22z" class="cls-1"/><path d="M72.35.5a71.85 71.85 0 1 0 71.85 71.85A71.93 71.93 0 0 0 72.35.5zm0 141.76a69.9 69.9 0 1 1 69.9-69.9 70 70 0 0 1-69.9 69.9z" class="cls-3"/></svg>