<?xml version="1.0" encoding="UTF-8"?>
<svg data-name="Layer 1" viewBox="0 0 144.7 144.7" xmlns="http://www.w3.org/2000/svg">
<defs>
<style>.cls-1{
	fill: #e9a917;}
	.cls-2{
	fill: #221a26;}
	.cls-3{fill: #201824; stroke: #000; stroke-miterlimit: 10;}</style>
</defs>
<title>black</title>
<rect x="101.84" y="80.39" width="5.36" height="5.36"/>
<rect x="101.84" y="75.03" width="5.36" height="5.36"/>
<rect x="101.84" y="69.67" width="5.36" height="5.36"/>
<rect x="101.84" y="64.31" width="5.36" height="5.36"/>
<rect x="101.84" y="58.94" width="5.36" height="5.36"/>
<rect x="101.84" y="53.58" width="5.36" height="5.36"/>
<rect x="101.84" y="48.22" width="5.36" height="5.36"/>
<rect x="96.48" y="42.86" width="5.36" height="5.36"/>
<polygon points="87 64.31 87 69.67 81.64 69.67 81.64 75.03 87 75.03 92.37 75.03 92.37 69.67 92.37 64.31"/>
<polygon points="58.05 64.31 58.05 69.67 52.69 69.67 52.69 75.03 58.05 75.03 63.41 75.03 63.41 69.67 63.41 64.31"/>
<polygon points="91.11 37.5 85.75 37.5 80.39 37.5 75.03 37.5 69.67 37.5 64.31 37.5 58.94 37.5 53.58 37.5 48.22 37.5 48.22 42.86 53.58 42.86 58.94 42.86 64.31 42.86 69.67 42.86 75.03 42.86 80.39 42.86 85.75 42.86 91.11 42.86 96.48 42.86 96.48 37.5"/>
<rect x="42.86" y="42.86" width="5.36" height="5.36"/>
<path class="cls-1" transform="translate(-241.16 -120.53)" d="M343,211.64v-5.36H284v5.36h-5.36V217H284v5.36h59V217h5.36v-5.36Z"/>
<rect x="37.5" y="48.22" width="5.36" height="5.36"/>
<rect x="107.2" y="91.11" width="5.36" height="5.36"/>
<rect x="101.84" y="96.48" width="5.36" height="5.36"/>
<rect x="101.84" y="85.75" width="5.36" height="5.36"/>
<polygon points="91.11 101.84 85.75 101.84 80.39 101.84 75.03 101.84 69.67 101.84 64.31 101.84 58.94 101.84 53.58 101.84 48.22 101.84 42.86 101.84 42.86 107.2 48.22 107.2 53.58 107.2 58.94 107.2 64.31 107.2 69.67 107.2 75.03 107.2 80.39 107.2 85.75 107.2 91.11 107.2 96.48 107.2 101.84 107.2 101.84 101.84 96.48 101.84"/>
<polygon points="53.58 85.75 58.94 85.75 64.31 85.75 69.67 85.75 75.03 85.75 80.39 85.75 85.75 85.75 91.11 85.75 96.48 85.75 101.84 85.75 101.84 80.39 96.48 80.39 91.11 80.39 85.75 80.39 80.39 80.39 75.03 80.39 69.67 80.39 64.31 80.39 58.94 80.39 53.58 80.39 48.22 80.39 42.86 80.39 42.86 85.75 48.22 85.75"/>
<rect x="37.5" y="96.48" width="5.36" height="5.36"/>
<rect x="37.5" y="85.75" width="5.36" height="5.36"/>
<rect x="32.14" y="91.11" width="5.36" height="5.36"/>
<polygon points="37.5 53.58 37.5 58.94 37.5 64.31 37.5 69.67 37.5 75.03 37.5 80.39 37.5 85.75 42.86 85.75 42.86 80.39 42.86 75.03 42.86 69.67 42.86 64.31 42.86 58.94 42.86 53.58"/>
<rect class="cls-2" x="62.17" y="88.43" width="5.36" height="5.36"/>
<rect class="cls-2" x="77.05" y="88.43" width="5.36" height="5.36"/>
<path class="cls-3" transform="translate(-241.16 -120.53)" d="m313.51 129.63a63.24 63.24 0 1 0 63.24 63.24 63.31 63.31 0 0 0 -63.24 -63.24zm0 115.48a52.24 52.24 0 1 1 52.24 -52.24 52.3 52.3 0 0 1 -52.24 52.24z"/>
<path class="cls-3" transform="translate(-241.16 -120.53)" d="M313.51,121a71.85,71.85,0,1,0,71.85,71.85A71.93,71.93,0,0,0,313.51,121Zm0,141.76a69.91,69.91,0,1,1,69.91-69.91A70,70,0,0,1,313.51,262.78Z"/>
</svg>
