<svg viewBox="0 0 211 100" fill="none" xmlns="http://www.w3.org/2000/svg"><path d="M19.654 100C8.86 100 0 91.207 0 80.328V19.672C0 8.867 8.86 0 19.654 0h172.052c10.869 0 19.654 8.867 19.654 19.672v60.656c0 10.88-8.859 19.672-19.654 19.672H19.655Z" fill="#0090D4"/><path d="M131.104 90.313c-5.435 0-9.901-4.471-9.901-9.91V19.82c0-5.44 4.466-9.91 9.901-9.91h60.527c5.435 0 9.902 4.47 9.902 9.91v60.656c0 5.44-4.467 9.91-9.902 9.91h-60.527v-.074Z" fill="#fff"/><path class="logo__play-icon" d="M189.695 5.589c8.934 0 16.23 7.228 16.23 16.244 0 8.942-7.221 16.245-16.23 16.245h-24.717c-8.933 0-16.229-7.229-16.229-16.245 0-8.942 7.221-16.244 16.229-16.244h24.717Z" fill="#E62A32"/><path d="M155.523 81.67V63.337c0-3.95 3.053-7.079 6.775-7.079 1.861 0 3.574.82 4.839 2.161a6.95 6.95 0 0 1 1.862 4.099c0 .298.074.596.074.894v18.331h6.998V62.966c.149-3.726 3.127-6.707 6.775-6.707 2.755 0 5.137 1.714 6.179 4.248v.074c0 .075 0 .075.075.15.298.744.521 1.564.521 2.458V81.595h6.998v-18.48c0-5.365-3.052-9.985-7.519-12.22l-.447-.224c-.149-.075-.372-.15-.521-.224-1.638-.67-3.425-1.118-5.286-1.118-4.392 0-8.264 2.087-10.795 5.365-2.531-3.204-5.956-5.365-9.827-5.365-2.457 0-4.765.895-6.775 2.385v-1.938h-7.073V81.67h7.147ZM139.145 41.58h4.02v-7.005h-4.244c-5.583 0-10.05 4.322-10.05 10.06v5.216h-2.829v6.557h2.829v25.336h7.072V56.408h6.329v-6.557h-6.329v-4.769c.075-1.937.819-3.502 3.202-3.502Z" fill="#0090D4"/><path d="m39.756 44.113 7.147-5.067-7.147-4.992v10.06ZM17.123 34.054H9.976v47.615h22.93v-6.78H17.123V34.053ZM46.456 49.702h-7.147v31.967h7.147V49.702ZM68.865 62.072l11.54-12.37H71.62L61.048 60.954V33.979h-7.147v47.69h7.147V70.492l3.35-3.651 10.72 14.828h8.116L68.865 62.072ZM108.695 71.61c-1.34 1.862-3.648 3.353-6.402 4.023-1.638.373-3.202.448-4.616.15-.075 0-.224-.075-.298-.075h-.075c-2.159-.522-4.094-1.788-5.583-3.502-.149-.224-.298-.373-.447-.597a1.028 1.028 0 0 1-.223-.297c0-.075-.075-.075-.075-.15-.148-.223-.297-.67-.446-.894l17.197-4.173 4.318-1.043 2.308-.522c-.074-.894-.149-1.564-.372-2.533-.223-.82-.447-1.64-.819-2.385-.074-.223-.149-.372-.223-.596-3.127-7.079-10.721-11.177-18.24-9.389C86.212 51.714 81 60.507 83.159 69.45c.372 1.564.894 2.98 1.638 4.247l.894 1.341c3.722 5.44 10.273 8.271 16.825 6.707.074 0 .149-.075.223-.075.149 0 .224-.074.373-.074 3.796-.895 6.849-2.906 9.008-5.514l-3.425-4.472Zm-12.582-15.5c3.946-.968 8.339.895 10.125 4.62L89.264 64.83c0-3.95 2.904-7.75 6.85-8.719ZM165.852 31.7V12.12l12.523 8.702V12.12l14.156 9.79-14.156 9.788v-8.701l-12.523 8.701Z" fill="#fff"/></svg>