<?xml version="1.0" encoding="UTF-8"?>
<!DOCTYPE svg PUBLIC "-//W3C//DTD SVG 1.1//EN" "http://www.w3.org/Graphics/SVG/1.1/DTD/svg11.dtd"><svg xmlns="http://www.w3.org/2000/svg" xmlns:xlink="http://www.w3.org/1999/xlink"><symbol id="vk" viewBox="0 0 33 20"><path d="M17.44 19.98C6.5 19.98.26 12.48 0 0h5.48c.18 9.16 4.22 13.04 7.42 13.84V0h5.16v7.9c3.16-.34 6.48-3.94 7.6-7.9h5.16c-.86 4.88-4.46 8.48-7.02 9.96 2.56 1.2 6.66 4.34 8.22 10.02h-5.68c-1.22-3.8-4.26-6.74-8.28-7.14v7.14h-.62Z" fill="currentColor"/></symbol><symbol id="feedback" viewBox="0 0 32 32"><path fill-rule="evenodd" clip-rule="evenodd" d="M23.7 20.853l-1.868 1.899a.472.472 0 01-.201.138l-4.702 1.559h2.893a.598.598 0 110 1.196H3.896a.598.598 0 010-1.196h12.44c-.045 0-.087-.044-.125-.083l-.015-.015a.586.586 0 01-.145-.605l.36-1.092H3.897a.598.598 0 010-1.196h12.916l.843-2.534a.5.5 0 01.121-.221l5.925-5.944V6.055h-5.39c-.33 0-.591-.234-.591-.564V0H0v32h23.7V20.853zM3.897 18.467h8.45a.598.598 0 010 1.197h-8.45a.598.598 0 010-1.197zm15.926 10.169H3.896a.598.598 0 010-1.197h15.926a.598.598 0 110 1.197zM18.916.883V4.86h4.004L18.916.883zm1.418 21.193L17.566 23l.925-2.768 1.843 1.843zm1.106-.586l7.573-7.59-2.346-2.346-7.59 7.573 2.363 2.363zm7.89-12.593l2.34 2.34-1.812 1.816-2.344-2.344 1.816-1.812z" fill="currentColor"/></symbol><symbol id="yt" viewBox="0 0 26 18"><path d="M24.0197 1.65625C23.3412.45 22.6049.228125 21.1056.14375 19.608.0421875 15.842 0 12.5793 0 9.31045 0 5.54286.0421876 4.04677.142188 2.55068.228125 1.8128.448437 1.12807 1.65625.429264 2.86094.0697021 4.93594.0697021 8.58906V8.60156c0 3.63754.3595619 5.72814 1.0583679 6.92034.68473 1.2062 1.42105 1.425 2.91714 1.5265 1.49765.0875 5.26524.1391 8.53409.1391 3.2627 0 7.0287-.0516 8.5279-.1375 1.4992-.1016 2.2356-.3203 2.914-1.5266.7051-1.1921 1.0615-3.2828 1.0615-6.92028v-.00781-.00469c0-3.65468-.3564-5.72968-1.063-6.93437zM9.44958 13.2812V3.90625l7.81662 4.6875-7.81662 4.68745z" fill="currentColor"/></symbol><symbol id="tg" viewBox="0 0 26 20"><path d="M24.747 0h-.034c-.86 0-2.203.447-8.362 2.81l-1.067.415c-2.477.958-6.95 2.746-13.488 5.396-1.136.415-1.72.83-1.79 1.214-.103.734.999.99 2.41 1.404l.412.128c1.205.351 2.684.735 3.476.735.757 0 1.582-.256 2.477-.83l3.338-2.076c4.37-2.714 6.675-4.12 6.882-4.183l.069-.032c.137-.032.31-.032.412.064.138.128.138.32.104.383-.104.48-6.125 5.524-6.607 5.971l-.034.128c-1.308 1.245-2.719 2.012-.517 3.417l.517.319c1.651 1.022 2.752 1.756 4.438 2.778l.448.287c1.342.83 2.408 1.788 3.785 1.66.62-.063 1.273-.606 1.617-2.17l.034-.097c.792-3.927 2.34-12.484 2.719-15.997.034-.32 0-.702-.035-.862V.798c-.034-.16-.103-.383-.31-.51C25.367.063 24.954 0 24.748 0Z" fill="currentColor"/></symbol><symbol id="yappy" viewBox="0 0 26 25"><path fill-rule="evenodd" clip-rule="evenodd" d="M5.27 0a5 5 0 0 0-5 5v15a5 5 0 0 0 5 5h15a5 5 0 0 0 5-5V5a5 5 0 0 0-5-5h-15Zm17.09 8.488a.297.297 0 0 1-.253.346l-1.03.165c.255 1.761-.802 3.378-2.446 3.674-.448.081-.895.056-1.318-.058a.707.707 0 0 0 .105-.351c.012-.41-.327-.755-.757-.771a.775.775 0 0 0-.705.379 3.68 3.68 0 0 1-1.116-1.87l-1.329.214a.319.319 0 0 1-.366-.246.297.297 0 0 1 .254-.345l8.595-1.382a.319.319 0 0 1 .367.245Zm-10.382 1.663a.297.297 0 0 1-.252.346l-1.03.17c.252 1.759-.804 3.374-2.448 3.67-.447.08-.894.056-1.317-.058a.706.706 0 0 0 .105-.352c.012-.41-.327-.754-.757-.77a.775.775 0 0 0-.706.378 3.679 3.679 0 0 1-1.11-1.845l-1.299.213a.319.319 0 0 1-.367-.244.297.297 0 0 1 .252-.346l8.562-1.406a.319.319 0 0 1 .367.244Zm3.616 5.141c.168.044.27.21.225.369-.151.544-.42.926-.754 1.182a2.126 2.126 0 0 1-1.05.406 3.18 3.18 0 0 1-1.163-.085 2.602 2.602 0 0 1-.08-.022l-.011-.004-.011-.003-.007-.002-.002-.001h-.001l.098-.284-.099.284a.3.3 0 0 1-.2-.382.316.316 0 0 1 .398-.185h.003l.013.005.057.015a2.669 2.669 0 0 0 .919.07c.258-.031.517-.113.737-.281.219-.167.421-.434.543-.873a.313.313 0 0 1 .385-.209Z" fill="currentColor"/></symbol><symbol id="sun" viewBox="0 0 25 25"><path fill-rule="evenodd" clip-rule="evenodd" d="M12.193.18c.135-.24.48-.24.614 0l2.017 3.588a8.481 8.481 0 00-2.324-.316c-.8 0-1.584.106-2.324.317l2.017-3.59zm.307 4.78c-4.16 0-7.545 3.38-7.545 7.536s3.385 7.538 7.545 7.538 7.545-3.382 7.545-7.537c0-4.156-3.385-7.538-7.545-7.538zm7.832 12.059a9.092 9.092 0 01-3.32 3.316l3.952 1.062c.262.07.502-.169.432-.43l-1.064-3.948zM4.038 3.612a.352.352 0 00-.432.431l1.062 3.931a8.97 8.97 0 013.29-3.301l-3.92-1.06zm-3.86 8.579l3.585-2.031a8.48 8.48 0 00-.317 2.336c0 .814.106 1.598.317 2.337l-3.585-2.03a.352.352 0 010-.613zm4.49 4.828l-1.063 3.947c-.07.262.17.502.431.431l3.952-1.062a9.093 9.093 0 01-3.32-3.316zm5.478 4.205c.755.212 1.54.317 2.354.317.815 0 1.6-.105 2.354-.317l-2.048 3.598a.352.352 0 01-.612 0l-2.048-3.598zm6.89-16.543a9.104 9.104 0 013.295 3.296l1.068-3.93a.352.352 0 00-.432-.432L17.036 4.68zm7.785 7.517a.351.351 0 010 .612l-3.585 2.028c.201-.748.319-1.53.319-2.341 0-.805-.116-1.581-.315-2.324l3.581 2.025z" fill="currentColor"/></symbol><symbol id="moon" viewBox="0 0 25 25"><path d="M24.392 14.246c-.256-.064-.512 0-.736.16a9.37 9.37 0 01-2.845 1.67c-.99.385-2.078.578-3.229.578a9.38 9.38 0 01-6.649-2.761 9.46 9.46 0 01-2.75-6.677c0-1.092.193-2.151.512-3.114A8.63 8.63 0 0110.23 1.34a.822.822 0 00-.128-1.156c-.224-.16-.48-.225-.735-.16C6.649.763 4.284 2.4 2.589 4.583A12.698 12.698 0 000 12.288c0 3.499 1.407 6.677 3.708 8.988C6.01 23.588 9.143 25 12.66 25c2.941 0 5.659-1.027 7.833-2.729a12.663 12.663 0 004.475-7.03c.128-.45-.128-.899-.575-.995z" fill="currentColor"/></symbol><symbol id="mail" viewBox="0 0 33 23"><path fill-rule="evenodd" clip-rule="evenodd" d="M3.088 0h26.375c.433 0 .838.109 1.205.288L18.264 12.904a2.772 2.772 0 0 1-3.977 0L1.883.288A2.73 2.73 0 0 1 3.088 0Zm19.2 11.5 9.706-9.857c.175.375.281.79.281 1.232v17.25c0 .442-.106.857-.281 1.232L22.288 11.5ZM.559 1.643c-.176.375-.283.79-.283 1.232v17.25c0 .443.107.857.282 1.232l9.705-9.857L.557 1.643ZM19.59 14.26l1.373-1.404 9.705 9.857a2.73 2.73 0 0 1-1.205.288H3.088a2.73 2.73 0 0 1-1.205-.288l9.705-9.857 1.373 1.404a4.62 4.62 0 0 0 6.629 0Z" fill="currentColor"/></symbol><symbol id="play" viewBox="0 0 20 24"><path d="M18.056 12 1 22.234V1.766L18.056 12Z" fill="currentColor" stroke="currentColor" stroke-width="2"/></symbol><symbol id="pause" viewBox="0 0 14 24"><rect width="4" height="24" rx="1" fill="currentColor"/><rect x="10" width="4" height="24" rx="1" fill="currentColor"/></symbol><symbol id="search" viewBox="0 0 20 20"><path d="m19.756 18.578-5.688-5.688a7.878 7.878 0 0 0 1.765-4.973C15.833 3.552 12.282 0 7.917 0S0 3.552 0 7.917s3.552 7.916 7.917 7.916a7.878 7.878 0 0 0 4.973-1.765l5.688 5.688a.831.831 0 0 0 1.178 0 .832.832 0 0 0 0-1.178Zm-11.84-4.411a6.257 6.257 0 0 1-6.25-6.25 6.257 6.257 0 0 1 6.25-6.25 6.257 6.257 0 0 1 6.25 6.25 6.257 6.257 0 0 1-6.25 6.25Z" fill="currentColor"/></symbol><symbol id="home" viewBox="0 0 20 20"><path d="M19.46 8.699v-.001L11.3.539A1.829 1.829 0 0 0 9.999 0a1.83 1.83 0 0 0-1.302.54L.543 8.692l-.008.009a1.843 1.843 0 0 0 .003 2.6 1.83 1.83 0 0 0 1.279.54h.325v6.003c0 1.188.967 2.155 2.155 2.155h3.192a.586.586 0 0 0 .586-.586v-4.707c0-.542.44-.983.983-.983h1.882c.543 0 .984.44.984.983v4.707c0 .323.262.586.585.586h3.192a2.157 2.157 0 0 0 2.155-2.155v-6.004h.302a1.83 1.83 0 0 0 1.302-.54 1.844 1.844 0 0 0 0-2.602Zm-.829 1.774a.665.665 0 0 1-.473.197h-.888a.586.586 0 0 0-.586.585v6.59c0 .542-.44.983-.983.983h-2.606v-4.121a2.157 2.157 0 0 0-2.155-2.155H9.058a2.158 2.158 0 0 0-2.155 2.155v4.121H4.297a.984.984 0 0 1-.983-.983v-6.59a.586.586 0 0 0-.586-.585h-.873a.664.664 0 0 1-.488-.196.67.67 0 0 1 0-.947v-.001l8.159-8.158a.664.664 0 0 1 .473-.196c.179 0 .347.07.473.196l8.156 8.156.004.004a.67.67 0 0 1 0 .945Z" fill="currentColor"/></symbol><symbol id="home_filled" viewBox="0 0 20 20"><path d="M19.46 8.699v-.001L11.3.539A1.829 1.829 0 0 0 9.999 0a1.83 1.83 0 0 0-1.302.54L.543 8.692l-.008.009a1.843 1.843 0 0 0 .003 2.6 1.83 1.83 0 0 0 1.279.54h.325v6.003c0 1.188.967 2.155 2.155 2.155h3.192a.586.586 0 0 0 .586-.586v-4.707c0-.542.44-.983.983-.983h1.882c.543 0 .984.44.984.983v4.707c0 .323.262.586.585.586h3.192a2.157 2.157 0 0 0 2.155-2.155v-6.004h.302a1.83 1.83 0 0 0 1.302-.54 1.844 1.844 0 0 0 0-2.602Z" fill="currentColor"/></symbol><symbol id="star" viewBox="0 0 20 19"><path d="M4.476 18.702c-.219 0-.436-.066-.622-.197a1.025 1.025 0 0 1-.413-1.071l1.286-5.53L.364 8.168a1.02 1.02 0 0 1-.312-1.102c.132-.395.49-.675.914-.713l5.774-.511L9.022.63C9.191.247 9.574 0 10 0c.426 0 .81.247.977.63l2.283 5.213 5.773.511c.425.038.783.318.915.713.131.396.01.829-.311 1.102l-4.364 3.733 1.287 5.53c.094.407-.067.828-.413 1.072a1.082 1.082 0 0 1-1.169.05L10 15.65 5.02 18.555a1.085 1.085 0 0 1-.545.147ZM10 14.4c.19 0 .377.05.545.147l4.698 2.742-1.214-5.22c-.087-.371.043-.76.337-1.01l4.12-3.526-5.451-.484a1.06 1.06 0 0 1-.883-.628L10 1.5l-2.154 4.92c-.152.351-.49.592-.881.627l-5.452.483 4.12 3.526c.295.252.424.639.337 1.011l-1.214 5.22 4.699-2.741c.168-.098.356-.147.545-.147ZM6.696 5.943l-.001.002v-.002Zm6.607-.002v.002-.002Z" fill="currentColor"/></symbol><symbol id="star_filled" viewBox="0 0 20 19"><path d="M4.476 18.702c-.219 0-.436-.066-.622-.197a1.025 1.025 0 0 1-.413-1.071l1.286-5.53L.364 8.168a1.02 1.02 0 0 1-.312-1.102c.132-.395.49-.675.914-.713l5.774-.511L9.022.63C9.191.247 9.574 0 10 0c.426 0 .81.247.977.63l2.283 5.213 5.773.511c.425.038.783.318.915.713.131.396.01.829-.311 1.102l-4.364 3.733 1.287 5.53c.094.407-.067.828-.413 1.072a1.082 1.082 0 0 1-1.169.05L10 15.65 5.02 18.555a1.085 1.085 0 0 1-.545.147Zm2.22-12.759-.001.002v-.002Zm6.607-.002v.002-.002Z" fill="currentColor"/></symbol><symbol id="fire" viewBox="0 0 19 27"><path d="M5.37 26.023c.057.04.124.061.194.061a.34.34 0 0 0 .302-.488C3.783 18.64 6.876 15.286 8.2 14.222c-.112 4.491 2.305 7.86 2.423 8.007a.342.342 0 0 0 .371.125c.7-.211 1.773-.907 2.435-1.36-.185 1.8-.942 4.619-.951 4.65a.34.34 0 0 0 .534.36c.148-.115 3.624-2.84 4.744-7.422 1.133-4.619-2.039-9.129-2.163-9.317a.341.341 0 0 0-.474-.082.343.343 0 0 0-.143.31 11.953 11.953 0 0 1-1.54 6.557c.207-1.212.313-2.997.108-5.597-.52-6.552-6.471-9.394-6.532-9.421a.339.339 0 0 0-.48.351c.345 2.691-.283 3.88-1.962 7.056-.68 1.281-1.52 2.877-2.528 5.008C-1.552 21.05 5.3 25.974 5.37 26.023ZM2.651 13.737c1.002-2.118 1.842-3.706 2.515-4.983 1.57-2.972 2.292-4.338 2.102-6.81 1.432.854 5.194 3.557 5.583 8.558.35 4.477-.226 6.395-.597 7.14a1.431 1.431 0 0 1-.207.326.34.34 0 0 0 .472.49 12.287 12.287 0 0 0 3.137-7.75c.849 1.563 2.178 4.664 1.432 7.727-.737 3.015-2.6 5.225-3.684 6.304.302-1.248.74-3.256.74-4.415a.34.34 0 0 0-.542-.274c-.018.014-1.587 1.173-2.579 1.572-.54-.831-2.439-4.093-2.108-8.051a.339.339 0 0 0-.507-.324c-.05.032-5.486 3.24-3.448 11.552-1.642-1.517-4.95-5.467-2.304-11.062h-.005Z" fill="currentColor" stroke="currentColor" stroke-width="0.5"/></symbol><symbol id="fire_filled" viewBox="0 0 17 26"><path d="M4.42083 25.4175C1.59534 16.1071 7.56552 12.7076 7.56552 12.7076C7.1478 17.6757 9.97106 21.5462 9.97106 21.5462C11.0094 21.233 12.9913 19.7687 12.9913 19.7687C12.9913 21.5462 11.9456 25.4153 11.9456 25.4153C11.9456 25.4153 15.6065 22.5846 16.7589 17.8831C17.9098 13.1816 14.5666 8.46163 14.5666 8.46163C14.7681 11.7893 13.6423 15.0621 11.4368 17.5624C11.5471 17.435 11.6397 17.2936 11.7108 17.1403C12.107 16.3478 12.7432 14.2881 12.3707 9.5185C11.8463 2.82326 5.77987 0 5.77987 0C6.30275 4.07936 4.73485 5.01921 1.06209 12.7624C-2.61066 20.5042 4.42083 25.4175 4.42083 25.4175Z" fill="currentColor"/></symbol><symbol id="like" viewBox="0 0 20 20"><path d="M17.18 6.292h-4.117V3.468c0-1.354-.404-2.338-1.204-2.921-1.257-.923-2.967-.404-3.04-.38a.702.702 0 0 0-.49.67v3.407c0 2.522-2.967 3.4-3.093 3.432-.008.004-.017.004-.02.008l-.34.106a2.118 2.118 0 0 0-1.46-.584H2.13A2.126 2.126 0 0 0 0 9.333v7.329c0 1.175.955 2.13 2.13 2.13h1.286c.542 0 1.04-.204 1.416-.543a2.935 2.935 0 0 0 2.248 1.053h8.341c1.935 0 3.22-1.061 3.445-2.836l1.036-6.51.057-.35a2.828 2.828 0 0 0-2.779-3.314ZM4.146 16.666a.73.73 0 0 1-.73.73H2.13a.73.73 0 0 1-.73-.73V9.333a.73.73 0 0 1 .73-.73h1.286a.73.73 0 0 1 .73.73v7.333Zm14.43-7.276-1.094 6.872c0 .008-.004.016-.004.024-.049.4-.196 1.62-2.057 1.62h-8.34c-.846 0-1.535-.69-1.535-1.534v-7.04c0-.093-.008-.187-.02-.281l.101-.033C5.925 8.933 9.73 7.766 9.73 4.24V1.412c.404-.041.934-.013 1.306.265.416.31.628.91.628 1.791v3.526c0 .388.314.702.702.702h4.815c.784 0 1.416.637 1.416 1.416 0 .09-.008.184-.02.278Z" fill="currentColor"/></symbol><symbol id="like_filled" viewBox="0 0 20 20"><path fill-rule="evenodd" clip-rule="evenodd" d="M13.063 6.292h4.117a2.828 2.828 0 0 1 2.78 3.314l-.058.35-1.037 6.51c-.224 1.775-1.51 2.836-3.444 2.836h-8.34a2.914 2.914 0 0 1-1.581-.465V7.59c.753-.277 2.829-1.235 2.829-3.345V.836c0-.306.2-.58.49-.669.073-.024 1.783-.543 3.04.38.8.583 1.204 1.567 1.204 2.921v2.824ZM4 7.288a2.117 2.117 0 0 0-.584-.082H2.13A2.126 2.126 0 0 0 0 9.333v7.329c0 1.175.955 2.13 2.13 2.13h1.286c.202 0 .398-.029.584-.082V7.288Z" fill="currentColor"/></symbol><symbol id="radio" viewBox="0 0 20 15"><path fill-rule="evenodd" clip-rule="evenodd" d="M4.293 14.396a.962.962 0 0 1-1.364.001A9.906 9.906 0 0 1 0 7.339 9.906 9.906 0 0 1 2.929.282.964.964 0 1 1 4.29 1.647 7.99 7.99 0 0 0 1.93 7.339a7.99 7.99 0 0 0 2.362 5.693.964.964 0 0 1 .002 1.364ZM18.07 7.34a7.99 7.99 0 0 1-2.362 5.692.965.965 0 0 0 1.362 1.365A9.906 9.906 0 0 0 20 7.34 9.906 9.906 0 0 0 17.071.282a.965.965 0 0 0-1.362 1.365A7.99 7.99 0 0 1 18.07 7.34Zm-12.28 4.5a.961.961 0 0 1-.68-.282A5.921 5.921 0 0 1 3.36 7.339c0-1.593.621-3.091 1.75-4.218a.964.964 0 1 1 1.362 1.365 4.006 4.006 0 0 0-1.184 2.853c0 1.078.42 2.091 1.184 2.854a.964.964 0 0 1-.68 1.647Zm7.735-.284a.96.96 0 0 0 1.364.002 5.921 5.921 0 0 0 1.75-4.218 5.92 5.92 0 0 0-1.75-4.219.964.964 0 1 0-1.362 1.365 4.005 4.005 0 0 1 1.184 2.854c0 1.077-.42 2.09-1.184 2.853a.964.964 0 0 0-.002 1.363Zm-3.523-1.229c.766 0 1.532-.291 2.115-.873a2.967 2.967 0 0 0 .877-2.114c0-.8-.31-1.55-.877-2.115a3 3 0 0 0-4.231 0A2.967 2.967 0 0 0 7.01 7.34c0 .798.31 1.55.877 2.114.583.582 1.35.873 2.116.873ZM9.249 6.59c.208-.207.48-.31.754-.31a1.063 1.063 0 0 1 1.064 1.06c0 .283-.11.548-.311.749a1.069 1.069 0 0 1-1.507 0c-.2-.2-.31-.466-.31-.75 0-.283.11-.548.31-.749Z" fill="currentColor"/></symbol><symbol id="radio_filled" viewBox="0 0 20 15"><path fill-rule="evenodd" clip-rule="evenodd" d="M4.293 14.396a.962.962 0 0 1-1.364.001A9.906 9.906 0 0 1 0 7.339 9.906 9.906 0 0 1 2.929.282.964.964 0 1 1 4.29 1.647 7.99 7.99 0 0 0 1.93 7.339a7.99 7.99 0 0 0 2.362 5.693.964.964 0 0 1 .002 1.364ZM18.07 7.34a7.99 7.99 0 0 1-2.362 5.692.965.965 0 0 0 1.362 1.365A9.906 9.906 0 0 0 20 7.34 9.906 9.906 0 0 0 17.071.282a.965.965 0 0 0-1.362 1.365A7.99 7.99 0 0 1 18.07 7.34Zm-12.28 4.5a.961.961 0 0 1-.68-.282A5.921 5.921 0 0 1 3.36 7.339c0-1.593.621-3.091 1.75-4.218a.964.964 0 1 1 1.362 1.365 4.006 4.006 0 0 0-1.184 2.853c0 1.078.42 2.091 1.184 2.854a.964.964 0 0 1-.68 1.647Zm7.735-.284a.96.96 0 0 0 1.364.002 5.921 5.921 0 0 0 1.75-4.218 5.92 5.92 0 0 0-1.75-4.219.964.964 0 1 0-1.362 1.365 4.005 4.005 0 0 1 1.184 2.854c0 1.077-.42 2.09-1.184 2.853a.964.964 0 0 0-.002 1.363Zm-3.523-1.229c.766 0 1.532-.291 2.115-.873a2.967 2.967 0 0 0 .877-2.114c0-.8-.31-1.55-.877-2.115a3 3 0 0 0-4.231 0A2.967 2.967 0 0 0 7.01 7.34c0 .798.31 1.55.877 2.114.583.582 1.35.873 2.116.873Z" fill="currentColor"/></symbol><symbol id="news" viewBox="0 0 20 20"><path fill-rule="evenodd" clip-rule="evenodd" d="M19.286 5h-3.572V.714A.714.714 0 0 0 15 0H.714A.714.714 0 0 0 0 .714v16.429A2.857 2.857 0 0 0 2.857 20h14.286A2.857 2.857 0 0 0 20 17.143V5.714A.714.714 0 0 0 19.286 5ZM2.857 18.571c-.789 0-1.428-.64-1.428-1.428V1.429h12.857v15.714a2.832 2.832 0 0 0 .076.633c.036.162.085.32.147.474 0 .007.007.014.01.02l.023.051.046.099.022.043.014.027.045.081H2.857Zm15.714-1.428a1.428 1.428 0 1 1-2.857 0V6.429h2.857v10.714ZM10 3.57H5.714a.714.714 0 0 0 0 1.429H10a.714.714 0 0 0 0-1.429ZM3.571 7.143h8.572a.714.714 0 0 1 0 1.429H3.57a.714.714 0 1 1 0-1.43ZM12.143 10H3.57a.714.714 0 1 0 0 1.429h8.572a.714.714 0 0 0 0-1.429ZM3.57 12.857h8.572a.714.714 0 0 1 0 1.429H3.57a.714.714 0 0 1 0-1.429Z" fill="currentColor"/></symbol><symbol id="news_filled" viewBox="0 0 20 20"><path d="M19.286 5h-3.572V.714A.714.714 0 0 0 15 0H.714A.714.714 0 0 0 0 .714v16.429A2.857 2.857 0 0 0 2.857 20h14.286A2.857 2.857 0 0 0 20 17.143V5.714A.714.714 0 0 0 19.286 5ZM5.714 3.571H10A.714.714 0 1 1 10 5H5.714a.714.714 0 1 1 0-1.429Zm6.429 10.715H3.57a.714.714 0 1 1 0-1.429h8.572a.714.714 0 1 1 0 1.429Zm0-2.857H3.57a.714.714 0 1 1 0-1.429h8.572a.714.714 0 0 1 0 1.429Zm0-2.858H3.57a.714.714 0 1 1 0-1.428h8.572a.714.714 0 1 1 0 1.428Zm6.428 8.572a1.429 1.429 0 1 1-2.857 0V6.429h2.857v10.714Z" fill="currentColor"/></symbol><symbol id="video" viewBox="0 0 20 20"><circle cx="10" cy="10" r="9.4" fill="none" stroke="currentColor" stroke-width="1.2"/><path d="M14.106 9.553a.5.5 0 0 1 0 .894l-6.382 3.191A.5.5 0 0 1 7 13.191V6.809a.5.5 0 0 1 .724-.447l6.382 3.19Z" stroke="currentColor" fill="none" stroke-width="1.2"/></symbol><symbol id="video_filled" viewBox="0 0 20 20"><path fill-rule="evenodd" clip-rule="evenodd" d="M10 20c5.523 0 10-4.477 10-10S15.523 0 10 0 0 4.477 0 10s4.477 10 10 10Zm-2.276-6.362 6.382-3.19a.5.5 0 0 0 0-.895L7.724 6.362A.5.5 0 0 0 7 6.809v6.382a.5.5 0 0 0 .724.447Z" fill="currentColor"/></symbol><symbol id="like" viewBox="0 0 17 15"><path d="M13.954 4.89H10.66V2.695c0-1.052-.323-1.817-.963-2.27C8.692-.292 7.324.11 7.265.13a.547.547 0 0 0-.392.52v2.648c0 1.96-2.373 2.642-2.475 2.667-.006.003-.013.003-.016.006l-.27.083a1.721 1.721 0 0 0-1.17-.454H1.914C.974 5.597.21 6.34.21 7.253v5.695c0 .913.764 1.656 1.704 1.656h1.028c.435 0 .833-.159 1.133-.422.431.498 1.078.818 1.8.818h6.672c1.547 0 2.576-.825 2.755-2.204l.83-5.058.045-.273c.02-.127.033-.257.033-.387-.003-1.205-1.015-2.188-2.256-2.188ZM3.527 12.95a.576.576 0 0 1-.585.568H1.914a.576.576 0 0 1-.584-.568V7.253c0-.314.26-.568.584-.568h1.028c.324 0 .585.254.585.568v5.698ZM15.07 7.297l-.875 5.34c0 .007-.004.013-.004.02-.039.31-.156 1.258-1.645 1.258H5.874c-.676 0-1.227-.535-1.227-1.192v-5.47c0-.073-.007-.146-.017-.22l.082-.025c.238-.066 3.28-.973 3.28-3.713V1.097c.324-.032.748-.01 1.046.206.333.241.502.707.502 1.392v2.74c0 .302.252.546.562.546h3.852c.627 0 1.133.495 1.133 1.1 0 .07-.007.143-.016.216Z" fill="currentColor"/></symbol><symbol id="arrow" viewBox="0 0 19 10"><path d="m1 9 8.5-8L18 9" stroke="currentColor" stroke-width="1.5" stroke-linecap="round" stroke-linejoin="round" fill="none"/></symbol><symbol id="calendar" viewBox="0 0 17 17"><path opacity=".5" fill-rule="evenodd" clip-rule="evenodd" d="M15.008 1.328h-.797V0h-1.328v1.328H4.117V0H2.79v1.328h-.797A1.994 1.994 0 0 0 0 3.32v11.688C0 16.106.894 17 1.992 17h13.016A1.994 1.994 0 0 0 17 15.008V3.32a1.994 1.994 0 0 0-1.992-1.992Zm.664 13.68a.665.665 0 0 1-.664.664H1.992a.665.665 0 0 1-.664-.664V6.242h14.344v8.766Zm0-10.094H1.328V3.32c0-.366.298-.664.664-.664h.797v1.328h1.328V2.656h8.766v1.328h1.328V2.656h.797c.366 0 .664.298.664.664v1.594ZM3.852 7.637H2.523v1.328h1.329V7.637Zm1.328 0h1.328v1.328H5.18V7.637Zm3.984 0H7.836v1.328h1.328V7.637Zm1.328 0h1.328v1.328h-1.328V7.637Zm3.985 0h-1.329v1.328h1.329V7.637ZM2.523 10.293h1.329v1.328H2.523v-1.328Zm3.985 0H5.18v1.328h1.328v-1.328Zm1.328 0h1.328v1.328H7.836v-1.328Zm3.984 0h-1.328v1.328h1.328v-1.328Zm-9.297 2.656h1.329v1.328H2.523V12.95Zm3.985 0H5.18v1.328h1.328V12.95Zm1.328 0h1.328v1.328H7.836V12.95Zm3.984 0h-1.328v1.328h1.328V12.95Zm1.328-2.656h1.329v1.328h-1.329v-1.328Z" fill="currentColor"/></symbol><symbol id="rutube" viewBox="0 0 20 21"><path d="m13.469 20.461-3.816-5.786H5.798v5.786H.775V.5h8.8c5.023 0 8.371 2.718 8.371 7.03 0 2.601-1.285 4.737-3.426 5.98l4.75 6.99H13.47v-.039ZM5.837 10.21h3.7c1.946 0 3.425-1.049 3.425-2.719 0-1.63-1.518-2.64-3.426-2.64H5.837v5.359Z" fill="currentColor"/></symbol><symbol id="share" viewBox="0 0 20 21"><path d="M17.5 9.667a.833.833 0 0 0-.833.833v6.667H3.333V3.833H10a.833.833 0 1 0 0-1.666H2.5A.833.833 0 0 0 1.667 3v15a.833.833 0 0 0 .833.833h15a.833.833 0 0 0 .833-.833v-7.5a.833.833 0 0 0-.833-.833Z" fill="currentColor"/><path d="M17.817 2.233c-.277-.115-.115-.043-4.484-.066a.833.833 0 0 0 0 1.666h2.155L9.412 9.91a.833.833 0 1 0 1.178 1.178l6.077-6.075v2.154a.834.834 0 0 0 1.666 0c-.021-4.39.051-4.209-.064-4.484a.833.833 0 0 0-.451-.45Z" fill="currentColor"/></symbol></svg>