<svg viewBox="0 0 104 104" xmlns="http://www.w3.org/2000/svg"><path d="M50.286 93.567a48.08 48.08 0 0 1-1.753.033c-24.89 0-45.066-20.177-45.066-45.067S23.644 3.467 48.533 3.467c24.89 0 45.067 20.177 45.067 45.066a1.733 1.733 0 0 0 3.467 0C97.067 21.73 75.337 0 48.533 0S0 21.73 0 48.533c0 26.804 21.73 48.534 48.533 48.534.63 0 1.257-.012 1.88-.037a1.733 1.733 0 0 0 1.668-1.794 1.688 1.688 0 0 0-1.795-1.669Z" fill="#CFCFCF"/><path d="M10.724 53.508a1.735 1.735 0 0 0-3.439.45C9.747 72.594 24.39 87.267 43.018 89.77a1.734 1.734 0 0 0 .457-3.435C26.4 84.04 12.98 70.589 10.725 53.508Zm75.632-9.851a1.734 1.734 0 0 0 3.44-.44C87.383 24.467 72.626 9.703 53.877 7.28a1.734 1.734 0 1 0-.443 3.44c17.185 2.218 30.711 15.75 32.922 32.938Zm-20.489 4.876c0-9.573-7.76-17.333-17.334-17.333-9.573 0-17.333 7.76-17.333 17.333 0 9.573 7.76 17.334 17.333 17.334 9.57-.01 17.323-7.765 17.334-17.334Zm-31.2 0c0-7.658 6.208-13.866 13.866-13.866 7.659 0 13.867 6.208 13.867 13.866 0 7.659-6.208 13.867-13.867 13.867-7.654-.008-13.858-6.212-13.866-13.867Z" fill="#CFCFCF"/><path d="M58.933 48.533c0-5.743-4.656-10.4-10.4-10.4-5.743 0-10.4 4.657-10.4 10.4 0 5.744 4.657 10.4 10.4 10.4 5.742-.006 10.394-4.658 10.4-10.4Zm-17.333 0a6.934 6.934 0 1 1 13.867.001 6.934 6.934 0 0 1-13.867 0Zm61.75 3.849a1.73 1.73 0 0 0-1.459-.347l-31.2 6.933a1.733 1.733 0 0 0-1.358 1.699v27.778a8.581 8.581 0 0 0-5.2-1.778 8.667 8.667 0 1 0 8.667 8.666v-22.88l27.733-6.161v16.95a8.573 8.573 0 0 0-5.2-1.775A8.667 8.667 0 1 0 104 90.133v-36.4c0-.525-.24-1.023-.65-1.351Zm-39.217 48.151a5.2 5.2 0 1 1 0-10.4 5.2 5.2 0 0 1 0 10.4Zm8.667-38.48 27.733-6.161v6.855L72.8 68.905v-6.852Zm22.533 33.28a5.2 5.2 0 1 1 0-10.4 5.2 5.2 0 0 1 0 10.4Z" fill="#CFCFCF"/></svg>